<svg width="21" height="21" viewBox="0 0 21 21" fill="none" xmlns="http://www.w3.org/2000/svg">
<path d="M19.9741 3.89701C19.5933 3.46203 19.0505 3.22244 18.4458 3.22244H3.82701L3.67987 2.1193C3.52129 0.930916 2.69394 -1.52588e-05 1.79623 -1.52588e-05H0.722074C0.389722 -1.52588e-05 0.120361 0.269345 0.120361 0.601698C0.120361 0.93405 0.389722 1.20341 0.722074 1.20341H1.79623C1.98927 1.20341 2.39809 1.6116 2.48694 2.27834L4.20934 15.1967C4.28518 15.7661 4.57774 16.2992 5.03309 16.6978C5.37077 16.9935 5.76988 17.1902 6.18794 17.2724C6.01762 17.5857 5.92078 17.9445 5.92078 18.3254C5.92078 19.5458 6.9136 20.5384 8.1338 20.5384C9.35399 20.5384 10.3468 19.5458 10.3468 18.3254C10.3468 17.9619 10.2581 17.6189 10.1021 17.316H13.2551C13.099 17.6189 13.0103 17.9619 13.0103 18.3254C13.0103 19.5458 14.0032 20.5384 15.2233 20.5384C16.4435 20.5384 17.4364 19.5458 17.4364 18.3254C17.4364 17.9619 17.3477 17.6189 17.1916 17.316H18.7681C19.1003 17.316 19.3698 17.0465 19.3698 16.7143C19.3698 16.3819 19.1003 16.1126 18.7681 16.1126H6.62998C6.04206 16.1126 5.47984 15.6202 5.40211 15.0375L5.27629 14.0934H9.95946C9.95962 14.0934 9.95977 14.0935 9.95993 14.0935C9.96009 14.0935 9.96024 14.0934 9.96056 14.0934H13.8262C13.8264 14.0934 13.8266 14.0935 13.8269 14.0935C13.827 14.0935 13.827 14.0934 13.8272 14.0934H17.1568C17.7313 14.0934 18.2984 13.8739 18.7537 13.4754C19.2091 13.0767 19.5016 12.5435 19.5775 11.9741L20.4405 5.50096C20.5205 4.90159 20.3548 4.332 19.9741 3.89701ZM9.14339 18.3254C9.14339 18.8822 8.69054 19.335 8.1338 19.335C7.57721 19.335 7.1242 18.8822 7.1242 18.3254C7.1242 17.7688 7.57721 17.316 8.1338 17.316C8.69054 17.316 9.14339 17.7688 9.14339 18.3254ZM16.2329 18.3254C16.2329 18.8822 15.7801 19.335 15.2233 19.335C14.6666 19.335 14.2138 18.8822 14.2138 18.3254C14.2138 17.7688 14.6666 17.316 15.2233 17.316C15.7801 17.316 16.2329 17.7688 16.2329 18.3254ZM19.0685 4.68974C19.2175 4.85991 19.2811 5.09135 19.2476 5.34175L18.8858 8.0562H14.7917L15.0336 4.42586H18.4458C18.6986 4.42586 18.9197 4.51957 19.0685 4.68974ZM10.5234 12.89L10.2813 9.25962H13.5053L13.2632 12.89H10.5234ZM10.2011 8.0562L9.95915 4.42586H13.8275L13.5856 8.0562H10.2011ZM8.75306 4.42586L8.995 8.0562H4.47134L3.98731 4.42586H8.75306ZM4.6318 9.25962H9.07522L9.31732 12.89H5.11583L4.6318 9.25962ZM17.1568 12.89H14.4693L14.7114 9.25962H18.7253L18.3847 11.815C18.307 12.3978 17.7446 12.89 17.1568 12.89Z" fill="#8C8C8C"/>
</svg>
