<svg width="15" height="15" viewBox="0 0 15 15" fill="none" xmlns="http://www.w3.org/2000/svg">
<path d="M10.3124 4.7475L6.68245 8.44498L4.82244 6.57749L3.82495 7.57501L6.75743 10.5L11.4675 5.93251L10.3124 4.7475Z" fill="black"/>
<path d="M7.49998 0C3.35788 0 0 3.35788 0 7.49998C0 11.6421 3.35788 15 7.49998 15C11.6421 15 15 11.6421 15 7.49998C15 3.35788 11.6421 0 7.49998 0ZM7.49998 13.6425C4.10758 13.6425 1.35749 10.8924 1.35749 7.49998C1.35749 4.10758 4.10758 1.35749 7.49998 1.35749C10.8907 1.3616 13.6383 4.10927 13.6425 7.49998C13.6425 10.8924 10.8924 13.6425 7.49998 13.6425Z" fill="black"/>
</svg>
