<svg width="51" height="51" viewBox="0 0 51 51" fill="none" xmlns="http://www.w3.org/2000/svg">
<path d="M32.2431 10.7472C30.3188 10.7472 28.2903 11.8661 26.8073 12.6842C26.4536 12.8793 25.7459 13.3521 25.5001 13.352C25.2561 13.352 24.5511 12.8805 24.1977 12.6852C22.7196 11.8673 20.6953 10.7472 18.7572 10.7472C16.3085 10.7472 14.0606 11.7541 12.4278 13.5824C10.8801 15.3152 10.0276 17.5941 10.0276 20C10.0276 23.3648 11.231 28.1394 13.2467 32.7714C14.1448 34.8349 15.1021 36.6196 16.0153 37.9338C17.153 39.5709 18.1603 40.3668 19.095 40.3668C19.5439 40.3668 20.3632 40.1845 20.8041 38.964C21.1712 37.9486 21.5001 36.7884 21.8498 35.5541C22.6444 32.7497 23.8453 28.5114 25.4421 28.5114H25.5584C26.24 28.5114 26.8775 29.1525 27.5071 30.471C28.1767 31.8733 28.6912 33.7587 29.1892 35.5825C29.5227 36.8041 29.8377 37.9581 30.1945 38.9598C30.6275 40.175 31.4397 40.3568 31.8857 40.3571C32.8171 40.3571 33.8239 39.5494 34.9638 37.8879C35.8747 36.5599 36.8338 34.7578 37.737 32.6762C39.7629 28.0083 40.9722 23.2697 40.9722 20.0002C40.9722 17.5943 40.1198 15.3152 38.5723 13.5827C36.9397 11.7541 34.6919 10.7472 32.2431 10.7472ZM36.0122 31.9272C35.1678 33.8728 34.2448 35.6117 33.4133 36.8237C32.6732 37.9025 32.4704 38.0169 32.086 38.3612C32.0357 38.4063 31.9873 38.3865 31.9664 38.3283C31.6324 37.3957 31.3276 36.2741 31.0032 35.0857C30.484 33.1831 29.9468 31.2155 29.2044 29.6606C28.2308 27.6217 27.0381 26.6304 25.5584 26.6304H25.4421C24.0117 26.6304 22.8448 27.6138 21.8741 29.6369C21.1349 31.1777 20.5773 33.1455 20.0367 35.0534C19.6989 36.2458 19.3799 37.3717 19.0357 38.3236C19.0205 38.3655 18.9963 38.4571 18.9013 38.4289C18.6683 38.3604 18.3127 37.9433 17.5596 36.8598C16.7277 35.6627 15.8085 33.9442 14.9712 32.0206C13.0819 27.6789 11.9084 23.0727 11.9084 19.9996C11.9084 16.3758 14.47 12.6275 18.7571 12.6275C19.8649 12.6275 21.3336 13.1402 22.6856 13.9992C22.8801 14.1229 23.164 14.341 23.4384 14.5521C23.5505 14.6384 23.6609 14.7231 23.7641 14.8009C24.1 15.0523 24.5536 15.381 25.0874 15.6951C25.3701 15.8622 25.6274 16.0104 25.9177 16.1334C27.0807 16.6272 28.3139 16.8775 29.583 16.8775C30.8897 16.8775 33.5816 16.3239 33.5816 16.0228C33.5816 15.8176 30.4045 16.2023 28.1038 15.32C27.7389 15.1802 26.9946 14.9367 26.9946 14.8412C26.9946 14.7728 27.062 14.7108 27.1287 14.6707C27.2929 14.5725 27.4786 14.4614 27.718 14.3293C29.0197 13.6111 30.8025 12.6275 32.2429 12.6275C36.5298 12.6275 39.0916 16.3758 39.0916 19.9996C39.0918 22.9791 37.9117 27.5494 36.0122 31.9272Z" fill="#3BB59F"/>
<path d="M48.0289 11.9819C47.9663 10.5051 46.9005 8.93971 45.549 8.34106L27.6535 0.411372C27.0547 0.146076 26.283 0 25.4805 0C24.6779 0 23.9063 0.146076 23.3075 0.411372L5.41196 8.34106C4.05753 8.94117 2.99647 10.5101 2.94409 11.9905C2.91748 12.7367 2.33427 30.3316 5.62828 36.0961C8.90953 41.838 22.6942 50.0906 23.2793 50.439C23.8866 50.8009 24.6711 50.9999 25.4882 50.9999C26.2988 50.9999 27.0776 50.8036 27.681 50.4471C28.2717 50.0984 42.1824 41.8398 45.4649 36.0957C48.7609 30.3279 48.0605 12.7285 48.0289 11.9819ZM43.3547 34.8902C40.3902 40.0777 26.5843 48.2724 26.4454 48.3547C26.2173 48.4891 25.8597 48.5698 25.4884 48.5698C25.1138 48.5698 24.7528 48.4881 24.5231 48.3512C24.3854 48.269 10.7043 40.0798 7.73861 34.8902C5.28837 30.602 5.20026 16.9681 5.37307 12.0766C5.39239 11.533 5.89929 10.7834 6.39658 10.5631L24.2923 2.63351C24.579 2.50639 25.0234 2.43056 25.4805 2.43056C25.9379 2.43056 26.382 2.50639 26.6686 2.63351L44.5643 10.5631C45.0642 10.7846 45.5774 11.538 45.6004 12.0842C45.8065 16.974 45.8044 30.6028 43.3547 34.8902Z" fill="#3BB59F"/>
</svg>
