<svg width="47" height="51" viewBox="0 0 47 51" fill="none" xmlns="http://www.w3.org/2000/svg">
<path d="M46.0289 11.9819C45.9663 10.5051 44.9005 8.93971 43.549 8.34106L25.6535 0.411372C25.0547 0.146076 24.283 0 23.4805 0C22.6779 0 21.9063 0.146076 21.3075 0.411372L3.41196 8.34106C2.05753 8.94117 0.996473 10.5101 0.944094 11.9905C0.91748 12.7367 0.334268 30.3316 3.62828 36.0961C6.90953 41.838 20.6942 50.0906 21.2793 50.439C21.8866 50.8009 22.6711 50.9999 23.4882 50.9999C24.2988 50.9999 25.0776 50.8036 25.681 50.4471C26.2717 50.0984 40.1824 41.8398 43.4649 36.0957C46.7609 30.3279 46.0605 12.7285 46.0289 11.9819ZM41.3547 34.8902C38.3902 40.0777 24.5843 48.2724 24.4454 48.3547C24.2173 48.4891 23.8597 48.5698 23.4884 48.5698C23.1138 48.5698 22.7528 48.4881 22.5231 48.3512C22.3854 48.269 8.70425 40.0798 5.73861 34.8902C3.28837 30.602 3.20026 16.9681 3.37307 12.0766C3.39239 11.533 3.89929 10.7834 4.39658 10.5631L22.2923 2.63351C22.579 2.50639 23.0234 2.43056 23.4805 2.43056C23.9379 2.43056 24.382 2.50639 24.6686 2.63351L42.5643 10.5631C43.0642 10.7846 43.5774 11.538 43.6004 12.0842C43.8065 16.974 43.8044 30.6028 41.3547 34.8902Z" fill="#3BB59F"/>
</svg>
