<svg width="47" height="47" viewBox="0 0 47 47" fill="none" xmlns="http://www.w3.org/2000/svg">
<path d="M23.5 0C10.5425 0 0 10.5417 0 23.5C0 36.4583 10.5425 47 23.5 47C36.4575 47 47 36.4583 47 23.5C47 10.5417 36.4575 0 23.5 0ZM23.5 44.1077C12.1368 44.1077 2.89231 34.8632 2.89231 23.5C2.89231 12.1368 12.1368 2.89231 23.5 2.89231C34.8632 2.89231 44.1077 12.1368 44.1077 23.5C44.1077 34.8632 34.8632 44.1077 23.5 44.1077Z" fill="#36323D"/>
<path d="M23.5 34.5589C24.2635 34.5589 24.8824 33.94 24.8824 33.1765C24.8824 32.4131 24.2635 31.7942 23.5 31.7942C22.7366 31.7942 22.1177 32.4131 22.1177 33.1765C22.1177 33.94 22.7366 34.5589 23.5 34.5589Z" fill="#36323D"/>
<path d="M23.5 9.67651C22.737 9.67651 22.1177 10.5022 22.1177 11.5197V27.1863C22.1177 28.2037 22.737 29.0295 23.5 29.0295C24.2631 29.0295 24.8824 28.2037 24.8824 27.1863V11.5197C24.8824 10.5013 24.2631 9.67651 23.5 9.67651Z" fill="#36323D"/>
</svg>
