<svg width="180" height="125" viewBox="0 0 180 125" fill="none" xmlns="http://www.w3.org/2000/svg">
<path d="M4.94478 36.0533C4.99767 35.8134 5.14367 35.8603 5.27356 35.8688C5.98103 35.8774 6.66754 35.9221 7.37866 35.8748C7.80904 35.8467 8.24948 35.9503 8.67101 35.7718C8.94656 35.5464 9.2285 35.5086 9.50317 35.5826C9.54027 35.585 9.57859 35.5688 9.61572 35.5712C9.72947 35.5412 9.84684 35.4552 9.96302 35.3879C10.0013 35.3717 10.0397 35.3555 10.0768 35.3579C10.339 35.3375 10.5777 35.3905 10.8387 35.3888C10.9512 35.3774 11.1271 35.5386 11.1848 35.2241C11.2204 34.9644 11.0582 34.8789 10.9344 34.7773C10.8453 34.7153 10.7598 34.5974 10.6646 34.6287C10.3593 34.7398 10.0511 34.6074 9.74576 34.7186C9.45895 34.8309 9.16452 34.7743 8.89714 34.5884C8.88222 34.5313 8.88586 34.4754 8.90685 34.4393C8.75964 34.411 8.58536 34.512 8.46883 34.2985C8.32041 34.2888 8.17198 34.2791 8.02355 34.2695C7.99373 34.1552 7.84043 34.2201 7.87356 33.9976C7.95384 33.9092 8.04055 34.0085 8.12083 33.9201C8.25071 33.9286 8.36446 33.8985 8.43347 33.6971C8.56699 33.6496 8.72549 33.791 8.8316 33.592L8.81305 33.5908C8.79451 33.5896 8.77595 33.5884 8.73884 33.5859C8.71787 33.622 8.71664 33.6407 8.6771 33.6755C8.58068 33.7254 8.5089 33.6833 8.42219 33.584C8.12655 33.5461 7.86404 33.2856 7.5514 33.5086C7.34852 33.4767 7.14078 33.5193 6.9686 33.3022C7.20095 33.1676 7.41995 33.238 7.64624 33.1965C7.89108 33.1563 8.13593 33.1161 8.36221 33.0747C8.43643 33.0795 8.52799 33.1042 8.6022 33.109C9.08582 33.1218 9.58313 33.2104 10.0789 33.0367C10.1741 33.0055 10.3572 33.0549 10.3234 32.7157C10.3008 32.4896 10.2363 32.3356 10.0706 32.3061C9.88625 32.2754 9.68856 32.4497 9.51152 32.3071C9.10697 32.2246 8.71094 32.0116 8.29669 32.0783C8.14826 32.0686 7.9986 32.0776 7.86872 32.0691C7.32823 32.0713 6.78774 32.0736 6.26304 31.8335C6.13316 31.825 6.00085 31.8539 5.89924 31.6975C5.75445 31.6319 5.60724 31.6036 5.48708 31.446C5.32495 31.3606 5.25922 31.2252 5.33552 30.912C5.40939 30.636 5.44737 30.3389 5.48536 30.0419C5.50633 30.0058 5.50876 29.9685 5.52973 29.9324C5.57257 29.5608 5.76904 29.4051 5.93082 29.2097C5.93932 29.0793 5.9466 28.9674 5.9551 28.8369C6.0073 28.0354 6.07147 27.9085 6.56359 27.7908C6.9234 27.7019 7.29568 27.7074 7.52371 27.0671C7.54712 26.9937 7.6399 26.9997 7.69798 26.9661C7.79528 26.6167 7.72193 26.3124 7.6869 25.9919C7.52235 25.9438 7.32709 26.0808 7.1759 25.8276C6.8988 25.7908 6.72417 25.611 6.77671 25.0902C6.67753 24.8966 6.57714 24.7215 6.47796 24.5279C6.432 24.3751 6.5123 24.2868 6.55669 24.1773C6.61236 24.181 6.64945 24.1834 6.70512 24.187C7.41346 23.8962 8.08835 23.547 8.80797 23.3692C9.71676 23.1476 10.6271 23.1882 11.5246 22.8535C12.1725 22.6336 12.8553 22.7342 13.5305 22.6659C14.5063 22.5609 15.4957 22.5318 16.4864 22.484C16.4888 22.4467 16.4924 22.3908 16.4949 22.3535C16.8708 22.3031 17.2455 22.2713 17.6126 22.0706C17.6509 22.0544 17.6892 22.0382 17.7276 22.0219C17.7877 21.6702 17.6079 21.284 17.3357 21.1727C16.9917 21.0193 16.6319 21.1082 16.2939 20.8615C15.9462 20.764 15.5937 20.741 15.2585 20.7379C14.9048 20.7336 14.6684 20.6433 14.512 20.1839C14.3867 19.82 14.2108 19.6588 13.9462 19.7164C13.8906 19.7128 13.8535 19.7104 13.7978 19.7068C13.6518 19.6598 13.507 19.5942 13.3796 19.5485C13.3348 19.3771 13.1666 19.3849 13.149 19.0842C13.4781 19.1805 13.7734 18.9377 14.0678 18.9943C14.0888 18.9582 14.1073 18.9594 14.1247 18.9793C14.2433 18.8747 14.3485 18.9751 14.4748 19.0395C14.6369 19.1249 14.851 19.2699 14.9919 19.1106C15.334 18.721 15.6889 18.7067 16.0661 18.6377C16.0846 18.6389 16.1217 18.6413 16.1403 18.6425C16.2945 18.2782 16.5369 18.2752 16.7656 18.1965C16.9177 18.1503 17.0177 18.0445 17.0706 17.8045C17.1235 17.5646 17.0134 17.5387 16.9081 17.4383C16.7323 17.2771 16.9598 17.217 16.9671 17.1051C16.8937 16.8008 16.755 16.642 16.5534 16.5915C16.3541 16.5036 16.4365 16.0971 16.2804 15.9185C16.0365 15.6592 16.0954 15.3261 16.3536 15.0808C16.4117 15.0472 16.4512 15.0123 16.5105 14.96C16.6501 14.8194 16.7639 14.7893 16.8372 15.0936C16.8336 15.1495 16.8126 15.1856 16.7916 15.2217C16.7904 15.2403 16.7904 15.2403 16.7892 15.259C16.7904 15.2403 16.7928 15.2031 16.8126 15.1856C16.9421 14.9133 17.1188 14.775 17.3092 14.7125C17.4044 14.6813 17.5008 14.6314 17.527 14.8016C17.5641 14.804 17.5827 14.8052 17.6186 14.8263C17.6371 14.8275 17.6545 14.8473 17.6916 14.8497C17.83 14.7277 17.9683 14.6057 18.1253 14.4849C18.1265 14.4662 18.1265 14.4662 18.1277 14.4476C18.2782 14.1391 18.433 14.3364 18.6 14.3473C18.6025 14.31 18.6049 14.2727 18.6271 14.218C18.8695 14.2151 19.0837 14.3601 19.2966 14.5237C19.3535 14.5087 19.4265 14.5322 19.5007 14.537C19.804 14.7439 20.1251 14.3905 20.4369 14.4669C20.4046 14.3899 20.4095 14.3154 20.4527 14.2246C20.6567 14.2379 20.8423 14.25 21.0476 14.2446C21.0662 14.2458 21.0847 14.247 21.1206 14.2681C21.4549 14.5707 21.8406 14.3711 22.208 14.4512C22.7409 14.28 23.2862 14.2032 23.8291 14.1637C24.2531 13.9479 24.6859 13.8825 25.0932 14.2086C25.3235 14.392 25.5635 14.4264 25.8104 14.0681C25.9141 13.9063 26.071 13.7855 26.1751 13.9046C26.4549 14.1849 26.7627 14.0365 27.041 14.0546C27.3592 14.3187 27.7227 14.1739 28.0728 14.2341C28.1099 14.2365 28.1655 14.2402 28.2039 14.2239C28.3608 14.1031 28.5141 14.0382 28.6689 14.2355C28.6875 14.2367 28.706 14.2379 28.7246 14.2391C28.748 14.1658 28.769 14.1297 28.8036 14.1694C28.842 14.1532 28.8976 14.1568 28.936 14.1406C28.9569 14.1045 28.9965 14.0696 29.0175 14.0336C29.2051 13.7275 29.447 14.3049 29.6258 13.8485C29.6455 13.8311 29.6641 13.8323 29.6826 13.8335C29.9174 13.6616 30.134 13.7693 30.3578 13.7652C30.3764 13.7664 30.3962 13.749 30.4321 13.77C30.6866 13.5807 30.9193 13.7269 31.1815 13.7065C31.2247 13.6157 31.2432 13.6169 31.2803 13.6193C31.4014 13.4775 31.5288 13.5232 31.6587 13.5317C32.0149 13.4987 32.344 13.595 32.6448 13.8392C33.0329 13.6024 33.4411 13.629 33.8295 13.673C33.9703 13.5137 34.1349 13.5619 34.2821 13.5902C34.3006 13.5914 34.3204 13.574 34.3575 13.5764C34.4983 13.4171 34.6617 13.4839 34.8101 13.4935C35.7725 13.5936 36.7394 13.3384 37.6929 13.2882C38.5908 13.2343 39.4834 12.9742 40.395 12.9961C41.4748 13.0103 42.5643 12.8753 43.6452 12.8708C44.3168 12.8584 44.9771 12.7329 45.6354 12.9256C45.6551 12.9081 45.6737 12.9093 45.7084 12.949C45.9633 13.0405 46.2215 12.7953 46.4776 12.8681C46.9886 13.0324 47.5178 12.9171 48.0349 12.9882C48.6447 13.0654 49.2491 12.6555 49.8589 12.7326C50.7842 12.8303 51.7094 12.928 52.6158 12.7437C54.1627 12.4513 55.634 13.0339 57.1539 12.8708C58.0171 12.7772 58.8891 12.834 59.745 12.8523C59.8007 12.8559 59.8378 12.8583 59.8935 12.862C60.4029 12.7641 60.9139 12.9284 61.4112 13.017C61.9828 13.1104 62.5297 13.2957 63.1145 13.1841C63.4163 13.1288 63.7131 13.1482 64.0298 13.1501C64.2895 13.167 64.5125 13.4623 64.7808 13.3487C65.316 13.1402 65.8392 13.1181 66.3159 13.5236C66.3344 13.5248 66.3518 13.5447 66.3703 13.5459C66.5373 13.5567 66.7229 13.5688 66.8898 13.5797C66.9096 13.5623 66.9455 13.5833 66.9641 13.5845C67.0197 13.5882 67.0939 13.593 67.1484 13.6153C67.2947 13.943 67.4626 13.6544 67.6134 13.6268C67.5961 13.607 67.5961 13.607 67.5788 13.5871C67.4792 13.1126 67.418 12.6219 67.1999 12.252C67.0475 12.0175 67.1004 11.7775 67.2968 11.6219C67.5143 11.4301 67.7579 11.4085 67.9967 11.4615C68.3827 11.5428 68.7449 11.4166 69.0721 10.9699C69.3981 10.5419 69.7233 10.4133 70.0491 10.8464C70.1346 10.9643 70.2003 11.0996 70.2672 11.2163C70.3329 11.3516 70.4059 11.3751 70.5084 11.232C70.7505 10.9482 70.9901 10.7017 71.1516 10.2255C71.2452 9.9321 71.4517 9.90811 71.6397 9.88291C71.8833 9.86133 72.11 10.1007 72.3572 10.0232C72.9086 9.85323 73.4257 9.92434 73.9085 10.2366C74.1944 10.4237 74.4703 10.4791 74.7534 10.4227C75.206 10.3398 75.6206 10.554 76.0647 10.6017C76.4942 10.873 76.8733 11.347 77.304 11.5997C77.3411 11.6021 77.3584 11.6219 77.3943 11.643C77.6593 11.8662 77.8859 12.1056 78.1618 12.161C79.1738 12.3579 80.1797 12.6481 81.2296 12.548C81.7169 12.5048 82.1835 12.7786 82.672 12.7168C83.2544 12.6424 83.8332 12.6239 84.4133 12.5868C85.1986 12.5444 85.9879 12.7268 86.7781 12.6098C87.8886 12.4387 88.9869 12.4541 90.067 12.7491C90.1586 12.7738 90.234 12.76 90.3143 12.6716C90.4982 12.4215 90.7011 12.4534 90.925 12.4493C91.1489 12.4452 91.3715 12.4597 91.5805 12.3984C92.5139 12.0848 93.4476 12.052 94.3762 11.8129C94.6344 11.5677 94.9066 11.679 95.1898 11.6226C95.4379 11.2456 95.7029 11.4688 95.9663 11.4298C96.6427 11.3428 97.2991 10.9924 97.9606 10.8483C98.8867 10.6465 99.8104 10.482 100.734 10.3175C101.093 10.2473 101.435 9.85772 101.793 10.0869C102.249 9.94817 102.706 9.79076 103.16 9.68927C104.331 9.44729 105.513 9.31837 106.694 9.20808C108.025 9.08882 109.369 8.76451 110.705 8.57068C110.949 8.53047 111.262 8.30746 111.393 8.87757C111.421 9.01048 111.534 8.99909 111.561 8.86981C111.769 8.24688 112.071 8.47248 112.353 8.43468C112.429 8.42087 112.506 8.36978 112.581 8.37462C112.996 8.28935 113.424 8.2985 113.836 8.26916C113.875 8.2343 113.896 8.19822 113.935 8.182C115.452 8.05618 116.93 7.96523 118.404 7.9302C118.983 7.91173 119.536 8.00391 120.141 7.8748C121.161 7.66044 122.179 7.76418 123.207 7.71879C124.179 7.66978 125.128 7.97495 126.105 7.85137C126.593 7.78958 127.108 7.89798 127.629 7.91317C128.056 7.92232 128.476 8.06196 128.909 7.99655C129.582 7.96548 130.232 7.98913 130.894 8.12584C130.91 8.16433 130.908 8.20161 130.887 8.23769C131.093 8.2137 131.231 8.67196 131.45 8.46156C131.869 8.03954 132.204 8.32348 132.541 8.58877C132.578 8.59119 132.632 8.61345 132.669 8.61587C132.912 8.33211 133.158 8.27326 133.429 8.40323C133.958 8.28793 134.487 8.45346 135.008 8.46865C135.602 8.50732 136.219 8.47263 136.816 8.45538C138.047 8.44192 139.236 8.78144 140.426 9.10232C140.442 9.14081 140.44 9.17809 140.419 9.21416C140.74 9.1415 141.035 9.47894 141.371 9.18258L141.354 9.16273C141.366 8.97632 141.428 8.88674 141.537 8.93127C141.705 8.92351 141.842 9.10094 142.028 9.11303C142.676 9.17396 143.321 9.29082 143.947 9.40647C144.057 9.43236 144.162 9.53281 144.287 9.61584C144.359 9.65795 144.428 9.73735 144.486 9.70369C144.945 9.52764 145.409 9.55785 145.849 9.66141C146.308 9.76619 146.795 9.72304 147.252 9.86509C147.309 9.85008 147.362 9.89099 147.417 9.91325C147.938 9.9098 148.427 10.1288 148.899 10.328C149.604 10.6548 150.293 10.943 151.061 10.8807C151.399 10.8465 151.777 10.7589 152.06 11.0019C152.29 11.1854 152.489 11.2732 152.748 11.3088C153.653 11.4239 154.52 11.8547 155.394 12.1551C155.629 12.264 155.908 12.2821 156.161 12.3922C156.704 12.6522 157.303 12.5976 157.818 12.9869C157.834 13.0254 157.832 13.0626 157.811 13.0987C158.091 13.379 158.462 13.1224 158.741 13.4027C158.76 13.4039 158.779 13.4051 158.814 13.4261C158.926 13.4334 159.054 13.4605 159.166 13.4677C159.41 13.727 159.229 14.2206 159.318 14.5634C159.337 14.5646 159.355 14.5659 159.374 14.5671C159.41 14.5881 159.407 14.6254 159.386 14.6615C159.464 14.8912 159.619 14.8077 159.749 14.8161C160.047 14.8168 160.162 15.049 160.178 15.6678C159.915 15.1265 159.74 15.8077 159.525 15.6814C159.345 15.2953 159.074 15.1653 158.785 15.3149C158.592 15.4147 158.489 15.277 158.391 15.0647C158.111 14.5035 157.81 14.5401 157.509 15.157C157.444 15.3025 157.379 15.448 157.273 15.3476C157.032 15.051 156.736 15.2939 156.485 15.1465C156.443 15.2186 156.398 15.3467 156.327 15.2859C155.941 14.9238 155.485 15.3434 155.092 15.0745C155.075 15.0546 155.033 15.1268 155.012 15.1629C154.743 15.2951 154.466 15.2583 154.213 15.1295C154.217 15.0736 154.219 15.0363 154.241 14.9816C154.225 14.9431 154.192 14.8848 154.176 14.8463C154.09 14.7284 154.023 14.6117 153.938 14.4938C153.494 13.8659 153.494 13.8659 153.143 14.6854C152.892 14.8188 152.696 14.6751 152.482 14.5301C152.374 14.4669 152.232 14.6449 152.132 14.4698C152.075 14.4849 152.021 14.4626 151.99 14.367C151.952 14.3645 151.933 14.382 151.896 14.3796C151.84 14.3759 151.75 14.3326 151.727 14.3873C151.415 14.8912 151.094 14.6644 150.811 14.44C150.546 14.2168 150.372 14.5986 150.179 14.6984C150.141 14.7146 150.207 14.8499 150.261 14.8722C150.297 14.8932 150.295 14.9305 150.293 14.9491C150.312 14.9504 150.33 14.9516 150.349 14.9528C150.359 15.0845 150.3 15.1368 150.242 15.1704C150.205 15.168 150.167 15.1656 150.13 15.1632C150.036 15.1758 149.927 15.1312 149.832 15.1625C149.764 15.0644 149.715 14.9676 149.646 14.8696C149.599 14.7355 149.524 14.7493 149.431 14.7432L149.432 14.7246C148.93 14.7106 149.352 14.2327 149.332 13.9693C149.299 13.9109 149.304 13.8364 149.326 13.7816C149.265 13.8526 149.191 13.8478 149.118 13.8243C149.012 13.7425 148.861 13.7701 148.781 13.559C148.801 13.5416 148.821 13.5241 148.822 13.5055C148.788 13.4658 148.771 13.4273 148.757 13.3702L148.758 13.3515C148.454 13.444 148.195 13.6893 147.966 14.0675C147.716 14.4631 147.207 14.5609 146.962 14.3203C146.946 14.2818 146.911 14.2421 146.895 14.2036C146.876 14.2024 146.858 14.2012 146.858 14.2012C146.703 14.2848 146.535 14.2925 146.387 14.2829C146.165 14.2497 146.08 14.4127 146.097 14.732C146.105 15.1818 145.986 15.5672 145.815 15.9117C145.832 15.9316 145.832 15.9316 145.849 15.9514C145.868 15.9526 145.888 15.9352 145.888 15.9352C146.052 15.7025 146.219 15.4326 146.448 15.6347L146.446 15.6533C146.49 15.5626 146.53 15.509 146.587 15.494L146.606 15.4952C146.612 15.402 146.655 15.3112 146.737 15.4851C146.77 15.5434 146.785 15.6005 146.8 15.6577C146.818 15.6775 146.853 15.6986 146.872 15.6998C146.908 15.7208 146.926 15.722 146.962 15.7431C146.999 15.7455 147.037 15.7479 147.075 15.7317C147.134 15.6794 147.175 15.6259 147.229 15.6482C147.287 15.6145 147.346 15.5809 147.401 15.5845C147.644 15.5815 147.878 15.4096 148.112 15.5372C148.236 15.6389 148.365 15.666 148.493 15.6931C148.731 15.4839 148.833 15.6216 148.91 15.87C148.928 15.8898 148.965 15.8922 148.982 15.9121C149.106 16.0138 149.238 15.9849 149.373 15.9188C149.392 15.92 149.392 15.92 149.41 15.9212C149.647 15.712 149.862 15.857 150.06 15.9635C150.292 16.1097 150.54 16.0322 150.783 16.0107C150.914 16.0005 151.069 15.9169 151.128 16.1455C151.166 16.1479 151.203 16.1503 151.257 16.1726C151.293 16.1936 151.31 16.2135 151.345 16.2532C151.362 16.273 151.361 16.2917 151.378 16.3115C151.397 16.3127 151.414 16.3326 151.433 16.3338C151.604 16.2887 151.787 16.3381 151.949 16.4235C151.967 16.4247 151.986 16.4259 152.022 16.447C152.019 16.4843 152.017 16.5216 152.015 16.5589C152.19 16.7201 152.346 16.8987 152.571 16.8759C152.571 16.8759 152.571 16.8759 152.573 16.8573C152.634 16.7677 152.689 16.79 152.741 16.8495C152.797 16.8531 152.867 16.9139 152.925 16.8802C153.603 16.4938 154.172 16.9053 154.786 17.2073C155.252 17.2003 155.729 17.0254 156.176 17.3166C156.25 17.3214 156.306 17.3251 156.38 17.3299C156.812 17.2831 157.249 17.1431 157.653 17.2443C158.405 17.4243 159.177 17.3061 159.936 17.3743C160.621 17.4376 161.318 17.3332 162.009 17.3034C162.849 17.2832 163.705 17.3015 164.548 17.2254C165.692 17.1127 166.799 17.2784 167.933 17.3148C168.64 17.3421 169.36 17.4451 170.057 17.6029C170.608 17.7323 170.759 17.7047 171.163 18.0867C171.09 18.0632 171.035 18.0409 170.978 18.056C169.797 18.1663 168.633 18.2964 167.454 18.388C167.005 18.415 166.534 18.4966 166.117 18.3197C165.662 18.1403 165.324 18.474 164.938 18.6735C165.222 18.8979 165.613 18.6052 165.8 19.1789C165.816 19.2174 165.812 19.2733 165.791 19.3094C166.063 19.7202 166.139 20.268 166.156 20.8682C166.168 21.2434 166.25 21.4172 166.46 21.3373C166.766 21.2261 167.058 21.32 167.359 21.2648C167.944 21.1531 168.516 21.2465 169.093 21.2467C169.875 20.9793 170.665 21.1431 171.462 20.9329C171.527 21.0682 171.621 21.0556 171.733 21.0629C172.833 21.041 173.931 20.7755 175.025 21.1463C175.098 21.1698 175.197 21.0826 175.275 21.0315C175.292 21.0514 175.291 21.07 175.29 21.0886L175.274 21.0501C175.417 20.8535 175.569 20.8073 175.735 20.8368C176.27 20.9091 176.814 20.851 177.355 20.8487C177.862 20.7881 178.381 20.5412 178.897 20.6309C179.1 20.6628 179.283 20.7122 179.496 20.595C179.498 20.5577 179.518 20.5403 179.519 20.5217C179.724 20.5163 179.947 20.5308 180.152 20.5255C180.136 20.487 180.139 20.4497 180.161 20.395C180.299 20.2729 180.446 20.3012 180.596 20.2923C180.913 20.2942 181.242 20.3905 181.567 20.2619C182.184 20.2272 182.786 20.1354 183.395 20.2312C183.635 20.2655 183.892 20.3197 184.136 20.2982C185.072 20.2281 186.014 20.0648 186.933 20.2557C187.34 20.3009 187.823 20.3324 188.274 20.2682C188.727 20.1853 188.931 20.1986 189.032 20.9353C189.273 20.6702 189.557 20.5951 189.808 20.4617C190.349 20.16 190.741 20.4475 191.073 21.0682C191.108 21.1079 191.142 21.1476 191.177 21.1873C191.361 20.9372 191.451 20.4189 191.729 20.437C192.528 20.4703 193.266 20.874 194.092 20.7781C194.617 20.7187 195.229 20.4777 195.689 21.1442C195.722 21.2025 195.837 21.1538 195.911 21.1587C196.396 21.1528 196.918 21.1494 197.422 21.1447C197.611 21.3817 197.85 21.1538 198.048 21.2603C198.208 21.0836 198.355 21.1119 198.511 21.2906C199.471 21.428 200.448 21.3044 201.391 21.7027C201.573 21.7708 201.769 21.9145 201.981 21.7973C202.265 22.0217 202.571 21.8919 202.865 21.9672C203.139 22.0412 203.395 22.1141 203.374 22.7304C203.362 22.9169 203.429 23.0335 203.517 23.1141C203.578 23.0246 203.66 22.9175 203.735 22.9037C203.959 22.8996 204.198 22.9526 204.229 23.329C204.288 23.857 203.97 23.5929 203.846 23.7721C203.605 23.7564 203.364 23.7407 203.122 23.7436C202.524 23.7609 201.927 23.4973 201.336 24.2638C201.092 24.5849 200.678 24.6515 200.437 24.0555C200.327 24.0296 200.193 24.0771 200.082 24.0698C199.727 24.0841 199.549 24.8213 199.146 24.7015C199.036 24.6757 198.908 24.6486 198.798 24.6227C198.723 24.6178 198.598 24.5348 198.608 24.6665C198.68 24.9894 198.472 25.3315 198.601 25.6395C198.598 25.6768 198.596 25.714 198.594 25.7513C198.705 25.7586 198.816 25.7658 198.946 25.7743C199.002 25.7779 199.056 25.8002 199.093 25.8026C199.223 25.811 199.358 25.7449 199.457 25.9386C199.937 26.0073 200.416 26.0946 200.896 26.1633C201.026 26.1718 201.135 26.2163 201.195 26.4262C201.287 26.4509 201.356 26.5303 201.384 26.6818C201.418 26.7215 201.472 26.7624 201.506 26.8021C202.224 26.0814 202.894 26.387 203.582 26.6939C203.746 26.7421 203.937 26.6796 204.074 26.857C204.203 26.8841 204.314 26.8914 204.443 26.9185L204.446 26.8626C204.518 26.9047 204.568 27.0015 204.579 27.1146C204.634 27.1368 204.671 27.1393 204.725 27.1615C204.696 27.6089 204.512 27.2787 204.414 27.3659C204.141 27.554 203.855 27.9286 203.595 27.35C203.561 27.2917 203.466 27.3229 203.392 27.3181C203.354 27.6151 203.435 27.8076 203.575 27.9477C203.784 28.1673 203.975 28.3856 204.184 28.6052C204.24 28.6088 204.277 28.6112 204.332 28.6148C204.6 28.8007 204.914 28.8399 205.092 29.2447C205.144 29.3042 205.213 29.4023 205.186 29.5315C205.157 29.6795 205.067 29.6361 204.993 29.6313C204.733 29.6144 204.455 29.5963 204.195 29.5793C204.16 29.5396 204.107 29.4987 204.054 29.4578C203.898 29.56 203.571 29.4264 203.737 30.0362C203.737 30.0362 203.737 30.0362 203.717 30.0537L203.718 30.035C203.938 30.0868 204.144 30.0814 204.295 30.3347C204.386 30.3593 204.479 30.3654 204.571 30.3901C204.675 30.5092 204.8 30.5922 204.947 30.6205C205.016 30.6999 205.066 30.7967 205.135 30.8761C205.12 31.1185 205.038 31.2255 204.888 31.2344C204.83 31.2681 204.791 31.303 204.731 31.3553C204.343 31.3112 203.92 31.5084 203.517 31.4072C203.352 31.3591 203.197 31.4612 203.02 31.5995C202.805 31.754 202.65 32.137 202.462 32.1622C202.011 32.2077 202.197 32.5006 202.308 32.8074C202.522 32.9523 202.718 33.0961 202.932 33.2411C203.12 33.2159 203.3 33.3026 203.437 33.4986C203.547 33.5245 203.664 33.7194 203.788 33.5402C203.826 33.524 203.845 33.5252 203.883 33.509C204.277 33.7593 204.717 33.8628 205.039 34.3518C204.973 34.7968 204.924 35.2616 204.749 35.6621C204.425 35.772 204.104 35.8447 203.779 35.6738C203.6 35.5685 203.423 35.4259 203.526 34.9834C203.492 34.9437 203.457 34.904 203.422 34.8643C203.385 34.8619 203.368 34.842 203.331 34.8396C203.274 34.8546 203.237 34.8522 203.181 34.8486C202.911 35.2803 202.606 35.0919 202.321 34.8862C202.196 34.8032 202.074 34.6829 201.965 34.9192C201.746 35.429 201.506 35.3947 201.24 35.1901C200.938 35.2454 200.645 35.1701 200.35 35.1135C200.313 35.1111 200.26 35.0702 200.224 35.0491C200.15 35.0443 200.056 35.0569 199.98 35.0707C199.727 35.2414 199.498 35.0393 199.306 34.8396C199.149 34.6796 198.984 34.6314 198.796 34.6566C198.791 34.7312 198.787 34.8057 198.782 34.8803C198.392 34.8549 198.248 35.6318 197.887 35.7393C198.152 35.9625 198.351 36.3498 198.677 36.2026C198.91 36.0493 199.067 36.228 199.178 36.5161C199.252 36.5209 199.346 36.5083 199.395 36.6238C199.449 36.646 199.509 36.5937 199.55 36.5216C199.712 36.3262 199.849 36.2228 199.977 36.5494C200.033 36.553 200.069 36.5741 200.124 36.5777C200.613 36.5159 201.069 36.658 201.403 37.26C201.421 37.2612 201.44 37.2624 201.476 37.2835C201.624 37.2931 201.773 37.3028 201.921 37.3125C202.012 37.3558 202.128 37.2885 202.212 37.425C202.208 37.4809 202.206 37.5182 202.202 37.5741C202.289 37.6734 202.377 37.754 202.464 37.8532C202.725 37.8515 202.908 38.1817 203.189 38.1626C203.301 38.1512 203.305 38.3761 203.333 38.5276C203.355 38.7537 203.246 38.7092 203.185 38.7988C203.041 38.9954 202.859 38.9274 202.7 39.0855C202.698 39.1227 202.695 39.16 202.692 39.216C202.214 39.3908 201.742 39.4911 201.3 39.1253C201.24 39.1963 201.198 39.2684 201.136 39.358C201.102 39.2997 201.052 39.2215 201.001 39.1433C200.852 39.1336 200.722 39.1252 200.575 39.0968C200.559 39.0584 200.542 39.0385 200.524 39.0187C200.487 39.0162 200.45 39.0138 200.414 38.9928C200.376 39.009 200.318 39.0426 200.278 39.0775C200.147 39.0877 200.04 39.0245 199.997 38.8158L199.96 38.8134L199.923 38.811C199.744 38.9865 199.75 39.1742 199.888 39.3516C199.992 39.4707 200.096 39.5898 200.138 39.7985C200.294 39.6963 200.438 39.7805 200.585 39.8088C200.66 39.795 200.716 39.7986 200.789 39.8221C200.789 39.8221 200.79 39.8035 200.772 39.8023C200.847 39.5076 200.934 39.3074 201.1 39.6178C201.412 39.9751 201.744 40.3149 202.171 40.0619C202.437 40.2664 202.703 40.471 202.988 40.6767C202.985 40.714 202.963 40.7687 202.961 40.806C202.773 40.8312 202.567 40.8365 202.381 40.8431L202.363 40.8232L202.381 40.8431C202.378 40.8804 202.376 40.9176 202.373 40.9549C202.197 41.0932 202.011 41.0811 201.844 41.0702C201.473 41.0461 201.081 41.058 200.705 41.1084C200.501 41.3759 200.391 41.0692 200.25 40.9477C200.252 40.9104 200.255 40.8731 200.238 40.8346C200.258 40.8172 200.259 40.7985 200.279 40.7811C200.279 40.7811 200.279 40.7811 200.261 40.7799C200.259 40.7985 200.24 40.816 200.237 40.8533C200.162 40.8671 200.09 40.8249 200.026 40.9518C199.808 41.443 199.732 41.4568 199.212 41.1422C199.081 40.8715 198.914 41.1415 198.766 41.1318C198.745 41.1679 198.705 41.2028 198.684 41.2388C198.683 41.2575 198.702 41.2587 198.702 41.2587C198.606 41.5894 198.443 41.504 198.338 41.4035C197.972 41.0239 197.689 41.3612 197.384 41.7532C197.306 41.8043 197.229 41.8367 197.17 41.889C196.996 41.99 196.835 41.8859 196.665 41.9123C196.439 41.9537 196.193 42.0126 196.052 41.6103C195.979 41.5868 195.923 41.5832 195.851 41.5411C195.797 41.5188 195.743 41.4779 195.711 41.4009C195.4 41.6053 195.07 41.8084 194.721 41.7295C194.409 41.6531 194.115 41.5964 193.802 41.5386C193.784 41.5188 193.766 41.5176 193.748 41.4977C193.753 41.4231 193.758 41.3486 193.763 41.274C193.045 41.4332 192.324 41.6296 191.649 42.2596C191.278 42.5162 190.895 42.6785 190.517 42.7662C190.514 42.8034 190.511 42.8594 190.508 42.8966C190.397 43.1702 190.364 43.3927 190.625 43.391C190.693 43.489 190.685 43.6195 190.675 43.7686C190.691 43.8071 190.726 43.8468 190.742 43.8853C190.805 44.0579 190.95 44.1235 190.915 44.3833C190.857 44.4169 190.817 44.4518 190.759 44.4855C190.484 44.4114 190.24 44.7325 189.979 44.7342C189.811 44.7419 189.67 44.9013 189.706 45.2031C189.74 45.5423 189.913 45.46 190.053 45.3193C190.108 45.3229 190.145 45.3253 190.201 45.329C190.37 45.3026 190.539 45.2948 190.63 45.6003C190.666 45.6214 190.721 45.6436 190.757 45.6647C190.84 45.8199 190.905 45.9552 190.989 46.1103C191.059 46.1711 191.112 46.212 191.183 46.2728C191.182 46.2914 191.182 46.2914 191.199 46.3113C191.201 46.274 191.221 46.2565 191.224 46.2193C191.336 46.2079 191.449 46.1965 191.553 46.3156C191.71 46.7564 191.948 46.5472 192.159 46.4487C192.275 46.3813 192.391 46.314 192.495 46.4331C192.549 46.474 192.748 47.9847 192.708 48.0382C192.435 48.5071 192.548 48.7766 192.834 48.9637C193.252 49.1219 193.69 49.2628 194.108 49.4211C195.256 49.5333 196.373 49.8307 197.504 50.2038C197.613 50.2484 197.741 50.2941 197.782 50.5214C197.813 50.6171 197.808 50.6916 197.746 50.7812C197.881 50.9959 198.042 51.1 198.224 51.168C198.222 51.2053 198.238 51.2438 198.235 51.2811C198.264 51.414 198.311 51.5481 198.341 51.6624C198.359 51.6636 198.378 51.6648 198.415 51.6672C198.591 51.8284 198.48 52.102 198.484 52.3269C198.091 52.6383 197.692 52.762 197.273 52.6037C197.561 53.053 197.56 53.0717 197.127 53.4179C196.93 53.5922 196.75 53.4869 196.563 53.4935C196.414 53.5025 196.233 53.4158 196.21 53.77C196.169 54.1043 196.355 54.1164 196.502 54.1447C196.635 54.3967 196.876 54.1316 197.007 54.4023C197.063 54.4059 197.1 54.4083 197.156 54.4119C197.474 54.0957 197.746 54.5065 198.029 54.4501C198.122 54.4561 198.213 54.4808 198.325 54.488C198.378 54.529 198.412 54.5687 198.466 54.6096C198.512 54.7623 198.487 54.8543 198.373 54.8843C198.373 54.8843 198.373 54.8843 198.355 54.8831C198.353 54.9018 198.352 54.9204 198.351 54.9391C198.383 55.016 198.36 55.0894 198.336 55.1627C198.314 55.2175 198.274 55.271 198.253 55.307C198.208 55.4165 198.145 55.5247 198.138 55.6365C198.155 55.6564 198.19 55.6961 198.207 55.7159C198.259 55.7755 198.335 55.7617 198.386 55.8399C198.402 55.8784 198.436 55.9181 198.452 55.9566C198.527 55.9614 198.621 55.9488 198.668 56.0829C198.675 56.2519 198.632 56.3427 198.54 56.3366C198.519 56.3727 198.516 56.41 198.495 56.4461C198.418 56.4785 198.36 56.5122 198.283 56.5633C198.284 56.5446 198.268 56.5061 198.27 56.4688C198.032 56.3972 197.79 56.1193 197.576 56.536C197.575 56.5546 197.574 56.5733 197.592 56.5745C197.591 56.5931 197.609 56.613 197.607 56.6316C197.587 56.9485 197.529 57.263 197.27 57.2274C197.068 57.4763 196.775 57.1016 196.597 57.558C196.717 57.9964 197.054 57.6814 197.222 57.9731C197.219 58.0104 197.217 58.0476 197.233 58.0861C197.248 58.1433 197.265 58.1631 197.283 58.183C197.267 58.1445 197.289 58.0897 197.313 57.9978C197.637 57.8878 197.899 58.1669 198.191 58.2608C198.246 58.2644 198.301 58.2867 198.332 58.3823C198.307 58.7551 198.096 58.5729 197.993 58.716C197.805 58.7412 197.61 58.5974 197.431 58.7729C196.811 59.1257 196.202 59.6102 195.527 59.3977C195.289 59.3261 195.028 59.3278 194.766 59.3482C194.616 59.3572 194.339 59.3204 194.491 59.8544C194.506 59.9116 194.503 59.9488 194.481 60.0036C194.5 60.0048 194.518 60.006 194.555 60.0084C194.61 60.0307 194.702 60.0367 194.717 60.0938C194.821 60.7932 195.102 61.0549 195.511 61.0628C196.001 60.9824 196.323 61.4714 196.601 62.0698C196.599 62.1071 196.596 62.1444 196.594 62.1817C196.78 62.1751 196.917 62.3712 197.075 62.5125C197.32 62.7531 197.287 62.9756 197.032 63.1836C196.919 63.195 196.808 63.1878 196.677 63.1979C196.674 63.2352 196.654 63.2527 196.652 63.2899C196.355 63.2706 196.069 63.6638 195.775 63.5885C195.77 63.3823 195.706 63.2283 195.576 63.2199C195.483 63.2138 195.372 63.2066 195.279 63.2005C195.159 63.3238 195.064 63.355 194.961 63.2173C194.857 63.0982 194.748 63.0536 194.63 63.1582C194.627 63.1955 194.625 63.2328 194.604 63.2689C194.437 63.5388 194.207 63.6362 193.997 63.7161C193.575 63.8945 193.162 63.6617 192.744 63.7843C192.684 63.8552 192.647 63.8528 192.596 63.7746C192.282 63.7354 192.248 63.9579 192.373 64.3404C192.417 64.5118 192.521 64.6309 192.545 64.8383L192.524 64.8744C192.525 64.8558 192.545 64.8383 192.546 64.8197C193.245 64.0977 193.488 64.0948 193.98 64.8382C194.254 65.2117 194.558 65.4 194.914 65.367C195.251 65.3515 195.582 65.4105 195.916 65.4323C196.046 65.4407 196.159 65.4294 196.295 65.3446C196.324 65.4589 196.336 65.5719 196.365 65.6862C196.438 65.7097 196.494 65.7133 196.567 65.7368C196.793 65.6953 196.994 65.7646 197.189 65.9083C197.332 66.0112 197.55 66.1003 197.41 66.5218C197.326 66.9655 197.139 66.9721 196.931 67.0147C196.553 67.1024 196.163 67.077 195.785 67.1647C195.935 67.4366 196.109 67.6164 196.243 67.8498C196.427 68.18 196.594 68.1908 196.801 67.8674C196.875 67.8722 196.948 67.8957 196.937 68.0635C196.919 68.3431 196.48 69.082 196.313 69.0711C196.016 69.0518 195.779 69.261 195.522 69.4876C195.428 69.5002 195.335 69.4942 195.241 69.5068C194.634 69.6731 194.047 69.8221 193.439 69.9885C193.206 69.8609 192.968 69.7893 192.715 69.96C192.528 69.9666 192.324 69.9533 192.137 69.9598C192.12 69.94 192.121 69.9213 192.122 69.9027C192.121 69.9213 192.138 69.9412 192.137 69.9598C191.929 70.0025 191.724 70.0078 191.529 70.1448C191.022 70.4863 190.503 70.4524 190.001 70.7193C189.846 70.8028 189.74 70.721 189.659 70.5285C189.362 70.5092 189.103 71.0539 188.783 70.8271C188.683 70.6335 188.56 70.5318 188.411 70.5221C188.187 70.5263 188.001 70.2334 187.719 70.5706C187.598 70.7125 187.285 70.6547 187.049 70.8452C186.989 70.8975 186.901 70.8169 186.87 70.7213C186.323 70.5359 185.793 70.9507 185.252 70.9716C185.233 70.9704 185.233 70.9704 185.216 70.9505C185.233 70.9704 185.232 70.989 185.248 71.0275C184.832 71.1128 184.392 71.29 183.974 71.1317C183.709 70.9086 183.426 70.6842 183.118 70.8326C182.926 70.9137 182.74 70.9203 182.534 70.9256C182.088 70.9153 181.665 70.8316 181.244 70.7106C181.152 70.6859 181.011 70.5644 180.958 70.8043C180.907 71.0256 181.005 71.2379 181.107 71.3756C181.193 71.4935 181.302 71.538 181.414 71.5266C181.545 71.5165 181.712 71.5273 181.797 71.6639C182.048 72.0921 182.352 71.9996 182.676 71.8896C182.772 71.8584 182.889 71.7724 182.909 72.0358C183.018 72.0804 183.084 72.2157 183.149 72.351C183.215 72.4863 183.398 72.5357 183.345 72.7756C183.29 73.0528 183.123 73.0419 182.975 73.0323C182.917 73.0659 182.877 73.1008 182.819 73.1345C182.8 73.1332 182.762 73.1495 182.744 73.1483C182.681 73.2565 182.618 73.3647 182.553 73.4916C182.54 73.6966 182.564 73.9041 182.686 74.0244C182.977 74.1369 183.152 74.5976 183.444 74.6915C183.609 74.7397 183.772 74.8065 183.937 74.8546L183.938 74.836C183.979 74.7825 183.996 74.8023 184.031 74.842C184.249 75.2119 184.347 75.705 184.506 76.1272C184.649 76.5109 184.778 76.8189 185.008 77.0023C185.08 77.0444 185.13 77.1226 185.181 77.2008C185.266 77.3374 185.349 77.4925 185.296 77.7324C185.242 77.991 185.113 77.9639 184.982 77.9741C184.888 77.9867 184.793 78.0179 184.698 78.0492C184.008 78.3412 183.319 78.6146 182.623 78.719C182.003 78.791 181.395 78.6952 180.761 78.6914C180.371 78.6847 179.809 79.3033 179.661 79.8553C179.734 80.1596 179.888 80.0947 180.041 80.0298C180.194 79.9649 180.325 79.9547 180.469 80.0389C180.502 80.0973 180.555 80.1382 180.589 80.1965C180.674 80.3144 180.793 80.2098 180.88 80.309C181.077 80.1347 181.278 80.2039 181.481 80.2359C181.518 80.2383 181.555 80.2407 181.612 80.2257C181.667 80.2293 181.722 80.2516 181.759 80.254C181.889 80.2624 182.072 80.031 182.147 80.298C182.242 80.5662 182.014 80.6263 181.964 80.8289C181.89 81.1049 181.719 81.15 181.613 81.349C181.592 81.3851 181.553 81.4199 181.532 81.456C181.393 81.578 181.416 81.8041 181.384 82.008C181.292 82.8444 181.2 83.6809 181.108 84.5359C180.888 84.765 180.857 85.231 180.689 85.5196C180.523 85.7895 180.56 86.0728 180.635 86.3584C180.97 86.6424 181.32 86.7026 181.694 86.6895C181.806 86.6781 181.923 86.6108 182.007 86.4665C182.118 86.4737 182.249 86.4636 182.36 86.4708C182.461 86.9267 182.372 87.1455 182.096 87.0901C181.949 87.0618 181.845 87.2235 181.711 87.2896C181.417 87.5139 181.126 87.6821 180.814 87.6057C180.724 87.8432 180.603 87.9851 180.438 87.9555C180.38 87.9892 180.34 88.0241 180.281 88.0764C180.26 88.1124 180.219 88.1659 180.198 88.202C180.193 88.2766 180.187 88.3698 180.182 88.4444C180.17 88.6308 180.178 88.7997 180.093 88.9627C179.694 89.6481 179.925 90.3932 179.953 91.1064C179.952 91.1251 179.932 91.1425 179.932 91.1425C179.933 91.1238 179.953 91.1064 179.953 91.1064C179.988 91.1461 180.04 91.2057 180.074 91.2454C180.253 91.3693 180.137 91.7174 180.237 91.8925C180.279 92.1011 180.303 92.3086 180.345 92.5173C180.345 92.5173 180.363 92.5371 180.36 92.5744C180.359 92.593 180.357 92.6303 180.337 92.6478L180.357 92.6303C180.542 92.6424 180.745 92.6743 180.931 92.6864C180.998 92.8031 181.002 93.028 181.129 93.0738C181.161 93.1507 181.175 93.2265 181.208 93.2848C181.319 93.5916 181.178 94.0317 181.347 94.3048C181.366 94.306 181.384 94.3072 181.421 94.3096C181.429 94.7594 181.166 94.7984 181.021 95.0136C180.966 95.01 180.908 95.0437 180.866 95.1158C180.845 95.1519 180.805 95.1868 180.784 95.2228C180.722 95.3124 180.716 95.4056 180.766 95.5025C180.795 95.9162 180.565 96.0135 180.439 96.23C180.437 96.2673 180.435 96.2859 180.414 96.322C180.375 96.3568 180.316 96.4091 180.276 96.444C180.275 96.7435 180.133 96.9214 180.044 97.1403C179.978 97.3044 179.856 97.4649 179.935 97.676C179.997 97.8673 180.165 97.8595 180.264 97.7724C180.519 97.583 180.67 97.8362 180.822 98.0708C180.878 98.0744 180.915 98.0768 180.971 98.0805C180.988 98.1003 181.007 98.1015 181.025 98.1027C181.227 98.4341 181.092 98.7997 180.915 98.9379C180.697 99.1297 180.528 99.4369 180.279 99.5517C180.064 99.7062 179.867 99.8619 179.653 99.9977C179.232 100.457 178.827 100.955 178.333 101.11C178.198 101.457 177.993 101.462 177.77 101.448C177.529 101.432 177.241 101.282 177.02 101.53C176.639 101.936 176.31 101.839 175.973 101.574C175.853 101.416 175.789 101.543 175.67 101.648C175.134 102.156 174.587 102.831 173.958 102.191C173.943 102.134 173.908 102.095 173.893 102.038C173.875 102.036 173.874 102.055 173.855 102.054C173.488 102.254 173.133 101.988 172.768 102.151C172.712 102.148 172.656 102.444 172.58 102.177C172.534 102.024 172.446 101.943 172.33 102.011C172.098 102.145 171.829 101.978 171.619 102.339C171.558 102.428 171.422 102.513 171.393 102.38C171.238 101.902 171.111 102.137 170.963 102.408C170.942 102.444 170.866 102.458 170.83 102.437C170.452 102.244 170.099 102.502 169.719 102.627C169.547 102.69 169.287 102.954 169.146 102.552C169.11 102.531 169.073 102.529 169.018 102.506C168.809 102.287 168.641 102.575 168.463 102.732C168.133 102.935 167.699 102.739 167.534 103.552C167.507 103.681 167.265 103.965 167.168 103.734C167.027 103.331 166.838 103.375 166.608 103.472C166.455 103.537 166.413 103.31 166.308 103.21C165.977 103.151 165.628 103.072 165.296 103.013C165.299 102.975 165.281 102.956 165.284 102.918C165.133 102.946 164.993 102.806 164.852 102.965C164.769 103.091 164.845 103.358 164.693 103.404C164.562 103.414 164.38 103.627 164.449 103.145C164.469 103.127 164.489 103.11 164.49 103.091C164.474 103.053 164.44 102.994 164.424 102.956C164.412 102.861 164.358 102.821 164.303 102.817C164.184 102.641 164.043 102.8 163.913 102.792C163.412 102.759 162.979 103.124 162.555 103.62C162.552 103.658 162.551 103.676 162.53 103.712C162.504 103.823 162.461 103.914 162.387 103.909C162.313 103.904 162.32 103.792 162.326 103.699C162.257 103.62 162.187 103.54 162.118 103.461C161.57 103.294 161.023 103.109 160.451 103.315C160.381 103.235 160.312 103.156 160.243 103.077C160.21 103 160.197 102.924 160.166 102.828C160.166 102.828 160.167 102.81 160.148 102.808C160.046 102.952 159.93 103.019 159.841 103.238C159.658 103.75 159.529 103.742 159.316 103.278C159.116 103.209 158.922 103.047 158.694 103.107C158.709 103.164 158.707 103.201 158.684 103.256C158.392 103.742 158.068 104.133 157.714 104.428C157.632 103.674 157.47 103.589 157.062 104.142C157.02 104.215 156.976 104.305 156.952 104.397C156.841 104.671 156.711 104.663 156.655 104.378C156.593 103.906 156.5 103.9 156.308 104.262C156.204 104.442 156.049 104.526 155.928 104.668C155.787 104.827 155.613 104.928 155.53 104.773C155.433 104.542 155.646 104.425 155.731 104.262C155.723 104.093 155.692 103.997 155.586 103.915C155.286 103.652 155.065 103.9 154.858 104.224C154.508 104.444 154.221 104.557 154.045 103.834C153.971 103.529 153.385 103.66 153.289 103.99C153.187 104.414 152.973 104.55 152.774 104.743C152.666 105.541 152.291 105.872 151.886 105.509C151.762 105.407 151.656 105.325 151.508 105.297C151.242 105.673 150.941 105.429 150.671 105.561C150.638 105.503 150.585 105.462 150.543 105.534C150.198 106.241 149.501 106.365 149.166 105.781C148.754 106.11 148.289 106.098 147.863 106.333C147.729 106.399 147.617 106.392 147.599 106.11C147.553 105.657 147.331 105.924 147.186 105.858C147.043 105.774 146.958 105.937 146.942 106.179C146.77 106.243 146.593 106.1 146.431 106.296C146.313 106.4 146.204 106.356 146.096 106.293C146.095 106.311 146.095 106.311 146.112 106.331C146.107 106.406 146.104 106.462 146.064 106.496C146.007 106.511 145.97 106.509 145.913 106.524C145.772 106.683 145.636 106.768 145.468 106.776C144.912 107.02 144.364 107.134 143.785 107.153C143.71 107.167 143.635 107.181 143.578 107.196C143.496 107.883 143.303 108.263 142.959 108.391C142.669 108.278 142.395 108.186 142.074 108.258C142.251 108.682 142.109 109.14 141.789 109.194C141.62 109.221 141.452 109.229 141.291 109.125C141.273 109.105 141.276 109.067 141.277 109.049C141.2 109.081 141.124 109.114 141.046 109.165C140.858 109.471 140.857 109.77 141.047 110.007C141.134 110.107 141.183 110.203 141.171 110.39C141.094 110.422 141.018 110.455 140.94 110.506C140.682 110.751 140.411 110.621 140.166 110.661C140.129 110.659 140.094 110.619 140.078 110.581C140.032 110.709 139.971 110.798 139.898 110.775C139.549 110.696 139.338 111.075 139.143 111.493C139.016 111.728 138.779 111.638 138.65 111.91C138.41 111.876 138.171 111.823 137.931 111.789L137.894 111.786L137.857 111.784C137.836 111.82 137.795 111.873 137.774 111.91C137.48 112.134 137.177 111.927 136.876 111.963C136.683 112.063 136.499 112.032 136.295 112.019C136.129 111.99 135.957 111.772 135.773 112.023C135.648 112.22 135.573 111.953 135.477 111.985C135.356 111.846 135.199 111.966 135.075 111.865C135.057 111.864 135.055 111.882 135.037 111.881C135.018 111.88 135 111.879 134.961 111.895C134.96 111.913 134.959 111.932 134.958 111.951C134.865 111.945 134.771 111.957 134.678 111.951C134.662 111.913 134.628 111.873 134.613 111.816C134.401 111.914 134.339 111.723 134.34 111.424C134.164 111.263 134.009 111.646 133.832 111.503C133.77 111.593 133.716 111.57 133.664 111.511C133.163 111.478 132.724 111.056 132.249 110.913C132.252 110.876 132.254 110.839 132.258 110.783C132.037 110.731 131.836 110.68 131.616 110.629C131.577 110.645 131.519 110.678 131.482 110.676C131.256 110.717 131.027 110.515 130.81 110.688C130.612 110.881 130.393 110.811 130.211 110.743C129.904 110.592 129.621 110.648 129.293 110.814C129.022 110.965 128.731 111.152 128.441 111.021C128.423 111.02 128.403 111.037 128.366 111.035C128.242 111.214 128.118 111.112 127.987 111.122C127.857 111.114 127.705 111.16 127.599 111.078C127.046 110.705 126.482 111.062 125.919 111.119C125.543 111.169 125.148 111.237 124.779 111.176C124.44 110.948 124.182 111.193 123.963 111.684C123.962 111.703 123.942 111.72 123.942 111.72C123.794 111.71 123.662 111.739 123.524 111.562C123.335 111.325 123.17 110.996 122.883 111.389C122.801 111.515 122.679 111.376 122.592 111.276C122.574 111.275 122.537 111.273 122.517 111.29C122.412 111.19 122.304 111.127 122.172 111.155C122.075 111.205 122.021 111.464 121.917 111.345C121.673 111.086 121.361 111.309 121.236 111.506C120.866 112.044 120.445 111.923 120.059 112.122C120.001 112.156 119.943 112.19 119.885 112.223C119.808 112.256 119.732 112.288 119.655 112.321C119.544 112.313 119.414 112.305 119.303 112.298C119.286 112.259 119.252 112.22 119.236 112.181C119.134 111.744 118.862 111.913 118.685 111.771C118.581 111.933 118.431 111.941 118.298 111.989C118.155 112.186 118.104 112.107 118.084 111.844C117.809 112.051 117.539 112.202 117.352 111.628C117.275 111.379 117.084 111.461 116.931 111.525C116.726 111.512 116.529 111.687 116.347 111.619C116.561 112.044 116.937 111.994 117.148 112.476C117.03 112.58 116.912 112.666 116.794 112.771C116.775 112.77 116.738 112.767 116.719 112.766C116.633 112.667 116.523 112.641 116.412 112.615C116.155 112.561 116.021 112.327 116.013 111.878C116.014 111.859 116.033 111.86 116.034 111.842C115.846 111.586 115.755 111.842 115.796 112.069C115.832 112.371 115.773 112.424 115.642 112.434L115.643 112.415C115.642 112.434 115.64 112.452 115.638 112.49C115.577 112.561 115.502 112.574 115.428 112.57C115.372 112.566 115.318 112.544 115.282 112.523C114.954 112.688 114.624 112.892 114.278 112.775C114.242 112.754 114.279 112.757 114.24 112.792C113.853 113.291 113.499 113.006 113.135 112.87C113.072 112.697 112.995 112.729 112.912 112.855C112.579 112.833 112.238 112.624 111.892 112.789C111.725 112.778 111.558 112.767 111.391 112.756C111.241 112.765 111.077 112.717 110.922 112.8C110.748 112.901 110.581 113.171 110.365 113.064C109.914 112.828 109.426 113.171 108.966 113.085C108.763 113.053 108.585 113.21 108.394 113.291C108.164 113.388 107.877 113.781 107.689 113.245C107.121 113.376 106.538 113.17 105.985 113.658C105.866 113.763 105.733 113.81 105.608 113.727C105.504 113.608 105.391 113.619 105.283 113.556C105.212 113.514 105.16 113.455 105.166 113.361C104.983 113.874 104.682 113.629 104.431 113.763C104.406 113.874 104.344 113.963 104.267 113.996C104.191 114.028 104.114 114.06 104.037 114.093C104.021 114.054 103.986 114.015 103.972 113.958C103.905 113.841 103.839 113.706 103.772 113.589C103.607 113.541 103.552 113.818 103.469 113.944C103.392 114.276 103.241 114.303 103.083 114.162C103.004 113.932 102.927 113.684 102.744 113.634C102.728 113.596 102.731 113.559 102.733 113.521C102.623 113.495 102.493 113.487 102.392 113.611C102.109 113.949 101.791 113.965 101.477 113.926C101.424 113.885 101.389 113.846 101.337 113.786C101.207 113.778 101.062 113.712 100.946 113.779C100.601 113.925 100.234 113.845 99.9126 114.199C99.7149 114.373 99.5178 113.967 99.3782 114.108C99.0792 114.406 98.8574 114.093 98.6199 114.021L98.6211 114.002C98.5283 113.996 98.448 114.085 98.4012 114.231C98.3964 114.306 98.3903 114.399 98.3854 114.474C98.3164 114.675 98.2289 114.875 98.3454 115.089C98.3369 115.219 98.3457 115.37 98.2481 115.438C97.8657 115.301 97.5026 115.727 97.1364 115.628C97.1179 115.627 97.0807 115.624 97.0622 115.623C97.0214 115.676 96.9843 115.674 96.9485 115.653C96.8968 115.874 96.758 115.715 96.6753 115.841C96.6197 115.838 96.5826 115.835 96.5269 115.831C96.0421 115.837 95.6384 115.455 95.1584 115.387C95.1399 115.385 95.1028 115.383 95.0854 115.363L95.0483 115.361L95.0112 115.358C94.9495 115.448 94.9075 115.52 94.8458 115.61C94.7743 115.848 94.7227 116.07 94.8799 116.23C94.9731 116.517 95.1412 116.509 95.3143 116.426C95.5071 116.327 95.6459 116.485 95.7414 116.735C95.8345 117.022 95.6393 117.159 95.5541 117.322C95.5121 117.394 95.4528 117.446 95.3935 117.499C95.2278 117.469 95.0337 117.588 94.8813 117.353C94.8466 117.313 94.7922 117.291 94.7575 117.251C94.6155 117.429 94.4473 117.437 94.2803 117.426C94.2109 117.347 94.1416 117.267 94.0734 117.169C93.8867 117.176 93.6741 117.293 93.5007 117.095C93.5031 117.057 93.5043 117.039 93.4882 117C93.4906 116.963 93.4943 116.907 93.4967 116.87C93.3297 116.859 93.1627 116.848 92.997 116.818C92.7832 116.954 92.4887 116.898 92.3817 117.396C92.2252 117.798 91.9267 117.516 91.775 117.843C91.6387 117.647 91.4246 117.502 91.4674 117.131C91.5042 116.852 91.6897 116.864 91.8208 116.854C92.062 116.87 92.0838 116.534 92.1577 116.258C92.0819 115.991 92.4475 115.528 92.0663 115.372C92.0107 115.369 91.9562 115.347 91.9438 115.252L91.9425 115.271C91.8635 115.341 91.7892 115.336 91.7409 115.22C91.6417 115.027 91.5057 115.111 91.3771 115.084C91.3573 115.102 91.3561 115.12 91.3375 115.119C91.1782 115.277 90.9999 115.153 90.8317 115.161C90.9552 114.982 91.0976 115.085 91.2286 115.075C91.353 114.596 91.5418 114.271 91.8782 114.256C92.0227 114.041 92.1799 114.201 92.3308 114.173C92.4655 114.107 92.3305 113.892 92.4293 113.805C92.6282 113.612 92.7891 113.716 92.9403 113.969C93.0702 113.978 93.1815 113.985 93.3114 113.993C93.5188 113.67 93.679 113.212 93.9856 113.083C94.0808 113.051 94.1708 112.814 94.2039 112.591C94.2795 111.716 94.7023 111.519 95.0916 111.264C95.3647 111.076 95.6454 111.057 95.9185 110.868C96.1138 110.731 96.3421 110.372 96.6132 110.502C96.6317 110.503 96.67 110.487 96.6886 110.488C96.7096 110.452 96.7491 110.417 96.7701 110.381C96.7658 109.875 96.475 109.763 96.325 109.491C96.0838 109.475 95.7583 109.323 95.6513 109.821C95.5467 110.283 95.3551 110.364 95.1574 110.538C94.9178 110.785 94.7246 110.603 94.5081 110.496C94.287 110.743 94.0567 110.56 93.8316 110.583C93.588 110.604 93.3343 110.494 93.091 110.797C93.0898 110.815 93.0688 110.851 93.0676 110.87C92.9429 111.068 92.7872 111.17 92.6799 111.388C92.4597 111.336 92.3085 111.083 92.129 110.977C91.9632 110.948 91.7914 111.012 91.6353 110.833C91.4982 110.936 91.3771 111.078 91.2412 111.163C91.0952 111.116 90.9023 111.216 90.7116 110.997C91.1638 110.634 91.5705 110.398 92.0121 110.483C92.0784 110.038 92.4066 110.434 92.489 110.027C92.5075 110.029 92.5446 110.031 92.5632 110.032C92.5927 109.866 92.6395 109.719 92.669 109.552C92.4916 109.129 92.2513 108.814 92.0727 108.409C92.0243 108.294 91.9178 108.212 91.9671 108.028L91.9485 108.026C91.93 108.025 91.9126 108.005 91.8941 108.004C91.6888 108.01 91.4843 107.715 91.2769 108.039C91.1325 108.254 91.005 108.208 90.8764 108.181C90.8167 107.953 90.6941 107.832 90.5913 107.695C90.3896 107.644 90.219 107.689 90.2084 108.138C90.2115 108.662 90.082 108.935 89.748 108.913C89.6924 108.909 89.6109 109.016 89.5516 109.068C89.27 109.387 89.0033 109.763 88.6641 109.535C88.5625 109.378 88.4387 109.277 88.4198 108.995C88.4344 108.771 88.4848 108.568 88.57 108.406C88.5724 108.368 88.5748 108.331 88.5946 108.314C88.6672 108.056 88.7585 107.8 88.9726 107.945C88.9714 107.964 88.9714 107.964 88.9887 107.984C88.9887 107.984 88.9887 107.983 88.9899 107.965L88.9912 107.946C89.0319 107.893 89.0565 107.801 89.1295 107.824C89.1493 107.807 89.1505 107.788 89.1703 107.771C89.1901 107.753 89.2086 107.754 89.2284 107.737C89.2284 107.737 89.2284 107.737 89.2296 107.718C89.1961 107.66 89.1849 107.547 89.1292 107.543C89.0166 107.555 88.9017 107.603 88.8186 107.448C88.7444 107.443 88.6702 107.439 88.596 107.434C88.4907 107.333 88.3657 107.25 88.2605 107.15C88.2383 107.205 88.2011 107.202 88.1665 107.162C87.9301 107.072 87.7305 106.703 87.4365 106.928C87.4392 107.171 87.6211 107.239 87.6005 107.556C87.494 107.474 87.3863 107.411 87.2786 107.348C87.042 106.977 86.7031 107.03 86.4111 106.936C86.3208 106.892 86.2578 107.001 86.1985 107.053C85.7806 107.176 85.3733 106.849 84.9494 107.065C84.8727 107.098 84.7949 107.149 84.7182 107.181C84.571 107.153 84.4165 107.236 84.3012 107.004C84.306 106.93 84.2923 106.854 84.2972 106.779C84.2254 106.737 84.1548 106.677 84.0831 106.634C83.701 106.778 83.344 107.11 82.9443 106.953C82.7959 106.944 82.666 106.935 82.5176 106.926C82.2356 106.963 81.9546 106.702 81.6903 107.04C81.6705 107.058 81.6508 107.075 81.6322 107.074C81.6161 107.035 81.5802 107.014 81.564 106.976C81.2675 107.237 80.9573 107.423 80.6221 107.42C80.3551 107.515 80.0914 107.273 79.8368 107.462C79.5992 107.391 79.352 107.468 79.1035 107.564C78.8377 107.641 78.5493 107.491 78.281 107.604C78.2032 107.655 78.1439 107.708 78.066 107.759C78.0079 107.793 77.9313 107.825 77.8744 107.84C77.7421 107.869 77.6296 107.88 77.5009 107.853C77.3896 107.846 77.2819 107.783 77.1952 107.683C77.1605 107.644 77.1432 107.624 77.1061 107.621C76.7971 107.789 76.5026 107.732 76.2118 107.619C76.1179 107.632 76.0436 107.627 75.9533 107.584C75.9174 107.563 75.8803 107.56 75.863 107.541C75.7553 107.477 75.6242 107.488 75.5141 107.462C75.2245 107.33 74.9341 107.499 74.6348 107.517C74.4097 107.539 74.2552 107.623 74.174 108.011C74.1211 108.251 74.0223 108.338 73.8936 108.311C73.7464 108.283 73.6819 108.129 73.6582 107.921C73.6332 107.732 73.6441 107.565 73.6934 107.38C73.7624 107.179 73.6918 107.118 73.5805 107.111C73.5248 107.107 73.4692 107.104 73.4321 107.101C73.2836 107.092 73.1501 107.139 72.9992 107.167C72.7742 107.19 72.5455 107.268 72.3204 107.291C72.2821 107.307 72.2623 107.325 72.224 107.341C71.9472 107.585 71.7306 107.477 71.5076 107.182C71.3653 107.079 71.2217 106.995 71.0979 106.893C70.9148 106.844 70.749 106.814 70.5699 106.99C70.2548 107.25 69.9257 107.154 69.6151 107.059C69.5595 107.055 69.5224 107.053 69.4667 107.049C69.0275 106.927 68.602 106.88 68.1482 106.982C67.9505 107.156 67.7339 107.049 67.5399 107.167C67.462 107.218 67.3866 107.232 67.3124 107.227C67.2172 107.258 67.1244 107.252 67.0365 107.172C67.0192 107.152 67.0006 107.151 66.9635 107.148C66.7658 107.322 66.5517 107.177 66.3588 107.277C66.1894 107.304 66.0459 107.219 65.8728 107.302C65.6651 107.344 65.4436 107.311 65.2395 107.298C65.2036 107.277 65.1665 107.274 65.1306 107.253C64.9314 107.166 64.7386 107.265 64.5296 107.327C64.4901 107.361 64.4703 107.379 64.432 107.395C64.3578 107.39 64.3009 107.405 64.2477 107.364C64.098 107.373 63.9472 107.401 63.8161 107.411C63.7181 107.199 63.5575 107.376 63.4523 107.275C63.0578 107.324 62.646 107.354 62.2515 107.403C61.9695 107.441 61.6618 107.589 61.3944 107.403C60.9926 107.564 60.5759 107.668 60.1528 107.584C59.7124 107.481 59.2647 107.489 58.8169 107.497C57.8485 107.491 56.8917 107.877 55.9305 107.759C55.1166 107.668 54.3123 107.429 53.4705 107.767C53.468 107.804 53.4656 107.842 53.4446 107.878C53.2409 108.145 53.1339 108.644 52.8035 108.566C52.7418 108.656 52.6998 108.728 52.6381 108.817C52.6607 109.043 52.5171 108.959 52.4739 109.05C52.3033 109.095 52.1363 109.084 51.9729 109.017C51.8528 108.86 51.9266 108.584 51.8658 108.374C51.7739 108.068 51.6364 107.891 51.4299 107.915C51.1701 107.898 50.9265 107.92 50.6631 107.959C50.3614 108.014 50.014 108.197 49.7822 107.751C49.5705 107.569 49.3567 107.705 49.1328 107.709C48.7876 107.574 48.4314 107.607 48.0789 107.584C47.7522 107.451 47.4335 107.767 47.1056 107.652C47.0685 107.65 47.0314 107.647 46.9769 107.625C46.7257 107.478 46.4611 107.535 46.2074 107.425C46.19 107.405 46.1715 107.404 46.1344 107.402C45.992 107.299 45.8436 107.289 45.6891 107.373C45.6322 107.388 45.5951 107.385 45.5382 107.4C45.5197 107.399 45.4838 107.378 45.4652 107.377C45.2143 107.51 44.9816 107.364 44.738 107.385C44.5734 107.337 44.3806 107.437 44.2233 107.277C44.2257 107.24 44.2282 107.203 44.2306 107.165C44.0116 107.095 43.7765 106.986 43.5538 106.971C42.8685 106.908 42.1796 106.901 41.5335 106.522C41.4976 106.501 41.442 106.497 41.3851 106.512C40.966 106.653 40.5949 106.629 40.274 106.121C40.1897 105.985 40.092 106.053 39.9969 106.085C39.4838 106.238 39.0506 106.023 38.6284 105.64L38.6086 105.657C37.8866 105.872 37.1642 105.806 36.4798 105.444C35.5521 105.383 34.6304 105.23 33.7322 105.003C33.2337 104.933 32.7178 104.843 32.2193 104.773L32.2205 104.754C32.2193 104.773 32.1983 104.809 32.1786 104.827C32.0277 104.854 31.9063 104.715 31.7627 104.631C31.5845 104.507 31.2776 104.356 31.4886 103.977C31.7194 103.58 31.9043 103.03 32.254 102.81C32.3614 102.592 32.2509 102.285 32.3756 102.088C32.3966 102.051 32.4187 101.997 32.4583 101.962C32.7411 101.625 32.7985 101.029 33.0479 100.634C33.0689 100.598 33.0898 100.562 33.1306 100.508C33.1923 100.418 33.2367 100.309 33.2823 100.181C33.3328 99.9783 33.2461 99.8791 33.1779 99.781C33.0429 99.5663 33.0376 99.3601 33.166 99.1063C33.446 98.5255 33.4275 98.5243 33.0278 98.3672C32.9003 98.3215 32.7902 98.2956 32.6753 98.3443C32.5801 98.3755 32.4873 98.3695 32.4143 98.346C32.3784 98.3249 32.3425 98.3039 32.3078 98.2642C32.1889 98.088 32.0553 98.1354 31.9081 98.1071C31.6496 98.0716 31.3777 98.2411 31.1252 98.1123C30.7219 98.0111 30.2976 97.9461 29.8991 97.7704C29.8818 97.7505 29.883 97.7319 29.8668 97.6934C29.6494 97.8851 29.5155 97.6518 29.3768 97.493C29.0821 97.1555 28.7691 97.0977 28.4278 97.1878C27.6742 97.8875 26.9463 97.3347 26.2005 97.3423C25.9395 97.344 25.9008 97.0794 26.0909 96.7361C26.1538 96.6279 26.2168 96.5197 26.312 96.4884C26.5605 96.3923 26.7283 96.1037 26.8962 95.8151C26.9269 95.6299 26.6857 95.6142 26.7744 95.3953C26.4691 95.5065 26.1844 95.3007 25.8802 95.3932C25.7132 95.3824 25.5365 95.5206 25.3808 95.6228C24.7604 95.9942 24.249 95.5491 23.686 95.3252C23.5671 95.149 23.4445 95.0287 23.2763 95.0365C23.0992 94.8939 22.9088 94.9564 22.7257 94.907C22.597 94.8799 22.4535 94.7957 22.4914 94.4986C22.5379 94.0711 22.8506 93.8481 23.0389 94.1037C23.1937 94.301 23.3546 94.4051 23.5599 94.3997C23.6366 94.3673 23.7455 94.4118 23.775 94.2452C23.8057 94.06 23.6956 94.0342 23.6447 93.956C23.558 93.8567 23.4084 93.8657 23.4266 93.5861C23.4138 93.2108 23.7651 93.2524 23.7523 92.8772C23.737 92.5392 23.879 92.3613 24.0162 92.2579C24.251 92.086 24.2643 91.8809 24.1353 91.573C24.0256 91.8279 23.9146 92.1015 23.7053 91.882C23.5654 91.7418 23.5589 91.5542 23.6626 91.3925C24.0318 90.8736 23.7903 90.5771 23.587 90.2643C23.431 90.0857 23.4516 89.7688 23.4117 89.5228L23.4315 89.5054L23.4303 89.524C23.2508 89.4187 23.0516 89.3309 22.8721 89.2256C22.7024 88.9712 22.5499 88.7366 22.2869 89.0564C22.1473 89.1971 22.0013 89.1502 21.8343 89.1393C21.8158 89.1381 21.7787 89.1357 21.7601 89.1344C21.6323 88.8079 21.611 88.5631 21.9252 88.6023C22.0736 88.612 22.2096 88.5272 22.3169 88.3096C22.3193 88.2723 22.3218 88.235 22.3242 88.1977C22.4033 88.128 22.513 87.8731 22.5638 87.9513C22.861 88.2514 22.8914 87.7854 23.0185 87.5503C23.0641 87.4222 23.1444 87.3339 23.1182 87.1637C23.0279 87.1203 22.9464 87.2274 22.8722 87.2225C22.835 87.2201 22.7979 87.2177 22.7608 87.2153C22.5442 87.1076 22.4055 86.9488 22.6004 86.5309C22.709 86.2946 22.6715 86.0114 22.7256 85.7528C22.7268 85.7342 22.7454 85.7354 22.7454 85.7354C22.4832 85.7557 22.284 85.6679 22.203 85.1946C22.1659 85.1922 22.172 85.099 22.1373 85.0593C22.0679 84.9799 21.9998 84.8818 21.9304 84.8024C21.622 84.3892 21.7003 83.7578 21.6638 83.1751C21.613 83.097 21.5993 83.0212 21.661 82.9316C22.014 82.3743 21.6913 82.4656 21.507 82.4348C21.3291 82.5917 21.194 82.377 21.027 82.3661C20.9157 82.3589 20.7302 82.3468 20.7496 82.0486C20.7654 81.8062 20.9038 81.6842 21.0361 81.6554C21.2176 81.4425 21.4677 81.6086 21.6541 81.3212C21.807 80.9755 21.9386 80.385 22.1798 80.4007C22.6634 80.4135 22.8793 79.9596 23.0493 79.3529C23.0715 79.2981 23.0925 79.2621 23.1147 79.2073C23.1578 79.1166 23.2183 79.0456 23.2615 78.9548C23.264 78.9175 23.2664 78.8803 23.2676 78.8616C23.2128 78.5585 23.2693 78.2627 23.3803 77.9891C23.3618 77.9879 23.3432 77.9867 23.3444 77.9681C23.3307 77.8923 23.2997 77.7967 23.286 77.7209C23.2921 77.6277 23.2981 77.5345 23.3574 77.4822C23.3881 77.297 23.3422 77.1442 23.3148 76.9927C23.3136 77.0113 23.3136 77.0113 23.2938 77.0287C23.0824 77.1273 22.9239 76.9859 22.7505 76.7874C22.4533 76.4873 22.5591 76.0074 22.5302 75.5937C22.5116 75.5925 22.4943 75.5727 22.4757 75.5715C22.4781 75.5342 22.4806 75.4969 22.483 75.4596C22.2874 75.3158 22.1548 75.0638 22.0035 74.8106C21.7681 74.4209 21.99 73.8737 21.8881 73.4365C21.872 73.398 21.8558 73.3595 21.8211 73.3198C21.7618 73.3721 21.7062 73.3685 21.6739 73.2915C21.5723 73.1351 21.4917 72.9427 21.3703 72.8037C21.0755 72.4663 21.0454 72.0712 21.1758 71.4994C21.3639 70.6131 21.2796 70.4765 20.7255 70.403C20.3927 70.3626 20.0591 70.6217 19.7324 70.4881C19.4997 70.3419 19.267 70.1957 19.0331 70.0681C18.9588 70.0633 18.8858 70.0398 18.8302 70.0362C18.6556 69.8564 18.4442 69.9549 18.2635 69.8683C18.032 69.7034 17.8097 69.9698 17.6032 69.9937C17.2458 70.0454 16.9514 69.9887 16.8245 69.3627C16.7946 69.2484 16.7672 69.0969 16.6906 69.1293C16.2864 69.3277 16.0445 68.7503 15.719 68.5981C15.5037 68.4717 15.2439 68.4548 15.0915 68.2202C14.7048 67.5773 14.2188 67.6018 13.7154 67.6064C13.6993 67.568 13.6646 67.5283 13.6497 67.4711C13.6421 67.3021 13.6159 67.132 13.607 66.9816C12.9786 66.9033 12.3773 66.6956 11.8288 66.248C11.6828 66.2011 11.7111 66.0532 11.7764 65.9077C11.8406 65.7808 11.9233 65.6552 12.0294 65.4561C11.6596 65.4133 11.5092 64.8607 11.2011 64.7283C11.185 64.6898 11.1503 64.6501 11.1342 64.6116C11.1366 64.5743 11.1403 64.5184 11.1427 64.4811C10.8656 64.4443 11.021 64.0613 10.9799 63.834C10.9823 63.7967 10.9847 63.7594 10.9871 63.7222C10.8928 63.4539 10.9506 63.1394 10.8946 62.855C10.8075 62.4749 10.9918 62.5057 11.1032 62.5129C11.4384 62.516 11.7526 62.5552 12.0877 62.5583C12.162 62.5631 12.3116 62.5542 12.3338 62.4994C12.4618 61.9649 12.7292 62.1508 12.995 62.0745C12.8289 61.7642 12.6543 61.5843 12.455 61.4964C12.2199 61.3875 12.2159 61.1626 12.3479 60.853C12.3503 60.8157 12.3527 60.7784 12.3539 60.7598C12.2326 60.6208 12.0422 60.6833 11.9454 60.4524C11.9293 60.4139 11.8934 60.3928 11.8773 60.3543C11.6893 60.3795 11.6543 60.059 11.5305 59.9573C11.4958 59.9176 11.4438 59.8581 11.4091 59.8184C11.32 59.7564 11.2506 59.677 11.2627 59.4906C11.2639 59.472 11.3579 59.4594 11.4148 59.4444C11.514 59.638 11.6499 59.5533 11.7774 59.599C11.9073 59.6075 12.0186 59.6147 12.1485 59.6232C12.3711 59.6377 12.5938 59.6522 12.8164 59.6667C13.1008 59.5916 13.325 59.8683 13.6057 59.8491C13.6219 59.8876 13.6206 59.9063 13.6182 59.9435C13.6553 59.946 13.711 59.9496 13.7481 59.952C13.8062 59.9183 13.8457 59.8835 13.905 59.8312C13.9914 59.6496 14.0741 59.524 14.2064 59.4951C14.3387 59.4663 14.5267 59.4411 14.5598 59.2186C14.5965 58.9402 14.4244 58.7231 14.2772 58.6948C13.9815 58.6568 13.9441 58.3735 13.9695 57.9821C13.972 57.9448 13.9756 57.8889 13.978 57.8516L13.9768 57.8702C13.9793 57.833 13.9829 57.777 13.9853 57.7397C13.9668 57.7385 13.9297 57.7361 13.9123 57.7163C13.5126 57.5592 13.0956 57.3823 12.6959 57.2252C12.6403 57.2216 12.5846 57.218 12.5511 57.1596C12.4769 57.1548 12.4212 57.1512 12.347 57.1463C12.3458 57.165 12.3446 57.1836 12.3261 57.1824C12.1901 57.2671 12.0836 57.1853 11.976 57.1222C10.9999 56.9463 10.8946 56.8458 10.719 55.8235C11.1223 55.9246 11.5111 56.2495 11.9338 56.0524C12.0871 55.9875 12.321 56.115 12.3441 55.7608C12.366 55.4253 12.1223 55.4469 11.9788 55.3626C11.9626 55.3242 11.9639 55.3055 11.9663 55.2682C11.5133 55.0702 11.0136 55.019 10.6467 54.3586C11.0013 54.0635 11.2848 54.2878 11.578 54.3631C11.7079 54.3716 11.8402 54.3427 11.9665 54.4071C12.6743 54.6966 13.3942 54.7996 14.1376 54.8293C14.4716 54.8511 14.8153 54.7237 15.1347 54.9691C15.1544 54.9517 15.173 54.9529 15.2089 54.974C15.2064 55.0112 15.204 55.0485 15.2004 55.1044C15.3512 55.0768 15.4593 55.4208 15.6432 55.1707C15.663 55.1533 15.6642 55.1347 15.684 55.1172C15.8272 54.9206 16.0043 55.0632 16.1539 55.0542C16.1341 55.0717 16.1144 55.0891 16.0946 55.1065C16.1132 55.1077 16.1515 55.0915 16.1539 55.0542C16.1725 55.0554 16.191 55.0566 16.2281 55.0591C16.5435 55.0796 16.859 55.1001 17.1744 55.1207C17.2224 54.9553 17.4225 54.7437 17.1244 54.743C17.0317 54.737 16.9401 54.7123 16.8474 54.7063C16.7841 54.5337 16.7208 54.3611 16.5748 54.3141C16.4869 54.2335 16.3804 54.1517 16.2925 54.0711C16.071 54.0379 15.8411 54.1353 15.6516 53.8983C15.1135 53.8633 14.573 53.8655 14.0532 53.5508C13.4978 53.4959 12.9533 53.2733 12.393 53.293C12.2196 53.0945 11.9328 53.2068 11.8506 52.7522C11.9717 52.6103 12.177 52.605 12.1988 52.2694C12.2098 52.1016 12.1194 52.0583 12.0267 52.0523L11.9746 51.9927L11.9375 51.9903C11.9202 51.9705 11.9041 51.932 11.9065 51.8947C11.6084 51.894 11.4201 51.6384 11.2984 51.2186C11.2202 50.9889 11.0508 51.0153 10.9504 50.8403C10.8403 50.8144 10.7338 50.7325 10.6705 50.5599C10.5911 50.3489 10.5117 50.1378 10.4137 49.9255C10.3976 49.887 10.3641 49.8286 10.348 49.7901C10.2762 49.748 10.2835 49.6362 10.2896 49.543C10.173 49.3295 10.3719 49.1365 10.3296 48.9278C10.28 48.831 10.2478 48.754 10.1982 48.6572C10.176 48.7119 10.1364 48.7467 10.1142 48.8015C9.89646 48.7124 9.89611 48.4316 9.93409 48.1345C9.99305 47.8014 10.1613 47.7936 10.3097 47.8033C10.5335 47.7992 10.7501 47.9069 10.9679 47.9959C10.9655 48.0332 10.9631 48.0705 10.9606 48.1078C11.3317 48.1319 11.6842 48.1549 12.0553 48.1791C13.4255 48.0249 14.797 47.8522 16.1672 47.698C16.2067 47.6632 16.2624 47.6668 16.2995 47.6692C16.4887 47.6254 16.6791 47.5629 16.8683 47.5191C17.1329 47.4614 17.2204 47.2612 17.0196 46.9111C16.8736 46.8642 16.7474 46.7998 16.6014 46.7529C16.5542 46.6188 16.459 46.65 16.3872 46.6079C16.3897 46.5706 16.3921 46.5333 16.4131 46.4972L16.3945 46.496C16.3921 46.5333 16.3897 46.5706 16.3872 46.6079C15.7939 46.85 15.784 45.8572 15.4719 45.4999C15.5126 45.4464 15.515 45.4092 15.5348 45.3917C15.5731 45.3755 15.6127 45.3406 15.6498 45.343C16.2003 45.4725 16.6848 45.1858 17.1181 44.5401C17.2416 44.3609 17.4469 44.3556 17.4539 43.9629C17.1752 43.664 16.8327 43.7727 16.5234 43.659C15.9741 43.5109 15.4174 43.4746 14.8717 43.2706C14.3632 43.069 13.8473 42.9792 13.3242 43.0013C12.9506 43.0144 12.5796 42.9903 12.2452 42.6877C11.9274 42.7044 11.7153 42.2413 11.4173 42.2406C10.8026 42.238 10.2234 41.9757 9.62724 41.9743C9.37963 41.771 9.02347 41.8039 9.04984 41.113C8.53969 40.6492 8.01342 40.1469 7.39872 40.1444C7.30594 40.1383 7.21924 40.0391 7.15352 39.9037C6.88823 39.3997 6.55513 39.0785 6.17642 38.8854C5.83482 38.6946 5.65501 38.3085 5.71484 37.6759C5.72941 37.4522 5.74155 37.2658 5.5992 37.163C5.54353 37.1593 5.50644 37.1569 5.45077 37.1533C5.31327 36.9759 5.17696 36.7798 5.03946 36.6023C4.9935 36.4496 4.89068 36.3118 4.94478 36.0533ZM52.3619 108.481C52.3619 108.481 52.3433 108.48 52.3619 108.481C52.3433 108.48 52.3433 108.48 52.3619 108.481C52.3433 108.48 52.3619 108.481 52.3619 108.481ZM97.7641 115.145C97.7456 115.143 97.7456 115.143 97.7641 115.145V115.145ZM8.31896 39.1747L8.33872 39.1572C8.32139 39.1374 8.32139 39.1374 8.30406 39.1175C8.32139 39.1374 8.32018 39.156 8.31896 39.1747ZM185.058 70.7905C185.077 70.7917 185.077 70.7917 185.058 70.7905C185.077 70.7917 185.077 70.7917 185.058 70.7905C185.06 70.7719 185.058 70.7905 185.058 70.7905ZM189.07 70.1345C189.09 70.117 189.09 70.117 189.109 70.0996C189.091 70.0984 189.074 70.0786 189.055 70.0773C189.072 70.0972 189.071 70.1158 189.07 70.1345ZM192.042 64.843L192.023 64.8418C192.023 64.8418 192.023 64.8418 192.022 64.8604C192.022 64.8604 192.041 64.8616 192.042 64.843ZM118.211 8.32943C118.192 8.32822 118.192 8.32822 118.211 8.32943C118.208 8.36671 118.207 8.38535 118.205 8.42264C118.205 8.42264 118.205 8.42264 118.223 8.42384C118.206 8.40399 118.19 8.3655 118.211 8.32943ZM76.5755 11.6271C76.5941 11.6283 76.5941 11.6283 76.5755 11.6271C76.5941 11.6283 76.5941 11.6283 76.5755 11.6271ZM71.413 11.6466C71.5219 11.6911 71.58 11.6574 71.6034 11.5841C71.5651 11.6003 71.5082 11.6153 71.413 11.6466ZM68.7664 12.8033C68.7676 12.7847 68.7874 12.7673 68.7886 12.7486C68.7701 12.7474 68.7688 12.7661 68.7664 12.8033ZM69.546 13.1349L69.5448 13.1536C69.5448 13.1536 69.5448 13.1536 69.5634 13.1548C69.5448 13.1536 69.546 13.1349 69.546 13.1349ZM69.0095 13.3621C69.0083 13.3807 69.0083 13.3807 69.0095 13.3621C69.0083 13.3807 69.0083 13.3807 69.0095 13.3621C69.0083 13.3807 69.0083 13.3807 69.0095 13.3621C69.0095 13.3621 69.0083 13.3807 69.0095 13.3621ZM76.4457 11.6186C76.4283 11.5988 76.4098 11.5976 76.3739 11.5765C76.3912 11.5964 76.4098 11.5976 76.4457 11.6186ZM81.8913 13.5458C81.8925 13.5271 81.9135 13.4911 81.9147 13.4724C81.8949 13.4899 81.8764 13.4887 81.8752 13.5073C81.8554 13.5247 81.874 13.5259 81.8913 13.5458ZM82.3572 13.2579L82.3746 13.2777C82.3758 13.2591 82.3758 13.2591 82.377 13.2405L82.3572 13.2579ZM95.9746 12.1604C95.9932 12.1616 95.9932 12.1616 95.9746 12.1604C95.9932 12.1616 95.9746 12.1604 95.9746 12.1604C95.9758 12.1417 95.9758 12.1417 95.977 12.1231C95.9758 12.1417 95.9746 12.1604 95.9746 12.1604ZM97.6284 108.359C97.6297 108.34 97.6297 108.34 97.6297 108.34C97.6284 108.359 97.6284 108.359 97.6284 108.359ZM97.9585 113.304L97.9598 113.285L97.9585 113.304ZM137.847 110.211C137.85 110.173 137.835 110.116 137.819 110.078C137.784 110.038 137.766 110.037 137.747 110.036C137.78 110.094 137.814 110.152 137.847 110.211ZM196.378 55.4845C196.378 55.4845 196.379 55.4658 196.378 55.4845C196.36 55.4646 196.36 55.4646 196.378 55.4845ZM189.427 43.2006C189.429 43.1633 189.391 43.1795 189.351 43.2144C189.367 43.2529 189.365 43.2902 189.382 43.31C189.403 43.2739 189.424 43.2379 189.427 43.2006ZM201.03 34.1095C201.032 34.0908 201.032 34.0908 201.033 34.0722C201.033 34.0722 201.033 34.0722 201.014 34.071C201.032 34.0908 201.032 34.0908 201.03 34.1095ZM193.425 21.577L193.424 21.5957C193.424 21.5957 193.442 21.5969 193.425 21.577C193.442 21.5969 193.424 21.5957 193.425 21.577ZM160.316 18.6907C160.316 18.6907 160.298 18.6895 160.316 18.6907C160.295 18.7268 160.315 18.7094 160.316 18.6907ZM93.5989 108.434C93.6014 108.396 93.6224 108.36 93.6248 108.323C93.605 108.34 93.6026 108.378 93.5989 108.434ZM138.817 109.057C138.817 109.057 138.798 109.056 138.817 109.057C138.816 109.076 138.816 109.076 138.815 109.094C138.816 109.076 138.817 109.057 138.817 109.057ZM141.755 12.1653C141.755 12.1653 141.753 12.184 141.755 12.1653C141.753 12.184 141.753 12.184 141.755 12.1653C141.753 12.184 141.755 12.1653 141.755 12.1653ZM132.871 15.5367C132.87 15.5554 132.87 15.5554 132.888 15.5566C132.889 15.538 132.889 15.538 132.871 15.5367ZM142.364 14.8259C142.363 14.8445 142.363 14.8445 142.361 14.8631C142.36 14.8818 142.359 14.9004 142.378 14.9016C142.552 14.8007 142.741 14.7568 142.897 14.9355L142.896 14.9541C142.935 14.9192 142.955 14.9018 142.975 14.8844C143.033 14.8507 143.107 14.8555 143.163 14.8592C143.277 14.8291 143.409 14.8003 143.493 14.656C143.498 14.5815 143.503 14.5069 143.507 14.4323C143.478 14.3181 143.447 14.2224 143.416 14.1268C143.206 13.9073 142.996 13.9872 142.779 14.1789L142.777 14.1976C142.668 14.4525 142.44 14.5126 142.364 14.8259ZM143.568 14.6422C143.57 14.6236 143.57 14.6236 143.571 14.6049C143.57 14.6236 143.568 14.6422 143.568 14.6422ZM139.601 17.7722C139.619 17.7734 139.638 17.7746 139.675 17.777C139.658 17.7572 139.62 17.7547 139.601 17.7722ZM142.097 16.9238C142.097 16.9238 142.115 16.9251 142.097 16.9238C142.118 16.8878 142.1 16.8679 142.102 16.8493C142.099 16.8866 142.098 16.9052 142.097 16.9238ZM138.266 107.786L138.248 107.784C138.248 107.784 138.248 107.784 138.266 107.786C138.248 107.784 138.248 107.784 138.266 107.786ZM130.231 107C130.23 107.019 130.23 107.019 130.231 107C130.23 107.019 130.23 107.019 130.231 107C130.23 107.019 130.23 107.019 130.231 107ZM134.433 15.5823C134.429 15.6382 134.426 15.6942 134.444 15.6954C134.444 15.6954 134.444 15.6954 134.463 15.6966C134.465 15.6593 134.449 15.6208 134.433 15.5823ZM145.022 12.6402C145.023 12.6216 145.024 12.6029 145.025 12.5843C145.024 12.6029 145.006 12.6017 145.004 12.6203L145.022 12.6402ZM136.399 108.712C136.397 108.731 136.415 108.751 136.412 108.788C136.413 108.769 136.433 108.752 136.434 108.733C136.434 108.733 136.416 108.732 136.399 108.712ZM127.845 108.736C127.86 108.793 127.857 108.83 127.855 108.867C127.857 108.83 127.86 108.793 127.845 108.736ZM124.754 109.264C124.792 109.267 124.829 109.269 124.886 109.254C124.83 109.251 124.793 109.248 124.754 109.264ZM122.318 10.2069C122.283 10.1672 122.246 10.1647 122.208 10.181C122.244 10.202 122.281 10.2044 122.318 10.2069ZM103.329 110.658C103.328 110.677 103.328 110.677 103.328 110.677C103.328 110.677 103.328 110.677 103.347 110.678C103.328 110.677 103.328 110.677 103.329 110.658ZM100.405 111.498C100.405 111.498 100.424 111.499 100.405 111.498C100.425 111.48 100.425 111.48 100.405 111.498C100.406 111.479 100.405 111.498 100.405 111.498ZM135.969 12.3127C135.95 12.3115 135.952 12.2929 135.969 12.3127C135.952 12.2929 135.95 12.3115 135.969 12.3127C135.95 12.3115 135.969 12.3127 135.969 12.3127ZM142.753 11.4254C142.712 11.4789 142.691 11.515 142.653 11.5312C142.705 11.5908 142.728 11.5174 142.753 11.4254ZM136.777 9.35136C136.778 9.33272 136.78 9.29544 136.8 9.278C136.781 9.2768 136.763 9.27559 136.763 9.27559C136.743 9.29302 136.759 9.33151 136.777 9.35136ZM143.769 10.125C143.771 10.1064 143.789 10.1076 143.79 10.0889L143.772 10.0877C143.771 10.1064 143.771 10.1064 143.769 10.125ZM157.043 20.3121C157.042 20.3308 157.042 20.3308 157.041 20.3494C157.042 20.3308 157.043 20.3121 157.043 20.3121C157.044 20.2935 157.044 20.2935 157.043 20.3121ZM163.31 18.4926C163.312 18.474 163.313 18.4553 163.331 18.4565C163.313 18.4553 163.313 18.4553 163.294 18.4541C163.294 18.4541 163.293 18.4728 163.31 18.4926ZM160.133 18.9222C160.133 18.9222 160.132 18.9408 160.133 18.9222C160.132 18.9408 160.151 18.942 160.133 18.9222C160.152 18.9234 160.133 18.9222 160.133 18.9222ZM179.112 97.4353C179.092 97.4527 179.111 97.4539 179.112 97.4353C179.111 97.4539 179.111 97.4539 179.112 97.4353ZM179.76 84.055C179.545 83.9287 179.397 84.1999 179.204 84.2996C179.23 84.4698 179.303 84.4933 179.373 84.554C179.373 84.554 179.392 84.5552 179.393 84.5366C179.433 84.5017 179.471 84.4855 179.509 84.4693C179.543 84.2468 179.762 84.3172 179.76 84.055ZM178.491 84.665C178.472 84.6638 178.434 84.68 178.415 84.6788C178.432 84.6987 178.47 84.7011 178.487 84.7209C178.488 84.7023 178.489 84.6837 178.491 84.665ZM177.67 72.9489C177.651 72.9477 177.651 72.9477 177.67 72.9489V72.9489ZM177.785 98.3597C177.784 98.3783 177.781 98.4156 177.78 98.4343C177.817 98.4367 177.835 98.4565 177.87 98.4776C177.836 98.4379 177.801 98.3982 177.785 98.3597ZM179.437 70.7052C179.436 70.7239 179.435 70.7425 179.415 70.7599C179.455 70.7064 179.495 70.6716 179.549 70.6938C179.589 70.659 179.627 70.6427 179.666 70.6265C179.577 70.5645 179.468 70.52 179.437 70.7052ZM176.39 99.1861C176.39 99.1861 176.391 99.1675 176.39 99.1861C176.391 99.1675 176.391 99.1675 176.39 99.1861ZM191.037 62.812C191.034 62.8679 191.03 62.9238 191.066 62.9449C191.051 62.8877 191.054 62.8505 191.037 62.812ZM195.442 55.2551L195.425 55.2352C195.425 55.2352 195.425 55.2352 195.424 55.2539L195.423 55.2725C195.424 55.2539 195.442 55.2551 195.442 55.2551ZM192.097 51.1247L192.095 51.1433L192.097 51.1247ZM194.225 56.7857C194.224 56.8044 194.224 56.8044 194.225 56.7857V56.7857ZM192.395 61.4215C192.354 61.475 192.315 61.5099 192.275 61.5447C192.313 61.5285 192.351 61.5309 192.388 61.5333C192.37 61.5135 192.373 61.4762 192.395 61.4215ZM197.848 31.7681C197.848 31.7681 197.829 31.7669 197.848 31.7681C197.829 31.7669 197.829 31.7669 197.848 31.7681C197.829 31.7669 197.829 31.7669 197.848 31.7681C197.847 31.7867 197.848 31.7681 197.848 31.7681ZM200 31.0471C200.001 31.0285 200.001 31.0285 200.003 31.0099C200.003 31.0099 200.001 31.0285 200 31.0471C200.001 31.0285 200 31.0471 200 31.0471ZM196.94 31.9711C196.941 31.9524 196.941 31.9524 196.94 31.9711C196.941 31.9524 196.941 31.9524 196.94 31.9711ZM195.3 31.6958C195.3 31.6958 195.318 31.697 195.3 31.6958C195.318 31.697 195.318 31.697 195.3 31.6958ZM195.014 34.6537L194.995 34.6524C194.994 34.6711 195.013 34.6723 195.012 34.6909C195.013 34.6723 195.014 34.6537 195.014 34.6537ZM195.681 26.1233C195.68 26.1419 195.679 26.1605 195.676 26.1978C195.695 26.199 195.715 26.1816 195.735 26.1642C195.716 26.163 195.699 26.1431 195.681 26.1233ZM195.751 23.3385L195.732 23.3373C195.731 23.3559 195.732 23.3373 195.751 23.3385ZM197.436 26.9302C197.435 26.9488 197.435 26.9488 197.415 26.9663L197.434 26.9675C197.435 26.9488 197.435 26.9488 197.436 26.9302ZM198.249 31.0454L198.25 31.0268C198.251 31.0081 198.251 31.0081 198.234 30.9883C198.251 31.0081 198.25 31.0268 198.249 31.0454ZM197.669 24.2122C197.668 24.2308 197.668 24.2308 197.669 24.2122C197.668 24.2308 197.668 24.2308 197.669 24.2122ZM196.616 25.5102C196.634 25.5114 196.634 25.5114 196.616 25.5102C196.634 25.5114 196.634 25.5114 196.616 25.5102C196.634 25.5114 196.634 25.5114 196.616 25.5102ZM196.677 26.0009C196.676 26.0195 196.676 26.0195 196.677 26.0009C196.676 26.0195 196.677 26.0009 196.677 26.0009ZM200.576 32.7882C200.576 32.7882 200.558 32.787 200.556 32.8056C200.574 32.8255 200.573 32.8441 200.59 32.864C200.573 32.8441 200.575 32.8068 200.576 32.7882ZM192.425 61.8166C192.424 61.8352 192.442 61.8364 192.425 61.8166C192.444 61.8178 192.425 61.8166 192.425 61.8166ZM195.913 22.5628C195.916 22.5255 195.935 22.5081 195.938 22.4708C195.918 22.4882 195.898 22.5057 195.913 22.5628ZM193.22 38.1685C193.267 38.0218 193.351 37.8775 193.395 37.7681C193.301 37.7807 193.208 37.7747 193.118 37.7313C193.187 37.8107 193.193 38.017 193.22 38.1685ZM195.11 53.4924C195.09 53.5099 195.052 53.5261 195.032 53.5435C194.993 53.5784 194.989 53.6343 194.984 53.7089C194.999 53.766 195.014 53.8232 195.009 53.8977C195.068 53.8454 195.126 53.8118 195.183 53.7967C195.334 53.7691 195.419 53.6062 195.507 53.406C195.372 53.4721 195.246 53.4077 195.11 53.4924ZM194.987 53.9524C194.987 53.9524 194.986 53.9711 194.967 53.9699C194.986 53.9711 194.987 53.9524 194.987 53.9524ZM195.14 56.1714C195.14 56.1714 195.159 56.1726 195.14 56.1714C195.16 56.154 195.16 56.154 195.161 56.1353C195.161 56.1353 195.142 56.1528 195.14 56.1714C195.142 56.1528 195.142 56.1528 195.14 56.1714ZM184.424 70.2251C184.423 70.2437 184.423 70.2437 184.423 70.2437L184.422 70.2623C184.441 70.2636 184.441 70.2636 184.459 70.2648C184.442 70.2449 184.424 70.2251 184.424 70.2251ZM197.957 28.3681C197.956 28.3868 197.955 28.4054 197.955 28.4054C197.956 28.3868 197.975 28.388 197.957 28.3681ZM197.157 38.6496C197.055 38.7927 196.93 38.7097 196.758 38.7734C196.921 38.8402 197.052 38.83 197.157 38.6496ZM195.103 39.8637L195.102 39.8823L195.103 39.8637ZM186.498 68.4319C186.498 68.4319 186.496 68.4505 186.498 68.4319C186.478 68.4493 186.495 68.4692 186.495 68.4692C186.496 68.4505 186.496 68.4505 186.498 68.4319ZM180.896 74.0575C180.915 74.0401 180.934 74.0413 180.935 74.0227L180.936 74.004C180.917 74.0215 180.915 74.0401 180.896 74.0575ZM161.991 100.27C161.993 100.233 161.995 100.196 161.998 100.158C161.977 100.194 161.974 100.232 161.991 100.27ZM136.176 110.121C136.175 110.139 136.192 110.159 136.191 110.178C136.194 110.14 136.194 110.14 136.176 110.121C136.195 110.122 136.195 110.122 136.176 110.121ZM131.151 107.753C131.152 107.734 131.152 107.734 131.151 107.753C131.132 107.752 131.132 107.752 131.132 107.752C131.151 107.753 131.151 107.753 131.151 107.753ZM137.955 8.99753L137.956 8.97889C137.938 8.97768 137.938 8.97768 137.919 8.97647C137.938 8.97768 137.956 8.97889 137.955 8.99753ZM151.261 17.2586C151.262 17.2399 151.263 17.2213 151.282 17.2225C151.262 17.2399 151.244 17.2387 151.261 17.2586C151.242 17.2574 151.242 17.2574 151.261 17.2586ZM160.347 18.2247L160.348 18.2061C160.328 18.2235 160.347 18.2247 160.347 18.2247ZM200.325 22.9063C200.325 22.9063 200.307 22.9051 200.325 22.9063C200.307 22.9051 200.325 22.9063 200.325 22.9063ZM198.204 24.0037C198.186 24.0025 198.186 24.0025 198.204 24.0037C198.186 24.0025 198.186 24.0025 198.204 24.0037C198.186 24.0025 198.186 24.0025 198.204 24.0037C198.186 24.0025 198.186 24.0025 198.204 24.0037C198.186 24.0025 198.185 24.0211 198.204 24.0037C198.185 24.0211 198.186 24.0025 198.204 24.0037C198.186 24.0025 198.185 24.0211 198.204 24.0037C198.185 24.0211 198.185 24.0211 198.204 24.0037C198.185 24.0211 198.185 24.0211 198.204 24.0037C198.186 24.0025 198.204 24.0037 198.204 24.0037ZM202.256 31.3064C202.256 31.3064 202.255 31.325 202.256 31.3064L202.255 31.325C202.255 31.325 202.255 31.325 202.256 31.3064ZM197.71 40.464C197.711 40.4454 197.695 40.4069 197.696 40.3882C197.693 40.4442 197.71 40.464 197.71 40.464ZM180.135 94.3194C180.235 94.2136 180.349 94.1836 180.442 94.1896C180.351 94.1463 180.235 94.2136 180.141 94.2262C180.157 94.2647 180.155 94.302 180.135 94.3194ZM97.3905 114.016C97.3905 114.016 97.3731 113.996 97.3743 113.977C97.3929 113.978 97.3917 113.997 97.3905 114.016C97.3917 113.997 97.3905 114.016 97.3905 114.016ZM112.745 8.7036L112.747 8.68496C112.728 8.68375 112.727 8.70239 112.708 8.70118C112.727 8.70239 112.745 8.7036 112.745 8.7036ZM116.072 8.54586C116.074 8.52722 116.074 8.52722 116.072 8.54586C116.055 8.52601 116.055 8.52601 116.072 8.54586C116.055 8.52601 116.055 8.52601 116.072 8.54586ZM131.48 8.85664C131.481 8.838 131.501 8.82057 131.503 8.78329C131.485 8.78208 131.485 8.78208 131.466 8.78087C131.464 8.81815 131.481 8.838 131.48 8.85664ZM149.66 11.22C149.66 11.22 149.679 11.2213 149.66 11.22V11.22ZM150.675 11.6605C150.675 11.6605 150.657 11.6593 150.675 11.6605C150.657 11.6593 150.675 11.6605 150.675 11.6605ZM157.027 14.2645L157.007 14.2819C157.007 14.2819 157.007 14.2819 157.006 14.3005C157.007 14.2819 157.009 14.2633 157.027 14.2645ZM146.463 13.1085C146.463 13.1085 146.464 13.0898 146.463 13.1085C146.446 13.0886 146.446 13.0886 146.463 13.1085C146.445 13.1073 146.445 13.1073 146.463 13.1085ZM147.462 16.3747C147.499 16.3771 147.536 16.3795 147.573 16.3819C147.541 16.3049 147.505 16.2839 147.444 16.3548C147.444 16.3548 147.463 16.356 147.462 16.3747ZM189.368 21.2192C189.369 21.2006 189.369 21.2006 189.368 21.2192C189.369 21.2006 189.369 21.2006 189.368 21.2192ZM201.72 22.6602L201.721 22.6415C201.721 22.6415 201.721 22.6415 201.72 22.6602ZM201.592 28.062C201.593 28.0433 201.575 28.0421 201.592 28.062C201.575 28.0421 201.575 28.0421 201.592 28.062C201.573 28.0608 201.592 28.062 201.592 28.062ZM190.168 43.5484C190.122 43.3956 190.065 43.4107 189.944 43.5525C190.022 43.5014 190.098 43.469 190.168 43.5484ZM194.652 61.9616C194.633 61.9604 194.613 61.9778 194.613 61.9778C194.632 61.979 194.632 61.979 194.652 61.9616ZM180.357 83.4761C180.385 83.609 180.434 83.7245 180.568 83.6584C180.683 83.6097 180.837 83.5448 180.893 83.8293L180.912 83.8119C180.815 83.3001 180.583 83.4347 180.357 83.4761ZM180.395 87.1852C180.396 87.1666 180.378 87.1467 180.38 87.1281C180.377 87.1654 180.377 87.1654 180.395 87.1852ZM180.049 87.6307C180.05 87.6121 180.069 87.6133 180.07 87.5946C180.069 87.6133 180.067 87.6319 180.049 87.6307ZM173.2 100.663C173.199 100.682 173.218 100.683 173.236 100.684C173.238 100.666 173.219 100.664 173.2 100.663ZM97.0879 114.37C97.0681 114.388 97.0298 114.404 97.0112 114.403C97.0471 114.424 97.083 114.445 97.0991 114.483C97.1016 114.446 97.104 114.409 97.0879 114.37ZM80.6525 106.954C80.6896 106.956 80.7279 106.94 80.7477 106.923C80.7279 106.94 80.6896 106.956 80.6525 106.954ZM73.7066 13.0502C73.7054 13.0688 73.7227 13.0887 73.7203 13.126C73.7215 13.1073 73.7227 13.0887 73.7425 13.0712C73.7252 13.0514 73.7066 13.0502 73.7066 13.0502ZM15.9714 20.0917C15.9702 20.1103 15.9492 20.1464 15.948 20.165L15.9665 20.1663C15.9863 20.1488 15.9702 20.1103 15.9714 20.0917ZM8.4675 31.1721C8.48604 31.1733 8.48604 31.1733 8.4675 31.1721C8.46871 31.1535 8.45015 31.1522 8.45015 31.1522C8.46748 31.1721 8.4675 31.1721 8.4675 31.1721ZM11.1658 27.791C11.167 27.7723 11.167 27.7723 11.1683 27.7537C11.1683 27.7537 11.1682 27.7537 11.1497 27.7525C11.167 27.7723 11.167 27.7723 11.1658 27.791ZM9.37166 26.1578C9.37288 26.1392 9.37288 26.1392 9.37166 26.1578C9.37288 26.1392 9.37288 26.1392 9.37166 26.1578ZM11.29 26.1704C11.29 26.1704 11.2715 26.1692 11.29 26.1704C11.2727 26.1506 11.2727 26.1506 11.29 26.1704C11.2715 26.1692 11.2715 26.1692 11.29 26.1704ZM9.19236 27.1944C9.19114 27.2131 9.18993 27.2317 9.18871 27.2504L9.20726 27.2516C9.20847 27.2329 9.20969 27.2143 9.19236 27.1944ZM15.2884 30.0064C15.2896 29.9877 15.2896 29.9877 15.2884 30.0064C15.2711 29.9865 15.2711 29.9865 15.2884 30.0064C15.2711 29.9865 15.2711 29.9865 15.2884 30.0064ZM9.52146 27.2908C9.52146 27.2908 9.50413 27.2709 9.52146 27.2908C9.50413 27.2709 9.50292 27.2896 9.52146 27.2908ZM9.39473 25.8036C9.39473 25.8036 9.39594 25.785 9.39473 25.8036C9.39594 25.785 9.39594 25.785 9.39473 25.8036C9.39594 25.785 9.39594 25.785 9.39473 25.8036ZM17.919 18.7958C17.9388 18.7784 17.9586 18.7609 17.9796 18.7249C17.961 18.7236 17.9251 18.7026 17.9065 18.7014C17.9041 18.7387 17.9215 18.7585 17.919 18.7958ZM20.9217 16.4641C21.0592 16.6416 21.1592 16.5358 21.2803 16.3939C21.148 16.4227 21.0157 16.4515 20.9217 16.4641ZM29.1282 20.6303C29.1774 20.4463 29.2331 20.4499 29.3037 20.5107C29.1178 20.2178 28.8781 20.4643 28.6196 20.4287C28.8188 20.5166 29.0105 20.4354 29.1282 20.6303ZM27.2915 19.6496C27.2903 19.6682 27.2903 19.6682 27.2903 19.6682L27.2915 19.6496ZM27.6929 87.8734C27.6929 87.8734 27.6941 87.8548 27.6929 87.8734C27.6941 87.8548 27.6941 87.8548 27.6929 87.8734ZM26.189 82.927C26.1878 82.9456 26.1878 82.9456 26.168 82.963L26.1866 82.9643C26.2063 82.9468 26.1878 82.9456 26.189 82.927ZM26.06 86.6252C26.039 86.6612 26.0378 86.6799 26.0168 86.716C26.0366 86.6985 26.0378 86.6799 26.06 86.6252ZM30.4846 89.0661C30.4883 89.0102 30.4907 88.9729 30.4746 88.9345C30.4721 88.9717 30.4685 89.0277 30.4846 89.0661ZM21.5415 20.6791C21.5589 20.6989 21.5589 20.6989 21.5762 20.7188C21.5774 20.7002 21.5972 20.6827 21.5984 20.6641C21.5613 20.6617 21.5613 20.6617 21.5415 20.6791ZM21.8124 21.6702C21.7938 21.669 21.795 21.6503 21.7765 21.6491C21.7753 21.6678 21.7753 21.6678 21.7926 21.6876C21.8124 21.6702 21.8124 21.6702 21.8124 21.6702ZM19.9816 19.4543C19.9804 19.4729 19.9804 19.4729 19.9816 19.4543C19.9619 19.4717 19.9619 19.4717 19.9619 19.4717C19.9804 19.4729 19.9804 19.4729 19.9816 19.4543ZM22.595 17.3781C22.6123 17.3979 22.5938 17.3967 22.595 17.3781C22.6123 17.3979 22.6123 17.3979 22.595 17.3781C22.6123 17.3979 22.6135 17.3793 22.595 17.3781C22.6135 17.3793 22.6135 17.3793 22.595 17.3781C22.6135 17.3793 22.6135 17.3793 22.595 17.3781C22.6135 17.3793 22.6135 17.3793 22.595 17.3781C22.6135 17.3793 22.6135 17.3793 22.595 17.3781C22.6135 17.3793 22.6135 17.3793 22.595 17.3781ZM26.8352 92.4602C26.819 92.4217 26.7807 92.4379 26.7412 92.4728C26.7783 92.4752 26.8154 92.4776 26.8352 92.4602ZM24.3332 16.7237C24.2775 16.7201 24.2367 16.7736 24.2121 16.8656C24.2553 16.7748 24.2948 16.74 24.3332 16.7237ZM29.5534 94.2097C29.5546 94.1911 29.5546 94.1911 29.5558 94.1724C29.536 94.1899 29.5163 94.2073 29.4965 94.2247C29.4977 94.2061 29.5163 94.2073 29.5534 94.2097ZM24.7885 79.541C24.7885 79.541 24.7897 79.5224 24.7885 79.541C24.7897 79.5224 24.7897 79.5224 24.7885 79.541C24.7897 79.5224 24.7897 79.5224 24.7885 79.541C24.7711 79.5211 24.7711 79.5211 24.7885 79.541C24.7897 79.5224 24.7897 79.5224 24.7885 79.541C24.7897 79.5224 24.7885 79.541 24.7885 79.541ZM33.4346 95.2675C33.4334 95.2861 33.4334 95.2861 33.4346 95.2675C33.4334 95.2861 33.4334 95.2861 33.4346 95.2675ZM29.205 95.5536C29.2038 95.5723 29.2026 95.5909 29.2014 95.6095C29.2199 95.6107 29.2199 95.6107 29.2385 95.612C29.2211 95.5921 29.2223 95.5735 29.205 95.5536ZM18.2836 58.9744C18.2836 58.9744 18.3021 58.9756 18.2836 58.9744C18.3021 58.9756 18.3021 58.9756 18.2836 58.9744C18.3021 58.9756 18.3021 58.9756 18.2836 58.9744ZM18.1188 63.7935L18.12 63.7748L18.1188 63.7935ZM17.3158 61.5322C17.2985 61.5124 17.2997 61.4937 17.2811 61.4925C17.2985 61.5124 17.2985 61.5124 17.3158 61.5322ZM15.8185 63.9245C15.8148 63.9804 15.8309 64.0189 15.8273 64.0748C15.8495 64.0201 15.8346 63.963 15.8185 63.9245ZM17.5028 58.6615C17.5028 58.6615 17.5015 58.6801 17.5028 58.6615C17.5015 58.6801 17.5015 58.6801 17.5028 58.6615ZM12.7864 64.4197C12.8049 64.4209 12.8049 64.4209 12.7864 64.4197C12.8049 64.4209 12.8049 64.4209 12.7864 64.4197C12.8049 64.4209 12.8061 64.4022 12.7876 64.401C12.8061 64.4022 12.8061 64.4022 12.7864 64.4197ZM17.3484 59.887C17.3496 59.8683 17.3311 59.8671 17.3323 59.8485C17.3323 59.8485 17.3311 59.8671 17.3299 59.8857L17.3484 59.887ZM25.0951 90.5685C25.0963 90.5498 25.0963 90.5498 25.0951 90.5685C25.1197 90.4765 25.0407 90.5462 25.0951 90.5685C25.0963 90.5498 25.0963 90.5498 25.0951 90.5685ZM23.7364 81.9623C23.755 81.9635 23.755 81.9635 23.7364 81.9623C23.7376 81.9436 23.7574 81.9262 23.7574 81.9262C23.7389 81.925 23.7389 81.925 23.7215 81.9051C23.7389 81.925 23.7376 81.9436 23.7364 81.9623ZM23.2917 14.6903L23.2905 14.7089C23.2905 14.7089 23.2905 14.7089 23.2917 14.6903ZM27.6339 14.3928C27.6351 14.3741 27.6351 14.3741 27.6339 14.3928V14.3928ZM32.8578 14.0029C32.859 13.9842 32.859 13.9842 32.8578 14.0029C32.859 13.9842 32.859 13.9842 32.8578 14.0029C32.859 13.9842 32.8578 14.0029 32.8578 14.0029ZM32.2478 103.764L32.2465 103.783C32.2465 103.783 32.2465 103.783 32.2478 103.764ZM20.4948 69.9387C20.5158 69.9026 20.5368 69.8666 20.486 69.7884C20.4513 69.7487 20.4166 69.709 20.3807 69.6879C20.413 69.7649 20.4638 69.8431 20.4948 69.9387ZM19.2501 14.9512C19.2501 14.9512 19.2513 14.9326 19.2501 14.9512C19.2513 14.9326 19.2513 14.9326 19.2513 14.9326C19.2513 14.9326 19.2513 14.9326 19.2501 14.9512ZM184.903 20.8162C184.903 20.8162 184.923 20.7987 184.903 20.8162C184.923 20.7987 184.923 20.7987 184.903 20.8162C184.923 20.7987 184.923 20.7987 184.903 20.8162ZM198.353 21.43L198.356 21.3927C198.355 21.4114 198.353 21.43 198.353 21.43ZM180.916 80.3301L180.917 80.3115C180.897 80.3289 180.897 80.3289 180.916 80.3301C180.897 80.3289 180.916 80.3301 180.916 80.3301ZM180.056 96.673C180.056 96.673 180.057 96.6544 180.056 96.673C180.057 96.6544 180.057 96.6544 180.056 96.673C180.057 96.6544 180.056 96.673 180.056 96.673ZM149.307 105.622C149.287 105.639 149.286 105.658 149.265 105.694C149.286 105.658 149.306 105.64 149.307 105.622ZM143.478 107.002C143.497 107.003 143.497 107.003 143.478 107.002C143.497 107.003 143.497 107.003 143.478 107.002ZM137.505 111.181C137.504 111.199 137.504 111.199 137.505 111.181V111.181ZM131.553 110.437C131.553 110.437 131.552 110.456 131.571 110.457C131.571 110.457 131.572 110.439 131.591 110.44C131.553 110.437 131.553 110.437 131.553 110.437ZM123.52 110.195C123.539 110.196 123.557 110.197 123.558 110.179C123.54 110.178 123.54 110.178 123.52 110.195ZM108.943 112.297L108.942 112.316L108.943 112.297ZM96.7807 107.929C96.7621 107.928 96.7621 107.928 96.7807 107.929C96.7621 107.928 96.7621 107.928 96.7807 107.929ZM90.7273 107.61L90.726 107.629C90.726 107.629 90.726 107.629 90.7446 107.63C90.726 107.629 90.7273 107.61 90.7273 107.61ZM16.3246 20.6763C16.3048 20.6937 16.3048 20.6937 16.3246 20.6763C16.3234 20.6949 16.3234 20.6949 16.3246 20.6763ZM34.8016 13.624C34.8004 13.6427 34.8004 13.6427 34.8016 13.624C34.8004 13.6427 34.8004 13.6427 34.8016 13.624ZM199.449 26.0691C199.467 26.0703 199.466 26.0889 199.485 26.0901L199.486 26.0715C199.467 26.0703 199.449 26.0691 199.449 26.0691ZM204.074 29.4404C204.055 29.4392 204.055 29.4392 204.074 29.4404C204.055 29.4392 204.054 29.4578 204.074 29.4404C204.054 29.4578 204.055 29.4392 204.074 29.4404ZM203.841 30.4361L203.858 30.456C203.86 30.4374 203.86 30.4374 203.841 30.4361C203.861 30.4187 203.861 30.4187 203.841 30.4361ZM199.62 34.8788L199.621 34.8601L199.603 34.8589C199.603 34.8589 199.621 34.8601 199.62 34.8788ZM201.299 39.144C201.299 39.144 201.298 39.1626 201.299 39.144V39.144ZM189.683 45.5573C189.682 45.576 189.682 45.576 189.683 45.5573C189.682 45.576 189.682 45.576 189.683 45.5573ZM194.611 63.157L194.613 63.1197L194.595 63.1185C194.594 63.1372 194.611 63.157 194.611 63.157ZM162.197 103.391C162.197 103.391 162.198 103.373 162.197 103.391C162.177 103.409 162.176 103.427 162.175 103.446C162.176 103.427 162.177 103.409 162.197 103.391ZM141.402 108.851C141.383 108.85 141.383 108.85 141.402 108.851C141.383 108.85 141.383 108.85 141.402 108.851C141.383 108.85 141.383 108.85 141.402 108.851ZM109.729 112.535C109.608 112.378 109.372 112.568 109.261 112.28L109.241 112.298C109.395 112.514 109.584 112.47 109.729 112.535ZM100.42 113.839C100.42 113.839 100.403 113.819 100.42 113.839C100.403 113.819 100.402 113.837 100.42 113.839C100.402 113.837 100.402 113.837 100.42 113.839ZM12.2672 62.6636C12.266 62.6822 12.2846 62.6834 12.2833 62.7021C12.2846 62.6834 12.2858 62.6648 12.2672 62.6636Z" fill="#D92B2F"/>
</svg>
