<svg width="57" height="65" viewBox="0 0 57 65" fill="none" xmlns="http://www.w3.org/2000/svg">
<path d="M35.4395 5.06988C34.7772 4.7387 33.9903 5.30671 34.0954 6.0391C34.7952 10.9392 33.4087 14.2928 32.6821 15.6492C31.7178 14.944 30.6022 13.3751 30.0016 11.2636C29.4744 9.4112 29.0007 5.81102 31.7484 2.51381C32.2464 1.91613 31.8063 0.979492 31.0296 0.979492C25.3286 0.979492 20.7631 4.44934 17.8262 11.0131C16.3668 14.2763 15.6578 17.504 15.3451 19.3111C13.9664 18.1858 13.2646 16.5099 13.2544 14.3118C13.2442 12.1321 13.9367 10.2443 13.943 10.2268C14.0826 9.85472 13.9654 9.42287 13.6571 9.17194C13.3278 8.90495 12.8454 8.89522 12.506 9.15005C12.378 9.24586 9.3488 11.5442 6.30107 16.1155C3.49796 20.3202 0.156494 27.329 0.156494 36.8422C0.156494 43.9059 3.16629 50.9672 8.41411 56.2145C13.8997 61.7007 21.2226 64.7216 29.0338 64.7216C36.8445 64.7216 44.0502 61.5572 49.3228 55.8114C54.1466 50.5553 56.9132 43.6409 56.9132 36.8422C56.9132 22.884 49.6885 12.1944 35.4395 5.06988ZM29.0338 62.8503C14.3948 62.8503 2.02783 50.9405 2.02783 36.8422C2.02783 27.8342 5.17428 21.1995 7.81399 17.2195C9.12121 15.2484 10.4377 13.7141 11.4866 12.6253C11.4234 13.1373 11.3831 13.6898 11.3831 14.2641C11.3831 17.7437 12.8561 20.3192 15.6427 21.7125C16.2175 21.9999 16.9241 21.6109 16.9912 20.9733C16.9961 20.9276 17.498 16.329 19.5342 11.7771C21.8378 6.62803 25.0616 3.68534 29.135 3.0045C27.1722 6.4442 27.6624 9.87952 28.2017 11.7757C29.0319 14.694 30.894 17.1596 32.7298 17.7714C33.1116 17.8988 33.5322 17.7675 33.7739 17.4451C33.8945 17.2841 36.4939 13.7345 36.1262 7.53403C48.6804 14.3021 55.0419 24.1548 55.0419 36.8422C55.0419 49.4023 44.5915 62.8503 29.0338 62.8503Z" fill="#776F24"/>
<path d="M45.9985 23.9319H41.0711C40.5547 23.9319 40.1359 24.3511 40.1359 24.8676C40.1359 25.384 40.5547 25.8032 41.0711 25.8032H45.9985C47.1335 25.8032 48.0565 26.7262 48.0565 27.8613V46.8217C48.0565 47.9568 47.1335 48.8798 45.9985 48.8798H12.0693C10.9343 48.8798 10.0112 47.9568 10.0112 46.8217V27.8613C10.0112 26.7262 10.9343 25.8032 12.0693 25.8032H36.5805C37.0975 25.8032 37.5162 25.384 37.5162 24.8676C37.5162 24.3511 37.0975 23.9319 36.5805 23.9319H12.0693C9.90278 23.9319 8.13989 25.6948 8.13989 27.8613V46.8217C8.13989 48.9882 9.90278 50.7511 12.0693 50.7511H45.9985C48.165 50.7511 49.9279 48.9882 49.9279 46.8217V27.8613C49.9279 25.6948 48.165 23.9319 45.9985 23.9319Z" fill="#776F24"/>
<path d="M22.5646 38.4652L24.6553 41.4516C24.7263 41.5509 24.7545 41.6505 24.7545 41.7502C24.7545 42.1767 24.1573 42.6601 23.7167 42.6601C23.5314 42.6601 23.3753 42.575 23.2615 42.4184L21.3416 39.5886L20.4599 40.3993V41.9633C20.4599 42.2477 20.0334 42.5463 19.5213 42.5463C18.9956 42.5463 18.6255 42.2477 18.6255 41.9633V32.4218C18.6255 32.0804 18.9956 31.8528 19.5213 31.8528C20.0334 31.8528 20.4599 32.0804 20.4599 32.4218V38.3801L23.1336 35.8629C23.2328 35.7778 23.3612 35.7209 23.5032 35.7209C23.9015 35.7209 24.399 36.1902 24.399 36.6026C24.399 36.7305 24.3421 36.8443 24.2429 36.944L22.5646 38.4652Z" fill="#776F24"/>
<path d="M25.2668 39.759V38.6215C25.2668 36.986 26.1913 35.7061 28.3384 35.7061C29.6753 35.7061 30.6139 36.2609 30.6139 36.8153C30.6139 37.1567 30.3294 37.7111 29.8883 37.7111C29.5756 37.7111 29.3198 37.3133 28.4804 37.3133C27.5136 37.3133 27.1012 37.7967 27.1012 38.6215V39.759C27.1012 40.5838 27.5136 41.0672 28.495 41.0672C29.348 41.0672 29.5615 40.6407 29.917 40.6407C30.4145 40.6407 30.699 41.1528 30.699 41.5083C30.699 42.0768 29.6894 42.674 28.3525 42.674C26.2054 42.674 25.2668 41.4227 25.2668 39.759Z" fill="#776F24"/>
<path d="M36.9981 38.4795V41.9635C36.9981 42.2903 36.6144 42.5465 36.1023 42.5465C35.633 42.5465 35.2775 42.2903 35.2775 41.9635V41.5511C34.7654 42.1342 34.0972 42.6744 33.1158 42.6744C32.1062 42.6744 31.2673 42.0773 31.2673 40.7832C31.2673 39.1477 32.6183 38.6925 34.5806 38.6925H35.1637V38.5077C35.1637 37.8964 34.851 37.1995 33.9124 37.1995C32.8172 37.1995 32.6324 37.6401 32.291 37.6401C31.8791 37.6401 31.6656 37.1426 31.6656 36.7302C31.6656 36.1471 32.931 35.7065 33.9406 35.7065C36.1592 35.7065 36.9981 37.0429 36.9981 38.4795ZM35.1637 39.6452H34.9507C33.998 39.6452 33.1017 39.7449 33.1017 40.541C33.1017 41.0672 33.429 41.3089 33.8555 41.3089C34.4386 41.3089 35.1637 40.6407 35.1637 39.9438V39.6452Z" fill="#776F24"/>
<path d="M40.3258 32.4218V41.9633C40.3258 42.2477 39.8988 42.5463 39.4013 42.5463C38.8611 42.5463 38.4915 42.2477 38.4915 41.9633V32.4218C38.4915 32.0804 38.8611 31.8528 39.4013 31.8528C39.8988 31.8528 40.3258 32.0804 40.3258 32.4218Z" fill="#776F24"/>
</svg>
