<svg width="58" height="48" viewBox="0 0 58 48" fill="none" xmlns="http://www.w3.org/2000/svg">
<path d="M45.4362 13.563C44.8123 13.563 44.3059 14.0693 44.3059 14.6932C44.3059 15.3171 44.8123 15.8235 45.4362 15.8235C46.0601 15.8235 46.5664 15.3171 46.5664 14.6932C46.5664 14.0693 46.0601 13.563 45.4362 13.563Z" fill="#776F24"/>
<path d="M54.4781 9.04201H42.0657L38.4821 1.87475C37.9038 0.718388 36.7417 0 35.4492 0H22.4197C21.127 0 19.9649 0.718388 19.3868 1.87486L15.8032 9.04201H13.563V7.91176C13.563 6.0421 12.0419 4.52101 10.1723 4.52101H7.91176C6.0421 4.52101 4.52101 6.0421 4.52101 7.91176V9.04201H3.39075C1.52109 9.04201 0 10.5631 0 12.4328C0 15.5042 0 42.885 0 44.0798C0 45.9495 1.52109 47.4706 3.39075 47.4706H54.4781C56.3478 47.4706 57.8689 45.9495 57.8689 44.0798C57.8689 41.0084 57.8689 13.6276 57.8689 12.4328C57.8689 10.5631 56.3478 9.04201 54.4781 9.04201ZM21.4087 2.88576C21.6015 2.50012 21.9888 2.2605 22.4197 2.2605H35.4492C35.8801 2.2605 36.2675 2.50012 36.4603 2.88576L39.5385 9.04201H18.3304L21.4087 2.88576ZM6.78151 7.91176C6.78151 7.28854 7.28854 6.78151 7.91176 6.78151H10.1723C10.7955 6.78151 11.3025 7.28854 11.3025 7.91176V9.04201H6.78151V7.91176ZM2.2605 20.3332H16.5526C15.0505 22.6797 14.2412 25.4298 14.2412 28.2563C14.2412 31.083 15.0507 33.822 16.5525 36.1681H2.2605V20.3332ZM28.9344 15.8235C35.731 15.8235 41.3672 21.33 41.3672 28.2563C41.3672 35.1748 35.7389 40.6891 28.9344 40.6891C22.1239 40.6891 16.5017 35.1687 16.5017 28.2563C16.5017 21.3386 22.1292 15.8235 28.9344 15.8235ZM55.6084 44.0798C55.6084 44.703 55.1014 45.2101 54.4781 45.2101H3.39075C2.76753 45.2101 2.2605 44.703 2.2605 44.0798V38.4286H18.3356C21.0974 41.3075 24.9305 42.9496 28.9344 42.9496C32.939 42.9496 36.7725 41.3071 39.5334 38.4286H55.6084V44.0798ZM55.6084 36.1681H41.3162C42.8183 33.8215 43.6277 31.0829 43.6277 28.2563C43.6277 25.4296 42.8183 22.691 41.3162 20.3445H55.6084V36.1681ZM55.6084 18.084H39.5333C36.7716 15.205 32.9385 13.563 28.9344 13.563C24.93 13.563 21.0965 15.2055 18.3355 18.084H2.2605V12.4328C2.2605 11.8095 2.76753 11.3025 3.39075 11.3025C4.41714 11.3025 52.8892 11.3025 54.4781 11.3025C55.1014 11.3025 55.6084 11.8095 55.6084 12.4328V18.084Z" fill="#776F24"/>
<path d="M32.3251 4.521H25.5436C24.9193 4.521 24.4133 5.02701 24.4133 5.65125C24.4133 6.27549 24.9193 6.7815 25.5436 6.7815H32.3251C32.9492 6.7815 33.4553 6.27549 33.4553 5.65125C33.4553 5.02701 32.9492 4.521 32.3251 4.521Z" fill="#776F24"/>
<path d="M28.9345 18.084C23.3255 18.084 18.7622 22.6473 18.7622 28.2562C18.7622 33.8652 23.3255 38.4285 28.9345 38.4285C34.5435 38.4285 39.1067 33.8652 39.1067 28.2562C39.1067 22.6473 34.5435 18.084 28.9345 18.084ZM28.9345 36.168C24.5719 36.168 21.0227 32.6188 21.0227 28.2562C21.0227 23.8937 24.5719 20.3445 28.9345 20.3445C33.297 20.3445 36.8462 23.8937 36.8462 28.2562C36.8462 32.6188 33.297 36.168 28.9345 36.168Z" fill="#776F24"/>
<path d="M28.9345 22.605C25.8184 22.605 23.2832 25.1401 23.2832 28.2562C23.2832 28.8805 23.7892 29.3865 24.4135 29.3865C25.0377 29.3865 25.5437 28.8805 25.5437 28.2562C25.5437 26.3866 27.0648 24.8655 28.9345 24.8655C29.5586 24.8655 30.0647 24.3595 30.0647 23.7352C30.0647 23.111 29.5586 22.605 28.9345 22.605Z" fill="#776F24"/>
<path d="M52.2177 13.563H49.9572C49.333 13.563 48.8269 14.069 48.8269 14.6932C48.8269 15.3175 49.333 15.8235 49.9572 15.8235H52.2177C52.8418 15.8235 53.3479 15.3175 53.3479 14.6932C53.3479 14.069 52.8418 13.563 52.2177 13.563Z" fill="#776F24"/>
</svg>
