<svg width="64" height="78" viewBox="0 0 64 78" fill="none" xmlns="http://www.w3.org/2000/svg">
<path d="M62.8674 31.7512H44.71C42.7504 31.7512 41.1566 33.3597 41.1566 35.3366V46.4059H37.369V40.2211C37.369 38.2442 35.7752 36.6363 33.8156 36.6363H28.9102C28.5227 36.6363 28.1588 36.4625 27.9134 36.1596L25.3869 33.0449L45.6579 1.76805C46.0006 1.23961 45.8538 0.532047 45.3299 0.186298C44.8067 -0.158856 44.1048 -0.0106776 43.7621 0.517169L31.3972 19.5958L23.5224 12.8439L28.787 1.63178C29.0542 1.06168 28.8135 0.380298 28.2478 0.110126C27.6833 -0.159451 27.0073 0.0833471 26.7395 0.654041L15.9295 23.6776L8.096 31.5804C6.71039 32.9783 6.71039 35.2521 8.096 36.65L17.5723 46.2102C18.5462 47.1932 19.7177 47.9032 20.9965 48.3061C20.7299 48.8083 20.5783 49.382 20.5783 49.9908V61.0607H3.55339C1.59384 61.0607 0 62.6686 0 64.6455V76.8574C0 77.4882 0.50729 78 1.13256 78C1.75782 78 2.26511 77.4882 2.26511 76.8574V64.6455C2.26511 63.9284 2.84319 63.3452 3.55339 63.3452H21.7109C22.3361 63.3452 22.8434 62.8341 22.8434 62.2033V49.9908C22.8434 49.2743 23.4215 48.6911 24.1317 48.6911H42.2892C42.9144 48.6911 43.4217 48.1793 43.4217 47.5485V35.3366C43.4217 34.6195 43.9998 34.0369 44.71 34.0369H62.8674C63.4927 34.0369 64 33.5252 64 32.8944C64 32.263 63.4927 31.7512 62.8674 31.7512ZM18.1988 24.1816L20.3453 19.6107L27.422 25.73L23.8828 31.19L18.1988 24.1816ZM30.1478 21.5239L28.6719 23.8008L21.3504 17.4696L22.5184 14.9821L30.1478 21.5239ZM23.5088 46.4059C21.8713 46.4059 20.3317 45.7626 19.1738 44.5945L9.69751 35.0343C9.19493 34.5273 9.19493 33.7031 9.69751 33.1961L10.8165 32.0678L21.4112 42.7562C22.0825 43.4335 22.9749 43.8066 23.9241 43.8066H28.9734C29.5992 43.8066 30.1059 43.2948 30.1059 42.664C30.1059 42.0326 29.5992 41.5214 28.9734 41.5214H23.9241C23.5802 41.5214 23.2563 41.3857 23.0127 41.1406L12.418 30.4515L16.7848 26.0466L26.1603 37.6069C26.8374 38.4424 27.8402 38.9215 28.9102 38.9215H33.8156C34.5258 38.9215 35.1039 39.5047 35.1039 40.2211V41.5214H33.815C33.1892 41.5214 32.6825 42.0326 32.6825 42.664C32.6825 43.2948 33.1892 43.8066 33.815 43.8066H35.1039V46.4059H23.5088Z" fill="#776F24"/>
</svg>
