<svg width="60" height="60" viewBox="0 0 60 60" fill="none" xmlns="http://www.w3.org/2000/svg">
<path d="M18.4381 35.7277H12.2438C12.5755 34.5603 13.5795 33.987 15.1256 33.1973C17.0277 32.2258 19.395 31.0167 19.395 27.5614C19.395 24.7471 17.3344 22.4575 14.8014 22.4575C12.2685 22.4575 10.2079 24.7471 10.2079 27.5614C10.2079 28.0899 10.6363 28.5184 11.1649 28.5184C11.6934 28.5184 12.1219 28.09 12.1219 27.5614C12.1219 25.8025 13.3239 24.3714 14.8014 24.3714C16.2791 24.3714 17.4809 25.8025 17.4809 27.5614C17.4809 29.7349 16.2551 30.4713 14.2548 31.4929C12.4518 32.4138 10.2078 33.5599 10.2078 36.6847C10.2078 37.2132 10.6362 37.6417 11.1648 37.6417H18.4378C18.9663 37.6417 19.3949 37.2133 19.3949 36.6847C19.395 36.1561 18.9666 35.7277 18.4381 35.7277Z" fill="#776F24"/>
<path d="M53.6536 47.9916L52.112 48.5943C56.6222 43.2733 59.0782 36.6056 59.0782 29.539C59.0782 21.6489 56.0057 14.2309 50.4264 8.65182C44.8471 3.07275 37.4293 0 29.5391 0C23.4747 0 17.6475 1.82415 12.6873 5.27537C12.2535 5.57723 12.1465 6.17366 12.4484 6.60751C12.7501 7.04125 13.3466 7.14845 13.7805 6.84648C18.4183 3.61957 23.8675 1.91392 29.5391 1.91392C36.918 1.91392 43.8553 4.7874 49.0731 10.0051C54.2908 15.2229 57.1643 22.1601 57.1643 29.539C57.1643 36.3833 54.7009 42.8276 50.1914 47.8867L50.575 45.5072C50.6591 44.9854 50.3044 44.4942 49.7826 44.4101C49.2611 44.3255 48.7696 44.6807 48.6855 45.2025L47.7845 50.7919C47.7299 51.1309 47.8611 51.4733 48.1282 51.6889C48.301 51.8286 48.5139 51.9012 48.7294 51.9012C48.8466 51.9012 48.9649 51.8797 49.0777 51.8355L54.3508 49.7741C54.8429 49.5816 55.086 49.0266 54.8936 48.5344C54.7009 48.0422 54.1459 47.799 53.6536 47.9916Z" fill="#776F24"/>
<path d="M39.0287 19.4439C38.5275 19.2767 37.9854 19.5478 37.8182 20.0492L31.6934 38.4234C31.5262 38.9248 31.7973 39.4668 32.2988 39.634C32.3991 39.6673 32.5013 39.6832 32.6015 39.6832C33.0022 39.6832 33.3755 39.4296 33.5093 39.0287L39.634 20.6544C39.8012 20.1531 39.5302 19.6111 39.0287 19.4439Z" fill="#776F24"/>
<path d="M49.7399 22.8983C49.564 22.6233 49.2601 22.457 48.9338 22.457H41.7883C41.2598 22.457 40.8313 22.8855 40.8313 23.414C40.8313 23.9425 41.2597 24.3711 41.7883 24.3711H47.4381L41.9402 36.2833C41.7187 36.7632 41.9282 37.3318 42.4081 37.5532C42.538 37.6132 42.6743 37.6415 42.8085 37.6415C43.1702 37.6415 43.5164 37.4353 43.6779 37.0853L49.8026 23.8151C49.9394 23.5188 49.9157 23.1731 49.7399 22.8983Z" fill="#776F24"/>
<path d="M29.5392 32.665H28.4545V23.4141C28.4545 22.8856 28.0261 22.4571 27.4975 22.4571C26.969 22.4571 26.5405 22.8855 26.5405 23.4141V32.665H22.54L24.3527 23.6018C24.4564 23.0835 24.1203 22.5794 23.6019 22.4758C23.0832 22.3723 22.5795 22.7083 22.4759 23.2266L20.4343 33.4345C20.3782 33.7156 20.451 34.0072 20.6326 34.2289C20.8144 34.4507 21.0859 34.5793 21.3727 34.5793H26.5404V36.6846C26.5404 37.2131 26.9688 37.6416 27.4974 37.6416C28.0259 37.6416 28.4544 37.2132 28.4544 36.6846V34.5789H29.5391C30.0675 34.5789 30.4961 34.1505 30.4961 33.6219C30.4962 33.0934 30.0676 32.665 29.5392 32.665Z" fill="#776F24"/>
<path d="M46.6292 52.4712C46.3275 52.0372 45.7309 51.9301 45.2972 52.2321C40.6595 55.4588 35.2104 57.1643 29.539 57.1643C22.1602 57.1643 15.2229 54.2908 10.0051 49.0731C4.78752 43.8554 1.91392 36.9181 1.91392 29.5392C1.91392 22.695 4.37732 16.2508 8.88664 11.1916L8.47494 13.7454C8.39082 14.2672 8.74552 14.7584 9.2673 14.8425C9.31888 14.8508 9.37011 14.8548 9.42076 14.8548C9.88219 14.8548 10.2886 14.5202 10.3644 14.0501L11.2936 8.28631C11.3482 7.9473 11.217 7.60495 10.9499 7.38929C10.6827 7.17364 10.3203 7.11767 10.0005 7.24264L4.56321 9.36829C4.07108 9.56076 3.82796 10.1158 4.02042 10.608C4.21289 11.1001 4.7679 11.3433 5.26014 11.1508L6.96614 10.4839C2.45601 15.8049 0 22.4727 0 29.5392C0 37.4293 3.07252 44.8473 8.65182 50.4264C14.2311 56.0055 21.6489 59.0782 29.539 59.0782C35.6032 59.0782 41.4302 57.2542 46.3903 53.8032C46.824 53.5015 46.9311 52.9049 46.6292 52.4712Z" fill="#776F24"/>
</svg>
