<svg width="52" height="56" viewBox="0 0 52 56" fill="none" xmlns="http://www.w3.org/2000/svg">
<path d="M49.2545 0H22.5879C21.1152 0 19.9212 1.19401 19.9212 2.66666V5.33333H10.1434C9.65255 5.33333 9.25455 5.73133 9.25455 6.22221V9.77776H7.47677C7.0345 9.77776 6.6595 10.1028 6.59656 10.5403L5.74327 16.5121C2.32357 19.5351 0.365234 23.8802 0.365234 28.4444C0.365234 33.0086 2.32357 37.3537 5.74327 40.3767L6.59569 46.3476C6.65819 46.786 7.03406 47.1115 7.47677 47.111H9.25455V50.6666C9.25455 51.1575 9.65255 51.5555 10.1434 51.5555H19.9212V52.4444C19.9212 53.917 21.1152 55.111 22.5879 55.111H49.2545C50.7271 55.111 51.9212 53.917 51.9212 52.4444V2.66666C51.9212 1.19401 50.7271 0 49.2545 0V0ZM23.4767 42.7556C23.9902 42.5004 24.4898 42.2183 24.9728 41.9092L24.4837 45.3333H23.4767V42.7556ZM26.9867 40.3758C32.2688 35.7178 33.8539 28.138 30.8804 21.7539L32.508 20.6961C32.5397 20.6688 32.5696 20.6389 32.5965 20.6072C32.6894 20.539 32.7615 20.447 32.8049 20.3402C32.8752 20.1875 32.906 20.0195 32.8934 19.8515C32.8839 19.7938 32.8687 19.7369 32.8483 19.6818C32.8426 19.6389 32.8335 19.5968 32.8205 19.5555C32.1955 18.2903 31.4255 17.102 30.5267 16.0143C30.4954 15.9848 30.462 15.9579 30.4268 15.9331C30.386 15.8923 30.3405 15.8554 30.2918 15.8238C30.2424 15.7969 30.1907 15.7747 30.1373 15.7582C30.0844 15.7361 30.0297 15.72 29.9737 15.7092C29.9194 15.7044 29.8652 15.7044 29.8109 15.7092C29.751 15.7083 29.6916 15.714 29.633 15.7261C29.5783 15.7417 29.5249 15.7626 29.4741 15.7886C29.4329 15.8012 29.393 15.8173 29.3539 15.8355L27.5388 17.0134C27.3613 16.8355 27.1725 16.6775 26.988 16.5121L26.1343 10.5403C26.0718 10.1028 25.6968 9.77776 25.2545 9.77776H23.4767V8.88888H50.1434V44.4444H26.4099L26.9867 40.3758ZM23.4767 11.5555H24.4837L24.9728 14.9787C24.4893 14.6706 23.9902 14.3884 23.4767 14.1332V11.5555ZM29.6395 17.7717C30.0874 18.3689 30.4945 18.9961 30.8569 19.6488L30.0392 20.1823C29.656 19.5403 29.228 18.9262 28.7584 18.3442L29.6395 17.7717ZM21.699 2.66666C21.699 2.17578 22.097 1.77778 22.5879 1.77778H49.2545C49.7454 1.77778 50.1434 2.17578 50.1434 2.66666V7.1111H23.4767V6.22221C23.4767 5.73133 23.0787 5.33333 22.5879 5.33333H21.699V2.66666ZM11.0323 7.1111H21.699V13.3776C18.2524 12.1332 14.4789 12.1332 11.0323 13.3776V7.1111ZM8.2476 11.5555H9.25455V14.1332C8.74109 14.3884 8.24196 14.671 7.75845 14.9796L8.2476 11.5555ZM2.14344 28.4444C2.14344 20.5898 8.51106 14.2222 16.3656 14.2222C24.2202 14.2222 30.5878 20.5898 30.5878 28.4444C30.5878 36.299 24.2202 42.6666 16.3656 42.6666C8.51496 42.6575 2.15256 36.2951 2.14344 28.4444ZM8.2476 45.3333L7.75845 41.911C8.24153 42.2191 8.74109 42.5012 9.25455 42.7556V45.3333H8.2476ZM11.0323 43.5112C14.4789 44.7556 18.2524 44.7556 21.699 43.5112V49.7777H11.0323V43.5112ZM49.2545 53.3333H22.5879C22.097 53.3333 21.699 52.9353 21.699 52.4444V51.5555H22.5879C23.0787 51.5555 23.4767 51.1575 23.4767 50.6666V47.111H25.2545C25.6968 47.111 26.0718 46.786 26.1343 46.3485L26.1521 46.2222H50.1434V52.4444C50.1434 52.9353 49.7454 53.3333 49.2545 53.3333Z" fill="#776F24"/>
<path d="M32.3657 5.33344H39.4768C39.9677 5.33344 40.3657 4.93544 40.3657 4.44455C40.3657 3.95367 39.9677 3.55566 39.4768 3.55566H32.3657C31.8748 3.55566 31.4768 3.95367 31.4768 4.44455C31.4768 4.93544 31.8748 5.33344 32.3657 5.33344Z" fill="#776F24"/>
<path d="M39.0323 47.1108H32.8101C31.5827 47.1108 30.5879 48.1056 30.5879 49.3331V50.2219C30.5879 51.4494 31.5827 52.4442 32.8101 52.4442H39.0323C40.2598 52.4442 41.2545 51.4494 41.2545 50.2219V49.3331C41.2545 48.1056 40.2598 47.1108 39.0323 47.1108ZM39.4768 50.2219C39.4768 50.4676 39.2775 50.6664 39.0323 50.6664H32.8101C32.5645 50.6664 32.3657 50.4676 32.3657 50.2219V49.3331C32.3657 49.0874 32.5645 48.8886 32.8101 48.8886H39.0323C39.2775 48.8886 39.4768 49.0874 39.4768 49.3331V50.2219Z" fill="#776F24"/>
<path d="M16.3658 40.0002C22.7478 40.0002 27.9214 34.8266 27.9214 28.4447C27.9214 22.0628 22.7478 16.8892 16.3658 16.8892C9.98391 16.8892 4.8103 22.0628 4.8103 28.4447C4.81768 34.8236 9.98694 39.9929 16.3658 40.0002ZM16.3658 18.6669C21.766 18.6669 26.1436 23.0445 26.1436 28.4447C26.1436 33.8449 21.766 38.2225 16.3658 38.2225C10.9657 38.2225 6.58808 33.8449 6.58808 28.4447C6.59459 23.0471 10.9683 18.6734 16.3658 18.6669Z" fill="#776F24"/>
</svg>
