<svg width="72" height="65" viewBox="0 0 72 65" fill="none" xmlns="http://www.w3.org/2000/svg">
<path d="M47.2234 35.3509H40.0967C39.7335 33.9549 38.6409 32.8623 37.2449 32.499V22.3788C37.2449 21.827 36.7978 21.381 36.247 21.381C35.6962 21.381 35.2492 21.827 35.2492 22.3788V32.499C33.5329 32.9451 32.2556 34.4937 32.2556 36.3487C32.2556 38.55 34.0458 40.3402 36.247 40.3402C38.101 40.3402 39.6507 39.0629 40.0967 37.3466H47.2234C47.7742 37.3466 48.2212 36.9006 48.2212 36.3487C48.2212 35.7969 47.7752 35.3509 47.2234 35.3509ZM36.247 38.3445C35.1464 38.3445 34.2513 37.4494 34.2513 36.3487C34.2513 35.2481 35.1464 34.353 36.247 34.353C37.3476 34.353 38.2427 35.2481 38.2427 36.3487C38.2427 37.4494 37.3476 38.3445 36.247 38.3445Z" fill="#776F24"/>
<path d="M57.3136 16.0034L61.4008 20.0906C61.5884 20.2782 61.8418 20.383 62.1062 20.383C62.3707 20.383 62.6251 20.2782 62.8117 20.0906C65.9719 16.9314 65.9719 11.7895 62.8117 8.63026C59.6515 5.47106 54.5106 5.47106 51.3514 8.63026C51.1638 8.81786 51.059 9.07031 51.059 9.33574C51.059 9.60117 51.1638 9.85462 51.3514 10.0412L55.9026 14.5924L54.2073 16.2878C49.4375 12.013 43.1421 9.40659 36.2479 9.40659C29.3538 9.40659 23.0583 12.013 18.2886 16.2878L16.5923 14.5924L21.1435 10.0412C21.3311 9.85363 21.4358 9.60117 21.4358 9.33574C21.4358 9.07031 21.3311 8.81686 21.1435 8.63026C17.9843 5.47106 12.8433 5.47106 9.68313 8.63026C6.52294 11.7895 6.52294 16.9314 9.68313 20.0906C9.87073 20.2782 10.1242 20.383 10.3886 20.383C10.653 20.383 10.9075 20.2782 11.0941 20.0906L15.1813 16.0034L16.8537 17.6758C12.1847 22.5223 9.30495 29.1042 9.30495 36.3486C9.30495 46.2253 14.6504 54.8727 22.5973 59.5636L19.5758 62.5851C19.1857 62.9752 19.1857 63.6059 19.5758 63.996C19.7704 64.1906 20.0259 64.2884 20.2813 64.2884C20.5368 64.2884 20.7922 64.1906 20.9868 63.996L24.4294 60.5534C27.9997 62.3037 32.0101 63.2906 36.2469 63.2906C40.4838 63.2906 44.4942 62.3037 48.0645 60.5534L51.5071 63.996C51.7016 64.1906 51.9571 64.2884 52.2126 64.2884C52.468 64.2884 52.7234 64.1906 52.918 63.996C53.3082 63.6059 53.3082 62.9752 52.918 62.5851L49.8965 59.5636C57.8434 54.8727 63.1889 46.2253 63.1889 36.3486C63.1889 29.1042 60.3091 22.5223 55.6402 17.6758L57.3136 16.0034ZM61.3998 10.0412C63.5412 12.1826 63.7567 15.5314 62.0474 17.9173L53.5247 9.39362C55.9096 7.6843 59.2574 7.89884 61.3998 10.0412ZM10.4465 17.9163C8.73717 15.5314 8.95271 12.1826 11.0941 10.0412C13.2355 7.89983 16.5843 7.6853 18.9691 9.39362L10.4465 17.9163ZM36.2469 61.2948C22.4916 61.2948 11.3007 50.1039 11.3007 36.3486C11.3007 22.5932 22.4916 11.4023 36.2469 11.4023C50.0023 11.4023 61.1932 22.5932 61.1932 36.3486C61.1932 50.1039 50.0033 61.2948 36.2469 61.2948Z" fill="#776F24"/>
<path d="M36.2469 16.2707C36.7977 16.2707 37.2447 15.8246 37.2447 15.2728V14.275C37.2447 13.7231 36.7977 13.2771 36.2469 13.2771C35.6961 13.2771 35.249 13.7231 35.249 14.275V15.2728C35.249 15.8236 35.6961 16.2707 36.2469 16.2707Z" fill="#776F24"/>
<path d="M36.2469 56.1846C35.6961 56.1846 35.249 56.6306 35.249 57.1824V58.1803C35.249 58.7321 35.6961 59.1781 36.2469 59.1781C36.7977 59.1781 37.2447 58.7321 37.2447 58.1803V57.1824C37.2447 56.6306 36.7987 56.1846 36.2469 56.1846Z" fill="#776F24"/>
<path d="M57.2017 37.2254H58.1996C58.7504 37.2254 59.1974 36.7794 59.1974 36.2276C59.1974 35.6758 58.7504 35.2297 58.1996 35.2297H57.2017C56.6509 35.2297 56.2039 35.6758 56.2039 36.2276C56.2039 36.7794 56.6509 37.2254 57.2017 37.2254Z" fill="#776F24"/>
<path d="M15.2921 35.2297H14.2942C13.7434 35.2297 13.2964 35.6758 13.2964 36.2276C13.2964 36.7794 13.7434 37.2254 14.2942 37.2254H15.2921C15.8429 37.2254 16.2899 36.7794 16.2899 36.2276C16.2899 35.6758 15.8439 35.2297 15.2921 35.2297Z" fill="#776F24"/>
<path d="M51.065 19.9988L50.3595 20.7043C49.9694 21.0944 49.9694 21.7251 50.3595 22.1152C50.5541 22.3098 50.8095 22.4076 51.065 22.4076C51.3204 22.4076 51.5759 22.3098 51.7705 22.1152L52.476 21.4098C52.8661 21.0196 52.8661 20.389 52.476 19.9988C52.0858 19.6086 51.4542 19.6086 51.065 19.9988Z" fill="#776F24"/>
<path d="M20.7244 50.3395L20.0189 51.045C19.6288 51.4351 19.6288 52.0658 20.0189 52.4559C20.2135 52.6505 20.469 52.7483 20.7244 52.7483C20.9799 52.7483 21.2353 52.6505 21.4299 52.4559L22.1354 51.7504C22.5255 51.3603 22.5255 50.7296 22.1354 50.3395C21.7452 49.9493 21.1146 49.9503 20.7244 50.3395Z" fill="#776F24"/>
<path d="M51.7705 50.3394C51.3803 49.9492 50.7497 49.9492 50.3595 50.3394C49.9694 50.7295 49.9694 51.3602 50.3595 51.7503L51.065 52.4558C51.2596 52.6504 51.515 52.7482 51.7705 52.7482C52.0259 52.7482 52.2814 52.6504 52.476 52.4558C52.8661 52.0657 52.8661 51.435 52.476 51.0449L51.7705 50.3394Z" fill="#776F24"/>
<path d="M21.4299 19.9988C21.0397 19.6086 20.4091 19.6086 20.0189 19.9988C19.6288 20.389 19.6288 21.0196 20.0189 21.4098L20.7244 22.1152C20.919 22.3098 21.1745 22.4076 21.4299 22.4076C21.6854 22.4076 21.9408 22.3098 22.1354 22.1152C22.5255 21.7251 22.5255 21.0944 22.1354 20.7043L21.4299 19.9988Z" fill="#776F24"/>
<path d="M11.9226 3.30067C9.82977 3.50263 7.85923 4.37932 6.30797 5.79865C4.75671 7.21798 3.70877 9.10304 3.32207 11.1698" stroke="#776F24" stroke-width="2" stroke-linecap="round" stroke-linejoin="round"/>
<path d="M7.31297 1.00012C5.96069 1.32528 4.69302 1.96581 3.60135 2.87553C2.50968 3.78526 1.62122 4.94151 1 6.26093" stroke="#776F24" stroke-width="2" stroke-linecap="round" stroke-linejoin="round"/>
<path d="M59.9209 3.30055C62.0137 3.5025 63.9843 4.3792 65.5355 5.79853C67.0868 7.21786 68.1347 9.10292 68.5214 11.1696" stroke="#776F24" stroke-width="2" stroke-linecap="round" stroke-linejoin="round"/>
<path d="M64.5303 1C65.8826 1.32516 67.1502 1.96569 68.2419 2.87541C69.3336 3.78513 70.222 4.94138 70.8433 6.26081" stroke="#776F24" stroke-width="2" stroke-linecap="round" stroke-linejoin="round"/>
</svg>
