<svg width="453" height="134" viewBox="0 0 453 134" fill="none" xmlns="http://www.w3.org/2000/svg">
<path d="M443.006 23.2686C437.526 23.2686 433.085 27.7107 433.085 33.1895C433.085 38.6691 437.527 43.1105 443.006 43.1105C448.485 43.1105 452.927 38.6691 452.927 33.1895C452.927 27.7113 448.485 23.2686 443.006 23.2686ZM443.006 41.2503C438.554 41.2503 434.946 37.6416 434.946 33.1895C434.946 28.7375 438.555 25.1288 443.006 25.1288C447.458 25.1288 451.067 28.7375 451.067 33.1895C451.067 37.6416 447.458 41.2503 443.006 41.2503ZM446.905 28.9694C446.484 28.7177 445.945 28.8671 445.702 29.3042L442.376 35.2798L440.523 33.0246C440.188 32.6383 439.742 32.4381 439.321 32.6898C438.899 32.9421 438.725 33.5492 438.998 33.9386L441.576 37.0767C441.769 37.3272 441.989 37.4773 442.219 37.5201L442.221 37.5239L442.244 37.5251C442.297 37.5331 443.075 37.677 443.411 37.0768L447.229 30.2183C447.471 29.7804 447.327 29.2218 446.905 28.9694Z" fill="#0084FF"/>
<rect x="214.184" y="77.6743" width="173.457" height="44.8045" rx="22.4022" fill="#F3F4F5"/>
<g clip-path="url(#clip0)">
<path d="M423.842 25.3636C424.884 24.1708 425.405 22.7602 425.405 21.1316C425.405 19.6547 424.864 18.3768 423.787 17.2969C422.708 16.2171 421.43 15.6775 419.953 15.6775H412.086C412.161 15.4125 412.237 15.1853 412.313 14.996C412.388 14.8067 412.493 14.5982 412.625 14.371C412.757 14.1436 412.852 13.9731 412.909 13.8597C413.25 13.2163 413.51 12.6857 413.69 12.2695C413.87 11.8525 414.049 11.2846 414.23 10.5651C414.41 9.84594 414.499 9.12609 414.499 8.40654C414.499 7.95231 414.494 7.58274 414.485 7.29892C414.476 7.0149 414.428 6.58872 414.343 6.02058C414.258 5.45274 414.144 4.97931 414.002 4.60078C413.86 4.22216 413.632 3.79578 413.321 3.32274C413.008 2.84881 412.629 2.46591 412.184 2.17224C411.739 1.87877 411.171 1.63265 410.48 1.43399C409.788 1.23512 409.007 1.13574 408.136 1.13574C407.644 1.13574 407.218 1.3157 406.858 1.67553C406.479 2.05416 406.157 2.52749 405.892 3.09533C405.627 3.66347 405.442 4.1558 405.338 4.57253C405.234 4.98906 405.115 5.56675 404.983 6.305C404.812 7.10065 404.685 7.67307 404.599 8.02334C404.514 8.37362 404.348 8.83272 404.102 9.40066C403.856 9.969 403.562 10.4231 403.221 10.7642C402.597 11.3889 401.641 12.5251 400.353 14.1723C399.425 15.384 398.469 16.5295 397.484 17.6089C396.499 18.6885 395.78 19.2469 395.325 19.2848C394.852 19.3226 394.445 19.5167 394.104 19.8672C393.763 20.2175 393.593 20.6294 393.593 21.1027V39.3088C393.593 39.8011 393.773 40.2222 394.133 40.5725C394.492 40.9232 394.918 41.1077 395.411 41.1267C396.073 41.1457 397.569 41.5618 399.898 42.3768C401.356 42.8683 402.497 43.2429 403.32 43.4981C404.144 43.7534 405.295 44.0282 406.771 44.322C408.248 44.6154 409.611 44.7626 410.861 44.7626H411.344H413.502H414.525C417.044 44.7247 418.908 43.986 420.12 42.5473C421.218 41.2406 421.682 39.5269 421.512 37.4062C422.25 36.7056 422.762 35.8161 423.045 34.7365C423.367 33.5821 423.367 32.4743 423.045 31.4141C423.916 30.259 424.323 28.962 424.266 27.5229C424.269 26.9164 424.127 26.197 423.842 25.3636Z" fill="#0084FF"/>
<path d="M389.958 19.314H381.778C381.286 19.314 380.86 19.4939 380.5 19.8538C380.14 20.2134 379.96 20.6395 379.96 21.1318V39.3102C379.96 39.8019 380.14 40.2282 380.5 40.5883C380.86 40.9475 381.286 41.1276 381.778 41.1276H389.958C390.45 41.1276 390.876 40.9475 391.236 40.5883C391.596 40.2282 391.776 39.802 391.776 39.3102V21.1318C391.776 20.6395 391.596 20.2135 391.236 19.8538C390.876 19.4938 390.45 19.314 389.958 19.314ZM386.692 36.9664C386.332 37.3166 385.906 37.4917 385.413 37.4917C384.902 37.4917 384.471 37.3166 384.121 36.9664C383.771 36.6161 383.596 36.1854 383.596 35.6741C383.596 35.1819 383.771 34.7557 384.121 34.3961C384.471 34.0362 384.902 33.8561 385.413 33.8561C385.906 33.8561 386.332 34.0362 386.692 34.3961C387.051 34.7556 387.231 35.1818 387.231 35.6741C387.231 36.1854 387.052 36.616 386.692 36.9664Z" fill="#0084FF"/>
</g>
<g clip-path="url(#clip1)">
<path d="M435.252 100.715C435.941 99.9253 436.286 98.9916 436.286 97.9135C436.286 96.9358 435.928 96.0898 435.215 95.375C434.501 94.6602 433.655 94.303 432.677 94.303H427.469C427.519 94.1276 427.569 93.9772 427.619 93.8519C427.669 93.7265 427.739 93.5885 427.826 93.4381C427.913 93.2876 427.976 93.1747 428.014 93.0997C428.239 92.6737 428.412 92.3225 428.531 92.047C428.65 91.7709 428.769 91.395 428.888 90.9187C429.007 90.4427 429.067 89.9661 429.067 89.4898C429.067 89.1891 429.063 88.9445 429.057 88.7566C429.051 88.5686 429.019 88.2865 428.963 87.9104C428.907 87.5345 428.831 87.2211 428.738 86.9705C428.643 86.7199 428.493 86.4376 428.286 86.1245C428.079 85.8108 427.829 85.5573 427.534 85.3629C427.239 85.1686 426.863 85.0057 426.406 84.8742C425.948 84.7425 425.431 84.6768 424.854 84.6768C424.528 84.6768 424.247 84.7959 424.008 85.0341C423.758 85.2847 423.544 85.5981 423.369 85.9739C423.193 86.35 423.071 86.676 423.002 86.9518C422.933 87.2275 422.855 87.61 422.767 88.0987C422.654 88.6254 422.57 89.0043 422.513 89.2362C422.457 89.468 422.347 89.7719 422.184 90.1479C422.021 90.5241 421.827 90.8247 421.601 91.0505C421.188 91.4641 420.555 92.2162 419.702 93.3066C419.088 94.1087 418.455 94.867 417.803 95.5815C417.151 96.2962 416.675 96.6659 416.374 96.691C416.061 96.716 415.791 96.8445 415.566 97.0765C415.34 97.3083 415.227 97.581 415.227 97.8943V109.946C415.227 110.272 415.346 110.551 415.584 110.783C415.823 111.015 416.105 111.137 416.431 111.15C416.869 111.162 417.859 111.438 419.401 111.977C420.366 112.303 421.121 112.55 421.667 112.719C422.212 112.888 422.974 113.07 423.951 113.265C424.929 113.459 425.831 113.556 426.658 113.556H426.978H428.407H429.083C430.751 113.531 431.985 113.042 432.788 112.09C433.514 111.225 433.821 110.091 433.709 108.687C434.198 108.223 434.536 107.634 434.724 106.92C434.937 106.155 434.937 105.422 434.724 104.72C435.3 103.956 435.57 103.097 435.532 102.144C435.534 101.743 435.44 101.267 435.252 100.715Z" fill="#0084FF"/>
<path d="M412.821 96.71H407.406C407.08 96.71 406.798 96.8291 406.56 97.0673C406.322 97.3053 406.203 97.5874 406.203 97.9133V109.947C406.203 110.272 406.322 110.555 406.56 110.793C406.798 111.031 407.08 111.15 407.406 111.15H412.821C413.147 111.15 413.429 111.031 413.667 110.793C413.905 110.555 414.024 110.272 414.024 109.947V97.9133C414.024 97.5874 413.905 97.3054 413.667 97.0673C413.429 96.829 413.147 96.71 412.821 96.71ZM410.659 108.395C410.421 108.627 410.139 108.743 409.813 108.743C409.474 108.743 409.189 108.627 408.957 108.395C408.725 108.163 408.609 107.878 408.609 107.54C408.609 107.214 408.725 106.932 408.957 106.694C409.189 106.456 409.474 106.336 409.813 106.336C410.139 106.336 410.421 106.456 410.659 106.694C410.897 106.932 411.016 107.214 411.016 107.54C411.016 107.878 410.897 108.163 410.659 108.395Z" fill="#0084FF"/>
</g>
<g clip-path="url(#clip2)">
<path d="M362.678 84.0752C353.877 84.0752 346.677 91.2759 346.677 100.077C346.677 108.878 353.877 116.078 362.678 116.078C371.479 116.078 378.68 108.878 378.68 100.077C378.68 91.2759 371.479 84.0752 362.678 84.0752ZM368.279 93.6762C369.559 93.6762 370.679 94.7963 370.679 96.0764C370.679 97.3565 369.559 98.4766 368.279 98.4766C366.999 98.4766 365.879 97.3565 365.879 96.0764C365.879 94.7963 366.999 93.6762 368.279 93.6762ZM357.078 93.6762C358.358 93.6762 359.478 94.7963 359.478 96.0764C359.478 97.3565 358.358 98.4766 357.078 98.4766C355.798 98.4766 354.678 97.3565 354.678 96.0764C354.678 94.7963 355.798 93.6762 357.078 93.6762ZM362.678 109.678C358.518 109.678 354.998 106.957 353.717 103.277H371.639C370.359 106.957 366.839 109.678 362.678 109.678Z" fill="#0084FF"/>
</g>
<path d="M238.731 102.751H233.202L231.961 106.195H230.166L235.205 92.999H236.728L241.776 106.195H239.991L238.731 102.751ZM233.728 101.319H238.214L235.967 95.147L233.728 101.319ZM250.087 106.195C249.99 106.002 249.911 105.658 249.851 105.162C249.072 105.972 248.141 106.377 247.06 106.377C246.093 106.377 245.298 106.105 244.676 105.561C244.06 105.011 243.751 104.316 243.751 103.476C243.751 102.455 244.138 101.664 244.912 101.102C245.691 100.534 246.785 100.25 248.192 100.25H249.824V99.4793C249.824 98.8932 249.649 98.428 249.298 98.0836C248.948 97.7331 248.431 97.5579 247.748 97.5579C247.15 97.5579 246.649 97.7089 246.244 98.0111C245.839 98.3132 245.637 98.6787 245.637 99.1077H243.951C243.951 98.6183 244.123 98.147 244.467 97.6938C244.818 97.2346 245.289 96.8721 245.881 96.6062C246.479 96.3404 247.135 96.2074 247.848 96.2074C248.978 96.2074 249.863 96.4914 250.504 97.0594C251.144 97.6213 251.476 98.3978 251.501 99.3887V103.902C251.501 104.803 251.615 105.519 251.845 106.05V106.195H250.087ZM247.304 104.917C247.83 104.917 248.328 104.781 248.8 104.51C249.271 104.238 249.612 103.884 249.824 103.449V101.437H248.51C246.455 101.437 245.428 102.038 245.428 103.241C245.428 103.766 245.603 104.177 245.954 104.473C246.304 104.769 246.754 104.917 247.304 104.917Z" fill="#9A9A9A"/>
<g clip-path="url(#clip3)">
<path d="M181.22 106.182C182.811 106.182 184.173 105.615 185.306 104.483C186.439 103.35 187.005 101.988 187.005 100.397V91.1408C187.005 89.5498 186.439 88.188 185.306 87.055C184.173 85.9223 182.811 85.3555 181.22 85.3555C179.629 85.3555 178.267 85.9223 177.134 87.055C176.001 88.1878 175.435 89.5498 175.435 91.1408V100.397C175.435 101.988 176.002 103.35 177.134 104.483C178.267 105.615 179.629 106.182 181.22 106.182Z" fill="#0084FF"/>
<path d="M191.29 97.2694C191.061 97.0403 190.79 96.9258 190.476 96.9258C190.163 96.9258 189.892 97.0403 189.663 97.2694C189.434 97.4983 189.319 97.7695 189.319 98.0827V100.397C189.319 102.627 188.527 104.534 186.942 106.119C185.357 107.704 183.45 108.496 181.22 108.496C178.99 108.496 177.083 107.704 175.498 106.119C173.913 104.534 173.121 102.627 173.121 100.397V98.0827C173.121 97.7695 173.006 97.4983 172.778 97.2694C172.548 97.0403 172.278 96.9258 171.964 96.9258C171.65 96.9258 171.379 97.0403 171.15 97.2694C170.921 97.4983 170.807 97.7695 170.807 98.0827V100.397C170.807 103.061 171.696 105.378 173.473 107.348C175.251 109.319 177.448 110.448 180.063 110.737V113.124H175.435C175.122 113.124 174.85 113.239 174.621 113.468C174.392 113.697 174.278 113.968 174.278 114.281C174.278 114.594 174.392 114.866 174.621 115.095C174.85 115.324 175.122 115.438 175.435 115.438H187.005C187.318 115.438 187.59 115.324 187.818 115.095C188.048 114.866 188.162 114.594 188.162 114.281C188.162 113.968 188.048 113.697 187.818 113.468C187.59 113.239 187.318 113.124 187.005 113.124H182.377V110.737C184.993 110.448 187.189 109.319 188.967 107.348C190.745 105.378 191.634 103.061 191.634 100.397V98.0827C191.634 97.7695 191.519 97.4986 191.29 97.2694Z" fill="#0084FF"/>
</g>
<rect x="112.413" y="87.2752" width="25.6026" height="26.2426" rx="2.56026" stroke="#0084FF" stroke-width="2.56026"/>
<path d="M123.427 100.239C124.791 99.7198 126.292 99.682 127.68 100.132L136.171 102.886C136.902 103.123 137.421 103.773 137.491 104.539L138.143 111.718C138.246 112.852 137.346 113.826 136.207 113.812L114.243 113.541C113.219 113.528 112.385 112.713 112.348 111.689L112.142 105.931C112.113 105.109 112.61 104.36 113.378 104.068L123.427 100.239Z" fill="#0084FF"/>
<circle cx="118.494" cy="92.7157" r="2.88029" fill="#0084FF"/>
<g clip-path="url(#clip4)">
<path d="M84.256 91.2391C83.4058 90.3891 82.3803 89.964 81.1788 89.964H77.3704L76.5035 87.6519C76.288 87.0966 75.8943 86.6176 75.3216 86.215C74.7492 85.8127 74.1627 85.6113 73.5619 85.6113H64.8568C64.256 85.6113 63.6694 85.8127 63.097 86.215C62.5245 86.6176 62.1308 87.0966 61.9154 87.6519L61.0483 89.964H57.2399C56.0382 89.964 55.0127 90.3891 54.1625 91.2391C53.3125 92.0892 52.8875 93.1149 52.8875 94.3164V109.55C52.8875 110.752 53.3125 111.778 54.1625 112.627C55.0127 113.478 56.0383 113.903 57.2399 113.903H81.1784C82.3799 113.903 83.4054 113.478 84.2556 112.627C85.1056 111.778 85.5307 110.752 85.5307 109.55V94.3164C85.5309 93.1149 85.1058 92.0892 84.256 91.2391ZM74.5902 107.315C73.0998 108.805 71.3062 109.551 69.2092 109.551C67.1121 109.551 65.3187 108.805 63.8281 107.315C62.3375 105.824 61.5924 104.03 61.5924 101.934C61.5924 99.8365 62.3377 98.0431 63.8281 96.5525C65.3185 95.0619 67.1122 94.3168 69.2092 94.3168C71.3062 94.3168 73.0998 95.0621 74.5902 96.5525C76.0808 98.0429 76.826 99.8365 76.826 101.934C76.826 104.03 76.0808 105.824 74.5902 107.315Z" fill="#0084FF"/>
<path d="M69.2092 97.0366C67.8603 97.0366 66.707 97.5155 65.7492 98.4734C64.7914 99.4312 64.3125 100.584 64.3125 101.934C64.3125 103.282 64.7914 104.435 65.7492 105.393C66.707 106.351 67.8603 106.83 69.2092 106.83C70.5579 106.83 71.7113 106.351 72.6691 105.393C73.6269 104.435 74.1059 103.282 74.1059 101.934C74.1059 100.584 73.6269 99.4313 72.6691 98.4734C71.7114 97.5156 70.5579 97.0366 69.2092 97.0366Z" fill="#0084FF"/>
</g>
<circle cx="19.6042" cy="93.036" r="5.12051" fill="#0084FF"/>
<circle cx="5.52273" cy="93.036" r="5.12051" fill="#0084FF"/>
<circle cx="19.6042" cy="107.757" r="5.12051" fill="#0084FF"/>
<circle cx="5.52273" cy="107.757" r="5.12051" fill="#0084FF"/>
<defs>
<clipPath id="clip0">
<rect width="45.4445" height="45.4445" fill="white" transform="translate(379.96 0.226562)"/>
</clipPath>
<clipPath id="clip1">
<rect width="30.083" height="30.083" fill="white" transform="translate(406.203 84.0752)"/>
</clipPath>
<clipPath id="clip2">
<rect width="32.0032" height="32.0032" fill="white" transform="translate(346.677 84.0752)"/>
</clipPath>
<clipPath id="clip3">
<rect width="30.083" height="30.083" fill="white" transform="translate(166.179 85.355)"/>
</clipPath>
<clipPath id="clip4">
<rect width="32.6433" height="32.6433" fill="white" transform="translate(52.8875 83.4351)"/>
</clipPath>
</defs>
</svg>
