<svg width="38" height="38" viewBox="0 0 38 38" fill="none" xmlns="http://www.w3.org/2000/svg">
<path d="M29.8208 23.3351C29.0569 22.5624 28.1356 22.1493 27.1592 22.1493C26.1907 22.1493 25.2615 22.5547 24.4662 23.3274L21.9779 25.7373C21.7731 25.6302 21.5684 25.5307 21.3716 25.4313C21.0881 25.2936 20.8203 25.1635 20.592 25.0258C18.2612 23.5875 16.143 21.7132 14.1114 19.288C13.1271 18.0793 12.4656 17.0618 11.9853 16.029C12.631 15.4552 13.2294 14.8585 13.8122 14.2847C14.0326 14.0705 14.2531 13.8487 14.4736 13.6345C16.1272 12.0279 16.1272 9.94699 14.4736 8.34042L12.3239 6.25188C12.0798 6.01472 11.8278 5.76991 11.5916 5.5251C11.1191 5.05078 10.623 4.56116 10.1112 4.10214C9.34738 3.36771 8.43395 2.97754 7.47328 2.97754C6.51261 2.97754 5.58343 3.36771 4.79599 4.10214C4.78812 4.10979 4.78812 4.10979 4.78024 4.11744L2.10296 6.7415C1.09504 7.72075 0.520208 8.9142 0.394218 10.2989C0.205233 12.5328 0.882429 14.6137 1.40214 15.9755C2.67779 19.3186 4.58339 22.417 7.42603 25.7373C10.875 29.7384 15.0248 32.898 19.7652 35.1242C21.5763 35.9581 23.9937 36.945 26.6946 37.1133C26.86 37.121 27.0332 37.1286 27.1907 37.1286C29.0097 37.1286 30.5373 36.4936 31.7342 35.2313C31.7421 35.216 31.7579 35.2084 31.7657 35.1931C32.1752 34.7111 32.6477 34.275 33.1437 33.8084C33.4823 33.4947 33.8288 33.1658 34.1674 32.8215C34.947 32.0335 35.3564 31.1155 35.3564 30.1745C35.3564 29.2258 34.9391 28.3154 34.1438 27.5504L29.8208 23.3351ZM32.6398 31.3909C32.6319 31.3909 32.6319 31.3985 32.6398 31.3909C32.3327 31.7122 32.0177 32.0029 31.6791 32.3242C31.1673 32.7985 30.6476 33.2958 30.1594 33.8543C29.364 34.6805 28.427 35.0707 27.1986 35.0707C27.0805 35.0707 26.9545 35.0707 26.8364 35.063C24.4977 34.9177 22.3244 34.0302 20.6944 33.2729C16.2375 31.1767 12.3239 28.2007 9.07178 24.4291C6.38662 21.2848 4.59126 18.3777 3.40223 15.2563C2.66991 13.3514 2.40218 11.8672 2.5203 10.4672C2.59904 9.57213 2.95339 8.83004 3.60696 8.19507L6.29212 5.5863C6.67797 5.23439 7.08744 5.04313 7.48903 5.04313C7.98512 5.04313 8.38671 5.33384 8.63869 5.57865C8.64656 5.5863 8.65444 5.59395 8.66231 5.6016C9.14265 6.03767 9.59936 6.48904 10.0797 6.97101C10.3238 7.21582 10.5758 7.46063 10.8278 7.71309L12.9775 9.80164C13.8122 10.6126 13.8122 11.3623 12.9775 12.1732C12.7491 12.3951 12.5286 12.617 12.3003 12.8312C11.6388 13.4891 11.0089 14.1011 10.3238 14.6978C10.3081 14.7131 10.2923 14.7208 10.2844 14.7361C9.60724 15.394 9.73323 16.0367 9.87496 16.4727C9.88284 16.4957 9.89071 16.5186 9.89859 16.5416C10.4577 17.8574 11.2451 19.0968 12.442 20.5733L12.4499 20.581C14.6232 23.1821 16.9147 25.2094 19.4423 26.7624C19.7652 26.9613 20.0959 27.122 20.4109 27.275C20.6944 27.4127 20.9621 27.5428 21.1904 27.6805C21.2219 27.6958 21.2534 27.7187 21.2849 27.734C21.5527 27.8641 21.8046 27.9253 22.0645 27.9253C22.7181 27.9253 23.1275 27.5275 23.2614 27.3974L25.9544 24.781C26.2222 24.5209 26.6474 24.2072 27.1435 24.2072C27.6317 24.2072 28.0333 24.5056 28.2774 24.7657C28.2852 24.7733 28.2853 24.7733 28.2931 24.781L32.6319 28.9963C33.443 29.7767 33.443 30.5799 32.6398 31.3909Z" fill="white"/>
<path d="M20.4971 9.50098C22.5602 9.8376 24.4343 10.7863 25.9304 12.2398C27.4265 13.6934 28.3951 15.5142 28.7494 17.5186C28.8361 18.0235 29.2849 18.3755 29.7967 18.3755C29.8597 18.3755 29.9148 18.3678 29.9778 18.3602C30.5605 18.2683 30.9464 17.7328 30.8519 17.1667C30.4267 14.7415 29.2455 12.5305 27.4423 10.7786C25.6391 9.02666 23.3634 7.8791 20.8672 7.46598C20.2845 7.37417 19.7411 7.74904 19.6388 8.30752C19.5364 8.866 19.9144 9.40918 20.4971 9.50098Z" fill="white"/>
<path d="M37.6008 16.8693C36.8999 12.8756 34.9628 9.24154 31.9863 6.34958C29.0098 3.45763 25.2695 1.57556 21.1591 0.894652C20.5842 0.795194 20.0409 1.17773 19.9385 1.73623C19.844 2.30238 20.2299 2.83027 20.8126 2.92973C24.4821 3.53414 27.8287 5.22493 30.4902 7.80321C33.1517 10.3891 34.8841 13.6407 35.5062 17.2059C35.5928 17.7108 36.0416 18.0628 36.5535 18.0628C36.6165 18.0628 36.6716 18.0551 36.7346 18.0475C37.3094 17.9633 37.7031 17.4278 37.6008 16.8693Z" fill="white"/>
</svg>
