<svg width="39" height="41" viewBox="0 0 39 41" fill="none" xmlns="http://www.w3.org/2000/svg">
<g clip-path="url(#clip0)">
<path d="M35.908 25.406C35.3744 25.406 34.9419 25.8529 34.9419 26.4043V35.2686C34.94 36.9221 33.6436 38.2621 32.0434 38.2637H4.93426C3.33408 38.2621 2.0377 36.9221 2.03581 35.2686V9.25251C2.0377 7.59938 3.33408 6.2594 4.93426 6.25745H13.5126C14.0463 6.25745 14.4788 5.81053 14.4788 5.2591C14.4788 4.70805 14.0463 4.26074 13.5126 4.26074H4.93426C2.26754 4.26386 0.106535 6.4969 0.103516 9.25251V35.269C0.106535 38.0246 2.26754 40.2577 4.93426 40.2608H32.0434C34.7101 40.2577 36.8712 38.0246 36.8742 35.269V26.4043C36.8742 25.8529 36.4417 25.406 35.908 25.406Z" fill="white"/>
<path d="M36.4919 1.69187C34.7939 -0.0626558 32.0412 -0.0626558 30.3432 1.69187L13.1065 19.5031C12.9884 19.6252 12.9031 19.7765 12.8586 19.9426L10.5919 28.3986C10.4987 28.7453 10.5934 29.1166 10.8395 29.3712C11.0859 29.6255 11.4452 29.7234 11.7807 29.6275L19.9639 27.2848C20.1247 27.2388 20.2711 27.1507 20.3893 27.0286L37.6256 9.21697C39.3209 7.46127 39.3209 4.61908 37.6256 2.86338L36.4919 1.69187ZM15.2117 20.1521L29.3186 5.57454L33.8682 10.2758L19.7609 24.8533L15.2117 20.1521ZM14.3029 22.0365L17.9376 25.7928L12.9099 27.2322L14.3029 22.0365ZM36.2594 7.80523L35.2347 8.86403L30.6848 4.16241L31.7098 3.10361C32.6529 2.12904 34.1822 2.12904 35.1253 3.10361L36.2594 4.27512C37.201 5.25085 37.201 6.82989 36.2594 7.80523Z" fill="white"/>
</g>
<defs>
<clipPath id="clip0">
<rect width="38.7931" height="40.0862" fill="white" transform="translate(0.103516 0.224121)"/>
</clipPath>
</defs>
</svg>
