<svg width="42" height="43" viewBox="0 0 42 43" fill="none" xmlns="http://www.w3.org/2000/svg">
<path d="M41.3684 8.50561L21.2965 0.925214C21.1104 0.855007 20.906 0.855007 20.7199 0.925214L0.648099 8.50561L0.647936 8.50628C0.5822 8.53119 0.518996 8.56412 0.460202 8.60599C0.236701 8.76546 0.103516 9.02665 0.103516 9.30539V33.6946C0.103516 34.0516 0.32081 34.3708 0.648017 34.4944L20.7199 42.0748C20.8134 42.1102 20.911 42.1275 21.0081 42.1275C21.1062 42.1275 21.2038 42.1092 21.2962 42.0743L21.2965 42.0748L41.3684 34.4944C41.6956 34.3708 41.9129 34.0517 41.9129 33.6946V9.30539C41.9129 8.94834 41.6956 8.62923 41.3684 8.50561ZM20.1754 40.0519L1.76919 33.1005V10.5286L5.51701 11.9441V22.2728C5.51701 22.6298 5.7343 22.949 6.06151 23.0726L15.0563 26.4697C15.1499 26.505 15.2475 26.5223 15.3446 26.5223C15.5126 26.5223 15.6792 26.4703 15.8209 26.3692C16.0443 26.2098 16.1775 25.9487 16.1775 25.6699V15.9702L20.1752 17.48V40.0519H20.1754ZM14.5119 15.3411V24.4465L7.18277 21.6785V12.573L14.5119 15.3411ZM8.75585 11.3431L15.3447 8.85464L21.9336 11.3431L15.3447 13.8315L8.75585 11.3431ZM21.0082 15.9772L17.7418 14.7435L24.628 12.1428C24.9552 12.0192 25.1725 11.7 25.1725 11.343C25.1725 10.9859 24.9552 10.6668 24.628 10.5432L15.6331 7.14618C15.447 7.07597 15.2426 7.07597 15.0564 7.14618L6.34087 10.4379L3.34235 9.30539L21.0082 2.63368L38.674 9.30547L21.0082 15.9772ZM40.2472 33.1005L21.8411 40.0518V17.48L40.2472 10.5286V33.1005Z" fill="white"/>
</svg>
