<svg width="65" height="59" viewBox="0 0 65 59" fill="none" xmlns="http://www.w3.org/2000/svg">
<path d="M63.1076 8.55323C63.1036 8.55323 63.0997 8.55273 63.0957 8.55273H45.8301V6.64844C45.8301 3.49841 43.2672 0.935547 40.1172 0.935547H24.8828C21.7328 0.935547 19.1699 3.49841 19.1699 6.64844V8.55273H1.9043C0.84404 8.55273 0 9.42157 0 10.457V52.3516C0 55.5016 2.56287 58.0645 5.71289 58.0645H59.2871C62.4371 58.0645 65 55.5016 65 52.3516V10.4972C65 10.4947 65 10.4922 65 10.4898C64.9271 9.23907 64.1579 8.56017 63.1076 8.55323ZM22.9785 6.64844C22.9785 5.59859 23.833 4.74414 24.8828 4.74414H40.1172C41.167 4.74414 42.0215 5.59859 42.0215 6.64844V8.55273H22.9785V6.64844ZM60.4535 12.3613L54.5398 30.102C54.2804 30.8811 53.5544 31.4043 52.7337 31.4043H42.0215V29.5C42.0215 28.4482 41.169 27.5957 40.1172 27.5957H24.8828C23.831 27.5957 22.9785 28.4482 22.9785 29.5V31.4043H12.2663C11.4456 31.4043 10.7196 30.8811 10.4602 30.102L4.54651 12.3613H60.4535ZM38.2129 31.4043V35.2129H26.7871V31.4043H38.2129ZM61.1914 52.3516C61.1914 53.4014 60.337 54.2559 59.2871 54.2559H5.71289C4.66305 54.2559 3.80859 53.4014 3.80859 52.3516V22.1918L6.84704 31.3066C7.62562 33.6433 9.80366 35.2129 12.2663 35.2129H22.9785V37.1172C22.9785 38.169 23.831 39.0215 24.8828 39.0215H40.1172C41.169 39.0215 42.0215 38.169 42.0215 37.1172V35.2129H52.7337C55.1963 35.2129 57.3744 33.6433 58.153 31.3066L61.1914 22.1918V52.3516Z" fill="white"/>
</svg>
