<svg width="66" height="66" viewBox="0 0 66 66" fill="none" xmlns="http://www.w3.org/2000/svg">
<path d="M58.8885 0H7.11099C3.18993 0 0 3.18993 0 7.11099V44.9153C0 48.8363 3.18993 52.0268 7.11099 52.0268H27.9596V55.9196H17.4668C14.6878 55.9196 12.4264 58.1805 12.4264 60.9596C12.4264 63.7391 14.6878 66 17.4668 66H48.5332C51.3122 66 53.5736 63.7391 53.5736 60.9596C53.5736 58.1805 51.3122 55.9196 48.5332 55.9196H38.0404V52.0263H58.8885C62.8101 52.0263 66 48.8363 66 44.9153V7.11099C66 3.18993 62.8101 0 58.8885 0ZM49.7065 60.9596C49.7065 61.6066 49.1803 62.1328 48.5332 62.1328H17.4668C16.8197 62.1328 16.2935 61.6066 16.2935 60.9596C16.2935 60.313 16.8197 59.7868 17.4668 59.7868H48.5332C49.1803 59.7868 49.7065 60.313 49.7065 60.9596ZM34.1732 55.9196H31.8268V52.0268H34.1732V55.9196ZM62.1328 44.9153C62.1328 46.7043 60.6776 48.1596 58.8885 48.1596H7.11099C5.32242 48.1596 3.86719 46.7038 3.86719 44.9153V7.11099C3.86719 5.32242 5.32242 3.86719 7.11099 3.86719H58.8885C60.6776 3.86719 62.1328 5.32242 62.1328 7.11099V44.9153Z" fill="white"/>
<path d="M45.375 10.2959H20.625C16.7039 10.2959 13.514 13.4858 13.514 17.4074V34.6194C13.514 38.5405 16.7039 41.7304 20.625 41.7304H45.375C49.2961 41.7304 52.486 38.5405 52.486 34.6194V17.4074C52.486 13.4858 49.2961 10.2959 45.375 10.2959ZM48.6188 34.6194C48.6188 36.408 47.1641 37.8632 45.375 37.8632H20.625C18.8359 37.8632 17.3812 36.408 17.3812 34.6194V17.4074C17.3812 15.6183 18.8359 14.1631 20.625 14.1631H45.375C47.1641 14.1631 48.6188 15.6183 48.6188 17.4074V34.6194Z" fill="white"/>
<path d="M31.3962 17.8626C30.2557 17.8626 29.4722 18.3953 29.3992 19.2206L28.9727 24.0974H25.4771L25.8945 19.3218C25.9248 18.9779 25.8195 18.6637 25.5894 18.4124C25.2691 18.063 24.7057 17.8626 24.0435 17.8626C22.9025 17.8626 22.119 18.3953 22.0465 19.2206L20.8692 32.6833C20.8385 33.0282 20.9468 33.3454 21.1809 33.6012C21.5082 33.9587 22.0686 34.1637 22.7187 34.1637C23.6231 34.1637 24.6342 33.7321 24.7173 32.7845L25.1906 27.3699H28.6862L28.2219 32.6838C28.1917 33.0282 28.2995 33.3454 28.5341 33.6012C28.8614 33.9587 29.4218 34.1637 30.0714 34.1637C30.9763 34.1637 31.9874 33.7321 32.07 32.7845L33.2477 19.3218C33.278 18.9779 33.1727 18.6632 32.9426 18.4124C32.6223 18.0635 32.0584 17.8626 31.3962 17.8626Z" fill="white"/>
<path d="M40.0737 17.8626H36.408C35.4316 17.8626 34.6441 18.4467 34.5766 19.2206L33.3968 32.7049C33.3676 33.0413 33.4829 33.3701 33.7226 33.6314C34.0368 33.9749 34.5202 34.1637 35.0831 34.1637H38.7489C42.18 34.1637 44.3161 32.2417 44.6091 28.8911L45.1041 23.2369C45.2511 21.5555 44.8941 20.2322 44.0426 19.3032C43.167 18.3475 41.8316 17.8626 40.0737 17.8626ZM38.9554 30.6424H37.4347L38.2444 21.3843H39.8668C40.3703 21.3843 40.7369 21.5062 40.9574 21.7464C41.2117 22.0238 41.3119 22.4911 41.2555 23.1357L40.7611 28.7899C40.6503 30.0538 40.0768 30.6424 38.9554 30.6424Z" fill="white"/>
</svg>
