<svg width="103" height="71" viewBox="0 0 103 71" fill="none" xmlns="http://www.w3.org/2000/svg">
<path d="M84.0098 29.218C82.8702 28.8918 81.6824 29.5517 81.3567 30.6911C81.0307 31.8306 81.6904 33.0185 82.8296 33.3442C92.624 36.1454 98.7083 40.2083 98.7083 43.9474C98.7083 46.6838 95.3801 49.6873 89.5774 52.1879C83.1931 54.9388 74.1364 56.9516 64.0654 57.8582L55.2754 57.7391C55.2653 57.7391 55.2554 57.7389 55.2456 57.7389C54.0739 57.7389 53.1165 58.6807 53.1006 59.8558C53.0845 61.0407 54.0323 62.0145 55.217 62.0304L64.1177 62.151C64.1276 62.151 64.1372 62.1512 64.1469 62.1512C64.2106 62.1512 64.2741 62.1484 64.3374 62.1428C74.8941 61.2017 84.4609 59.0659 91.2758 56.1293C100.966 51.9533 103 47.1999 103 43.9474C103 37.9513 96.2557 32.7202 84.0098 29.218Z" fill="white"/>
<path d="M20.7886 26.7735C19.6037 26.7735 18.6428 27.7342 18.6428 28.9193C18.6428 30.1045 19.6037 31.0651 20.7886 31.0651H29.6125V39.9345H20.7886C19.6037 39.9345 18.6428 40.8952 18.6428 42.0803C18.6428 43.2655 19.6037 44.2262 20.7886 44.2262H31.7583C32.9435 44.2262 33.9042 43.2655 33.9042 42.0803V15.7583C33.9042 14.5731 32.9435 13.6124 31.7583 13.6124H20.7886C19.6037 13.6124 18.6428 14.5731 18.6428 15.7583C18.6428 16.9434 19.6037 17.9041 20.7886 17.9041H29.6125V26.7735H20.7886Z" fill="white"/>
<path d="M40.5303 44.2264H53.6915C54.8765 44.2264 55.8374 43.2657 55.8374 42.0806V28.9195C55.8374 27.7344 54.8767 26.7737 53.6915 26.7737H42.6761V17.9041H51.5C52.6851 17.9041 53.6458 16.9434 53.6458 15.7583C53.6458 14.5731 52.6851 13.6124 51.5 13.6124H40.5303C39.3451 13.6124 38.3844 14.5731 38.3844 15.7583V42.0806C38.3844 43.2657 39.3451 44.2264 40.5303 44.2264ZM42.6761 31.0651H51.5457V39.9345H42.6761V31.0651Z" fill="white"/>
<path d="M62.4697 44.2264H75.631C76.8159 44.2264 77.7768 43.2657 77.7768 42.0806V15.7583C77.7768 14.5731 76.8159 13.6124 75.631 13.6124H62.4697C61.2848 13.6124 60.3239 14.5731 60.3239 15.7583V42.0806C60.3239 43.2657 61.2848 44.2264 62.4697 44.2264ZM64.6155 17.9041H73.4851V39.9347H64.6155V17.9041Z" fill="white"/>
<path d="M39.2381 49.5631C38.4726 48.6584 37.1186 48.5453 36.2139 49.3107C35.309 50.0761 35.1962 51.43 35.9614 52.3349L40.7607 58.0084C30.6333 57.2362 21.4609 55.38 14.7168 52.719C8.09151 50.1045 4.29167 46.9076 4.29167 43.9474C4.29167 40.5102 9.38502 36.8061 17.9162 34.0388C19.0436 33.6732 19.661 32.4629 19.2953 31.3355C18.9299 30.2083 17.7192 29.591 16.5922 29.9564C11.6291 31.5662 7.69346 33.4813 4.89422 35.6484C1.64671 38.1633 0 40.9553 0 43.9474C0 48.9052 4.54445 53.3185 13.1415 56.7108C20.1292 59.468 29.4986 61.4036 39.7983 62.2381L35.5187 66.9812C34.7247 67.861 34.7943 69.218 35.6743 70.0118C36.0845 70.3822 36.5987 70.5646 37.1111 70.5646C37.6971 70.5646 38.2812 70.3257 38.7048 69.8562L46.5129 61.2032C46.8686 60.809 47.0656 60.2968 47.0656 59.7657V59.6017C47.0656 59.0942 46.8858 58.6033 46.5581 58.2159L39.2381 49.5631Z" fill="white"/>
<path d="M81.8451 13.5021H90.617C91.802 13.5021 92.7629 12.5415 92.7629 11.3563V2.58114C92.7629 1.39599 91.802 0.435303 90.617 0.435303H81.8451C80.6602 0.435303 79.6992 1.39599 79.6992 2.58114V11.3563C79.6992 12.5415 80.6602 13.5021 81.8451 13.5021ZM83.9909 4.72697H88.4712V9.21048H83.9909V4.72697Z" fill="white"/>
</svg>
