<svg width="69" height="63" viewBox="0 0 69 63" fill="none" xmlns="http://www.w3.org/2000/svg">
<path d="M16.3066 6.09678H6.06445C4.94711 6.09678 4.04297 7.00574 4.04297 8.12903C4.04297 9.25233 4.94711 10.1613 6.06445 10.1613H16.3066C17.424 10.1613 18.3281 9.25233 18.3281 8.12903C18.3281 7.00574 17.424 6.09678 16.3066 6.09678Z" fill="white"/>
<path d="M16.3066 22.3548H6.06445C4.94711 22.3548 4.04297 23.2638 4.04297 24.3871C4.04297 25.5104 4.94711 26.4194 6.06445 26.4194H16.3066C17.424 26.4194 18.3281 25.5104 18.3281 24.3871C18.3281 23.2638 17.424 22.3548 16.3066 22.3548Z" fill="white"/>
<path d="M12.2637 14.2258H2.02148C0.904142 14.2258 0 15.1348 0 16.2581C0 17.3814 0.904142 18.2903 2.02148 18.2903H12.2637C13.381 18.2903 14.2852 17.3814 14.2852 16.2581C14.2852 15.1348 13.381 14.2258 12.2637 14.2258Z" fill="white"/>
<path d="M64.957 24.3871H52.6934V16.2581C52.6934 12.6886 48.35 10.8092 45.7907 13.3855L29.62 29.6424C28.0407 31.2301 28.0407 33.8022 29.62 35.3899L38.8904 44.7097L27.5985 56.0618C26.0192 57.6495 26.0192 60.2215 27.5985 61.8092C29.1777 63.3968 31.7362 63.397 33.3155 61.8092L47.4659 47.5834C49.0453 45.9957 49.0453 43.4237 47.4659 41.8359L38.1955 32.5161L44.6074 26.0701V28.4516C44.6074 30.6962 46.4177 32.5161 48.6504 32.5161H64.957C67.1897 32.5161 69 30.6962 69 28.4516C69 26.2071 67.1897 24.3871 64.957 24.3871Z" fill="white"/>
<path d="M37.7532 3.73122C36.1463 2.65751 34.0143 2.86995 32.6521 4.23929L21.5339 15.4167C19.9546 17.0044 19.9546 19.5765 21.5339 21.1642C23.1132 22.7519 25.6718 22.7518 27.2511 21.1641L36.026 12.3424L38.9819 14.4831L42.9313 10.5126C43.592 9.84846 44.3712 9.33294 45.2233 8.93042L37.7532 3.73122Z" fill="white"/>
<path d="M26.7615 38.2636C25.7371 37.2338 25.0533 35.9664 24.6928 34.5958L3.3407 56.0617C1.76138 57.6495 1.76138 60.2215 3.3407 61.8092C4.91988 63.3968 7.47841 63.397 9.05773 61.8092L29.62 41.1374L26.7615 38.2636Z" fill="white"/>
<path d="M54.7148 12.1936C58.0641 12.1936 60.7793 9.46393 60.7793 6.09678C60.7793 2.72962 58.0641 0 54.7148 0C51.3655 0 48.6504 2.72962 48.6504 6.09678C48.6504 9.46393 51.3655 12.1936 54.7148 12.1936Z" fill="white"/>
</svg>
