<svg width="58" height="58" viewBox="0 0 58 58" fill="none" xmlns="http://www.w3.org/2000/svg">
<path d="M37.9773 9.9803C36.7098 9.5924 36.487 9.41215 36.487 8.77225C36.4992 8.11628 37.0401 7.5938 37.6961 7.60431C38.3521 7.5938 38.8929 8.11628 38.9051 8.77225H40.8379C40.816 7.03701 39.3914 5.64812 37.6563 5.67011C35.9521 5.69173 34.5758 7.06794 34.5542 8.77225C34.5542 10.9547 36.2742 11.4805 37.4124 11.8287C38.6818 12.2171 38.9051 12.3983 38.9051 13.0405C38.8825 13.7082 38.3229 14.2313 37.6552 14.2087C37.0193 14.1872 36.5088 13.6768 36.487 13.041H34.5542C34.5763 14.7762 36.0008 16.165 37.736 16.1429C39.4402 16.1212 40.8164 14.7448 40.8379 13.0405C40.8379 10.8552 39.1165 10.3286 37.9773 9.9803Z" fill="white"/>
<path d="M57.0248 28.0274H28.0317C27.498 28.0274 27.0653 28.4602 27.0653 28.9939V57.0206C27.0653 57.5543 27.498 57.987 28.0317 57.987H57.0248C57.5585 57.987 57.9912 57.5543 57.9912 57.0206V28.9939C57.9912 28.46 57.5585 28.0274 57.0248 28.0274ZM48.3269 29.9603H51.2262V33.3428C51.2262 34.1434 50.5771 34.7925 49.7765 34.7925C48.9759 34.7925 48.3269 34.1434 48.3269 33.3428V29.9603ZM43.4947 29.9603H46.394V33.3428C46.394 34.1434 45.7449 34.7925 44.9443 34.7925C44.1438 34.7925 43.4947 34.1434 43.4947 33.3428V29.9603ZM38.6625 29.9603H41.5618V33.3428C41.5618 34.1434 40.9127 34.7925 40.1122 34.7925C39.3116 34.7925 38.6625 34.1434 38.6625 33.3428V29.9603ZM33.8303 29.9603H36.7296V33.3428C36.7296 34.1434 36.0805 34.7925 35.28 34.7925C34.4794 34.7925 33.8303 34.1434 33.8303 33.3428V29.9603ZM28.9981 29.9603H31.8974V33.3428C31.8974 34.1434 31.2484 34.7925 30.4478 34.7925C29.6472 34.7925 28.9981 34.1434 28.9981 33.3428V29.9603ZM38.6625 56.0541H32.8639V46.3897H38.6625V56.0541ZM56.0584 56.0541H40.5954V45.4233C40.5954 44.8896 40.1626 44.4569 39.6289 44.4569H31.8974C31.3637 44.4569 30.931 44.8896 30.931 45.4233V56.0541H28.9981V36.386C30.2983 37.0227 31.8608 36.7464 32.8639 35.7025C34.1576 37.0369 36.288 37.0699 37.6224 35.7762C37.6474 35.752 37.6719 35.7274 37.6961 35.7025C38.9898 37.0369 41.1201 37.0699 42.4546 35.7762C42.4796 35.752 42.5041 35.7274 42.5282 35.7025C43.8219 37.0369 45.9523 37.0699 47.2867 35.7762C47.3117 35.752 47.3363 35.7274 47.3604 35.7025C48.6541 37.0369 50.7845 37.0699 52.1189 35.7762C52.1439 35.752 52.1685 35.7274 52.1926 35.7025C53.1957 36.7464 54.7581 37.0227 56.0584 36.386V56.0541ZM56.0584 33.3428C56.0584 34.1434 55.4093 34.7925 54.6087 34.7925C53.8081 34.7925 53.159 34.1434 53.159 33.3428V29.9603H56.0584V33.3428Z" fill="white"/>
<path d="M21.0987 35.7589C20.6589 35.7589 20.2746 36.0558 20.1634 36.4813L19.3435 39.6246H1.93788C1.40405 39.6247 0.971327 40.0577 0.971447 40.5915C0.971447 40.676 0.982561 40.7601 1.00443 40.8416L3.5975 50.506C3.71081 50.9283 4.09364 51.222 4.53096 51.2219H6.28685V52.3664C4.77716 52.9001 3.98601 54.5567 4.51984 56.0662C5.05368 57.5758 6.71015 58.3671 8.21973 57.8332C9.72942 57.2995 10.5206 55.6429 9.98674 54.1334C9.69487 53.3077 9.04531 52.6582 8.21973 52.3664V51.2219H14.0183V52.3664C12.5087 52.9001 11.7175 54.5567 12.2513 56.0662C12.7851 57.5759 14.4416 58.3671 15.9512 57.8332C17.4609 57.2995 18.2521 55.6429 17.7182 54.1334C17.4264 53.3077 16.7768 52.6582 15.9512 52.3664V51.2219H17.4972C17.9345 51.222 18.3173 50.9283 18.4306 50.506L21.8453 37.6917H25.1325V35.7589H21.0987ZM7.25329 56.054C6.71957 56.054 6.28685 55.6213 6.28685 55.0876C6.28685 54.5539 6.71957 54.1212 7.25329 54.1212C7.787 54.1212 8.21973 54.5539 8.21973 55.0876C8.219 55.6211 7.78676 56.0533 7.25329 56.054ZM14.9848 56.054C14.4511 56.054 14.0183 55.6213 14.0183 55.0876C14.0183 54.5539 14.4511 54.1212 14.9848 54.1212C15.5185 54.1212 15.9512 54.5539 15.9512 55.0876C15.9505 55.6211 15.5183 56.0533 14.9848 56.054ZM16.7558 49.289H5.27233L3.19788 41.5575H18.8302L16.7558 49.289Z" fill="white"/>
<path d="M54.4092 20.5791L52.1932 22.7951V10.6315C52.1932 10.0978 51.7605 9.6651 51.2267 9.6651H46.3375C45.8059 4.89283 41.5062 1.45522 36.7339 1.98688C32.6945 2.43688 29.5058 5.62563 29.0557 9.6651H21.2183C20.6846 3.81815 15.5119 -0.489014 9.665 0.0447014C3.81805 0.578416 -0.489115 5.75103 0.0447206 11.598C0.578436 17.4449 5.75105 21.7521 11.598 21.2184C16.7056 20.7521 20.7521 16.7056 21.2184 11.598H29.0558C29.5875 16.3702 33.8872 19.8079 38.6594 19.2762C42.6989 18.8262 45.8875 15.6374 46.3377 11.598H50.2604V22.795L48.0444 20.579L46.6778 21.9456L50.5436 25.8114C50.9207 26.1888 51.5325 26.1889 51.9099 25.8117C51.9098 25.8118 51.91 25.8116 51.9099 25.8117L55.776 21.9456L54.4092 20.5791ZM14.5021 18.4116C12.0702 19.6355 9.20256 19.6355 6.77064 18.4116V16.569C6.77257 14.8918 8.13162 13.5328 9.80863 13.531H11.464C13.1412 13.5329 14.5002 14.892 14.502 16.569L14.5021 18.4116ZM7.73708 8.69866C7.73708 7.0974 9.03512 5.79935 10.6364 5.79935C12.2377 5.79935 13.5357 7.0974 13.5357 8.69866C13.534 10.2992 12.2369 11.5963 10.6364 11.598C9.03512 11.598 7.73708 10.2999 7.73708 8.69866ZM17.1195 16.4116C16.9042 16.6522 16.6758 16.8808 16.435 17.096V16.569C16.4287 14.7743 15.4524 13.1234 13.8828 12.2532C15.8596 10.4602 16.0087 7.40436 14.2157 5.42752C12.4227 3.45067 9.36685 3.3016 7.39 5.09458C5.41316 6.88756 5.26408 9.94343 7.05707 11.9203C7.16253 12.0366 7.27367 12.1478 7.39 12.2532C5.82039 13.1234 4.84417 14.7743 4.83777 16.5688V17.096C1.25724 13.8935 0.950876 8.39484 4.15329 4.81431C7.35582 1.23378 12.8545 0.927421 16.435 4.12983C20.0155 7.33224 20.3219 12.831 17.1195 16.4116ZM37.6966 17.3966C33.9604 17.3966 30.9316 14.3678 30.9316 10.6315C30.9316 6.89529 33.9604 3.86648 37.6966 3.86648C41.4329 3.86648 44.4617 6.89529 44.4617 10.6315C44.4576 14.366 41.4312 17.3924 37.6966 17.3966Z" fill="white"/>
<path d="M11.3191 23.4784C10.9419 23.101 10.3302 23.1009 9.9529 23.478C9.95302 23.4779 9.95278 23.4782 9.9529 23.478L6.08679 27.3442L7.45345 28.7107L9.66949 26.4947V37.6918H11.6024V26.4947L13.8184 28.7107L15.185 27.344L11.3191 23.4784Z" fill="white"/>
<path d="M53.1591 38.6582H43.4947C42.961 38.6582 42.5282 39.0909 42.5282 39.6246V46.3897C42.5282 46.9234 42.961 47.3561 43.4947 47.3561H53.1591C53.6928 47.3561 54.1255 46.9234 54.1255 46.3897V39.6246C54.1255 39.0908 53.6928 38.6582 53.1591 38.6582ZM52.1926 45.4232H44.4611V40.591H52.1926V45.4232Z" fill="white"/>
</svg>
