<svg width="66" height="53" viewBox="0 0 66 53" fill="none" xmlns="http://www.w3.org/2000/svg">
<path d="M65.527 18.9955C65.287 18.7833 64.4106 18.1678 63.2143 19.2111C60.6755 21.4265 58.7071 21.3847 58.0324 21.2839C62.3518 13.7823 61.8197 13.3093 61.1032 12.6902C60.8598 12.4816 59.9799 11.8799 58.7836 12.9163C56.4187 14.9786 54.6206 14.2552 54.0051 13.8866L59.2878 5.05299C59.6461 4.46177 59.5243 3.69665 59.0096 3.23758C58.4879 2.77851 57.7159 2.75417 57.1768 3.17846C56.5821 3.63405 54.9406 4.39917 50.5655 4.39917C40.8068 4.39917 25.6715 0.650102 25.5184 0.611846C24.9377 0.465779 24.3325 0.695313 23.9882 1.18568C2.58239 31.8494 0.833059 35.9706 1.04868 37.1565C1.04868 37.16 1.04868 37.1635 1.04868 37.1635C0.892182 37.7443 1.11476 38.3355 1.5634 38.6798C1.43124 39.3614 1.7825 40.057 2.45371 40.3004C30.0292 50.3548 40.0626 52.431 43.8499 52.431C45.7627 52.431 46.0861 51.9024 46.267 51.5998C67.2972 20.5605 66.706 20.0388 65.527 18.9955ZM57.1316 16.9957C54.1233 22.3863 47.4703 33.1466 41.2137 42.9331C40.3234 43.2253 34.5677 44.279 7.24264 37.2991C8.27554 37.1843 9.378 37.1078 10.5848 37.1078C21.5294 37.1078 35.851 41.7542 35.9936 41.8029C36.1431 41.855 36.2961 41.8759 36.4457 41.8759C36.9395 41.8759 37.4125 41.6151 37.6768 41.1734L52.5201 16.3593C53.5564 16.9749 55.198 17.4652 57.1316 16.9957ZM25.7828 3.64448C29.3475 4.48959 41.7876 7.28226 50.5586 7.28226C52.1653 7.28226 53.5634 7.18836 54.7702 7.00056L35.7919 38.7215C32.1541 37.6052 20.3191 34.2317 10.5848 34.2317C8.51899 34.2317 6.65837 34.3882 5.0238 34.6977C8.48421 28.8168 18.7333 13.7614 25.7828 3.64448ZM44.1699 49.5653C44.1455 49.5688 44.1212 49.5688 44.1038 49.5757C43.5752 49.5931 42.2745 49.5549 39.4435 48.9775C35.9449 48.2611 29.7822 46.6509 19.175 43.107C26.9339 44.8077 34.0356 46.0179 38.5741 46.0179C41.1407 46.0179 42.8866 45.6354 43.4743 44.7346L43.4778 44.7381C49.6613 35.0664 53.8103 28.4133 56.5543 23.7983C56.6482 23.8574 56.7351 23.9305 56.8464 23.9687C56.9508 24.007 58.6271 24.5599 61.058 23.7601C57.3542 29.8392 49.6126 41.5177 44.1699 49.5653Z" fill="white"/>
<path d="M38.4072 17.8055C38.3237 17.6907 37.7985 16.9986 36.1605 16.3726L35.385 16.0527C34.1017 15.5519 33.2322 15.3293 33.1974 15.3223C33.1348 15.3084 33.0653 15.298 32.9957 15.2945C32.9435 15.2945 32.7627 15.2841 32.6305 15.2493C32.3071 15.1589 31.7402 15.1554 31.6359 15.1554C31.5072 15.1554 28.3946 15.211 26.7392 16.397C26.5931 16.4909 25.9149 17.0021 25.5045 18.4871C25.428 18.4976 25.348 18.515 25.275 18.5428C24.7673 18.7201 24.6525 19.287 24.6247 19.6209C24.5447 19.9095 24.642 20.1182 24.7707 20.2608C24.256 21.9719 25.9393 23.9751 28.3111 24.4272C31.076 24.9524 34.5851 23.8012 35.9831 22.3962C36.2475 22.3266 36.5465 22.1945 36.8039 21.9406C37.1447 21.6658 37.6699 21.1755 37.4612 20.859C37.4473 20.8451 37.4403 20.8277 37.4195 20.8103C38.1463 20.233 39.367 18.9949 38.4072 17.8055ZM36.2822 20.6747C36.1675 20.7581 36.1466 20.8694 36.2335 20.9633C36.2788 21.0155 36.3448 21.0537 36.4248 21.085C36.3518 21.2137 36.1362 21.4398 35.8997 21.6241C35.8892 21.6311 35.8753 21.6415 35.8684 21.6519C35.7362 21.791 35.5797 21.878 35.4232 21.9058C35.2911 21.9267 35.1763 21.9754 35.1172 22.0414C34.0217 23.2343 30.8847 24.3263 28.6346 23.8986C26.7426 23.5404 25.3376 21.718 25.8523 20.2852C25.8801 20.2086 25.8488 20.1321 25.7619 20.066C25.668 19.993 25.6367 19.8643 25.6784 19.7113C25.6819 19.7009 25.6854 19.6904 25.6854 19.68C25.6993 19.4644 25.7654 19.2349 25.8384 19.0992C25.9427 19.1131 26.0436 19.1131 26.1445 19.0957C26.3323 19.0644 26.4609 18.9775 26.4853 18.8732C26.8539 17.2421 27.5634 16.7691 27.5634 16.7691C27.5738 16.7621 27.5808 16.7587 27.5947 16.7517C28.9476 15.771 31.6846 15.7223 31.702 15.7223C31.8272 15.7223 32.0637 15.7292 32.1784 15.7501C32.4045 15.8127 32.6966 15.844 32.8496 15.851C33.0861 15.917 33.8026 16.1257 34.7694 16.5013L35.5415 16.8247C37.0056 17.3812 37.409 17.9794 37.409 17.9829C37.416 17.9898 37.4229 18.0002 37.4299 18.0072C38.3272 19.0957 36.7726 20.3234 36.2822 20.6747Z" fill="white"/>
<path d="M11.7673 29.3381C15.6659 31.2613 22.6806 32.809 22.6806 32.809C23.0631 32.882 23.4283 32.9446 23.79 33.0002V33.0176C23.79 33.0176 31.0342 34.1896 36.2161 33.9879C36.2161 33.9879 36.9117 34.0331 37.409 33.2576C37.409 33.2576 39.2453 29.8041 38.202 27.8914C38.202 27.8914 37.8855 27.3836 36.7065 26.8619C36.7065 26.8619 36.6091 26.8202 36.4526 26.7576C35.4406 26.2394 34.4251 25.8395 34.4251 25.8395C34.206 25.7456 34.0251 25.6621 33.8582 25.5821C33.1835 25.2204 32.6445 24.6083 32.6445 24.6083C26.847 26.9593 24.809 23.1129 24.809 23.1129C24.0647 23.6554 19.1367 23.5128 19.1367 23.5128C17.6378 23.5267 16.8274 23.8223 16.8274 23.8223C13.9235 24.9804 11.6212 28.347 11.6212 28.347C11.176 29.1364 11.7673 29.3381 11.7673 29.3381Z" fill="white"/>
<path d="M32.4289 24.6847C32.5019 24.6604 32.5714 24.6395 32.6445 24.6117C32.6445 24.5873 32.6514 24.5734 32.6514 24.5734C32.5714 24.6152 32.5019 24.643 32.4289 24.6847Z" fill="white"/>
<path d="M24.8333 23.0924L24.8055 23.1167L24.8333 23.1027L24.8333 23.0924Z" fill="white"/>
<path d="M24.183 10.0328C24.4473 10.071 24.6942 10.0571 24.9237 9.99103C25.1568 9.92843 25.3446 9.81367 25.4872 9.65021L26.3949 8.56166C26.6731 8.22431 26.9722 7.98087 27.306 7.82437C27.6295 7.66787 28.0781 7.62961 28.6346 7.7096C28.9128 7.74785 29.0901 7.81046 29.1597 7.90088C29.2327 7.9913 29.2327 8.09216 29.1632 8.2104C29.1006 8.32517 28.9858 8.48515 28.8154 8.68686L27.7512 9.96321C27.6051 10.1336 27.5843 10.2693 27.6712 10.3771C27.7616 10.4849 27.939 10.5579 28.1964 10.5927C28.4641 10.6309 28.7111 10.617 28.9476 10.5544C29.1736 10.4953 29.3649 10.3805 29.511 10.2101L30.4013 9.14245C30.6865 8.80163 30.9473 8.56861 31.1873 8.45385C31.389 8.3669 31.6185 8.3043 31.8724 8.26953C32.1263 8.23475 32.3697 8.23127 32.5958 8.26605C32.874 8.3043 33.0514 8.3669 33.1313 8.45733C33.2079 8.54775 33.2252 8.6486 33.1661 8.75642C33.114 8.86423 33.0166 9.00682 32.8705 9.17723L31.7437 10.5231C31.6046 10.6901 31.5837 10.8257 31.6741 10.937C31.7715 11.0448 31.9489 11.1178 32.2062 11.1561C32.474 11.1909 32.7244 11.1839 32.9575 11.1213C33.1835 11.0587 33.3748 10.9439 33.5174 10.777L34.8216 9.21201C35.0824 8.89901 35.1972 8.66252 35.1728 8.49558C35.1415 8.31126 34.992 8.15476 34.7242 8.01912C34.4529 7.88349 34.0912 7.78611 33.6217 7.72003C33.2252 7.66091 32.8253 7.65048 32.4288 7.68525C32.0324 7.72003 31.6185 7.79654 31.1942 7.92174C31.1247 7.73046 30.9751 7.57397 30.7351 7.45224C30.4952 7.32704 30.1544 7.23662 29.7266 7.17402C29.3127 7.11837 28.9093 7.10446 28.4989 7.13228C28.099 7.16358 27.6747 7.24357 27.2434 7.3653L27.3095 7.28879C27.4173 7.16011 27.4208 7.04882 27.3269 6.95144C27.233 6.85754 27.0661 6.79146 26.8331 6.76016C26.5861 6.72538 26.3636 6.73929 26.1479 6.79494C25.9323 6.85058 25.7654 6.95492 25.6402 7.10446L23.7274 9.39981C23.5883 9.56674 23.5674 9.70238 23.6578 9.81367C23.7483 9.92148 23.9256 9.99451 24.183 10.0328Z" fill="white"/>
<path d="M39.607 9.99834C39.2696 9.98791 38.8697 9.974 38.4072 9.95661C37.9446 9.93574 37.649 9.92183 37.5307 9.92183C36.9743 9.90097 36.477 9.94965 36.0492 10.0609C35.6214 10.1722 35.3154 10.3426 35.1345 10.5583C34.9989 10.7217 34.9607 10.8852 35.0267 11.0486C35.0928 11.2156 35.2563 11.3582 35.5206 11.4868C35.7884 11.6155 36.1396 11.7094 36.5778 11.772C37.0578 11.8416 37.5238 11.8624 37.9689 11.8416C38.4176 11.8242 38.9149 11.7685 39.454 11.6746C39.5235 11.8485 39.6139 11.9876 39.7148 12.0885C39.8226 12.1894 39.9652 12.252 40.1426 12.2798C40.3512 12.3111 40.5634 12.3006 40.786 12.2554C41.0051 12.2137 41.1546 12.1476 41.2242 12.0642C41.2624 12.0189 41.2972 11.9077 41.325 11.7268C41.3563 11.5494 41.4328 11.3825 41.558 11.233C41.6971 11.073 41.8189 10.9269 41.9302 10.7982C42.038 10.6661 42.1771 10.5061 42.3336 10.3218C42.5805 10.0227 42.6953 9.77229 42.6674 9.5671C42.6396 9.36191 42.4449 9.18802 42.0797 9.04543C41.725 8.90284 41.165 8.77764 40.4138 8.6733C39.7461 8.5794 39.1479 8.54114 38.6193 8.56201C38.0942 8.58636 37.6733 8.64896 37.3429 8.75329C37.0299 8.85067 36.8074 8.96891 36.6891 9.1115C36.6126 9.20193 36.6265 9.28539 36.7169 9.36191C36.8074 9.43842 36.95 9.49058 37.1378 9.51841C37.3534 9.54623 37.5029 9.54971 37.6038 9.52188C37.6977 9.49406 37.8716 9.43494 38.1185 9.34452C38.3724 9.2541 38.6297 9.19845 38.901 9.16715C39.1653 9.14281 39.52 9.16019 39.9513 9.22279C40.459 9.29583 40.7477 9.38973 40.8277 9.51145C40.9042 9.63317 40.8694 9.80011 40.7094 10.0157C40.3095 10.0157 39.9443 10.0088 39.607 9.99834ZM40.2156 10.6104C39.9861 10.8887 39.7357 11.0799 39.4818 11.1773C39.2557 11.2677 38.974 11.3269 38.6332 11.3582C38.2819 11.386 37.9446 11.379 37.6038 11.3303C37.2838 11.2851 37.0647 11.2051 36.9395 11.0939C36.8143 10.9826 36.8074 10.8643 36.9082 10.7426C37.0021 10.6243 37.1621 10.5444 37.3777 10.5026C37.6073 10.4609 37.8194 10.44 38.0246 10.4435C38.2298 10.447 38.5845 10.4609 39.1097 10.4818C39.6244 10.4991 40.0278 10.5061 40.313 10.4991L40.2156 10.6104Z" fill="white"/>
<path d="M46.3366 13.4868C46.1557 13.5772 45.9123 13.6329 45.6201 13.6537C45.3315 13.6781 44.9628 13.6572 44.5211 13.5946C44.302 13.5668 44.1177 13.5285 43.9716 13.4868C43.8151 13.4451 43.7004 13.3964 43.6065 13.3407C43.53 13.2851 43.4569 13.2225 43.4013 13.1599C43.3456 13.0903 43.2935 13.0208 43.2448 12.9547C43.1474 12.826 42.9666 12.7425 42.7196 12.7078C42.5179 12.6799 42.3232 12.6869 42.1249 12.7286C41.9337 12.7704 41.7945 12.8399 41.718 12.9373C41.6102 13.066 41.6311 13.2121 41.7772 13.3686C41.9232 13.5251 42.198 13.6746 42.5979 13.8172C42.9979 13.9598 43.4882 14.0711 44.076 14.1545C44.7229 14.2484 45.2897 14.2936 45.7662 14.2902C46.2531 14.2902 46.6809 14.2484 47.0495 14.158C47.4251 14.0711 47.7485 13.9389 48.0302 13.7685C48.3119 13.5911 48.5623 13.3686 48.7884 13.1042L50.7325 10.7741C50.8855 10.5898 50.9516 10.4368 50.9342 10.3185C50.9099 10.2003 50.729 10.1238 50.409 10.0751C50.1726 10.0403 49.9535 10.0542 49.7483 10.1099C49.5326 10.1655 49.3727 10.2629 49.2544 10.3985L49.164 10.5098C49.0145 10.2803 48.7988 10.0959 48.5137 9.96031C48.2354 9.8212 47.8494 9.72034 47.359 9.65078C46.9626 9.59514 46.5626 9.57427 46.1661 9.59514C45.7662 9.61601 45.3871 9.67513 45.0185 9.76903C44.6463 9.86641 44.3125 10.002 44.0099 10.1759C43.7039 10.3498 43.4535 10.5585 43.2517 10.7985C42.9805 11.1219 42.8622 11.421 42.8866 11.7027C42.9144 11.9844 43.0813 12.2209 43.3943 12.4191C43.7073 12.6173 44.1525 12.7565 44.7229 12.8364C45.2028 12.906 45.6479 12.913 46.0653 12.8747C46.4896 12.833 46.8965 12.7425 47.3069 12.6069C47.0808 12.8712 46.9069 13.0555 46.7921 13.1738C46.6774 13.292 46.5244 13.3964 46.3366 13.4868ZM46.6217 12.3183C46.3087 12.353 46.0131 12.353 45.7245 12.3113C45.2445 12.2452 44.9246 12.1061 44.7611 11.8974C44.6011 11.6888 44.6498 11.421 44.9246 11.0975C45.1924 10.7776 45.5471 10.5515 45.9922 10.4194C46.4305 10.2837 46.893 10.2559 47.3799 10.322C47.8842 10.3916 48.2076 10.5411 48.3641 10.7637C48.5171 10.9863 48.458 11.2645 48.1867 11.5914C48.0128 11.7966 47.7903 11.96 47.512 12.0852C47.2373 12.2035 46.9382 12.2835 46.6217 12.3183Z" fill="white"/>
</svg>
