<svg width="53" height="53" viewBox="0 0 53 53" fill="none" xmlns="http://www.w3.org/2000/svg">
<path d="M16.1349 36.9226L16.1044 36.8922C15.6993 36.489 15.0439 36.4905 14.6405 36.8957C14.2372 37.301 14.2388 37.9564 14.644 38.3597L14.6779 38.3933C14.8798 38.5933 15.1431 38.6931 15.4063 38.6931C15.6729 38.6931 15.9394 38.5907 16.1418 38.3865C16.5442 37.9803 16.5411 37.3249 16.1349 36.9226Z" fill="white"/>
<path d="M38.358 14.6422C31.8196 8.10371 21.1806 8.10371 14.6422 14.6422C9.2896 19.9948 8.18643 28.3093 11.9594 34.8617C12.2447 35.3571 12.8777 35.5274 13.373 35.2422C13.8684 34.9569 14.0388 34.324 13.7535 33.8286C10.4467 28.0859 11.4142 20.7981 16.1061 16.1061C21.8373 10.3748 31.1629 10.3748 36.894 16.1061C42.6253 21.8373 42.6253 31.1628 36.894 36.894C32.1735 41.6145 24.8553 42.5643 19.0977 39.2037C18.6038 38.9155 17.97 39.0821 17.6818 39.576C17.3936 40.0698 17.5603 40.7037 18.0541 40.9919C20.6812 42.5253 23.5925 43.272 26.4855 43.272C30.8268 43.272 35.1264 41.5896 38.358 38.3579C44.8964 31.8195 44.8964 21.1806 38.358 14.6422Z" fill="white"/>
<path d="M52.9964 21.9517C52.9962 21.4427 52.6259 21.0093 52.1232 20.9297L48.3022 20.3243L46.275 15.4355L48.5464 12.3038C48.8453 11.8918 48.8003 11.3236 48.4402 10.9639L42.0201 4.54806C41.66 4.18824 41.0918 4.14352 40.68 4.44279L37.5512 6.71568L32.6591 4.69143L32.051 0.872326C31.9709 0.369861 31.5376 0 31.0287 0C31.0288 0 31.0286 0 31.0287 0L21.9517 0.00372656C21.4427 0.00393359 21.0094 0.374209 20.9297 0.876881L20.3244 4.69795L15.4356 6.7251L12.3039 4.45366C11.892 4.15481 11.3238 4.19984 10.964 4.55986L4.54817 10.98C4.18835 11.3401 4.14373 11.9083 4.44289 12.3201L6.71578 15.4489L4.69153 20.341L0.87243 20.9491C0.369758 21.0291 -0.000206944 21.4627 8.68472e-08 21.9717L0.00372665 31.0482C0.00393368 31.5572 0.374209 31.9906 0.876881 32.0702L4.69795 32.6756L6.7251 37.5644L4.45366 40.6961C4.15481 41.1081 4.19984 41.6763 4.55986 42.036L10.98 48.4518C11.3401 48.8117 11.9084 48.8564 12.3201 48.5571L15.4489 46.2842L20.341 48.3085L20.9491 52.1276C21.0291 52.6301 21.4624 53 21.9713 53C21.9712 53 21.9714 53 21.9713 53L31.0482 52.9962C31.5572 52.996 31.9905 52.6257 32.0702 52.123L32.6756 48.3019L37.5644 46.2748L40.6961 48.5462C41.1081 48.8452 41.6763 48.8001 42.036 48.44L48.4518 42.0199C48.8117 41.6598 48.8563 41.0916 48.5571 40.6798L46.2842 37.551L48.3085 32.6589L52.1276 32.0508C52.6302 31.9708 53.0002 31.5372 53 31.0282L52.9964 21.9517ZM47.4109 30.7054C47.0553 30.7621 46.7548 30.9992 46.6171 31.3319L44.1498 37.2948C44.0121 37.6274 44.0573 38.0077 44.2689 38.299L46.3629 41.1815L41.1964 46.3515L38.3109 44.2587C38.0196 44.0473 37.6393 44.0027 37.3066 44.1404L31.3474 46.6115C31.0149 46.7494 30.7779 47.0501 30.7216 47.4057L30.1637 50.9262L22.8548 50.9293L22.2946 47.4108C22.2379 47.0552 22.0008 46.7547 21.6681 46.617L15.7052 44.1497C15.5778 44.0969 15.4433 44.0711 15.3095 44.0711C15.0942 44.0711 14.8807 44.1382 14.7011 44.2688L11.8186 46.3628L6.6486 41.1963L8.74138 38.3108C8.95276 38.0194 8.99747 37.6391 8.85959 37.3065L6.38857 31.3473C6.25069 31.0148 5.94997 30.7778 5.5944 30.7215L2.07383 30.1636L2.07083 22.8547L5.58933 22.2945C5.9449 22.2378 6.24541 22.0007 6.38308 21.668L8.85038 15.7051C8.98806 15.3725 8.94292 14.9922 8.73134 14.7009L6.63732 11.8184L11.8038 6.64839L14.6893 8.74117C14.9808 8.95255 15.361 8.99747 15.6936 8.85949L21.6528 6.38836C21.9853 6.25048 22.2223 5.94966 22.2786 5.59419L22.8364 2.07362L30.1454 2.07062L30.7056 5.58912C30.7623 5.94469 30.9994 6.2452 31.3321 6.38288L37.295 8.85017C37.6276 8.98764 38.0079 8.94271 38.2992 8.73113L41.1817 6.63711L46.3517 11.8036L44.2589 14.6891C44.0476 14.9805 44.0028 15.3608 44.1407 15.6934L46.6117 21.6526C46.7496 21.9851 47.0503 22.2221 47.4059 22.2784L50.9265 22.8363L50.9295 30.1452L47.4109 30.7054Z" fill="white"/>
<path d="M35.9305 27.7897C34.6358 26.6135 32.8959 26.1026 31.1784 26.3699L26.6323 21.8238C26.9088 20.023 26.3149 18.1699 25.0132 16.8681C23.3812 15.2361 20.9411 14.7362 18.7969 15.5944C18.4738 15.7237 18.2374 16.0066 18.1675 16.3474C18.0975 16.6882 18.2035 17.0414 18.4496 17.2874L19.9506 18.7884C20.2683 19.1061 20.2683 19.6231 19.9506 19.9408C19.6329 20.2586 19.1159 20.2586 18.7981 19.9408L17.292 18.4346C17.0464 18.1891 16.6945 18.0828 16.354 18.1521C16.0138 18.2211 15.7308 18.4562 15.6005 18.7781C14.698 21.007 15.2885 23.5918 17.0699 25.2103C18.3659 26.388 20.1072 26.8988 21.8266 26.6296L26.3685 31.1717C26.0903 32.9739 26.6838 34.8288 27.987 36.132C29.0898 37.2348 30.5591 37.8205 32.0575 37.8204C32.7843 37.8204 33.5183 37.6825 34.2201 37.399C34.5421 37.2689 34.7775 36.9859 34.8468 36.6456C34.916 36.3052 34.81 35.9529 34.5644 35.7072L33.0702 34.213C32.7526 33.8953 32.7526 33.3783 33.0702 33.0605C33.3879 32.7427 33.9049 32.7427 34.2227 33.0605L35.7138 34.5517C35.9597 34.7975 36.3127 34.9037 36.6534 34.8338C36.9942 34.7641 37.277 34.528 37.4065 34.2052C38.299 31.9809 37.7059 29.4027 35.9305 27.7897ZM35.6865 31.5967C34.5615 30.4718 32.731 30.4717 31.6061 31.5967C30.4812 32.7217 30.4812 34.5521 31.6061 35.677L31.6566 35.7276C30.8393 35.638 30.0581 35.2754 29.4508 34.6681C28.5222 33.7395 28.156 32.373 28.4955 31.1018C28.5908 30.7448 28.4886 30.3641 28.2274 30.1029L22.8951 24.7706C22.6984 24.5739 22.434 24.4674 22.163 24.4674C22.0746 24.4674 21.9854 24.4787 21.8977 24.502C20.6718 24.8275 19.3873 24.5192 18.4618 23.6783C17.782 23.0604 17.3726 22.2232 17.2746 21.3454L17.3341 21.4049C18.4591 22.5298 20.2895 22.5299 21.4145 21.4049C22.5394 20.2799 22.5394 18.4495 21.4145 17.3246L21.3655 17.2756C22.175 17.3694 22.948 17.7308 23.5492 18.3322C24.4768 19.2598 24.8431 20.6251 24.5054 21.8952C24.4104 22.2519 24.5127 22.6323 24.7738 22.8933L30.1092 28.2287C30.3698 28.4893 30.7491 28.5918 31.1056 28.4976C32.3303 28.174 33.6136 28.4822 34.5382 29.3222C35.2118 29.9341 35.62 30.7628 35.7225 31.6327L35.6865 31.5967Z" fill="white"/>
<path d="M35.9554 19.1077C34.2494 16.9284 31.8308 15.3954 29.1451 14.7911C28.5876 14.6655 28.0335 15.0159 27.908 15.5738C27.7826 16.1316 28.1329 16.6854 28.6907 16.8109C30.9118 17.3107 32.9129 18.5796 34.3253 20.384C34.5295 20.6448 34.8337 20.781 35.1411 20.781C35.3643 20.781 35.5891 20.7092 35.7784 20.561C36.2286 20.2086 36.3079 19.5579 35.9554 19.1077Z" fill="white"/>
<path d="M37.9331 22.8407L37.918 22.7939C37.7423 22.2499 37.159 21.9515 36.6148 22.127C36.0707 22.3026 35.7721 22.8861 35.9479 23.4301L35.961 23.4707C36.1015 23.9106 36.5086 24.1912 36.9468 24.1912C37.0511 24.1912 37.1573 24.1753 37.262 24.1418C37.8066 23.9678 38.1071 23.3853 37.9331 22.8407Z" fill="white"/>
</svg>
