<svg width="52" height="52" viewBox="0 0 52 52" fill="none" xmlns="http://www.w3.org/2000/svg">
<path d="M50.7714 24.331C49.993 23.6129 48.9341 23.1694 47.8661 23.1138C46.6533 23.0511 45.5171 23.4836 44.6709 24.3302L38.8889 30.0514C38.7747 29.8535 38.6441 29.6666 38.4978 29.4932C37.7864 28.6486 36.7462 28.1836 35.5691 28.1836H27.475C25.9488 28.1836 24.4599 27.9857 23.0499 27.5957C19.3738 26.5789 15.862 27.3215 12.8933 29.7448C11.686 30.7302 10.8053 31.8022 10.2483 32.5837L8.79706 31.1754C8.60624 30.9901 8.34757 30.8849 8.08136 30.8849C8.07898 30.8849 8.077 30.8849 8.07462 30.8849C7.79889 30.8869 7.53229 31.0016 7.34107 31.2L0.286042 38.524C0.0971992 38.7199 -0.00555354 38.9834 0.000397389 39.2555C0.00634832 39.5281 0.120209 39.7867 0.317384 39.9744L12.2498 51.3363C12.4478 51.5248 12.7017 51.6188 12.9552 51.6188C13.2214 51.6188 13.4876 51.5152 13.6879 51.3097L20.6771 44.1393C20.8679 43.9433 20.9739 43.6755 20.9687 43.4017C20.9635 43.132 20.8505 42.8717 20.6569 42.6837L20.0483 42.0933L21.4412 41.9366C22.2839 41.8386 23.1408 41.789 23.989 41.789H36.3038C38.3049 41.789 40.0045 41.3514 41.3558 40.4882C41.3669 40.481 41.378 40.4735 41.3891 40.4659C41.8731 40.1295 42.3123 39.7308 42.694 39.2813L50.9927 29.5182C52.413 27.8476 52.3241 25.7628 50.7714 24.331ZM12.9286 49.1579L2.47321 39.2024L8.10556 33.355L18.4999 43.4418L12.9286 49.1579ZM49.434 28.1931L41.1352 37.9566C40.8718 38.2665 40.5699 38.5418 40.237 38.7751C39.2226 39.4174 37.8995 39.7435 36.3038 39.7435H23.9886C23.0622 39.7435 22.1256 39.7979 21.2087 39.9046L18.1468 40.2481L11.7356 34.0266C12.1812 33.3661 13.0004 32.2985 14.187 31.3297C16.6539 29.3159 19.4524 28.7228 22.5044 29.5674C24.0921 30.0066 25.7644 30.2296 27.475 30.2296H35.5691C37.0227 30.2296 37.4107 31.4888 37.4107 32.2326C37.4107 32.7762 37.2362 33.2935 36.9319 33.6521C36.6018 34.0405 36.1325 34.2373 35.537 34.2373H28.4911C27.9261 34.2373 27.4683 34.6955 27.4683 35.2605C27.4683 35.8254 27.9261 36.2832 28.4911 36.2832H35.537C36.7264 36.2832 37.7753 35.8191 38.491 34.9764C39.0865 34.2758 39.4261 33.3546 39.4547 32.3699L46.1138 25.7806C47.0655 24.8289 48.5524 25.0677 49.3844 25.835C49.8144 26.2317 50.3929 27.0652 49.434 28.1931Z" fill="white"/>
<path d="M25.301 34.9881C25.172 34.4378 24.6218 34.0971 24.0715 34.2256C23.5216 34.3545 23.1801 34.9048 23.3094 35.4551L23.3189 35.4967C23.4296 35.968 23.8497 36.2862 24.3139 36.2862C24.3913 36.2862 24.4698 36.2775 24.5484 36.2592C25.0986 36.1303 25.4398 35.5796 25.3109 35.0298L25.301 34.9881Z" fill="white"/>
<path d="M6.91419 21.9883H16.8816C17.4243 21.9883 17.9266 21.8121 18.3352 21.5146C18.7438 21.8121 19.2461 21.9883 19.7888 21.9883H29.7566C30.2994 21.9883 30.8016 21.8121 31.2103 21.5146C31.6189 21.8121 32.1211 21.9883 32.6639 21.9883H42.6313C43.9968 21.9883 45.1077 20.8771 45.1077 19.5115V14.8634C45.1077 12.7759 43.9393 10.9624 42.1905 10.0678C43.0379 9.04581 43.5481 7.73502 43.5481 6.3068C43.5481 3.05322 40.9011 0.40625 37.6476 0.40625C34.394 0.40625 31.747 3.05322 31.747 6.3068C31.747 7.73502 32.2572 9.04621 33.1046 10.0678C32.3489 10.455 31.7018 11.014 31.2103 11.692C30.7187 11.0136 30.0716 10.4546 29.3155 10.0678C30.1629 9.04621 30.6731 7.73502 30.6731 6.3068C30.6731 3.05322 28.0261 0.40625 24.7725 0.40625C21.519 0.40625 18.872 3.05322 18.872 6.3068C18.872 7.73502 19.3826 9.04621 20.23 10.0682C19.4738 10.455 18.8268 11.014 18.3352 11.6924C17.8437 11.014 17.1966 10.455 16.4404 10.0678C17.2879 9.04621 17.798 7.73502 17.798 6.30719C17.798 3.05322 15.1511 0.40625 11.8975 0.40625C8.64432 0.40625 5.99735 3.05322 5.99735 6.30719C5.99735 7.73502 6.50754 9.04621 7.35495 10.0682C5.60617 10.9628 4.43741 12.7766 4.43741 14.8638V19.5115C4.43741 20.8771 5.54865 21.9883 6.91419 21.9883ZM37.648 2.45218C39.7732 2.45218 41.5026 4.18112 41.5026 6.3068C41.5026 8.43207 39.7732 10.1614 37.648 10.1614C35.5223 10.1614 33.7934 8.43247 33.7934 6.3068C33.793 4.18112 35.5223 2.45218 37.648 2.45218ZM34.9903 11.5726C35.7897 11.9776 36.6923 12.2073 37.6476 12.2073C38.6033 12.2073 39.5059 11.9776 40.3049 11.5726C41.8946 11.8495 43.0621 13.2194 43.0621 14.8634V19.5115C43.0621 19.7492 42.8689 19.9424 42.6313 19.9424H32.6639C32.4266 19.9424 32.2334 19.7492 32.2334 19.5115V14.8634C32.233 13.2198 33.401 11.8495 34.9903 11.5726ZM24.7729 2.45218C26.8982 2.45218 28.6276 4.18112 28.6276 6.3068C28.6276 8.43207 26.8982 10.1614 24.7729 10.1614C22.6473 10.1614 20.9183 8.43247 20.9183 6.3068C20.9183 4.18112 22.6473 2.45218 24.7729 2.45218ZM22.1156 11.5726C22.9147 11.9776 23.8172 12.2073 24.7729 12.2073C25.7287 12.2073 26.6308 11.9776 27.4302 11.5726C29.0195 11.8495 30.1875 13.2194 30.1875 14.8634V19.5115C30.1875 19.7492 29.9943 19.9424 29.7566 19.9424H19.7892C19.5516 19.9424 19.3584 19.7492 19.3584 19.5115V14.8634C19.3584 13.2198 20.5264 11.8495 22.1156 11.5726ZM11.8979 2.45218C14.0232 2.45218 15.7525 4.18112 15.7525 6.3068C15.7525 8.43207 14.0232 10.1614 11.8979 10.1614C9.77262 10.1614 8.04328 8.43207 8.04328 6.3068C8.04328 4.18112 9.77262 2.45218 11.8979 2.45218ZM6.48334 14.8634C6.48334 13.2198 7.65131 11.8495 9.24061 11.5726C10.04 11.9776 10.9422 12.2073 11.8979 12.2073C12.8536 12.2073 13.7558 11.9776 14.5552 11.5726C16.1449 11.8495 17.3124 13.2194 17.3124 14.8634V19.5115C17.3124 19.7492 17.1192 19.9424 16.8816 19.9424H6.91419C6.67655 19.9424 6.48334 19.7492 6.48334 19.5115V14.8634Z" fill="white"/>
</svg>
