<svg width="20" height="20" fill="none" xmlns="http://www.w3.org/2000/svg"><path d="M9.992 0a9.995 9.995 0 0 1 10 10 9.995 9.995 0 0 1-10 10 9.962 9.962 0 0 1-7.063-2.929A9.962 9.962 0 0 1 0 10a9.962 9.962 0 0 1 2.928-7.072A9.964 9.964 0 0 1 9.992 0zm5.096 9.454c.3 0 .538.246.538.546 0 .3-.238.546-.538.546H9.992a.546.546 0 0 1-.469-.277l-.007-.008-.008-.015v-.008l-.016-.031v-.008l-.007-.015-.008-.008v-.015l-.008-.016v-.008l-.008-.015v-.031l-.007-.008V3.489c0-.3.238-.538.538-.538.3 0 .545.239.545.538v5.965h4.551zm1.207-5.757a8.882 8.882 0 0 0-6.303-2.606 8.88 8.88 0 0 0-6.303 2.606A8.914 8.914 0 0 0 1.084 10c0 2.46.999 4.688 2.605 6.303a8.882 8.882 0 0 0 6.303 2.605c2.46 0 4.688-.991 6.302-2.605A8.889 8.889 0 0 0 18.909 10c0-2.46-.999-4.689-2.614-6.303z" fill="#FF8A00"/></svg>