<svg width="105" height="20" viewBox="0 0 105 20" fill="none" xmlns="http://www.w3.org/2000/svg">
<g filter="url(#filter0_d)">
<path d="M5 10.75C4.58579 10.75 4.25 10.4142 4.25 10C4.25 9.58579 4.58579 9.25 5 9.25V10.75ZM100.53 9.46967C100.823 9.76256 100.823 10.2374 100.53 10.5303L95.7574 15.3033C95.4645 15.5962 94.9896 15.5962 94.6967 15.3033C94.4038 15.0104 94.4038 14.5355 94.6967 14.2426L98.9393 10L94.6967 5.75736C94.4038 5.46447 94.4038 4.98959 94.6967 4.6967C94.9896 4.40381 95.4645 4.40381 95.7574 4.6967L100.53 9.46967ZM5 9.25H100V10.75H5V9.25Z" fill="#55FF00"/>
</g>
<defs>
<filter id="filter0_d" x="0.25" y="0.47702" width="104.5" height="19.0459" filterUnits="userSpaceOnUse" color-interpolation-filters="sRGB">
<feFlood flood-opacity="0" result="BackgroundImageFix"/>
<feColorMatrix in="SourceAlpha" type="matrix" values="0 0 0 0 0 0 0 0 0 0 0 0 0 0 0 0 0 0 127 0"/>
<feOffset/>
<feGaussianBlur stdDeviation="2"/>
<feColorMatrix type="matrix" values="0 0 0 0 0.333333 0 0 0 0 1 0 0 0 0 0 0 0 0 1 0"/>
<feBlend mode="normal" in2="BackgroundImageFix" result="effect1_dropShadow"/>
<feBlend mode="normal" in="SourceGraphic" in2="effect1_dropShadow" result="shape"/>
</filter>
</defs>
</svg>
