<svg width="104" height="258" viewBox="0 0 104 258" fill="none" xmlns="http://www.w3.org/2000/svg">
<g filter="url(#filter0_d)">
<path d="M93 7V7C49.3695 7 14 42.3695 14 86V171C14 215.183 49.8172 251 94 251H97.0333" stroke="#54FF00" stroke-width="2"/>
</g>
<g filter="url(#filter1_d)">
<path d="M13.2929 166.207C13.6834 166.598 14.3166 166.598 14.7071 166.207L21.0711 159.843C21.4616 159.453 21.4616 158.819 21.0711 158.429C20.6806 158.038 20.0474 158.038 19.6569 158.429L14 164.086L8.34316 158.429C7.95263 158.038 7.31947 158.038 6.92894 158.429C6.53842 158.819 6.53841 159.453 6.92894 159.843L13.2929 166.207ZM15 165.5L15 161L13 161L13 165.5L15 165.5Z" fill="#54FF00"/>
</g>
<defs>
<filter id="filter0_d" x="7" y="0" width="96.0333" height="258" filterUnits="userSpaceOnUse" color-interpolation-filters="sRGB">
<feFlood flood-opacity="0" result="BackgroundImageFix"/>
<feColorMatrix in="SourceAlpha" type="matrix" values="0 0 0 0 0 0 0 0 0 0 0 0 0 0 0 0 0 0 127 0"/>
<feOffset/>
<feGaussianBlur stdDeviation="3"/>
<feColorMatrix type="matrix" values="0 0 0 0 0.305882 0 0 0 0 1 0 0 0 0 0.00392157 0 0 0 1 0"/>
<feBlend mode="normal" in2="BackgroundImageFix" result="effect1_dropShadow"/>
<feBlend mode="normal" in="SourceGraphic" in2="effect1_dropShadow" result="shape"/>
</filter>
<filter id="filter1_d" x="0.636719" y="152.137" width="26.7279" height="20.364" filterUnits="userSpaceOnUse" color-interpolation-filters="sRGB">
<feFlood flood-opacity="0" result="BackgroundImageFix"/>
<feColorMatrix in="SourceAlpha" type="matrix" values="0 0 0 0 0 0 0 0 0 0 0 0 0 0 0 0 0 0 127 0"/>
<feOffset/>
<feGaussianBlur stdDeviation="3"/>
<feColorMatrix type="matrix" values="0 0 0 0 0.305882 0 0 0 0 1 0 0 0 0 0.00392157 0 0 0 1 0"/>
<feBlend mode="normal" in2="BackgroundImageFix" result="effect1_dropShadow"/>
<feBlend mode="normal" in="SourceGraphic" in2="effect1_dropShadow" result="shape"/>
</filter>
</defs>
</svg>
