<svg width="342" height="193" viewBox="0 0 342 193" fill="none" xmlns="http://www.w3.org/2000/svg">
<g filter="url(#filter0_d)">
<path d="M8.79289 15.3329C8.40237 15.7235 8.40237 16.3566 8.79289 16.7471L15.1569 23.1111C15.5474 23.5016 16.1805 23.5016 16.5711 23.1111C16.9616 22.7206 16.9616 22.0874 16.5711 21.6969L10.9142 16.04L16.5711 10.3832C16.9616 9.99266 16.9616 9.3595 16.5711 8.96897C16.1805 8.57845 15.5474 8.57845 15.1569 8.96897L8.79289 15.3329ZM332 136.04V185H334V136.04H332ZM9.5 17.04H213V15.04H9.5V17.04ZM334 136.04C334 69.2136 279.826 15.04 213 15.04V17.04C278.722 17.04 332 70.3182 332 136.04H334Z" fill="#4EFF01"/>
</g>
<defs>
<filter id="filter0_d" x="0.5" y="0.676086" width="341.5" height="192.324" filterUnits="userSpaceOnUse" color-interpolation-filters="sRGB">
<feFlood flood-opacity="0" result="BackgroundImageFix"/>
<feColorMatrix in="SourceAlpha" type="matrix" values="0 0 0 0 0 0 0 0 0 0 0 0 0 0 0 0 0 0 127 0"/>
<feOffset/>
<feGaussianBlur stdDeviation="4"/>
<feColorMatrix type="matrix" values="0 0 0 0 0.305882 0 0 0 0 1 0 0 0 0 0.00392157 0 0 0 1 0"/>
<feBlend mode="normal" in2="BackgroundImageFix" result="effect1_dropShadow"/>
<feBlend mode="normal" in="SourceGraphic" in2="effect1_dropShadow" result="shape"/>
</filter>
</defs>
</svg>
