<svg width="216" height="143" viewBox="0 0 216 143" fill="none" xmlns="http://www.w3.org/2000/svg">
<g filter="url(#filter0_d)">
<path d="M4.29289 11.2929C3.90237 11.6834 3.90237 12.3166 4.29289 12.7071L10.6569 19.0711C11.0474 19.4616 11.6805 19.4616 12.0711 19.0711C12.4616 18.6805 12.4616 18.0474 12.0711 17.6569L6.41421 12L12.0711 6.34315C12.4616 5.95262 12.4616 5.31946 12.0711 4.92893C11.6805 4.53841 11.0474 4.53841 10.6569 4.92893L4.29289 11.2929ZM5 13H148V11H5V13ZM148 137H144V139H148V137ZM210 75C210 109.242 182.242 137 148 137V139C183.346 139 212 110.346 212 75H210ZM148 13C182.242 13 210 40.7583 210 75H212C212 39.6538 183.346 11 148 11V13Z" fill="#4EFF01"/>
</g>
<defs>
<filter id="filter0_d" x="0" y="0.635986" width="216" height="142.364" filterUnits="userSpaceOnUse" color-interpolation-filters="sRGB">
<feFlood flood-opacity="0" result="BackgroundImageFix"/>
<feColorMatrix in="SourceAlpha" type="matrix" values="0 0 0 0 0 0 0 0 0 0 0 0 0 0 0 0 0 0 127 0"/>
<feOffset/>
<feGaussianBlur stdDeviation="2"/>
<feColorMatrix type="matrix" values="0 0 0 0 0.305882 0 0 0 0 1 0 0 0 0 0.00392157 0 0 0 1 0"/>
<feBlend mode="normal" in2="BackgroundImageFix" result="effect1_dropShadow"/>
<feBlend mode="normal" in="SourceGraphic" in2="effect1_dropShadow" result="shape"/>
</filter>
</defs>
</svg>
