<svg width="186" height="37" viewBox="0 0 186 37" fill="none" xmlns="http://www.w3.org/2000/svg">
<g clip-path="url(#clip0)">
<path d="M0.151698 0.483432V34.1367C0.151698 34.3226 0.303411 34.5086 0.53098 34.5086C0.758549 34.5086 0.910262 34.3598 0.910262 34.1367V0.855291H185.166V36.1447H0.493052C0.303411 36.1447 0.11377 36.2935 0.11377 36.5166C0.11377 36.7025 0.265482 36.8885 0.493052 36.8885H185.469C185.659 36.8885 185.848 36.7397 185.848 36.5166V0.483432C185.848 0.297502 185.697 0.111572 185.469 0.111572H0.493052C0.303411 0.148758 0.151698 0.297502 0.151698 0.483432Z" fill="#4EFF01" stroke="#4EFF01" stroke-width="0.75" stroke-miterlimit="10"/>
<path d="M15.0953 9.29663H10.8095C10.6198 9.29663 10.4302 9.44537 10.4302 9.66849V27.4062C10.4302 27.5921 10.5819 27.778 10.8095 27.778C10.9991 27.778 11.1887 27.6293 11.1887 27.4062V10.0032H14.7161V23.8363C14.7161 24.0223 14.8678 24.2082 15.0953 24.2082H23.3258V27.0343H13.1989C13.0093 27.0343 12.8197 27.1831 12.8197 27.4062C12.8197 27.5921 12.9714 27.778 13.1989 27.778H23.6671C23.8568 27.778 24.0464 27.6293 24.0464 27.4062V23.8363C24.0464 23.6504 23.8947 23.4645 23.6671 23.4645H15.4367V9.6313C15.4367 9.44537 15.285 9.29663 15.0953 9.29663Z" fill="#4EFF01" stroke="#4EFF01" stroke-width="0.75" stroke-miterlimit="10"/>
<path d="M29.0149 11.3417C28.8252 11.3417 28.6356 11.4904 28.6356 11.7135V27.406C28.6356 27.5919 28.7873 27.7779 29.0149 27.7779H42.669C42.8587 27.7779 43.0483 27.6291 43.0483 27.406V24.0965C43.0483 23.9105 42.8966 23.7246 42.669 23.7246H33.2628V20.3407H41.7587C41.9484 20.3407 42.138 20.1919 42.138 19.9688V16.5477C42.138 16.3618 41.9863 16.1759 41.7587 16.1759H33.0732V12.9035H42.6311C42.8207 12.9035 43.0104 12.7548 43.0104 12.5316V9.63114C43.0104 9.44521 42.8587 9.25928 42.6311 9.25928H28.9769C28.7873 9.25928 28.5977 9.40802 28.5977 9.63114C28.5977 9.81707 28.7494 10.003 28.9769 10.003H42.2518V12.1598H32.7318C32.5422 12.1598 32.3526 12.3085 32.3526 12.5316V16.5477C32.3526 16.7336 32.5043 16.9196 32.7318 16.9196H41.3795V19.6342H32.8835C32.6939 19.6342 32.5043 19.7829 32.5043 20.006V24.1336C32.5043 24.3196 32.656 24.5055 32.8835 24.5055H42.2518V27.0713H29.3562V11.7135C29.3941 11.4904 29.2045 11.3417 29.0149 11.3417Z" fill="#4EFF01" stroke="#4EFF01" stroke-width="0.75" stroke-miterlimit="10"/>
<path d="M52.2273 23.7618L51.0136 27.0342H49.1172C48.9275 27.0342 48.7379 27.1829 48.7379 27.406C48.7379 27.592 48.8896 27.7779 49.1172 27.7779H51.2791C51.4308 27.7779 51.5825 27.6663 51.6205 27.5548L52.8721 24.2452H59.2061L60.4198 27.5176C60.4957 27.7035 60.6474 27.8151 60.837 27.8151H64.554C64.7057 27.8151 64.8574 27.7407 64.9333 27.6291C65.0091 27.5176 65.047 27.3688 65.0091 27.2201L58.8647 9.66834C58.7889 9.48241 58.6372 9.37085 58.4096 9.37085H53.5548C53.3651 9.37085 53.1755 9.48241 53.0996 9.66834L46.6898 27.3688C46.6139 27.5548 46.7277 27.7779 46.9173 27.8151C46.9553 27.8151 46.9932 27.8523 47.0311 27.8523C47.1828 27.8523 47.3346 27.7779 47.3725 27.6291L53.7444 10.1146H58.22L64.1747 27.1457H61.0266L59.8129 23.8734C59.7371 23.6874 59.5854 23.5759 59.3578 23.5759H52.6445C52.4549 23.4643 52.2652 23.6131 52.2273 23.7618Z" fill="#4EFF01" stroke="#4EFF01" stroke-width="0.75" stroke-miterlimit="10"/>
<path d="M58.4093 20.7126C58.4472 20.8613 58.599 20.9357 58.7507 20.9357C58.7886 20.9357 58.8265 20.9357 58.8645 20.8985C59.0541 20.8241 59.1679 20.6382 59.092 20.4151L56.2853 12.9779C56.2095 12.792 56.0198 12.6804 55.8302 12.6804C55.6406 12.6804 55.4509 12.792 55.413 12.9779L52.9856 20.2663C52.9476 20.4151 52.9476 20.5638 53.0614 20.6754C53.1373 20.787 53.289 20.8613 53.4407 20.8613H56.5508C56.7405 20.8613 56.9301 20.7126 56.9301 20.4895C56.9301 20.3035 56.7784 20.1176 56.5508 20.1176H53.82L55.906 13.9076L58.4093 20.7126Z" fill="#4EFF01" stroke="#4EFF01" stroke-width="0.75" stroke-miterlimit="10"/>
<path d="M69.9017 9.29663C69.7121 9.29663 69.5225 9.44537 69.5225 9.66849V27.2574C69.5225 27.5549 69.75 27.778 70.0535 27.778H76.3875C82.2663 27.778 86.4005 23.8735 86.4005 18.2956C86.4005 12.7177 80.7871 9.29663 76.7668 9.29663H72.1774C71.9878 9.29663 71.7982 9.44537 71.7982 9.66849C71.7982 9.85442 71.9499 10.0403 72.1774 10.0403H76.7668C80.4837 10.0403 85.642 13.2012 85.642 18.2956C85.642 23.5388 81.925 27.0715 76.3875 27.0715H70.281V9.6313C70.2431 9.44537 70.0914 9.29663 69.9017 9.29663Z" fill="#4EFF01" stroke="#4EFF01" stroke-width="0.75" stroke-miterlimit="10"/>
<path d="M77.2974 23.4643H76.0837C75.8941 23.4643 75.7044 23.613 75.7044 23.8361C75.7044 24.0221 75.8561 24.208 76.0837 24.208H77.2974C79.4972 24.208 82.5694 22.0884 82.5694 18.6673C82.5694 15.2462 80.3317 12.8291 77.1078 12.8291H73.8459C73.5425 12.8291 73.3149 13.0522 73.3149 13.3497V23.7618C73.3149 23.9477 73.4667 24.1336 73.6942 24.1336C73.8839 24.1336 74.0735 23.9849 74.0735 23.7618V13.5728H77.1457C79.9524 13.5728 81.8488 15.618 81.8488 18.6673C81.8488 21.8653 78.9283 23.4643 77.2974 23.4643Z" fill="#4EFF01" stroke="#4EFF01" stroke-width="0.75" stroke-miterlimit="10"/>
<path d="M91.293 27.406C91.293 27.5919 91.4447 27.7779 91.6723 27.7779H95.7306C95.9202 27.7779 96.1099 27.6291 96.1099 27.406V21.6794H98.9545L102.558 27.5548C102.634 27.6663 102.747 27.7407 102.861 27.7407H107.147C107.261 27.7407 107.412 27.6663 107.45 27.5548C107.526 27.4432 107.526 27.2945 107.45 27.1829L103.733 20.8241C104.606 20.2663 106.844 18.5186 106.844 15.6181C106.844 11.5648 104.568 9.25928 100.585 9.25928H91.8998C91.7102 9.25928 91.5205 9.40802 91.5205 9.63114V25.212C91.5205 25.398 91.6723 25.5839 91.8998 25.5839C92.0895 25.5839 92.2791 25.4352 92.2791 25.212V9.96581H100.585C105.402 9.96581 106.123 13.4985 106.123 15.5809C106.123 18.5929 103.392 20.1919 103.089 20.3779C103.013 20.4151 102.937 20.4894 102.899 20.601C102.861 20.6754 102.899 20.7869 102.937 20.8613L106.54 26.9598H103.089L99.4855 21.0844C99.4096 20.9728 99.2958 20.8985 99.182 20.8985H95.7685C95.5789 20.8985 95.3892 21.0472 95.3892 21.2703V26.9598H91.7102C91.4447 27.0342 91.293 27.1829 91.293 27.406Z" fill="#4EFF01" stroke="#4EFF01" stroke-width="0.75" stroke-miterlimit="10"/>
<path d="M95.4652 14.6512C95.2756 14.6512 95.0859 14.8 95.0859 15.0231V18.1467C95.0859 18.3326 95.2377 18.5186 95.4652 18.5186H99.1443C101.572 18.5186 102.672 16.9568 102.672 15.395C102.672 13.5729 101.458 12.4573 99.4856 12.4573H95.4652C95.2756 12.4573 95.0859 12.606 95.0859 12.8291C95.0859 13.0151 95.2377 13.201 95.4652 13.201H99.4856C101.041 13.201 101.913 14.0191 101.913 15.395C101.913 16.5477 101.192 17.812 99.1063 17.812H95.8066V15.0603C95.8445 14.8 95.6549 14.6512 95.4652 14.6512Z" fill="#4EFF01" stroke="#4EFF01" stroke-width="0.75" stroke-miterlimit="10"/>
<path d="M145.265 13.4615C147.01 13.4615 148.641 14.3168 149.627 15.7298C149.703 15.8414 149.854 15.9158 150.006 15.8786L154.026 15.2092C154.14 15.172 154.254 15.1349 154.292 15.0233C154.33 14.9117 154.368 14.8002 154.292 14.6886C152.699 11.1931 149.172 8.9248 145.265 8.9248C141.851 8.9248 138.741 10.6354 136.921 13.4615C135.062 16.362 134.911 19.969 136.541 23.2786C137.376 24.9891 138.779 26.365 140.524 27.1831C142.079 27.8896 143.672 28.2615 145.265 28.2615C146.441 28.2615 147.617 28.0756 148.716 27.6665C151.22 26.7369 153.23 24.8404 154.33 22.4605C154.368 22.3489 154.368 22.2374 154.33 22.1258C154.292 22.0143 154.178 21.9771 154.064 21.9399L151.978 21.568C151.789 21.5308 151.599 21.6796 151.561 21.8655C151.523 22.0514 151.675 22.2374 151.865 22.2746L153.495 22.5349C152.471 24.5429 150.689 26.1419 148.527 26.9228C146.137 27.8153 143.444 27.6293 140.903 26.4766C139.31 25.7328 138.021 24.4685 137.262 22.9439C135.745 19.8575 135.859 16.5107 137.603 13.8333C139.272 11.1931 142.193 9.63134 145.341 9.63134C148.792 9.63134 151.94 11.5278 153.495 14.5399L150.196 15.0977C149.058 13.6102 147.275 12.7178 145.379 12.7178C143.293 12.7178 141.396 13.759 140.296 15.5067C139.159 17.2916 139.121 19.4856 140.145 21.5308C140.6 22.4605 141.358 23.2042 142.307 23.6876C145.758 25.4725 148.906 23.9851 150.385 21.8655C150.499 21.7168 150.461 21.4565 150.272 21.3449C150.12 21.2333 149.892 21.2705 149.741 21.4565C148.451 23.3158 145.682 24.5801 142.61 23.0183C141.851 22.6092 141.207 21.9771 140.789 21.1962C139.879 19.4112 139.917 17.4776 140.903 15.8786C141.738 14.354 143.407 13.4615 145.265 13.4615Z" fill="#4EFF01" stroke="#4EFF01" stroke-width="0.75" stroke-miterlimit="10"/>
<path d="M163.812 8.9247H159.754C159.564 8.9247 159.375 9.07344 159.375 9.29656C159.375 9.48249 159.526 9.66842 159.754 9.66842H163.433V16.4363C163.433 16.6222 163.585 16.8081 163.812 16.8081H166.808C166.96 16.8081 167.074 16.7337 167.15 16.6222L170.943 9.51967H174.584L169.501 18.4071C169.426 18.5187 169.426 18.6674 169.501 18.779L174.546 27.2202H171.132L166.733 20.1548C166.657 20.0433 166.543 19.9689 166.429 19.9689H163.812C163.622 19.9689 163.433 20.1177 163.433 20.3408V27.2202H160.285V11.7136C160.285 11.5277 160.133 11.3418 159.906 11.3418C159.716 11.3418 159.526 11.4905 159.526 11.7136V27.5548C159.526 27.7408 159.678 27.9267 159.906 27.9267H163.812C164.002 27.9267 164.191 27.778 164.191 27.5548V20.6755H166.24L170.639 27.7408C170.715 27.8523 170.829 27.9267 170.943 27.9267H175.229C175.342 27.9267 175.494 27.8523 175.532 27.7408C175.608 27.6292 175.608 27.4805 175.532 27.3689L170.26 18.5559L175.532 9.29656C175.608 9.185 175.608 9.03626 175.532 8.9247C175.456 8.81314 175.342 8.73877 175.229 8.73877H170.715C170.563 8.73877 170.45 8.81314 170.374 8.9247L166.581 16.0272H164.191V9.29656C164.191 9.07344 164.04 8.9247 163.812 8.9247Z" fill="#4EFF01" stroke="#4EFF01" stroke-width="0.75" stroke-miterlimit="10"/>
<path d="M121.446 23.7246C118.943 23.7246 116.781 21.9769 116.288 19.597C116.25 19.4111 116.06 19.2623 115.871 19.2995C115.681 19.3367 115.529 19.5226 115.567 19.7086C116.136 22.4603 118.602 24.4312 121.446 24.4312C124.746 24.4312 127.439 21.791 127.439 18.5558C127.439 15.3206 124.746 12.6804 121.446 12.6804C118.602 12.6804 116.136 14.6513 115.567 17.403C115.529 17.589 115.643 17.7749 115.871 17.8121C116.06 17.8493 116.25 17.7377 116.288 17.5146C116.781 15.0975 118.943 13.387 121.446 13.387C124.329 13.387 126.68 15.6925 126.68 18.5186C126.718 21.4191 124.367 23.7246 121.446 23.7246Z" fill="#4EFF01" stroke="#4EFF01" stroke-width="0.75" stroke-miterlimit="10"/>
<path d="M130.511 17.5519C130.549 17.7379 130.7 17.8866 130.928 17.8866C131.118 17.8494 131.269 17.7007 131.269 17.4776C130.7 12.6062 126.49 8.9248 121.484 8.9248C116.06 8.9248 111.623 13.2756 111.623 18.5931C111.623 23.9107 116.06 28.2615 121.484 28.2615C126.49 28.2615 130.7 24.5801 131.269 19.7087C131.307 19.5228 131.156 19.3369 130.928 19.2997C130.738 19.2625 130.549 19.4112 130.511 19.6344C129.98 24.1339 126.073 27.5178 121.446 27.5178C116.402 27.5178 112.343 23.5017 112.343 18.5931C112.343 13.6474 116.439 9.66852 121.446 9.66852C126.073 9.63134 129.98 13.0524 130.511 17.5519Z" fill="#4EFF01" stroke="#4EFF01" stroke-width="0.75" stroke-miterlimit="10"/>
</g>
<defs>
<clipPath id="clip0">
<rect width="186" height="37" fill="white"/>
</clipPath>
</defs>
</svg>
