<svg width="53" height="54" viewBox="0 0 53 54" fill="none" xmlns="http://www.w3.org/2000/svg">
<g clip-path="url(#clip0)">
<path d="M31.749 25.5906C32.316 25.5906 32.7762 25.1303 32.7762 24.5634C32.7762 23.9964 32.316 23.5361 31.749 23.5361C31.1808 23.5361 30.7218 23.9964 30.7218 24.5634C30.7218 25.1303 31.1808 25.5906 31.749 25.5906Z" fill="black"/>
<path d="M21.4768 25.5906C22.0437 25.5906 22.504 25.1303 22.504 24.5634C22.504 23.9964 22.0437 23.5361 21.4768 23.5361C20.9086 23.5361 20.4495 23.9964 20.4495 24.5634C20.4495 25.1303 20.9086 25.5906 21.4768 25.5906Z" fill="black"/>
<path d="M4.01078 50.2494V52.5041C4.01078 53.0715 4.47062 53.5313 5.038 53.5313H48.1814C48.7487 53.5313 49.2086 53.0715 49.2086 52.5041V50.2474C49.2086 46.1622 46.9138 42.3867 42.6669 40.8367C44.2017 39.4961 45.1346 37.5323 45.1346 35.4089C45.1346 34.8419 44.6748 34.3816 44.1074 34.3816C41.6364 34.3816 39.5539 32.6341 39.0523 30.3161H42.0212C43.7186 30.3161 45.0997 28.9337 45.0997 27.2344V22.5092C45.0997 21.1694 44.2406 20.027 43.0452 19.6037V17.3731C43.0452 8.31063 35.6737 0.9375 26.6129 0.9375C17.5312 0.9375 10.1741 8.28736 10.1741 17.3731V19.6053C8.97876 20.0302 8.11967 21.1722 8.11967 22.5092V27.2344C8.11967 28.9337 9.50361 30.3161 11.2045 30.3161H14.167C13.6663 32.6341 11.5857 34.3816 9.1172 34.3816C8.54982 34.3816 8.08997 34.8419 8.08997 35.4089C8.08997 37.5351 9.02531 39.5009 10.5641 40.8423C6.33366 42.3936 4.01078 46.2071 4.01078 50.2494ZM42.9935 36.3502C42.6737 38.0728 41.4884 39.535 39.832 40.1919L33.6088 39.3837L32.9439 36.7852C34.884 35.6251 36.4301 33.986 37.4661 32.0619C38.4328 34.3018 40.5089 35.963 42.9935 36.3502ZM34.8459 19.4275C32.0082 19.4275 29.6994 17.0898 29.6994 14.2164C29.6994 13.649 29.2395 13.1891 28.6721 13.1891C28.1052 13.1891 27.6449 13.649 27.6449 14.2164C27.6449 17.0898 25.3361 19.4275 22.4976 19.4275H16.3407C16.3407 13.7633 20.9487 9.15528 26.6129 9.15528C32.2879 9.15528 36.8851 13.7481 36.8851 19.4275H34.8459ZM16.3374 21.482H22.4976C25.1154 21.482 27.4114 20.0659 28.6721 17.9529C29.9329 20.0659 32.2285 21.482 34.8459 21.482H36.8819V26.2072C36.8819 30.0926 34.73 33.6024 31.2663 35.3667C29.8169 36.105 28.2512 36.4794 26.6129 36.4794C24.979 36.4794 23.4181 36.1078 21.9727 35.3751C21.0029 34.8836 20.1197 34.2432 19.3473 33.4704C17.4064 31.5307 16.3374 28.951 16.3374 26.2072V21.482ZM22.1842 37.7145C23.5906 38.2578 25.0753 38.5339 26.6129 38.5339C28.1565 38.5339 29.6468 38.2554 31.0592 37.7065L31.7113 40.2565C31.369 42.7996 29.2114 44.6972 26.6229 44.6972C24.0348 44.6972 21.8772 42.8004 21.5342 40.2581L22.1842 37.7145ZM43.0452 27.2344C43.0452 27.801 42.5858 28.2616 42.0212 28.2616H38.9363V21.482H42.0212C42.5858 21.482 43.0452 21.9426 43.0452 22.5092V27.2344ZM26.6129 2.99195C34.541 2.99195 40.9908 9.44339 40.9908 17.3731V19.4275H38.9396C38.9396 12.6169 33.4275 7.10084 26.6129 7.10084C19.816 7.10084 14.2862 12.6306 14.2862 19.4275H12.2286V17.3731C12.2286 9.42734 18.6627 2.99195 26.6129 2.99195ZM10.1741 27.2344V22.5092C10.1741 21.9438 10.6356 21.4832 11.2045 21.482H14.283V28.2616H11.2045C10.6364 28.2616 10.1741 27.801 10.1741 27.2344ZM15.7548 32.0591C16.3178 33.0992 17.0344 34.0638 17.8947 34.9233C18.6186 35.6476 19.4255 36.2736 20.2987 36.7948L19.637 39.3841L13.3966 40.1939C11.7382 39.5366 10.5513 38.0736 10.2311 36.3502C12.7149 35.9626 14.7898 34.2998 15.7548 32.0591ZM13.2879 42.2792L13.401 42.2648H13.4018C13.4026 42.2644 13.4034 42.2644 13.4042 42.2644L19.6827 41.4498C20.5146 44.5407 23.3177 46.7516 26.6229 46.7516C29.9281 46.7516 32.7309 44.5407 33.5623 41.4494C33.8753 41.4903 31.9131 41.2355 39.9567 42.2796C44.4601 42.8646 47.1541 46.2396 47.1541 50.2474V51.4769H6.06522V50.2494C6.06522 46.3167 8.75767 42.8675 13.2879 42.2792Z" fill="black"/>
<path d="M23.8667 32.6509C24.729 33.0574 25.6531 33.2636 26.6125 33.2636C27.5498 33.2636 28.4555 33.0658 29.3053 32.6758C29.821 32.4394 30.0469 31.8295 29.8101 31.3139C29.5738 30.7983 28.9639 30.572 28.4483 30.8087C27.8692 31.0744 27.2517 31.2092 26.6129 31.2092C25.9584 31.2092 25.3289 31.0691 24.7426 30.7927C24.2294 30.5507 23.6175 30.7706 23.3755 31.2838C23.1336 31.797 23.3535 32.4094 23.8667 32.6509Z" fill="black"/>
<path d="M35.8579 48.8054H39.9668C40.5342 48.8054 40.994 48.3456 40.994 47.7782C40.994 47.2108 40.5342 46.751 39.9668 46.751H35.8579C35.2905 46.751 34.8307 47.2108 34.8307 47.7782C34.8307 48.3456 35.2905 48.8054 35.8579 48.8054Z" fill="black"/>
<path d="M44.0725 46.751C44.6394 46.751 45.0997 47.2112 45.0997 47.7782C45.0997 48.3452 44.6394 48.8054 44.0725 48.8054C43.5055 48.8054 43.0452 48.3452 43.0452 47.7782C43.0452 47.2112 43.5055 46.751 44.0725 46.751Z" fill="black"/>
</g>
<defs>
<clipPath id="clip0">
<rect width="52.5938" height="52.5938" fill="white" transform="translate(0.312775 0.9375)"/>
</clipPath>
</defs>
</svg>
