<svg width="63" height="63" viewBox="0 0 63 63" fill="none" xmlns="http://www.w3.org/2000/svg">
<g clip-path="url(#clip0)">
<path d="M51.5393 41.2132C50.0274 41.2132 48.591 41.8053 47.5075 42.8763C46.424 43.9598 45.8192 45.3709 45.8192 46.8828C45.8192 48.3947 46.4114 49.8059 47.5075 50.8894C48.6036 51.9603 50.0274 52.5525 51.5393 52.5525C54.6387 52.5525 57.1586 50.0075 57.1586 46.8828C57.1586 43.7582 54.6387 41.2132 51.5393 41.2132ZM51.5393 50.0326C49.8006 50.0326 48.3391 48.5963 48.3391 46.8828C48.3391 45.1693 49.8006 43.733 51.5393 43.733C53.2528 43.733 54.6387 45.1441 54.6387 46.8828C54.6387 48.6215 53.2528 50.0326 51.5393 50.0326ZM53.0008 22.3268C52.774 22.1126 52.4716 21.9993 52.1566 21.9993H45.6932C45.0003 21.9993 44.4333 22.5662 44.4333 23.2592V33.5906C44.4333 34.2836 45.0003 34.8505 45.6932 34.8505H55.949C56.642 34.8505 57.209 34.2836 57.209 33.5906V26.6736C57.209 26.3208 57.0578 25.9806 56.7932 25.7412L53.0008 22.3268ZM54.6891 32.3307H46.9531V24.5065H51.6653L54.6891 27.228V32.3307ZM20.7718 41.2132C19.2599 41.2132 17.8236 41.8053 16.7401 42.8763C15.6565 43.9598 15.0518 45.3709 15.0518 46.8828C15.0518 48.3947 15.6439 49.8059 16.7401 50.8894C17.8362 51.9603 19.2599 52.5525 20.7718 52.5525C23.8713 52.5525 26.3911 50.0075 26.3911 46.8828C26.3911 43.7582 23.8713 41.2132 20.7718 41.2132ZM20.7718 50.0326C19.0331 50.0326 17.5716 48.5963 17.5716 46.8828C17.5716 45.1693 19.0331 43.733 20.7718 43.733C22.4853 43.733 23.8713 45.1441 23.8713 46.8828C23.8713 48.6215 22.4853 50.0326 20.7718 50.0326ZM12.3681 42.7629H9.83566V39.4115C9.83566 38.7185 9.2687 38.1515 8.57574 38.1515C7.88277 38.1515 7.31581 38.7185 7.31581 39.4115V44.0228C7.31581 44.7158 7.88277 45.2827 8.57574 45.2827H12.3681C13.0611 45.2827 13.628 44.7158 13.628 44.0228C13.628 43.3298 13.0611 42.7629 12.3681 42.7629ZM18.756 35.8963C18.756 35.2033 18.189 34.6363 17.496 34.6363H2.2131C1.52014 34.6363 0.953171 35.2033 0.953171 35.8963C0.953171 36.5892 1.52014 37.1562 2.2131 37.1562H17.496C18.189 37.1562 18.756 36.6018 18.756 35.8963ZM4.77075 31.3479L20.0537 31.4361C20.7466 31.4361 21.3136 30.8817 21.3262 30.1888C21.3388 29.4832 20.7718 28.9163 20.0789 28.9163L4.79595 28.8281C4.78335 28.8281 4.78335 28.8281 4.78335 28.8281C4.09039 28.8281 3.52342 29.3824 3.52342 30.0754C3.51082 30.7809 4.07779 31.3479 4.77075 31.3479ZM7.34101 25.6278H22.6239C23.3169 25.6278 23.8839 25.0609 23.8839 24.3679C23.8839 23.675 23.3169 23.108 22.6239 23.108H7.34101C6.64805 23.108 6.08108 23.675 6.08108 24.3679C6.08108 25.0609 6.64805 25.6278 7.34101 25.6278ZM62.3621 23.9269L53.341 16.4556C53.1142 16.2666 52.837 16.1658 52.5346 16.1658H41.926V11.63C41.926 10.9371 41.3591 10.3701 40.6661 10.3701H8.57574C7.88277 10.3701 7.31581 10.9371 7.31581 11.63V20.8527C7.31581 21.5457 7.88277 22.1126 8.57574 22.1126C9.2687 22.1126 9.83566 21.5457 9.83566 20.8527V12.89H39.4188V42.7629H29.0874C28.3944 42.7629 27.8274 43.3298 27.8274 44.0228C27.8274 44.7158 28.3944 45.2827 29.0874 45.2827H44.4711C45.164 45.2827 45.731 44.7158 45.731 44.0228C45.731 43.3298 45.164 42.7629 44.4711 42.7629H41.9386V18.6856H52.0937L60.3084 25.4893L60.2202 42.7377H58.9099C58.2169 42.7377 57.6499 43.3046 57.6499 43.9976C57.6499 44.6906 58.2169 45.2575 58.9099 45.2575H61.4675C62.1605 45.2575 62.7274 44.7032 62.7274 44.0102L62.8282 24.9097C62.8156 24.5317 62.6518 24.1663 62.3621 23.9269Z" fill="black"/>
</g>
<defs>
<clipPath id="clip0">
<rect width="61.8751" height="61.8751" fill="white" transform="translate(0.953171 0.523438)"/>
</clipPath>
</defs>
</svg>
