<svg width="53" height="53" viewBox="0 0 53 53" fill="none" xmlns="http://www.w3.org/2000/svg">
<g clip-path="url(#clip0)">
<path d="M6.74267 3.24023C5.38807 3.24023 4.28579 4.34251 4.28579 5.69711C4.28579 7.05171 5.38807 8.15359 6.74267 8.15359C8.09727 8.15359 9.19914 7.05131 9.19914 5.69671C9.19914 4.34211 8.09727 3.24023 6.74267 3.24023ZM6.74267 6.58549C6.25259 6.58549 5.85389 6.18679 5.85389 5.69671C5.85389 5.20703 6.25259 4.80833 6.74267 4.80833C7.23235 4.80833 7.63104 5.20703 7.63104 5.69671C7.63104 6.18679 7.23235 6.58549 6.74267 6.58549Z" fill="white"/>
<path d="M13.3284 3.24023C11.9738 3.24023 10.8716 4.34251 10.8716 5.69711C10.8716 7.05171 11.9738 8.15359 13.3284 8.15359C14.683 8.15359 15.7849 7.05171 15.7849 5.69711C15.7849 4.34251 14.683 3.24023 13.3284 3.24023ZM13.3284 6.58549C12.8384 6.58549 12.4397 6.18679 12.4397 5.69671C12.4397 5.20703 12.8384 4.80833 13.3284 4.80833C13.8181 4.80833 14.2168 5.20703 14.2168 5.69671C14.2168 6.18679 13.8181 6.58549 13.3284 6.58549Z" fill="white"/>
<path d="M19.9142 3.24023C18.5596 3.24023 17.4577 4.34251 17.4577 5.69711C17.4577 7.05171 18.5596 8.15359 19.9142 8.15359C21.2688 8.15359 22.3707 7.05171 22.3707 5.69711C22.3707 4.34251 21.2688 3.24023 19.9142 3.24023ZM19.9142 6.58549C19.4241 6.58549 19.0258 6.18679 19.0258 5.69671C19.0258 5.20703 19.4241 4.80833 19.9142 4.80833C20.4043 4.80833 20.803 5.20703 20.803 5.69671C20.803 6.18679 20.4039 6.58549 19.9142 6.58549Z" fill="white"/>
<path d="M50.1254 0H2.87458C1.2895 0 0 1.2895 0 2.87458V37.4763C0 39.0614 1.2895 40.3509 2.87458 40.3509H7.93229C7.6921 40.6586 7.71313 41.1038 7.99618 41.3868L11.7632 45.1538C11.4809 45.7329 11.2339 46.3293 11.0236 46.9367H5.697C5.26434 46.9367 4.91335 47.2876 4.91335 47.7207V52.216C4.91335 52.649 5.26434 53 5.697 53H21.1685C21.6016 53 21.9526 52.649 21.9526 52.216C21.9526 49.8238 23.8988 47.8776 26.2909 47.8776C28.6827 47.8776 30.6289 49.8238 30.6289 52.216C30.6289 52.649 30.9799 53 31.4129 53H46.8845C47.3176 53 47.6685 52.649 47.6685 52.216V47.7207C47.6685 47.2876 47.3176 46.9367 46.8845 46.9367H41.5579C41.3476 46.3293 41.1006 45.7329 40.8183 45.1538L44.5857 41.3868C44.8684 41.1038 44.8894 40.6586 44.6492 40.3509H50.125C51.7101 40.3509 52.9996 39.0614 52.9996 37.4763V18.0805C52.9996 17.6474 52.6486 17.2964 52.216 17.2964C51.7829 17.2964 51.4319 17.6474 51.4319 18.0805V37.4763C51.4319 38.1969 50.8456 38.7828 50.125 38.7828H43.0904L38.4694 34.1618V28.7996C38.4694 28.3665 38.118 28.0155 37.6853 28.0155H36.2741V23.1843L37.3805 22.1629C37.6029 21.9574 37.6874 21.6429 37.5976 21.3541L35.7161 15.2912C35.6142 14.9633 35.3106 14.7397 34.9673 14.7397H32.8763C32.533 14.7397 32.2293 14.9633 32.1274 15.2912L30.246 21.3541C30.1562 21.6429 30.2407 21.9574 30.4631 22.1629L31.5698 23.1843V28.0155H30.1586C29.7256 28.0155 29.3746 28.3665 29.3746 28.7996V30.838H23.2069V29.6471L26.2178 26.6363C26.3649 26.4891 26.4474 26.2897 26.4474 26.0819V19.6526C26.4474 19.4431 26.3633 19.2422 26.2141 19.095L22.0331 14.9657C21.8078 14.7433 21.4714 14.6782 21.1799 14.7999C20.8879 14.922 20.6979 15.2071 20.6979 15.5233V22.5126L18.6595 23.7961L16.6211 22.5126V22.0658C16.6211 21.6327 16.2701 21.2818 15.8371 21.2818C15.404 21.2818 15.053 21.6327 15.053 22.0658V22.9453C15.053 23.215 15.1913 23.4653 15.4194 23.6088L18.2418 25.386C18.4969 25.5469 18.8221 25.5469 19.0772 25.386L21.8996 23.6088C22.1277 23.4653 22.266 23.215 22.266 22.9453V17.3995L24.8793 19.9801V25.7568L21.8685 28.7676C21.7213 28.9148 21.6388 29.1142 21.6388 29.3224V30.8537C21.281 30.9265 21.0117 31.2427 21.0117 31.622V36.9486C20.4039 37.1585 19.8079 37.4059 19.2284 37.6878L15.6802 34.1395V29.3224C15.6802 29.1142 15.5977 28.9148 15.4505 28.7676L12.4397 25.7568V19.9801L15.053 17.3995V18.3938C15.053 18.8269 15.404 19.1779 15.8371 19.1779C16.2701 19.1779 16.6211 18.8269 16.6211 18.3938V15.5237C16.6211 15.2071 16.4311 14.922 16.1391 14.8003C15.8476 14.6782 15.5112 14.7437 15.2859 14.9657L11.1045 19.095C10.9553 19.2422 10.8716 19.4431 10.8716 19.6526V26.0819C10.8716 26.2897 10.9541 26.4891 11.1012 26.6363L14.1121 29.6471V34.1618L9.49109 38.7828H2.87458C2.15401 38.7828 1.5681 38.1969 1.5681 37.4763V11.3944H51.4319V14.4279C51.4319 14.8606 51.7829 15.2115 52.216 15.2115C52.649 15.2115 53 14.8606 53 14.4279V2.87458C53 1.2895 51.7105 0 50.1254 0V0ZM32.8856 22.2652L31.8905 21.3465L33.4546 16.3078H34.3898L35.9535 21.3465L34.9584 22.2652C34.7978 22.4136 34.706 22.6222 34.706 22.8414V28.0159H33.1383V22.8414C33.1379 22.6222 33.0466 22.4136 32.8856 22.2652ZM36.9013 29.5836V34.1399L33.3531 37.6882C32.7736 37.4063 32.1776 37.1589 31.5698 36.9486V31.6224C31.5698 31.2431 31.3005 30.9269 30.9427 30.8541V29.584H36.9013V29.5836ZM19.446 39.3372C20.2688 38.8988 21.1366 38.5389 22.025 38.2676C22.3545 38.1669 22.5798 37.8625 22.5798 37.5175V32.4061H30.0017V37.5175C30.0017 37.8625 30.2274 38.1669 30.5569 38.2676C31.4453 38.5389 32.313 38.8988 33.1359 39.3372C33.4404 39.4993 33.8148 39.4435 34.0591 39.1997L37.6744 35.5843L42.2109 40.1212C42.2113 40.1212 42.2113 40.1216 42.2117 40.122L42.9226 40.8325L39.3072 44.4478C39.0634 44.6917 39.0076 45.0665 39.1697 45.371C39.6081 46.1934 39.9679 47.0612 40.2393 47.95C40.34 48.2795 40.6444 48.5048 40.989 48.5048H46.1004V51.4319H38.1293C37.7242 45.2537 32.5698 40.3513 26.2909 40.3513C24.6121 40.3513 22.9894 40.695 21.4674 41.3727C21.0719 41.549 20.894 42.0124 21.0703 42.4082C21.2462 42.8037 21.7104 42.9812 22.1054 42.8053C23.4253 42.2174 24.8332 41.9194 26.2909 41.9194C31.7049 41.9194 36.1565 46.119 36.558 51.4319H32.1452C31.7607 48.5448 29.282 46.3099 26.2909 46.3099C23.2999 46.3099 20.8212 48.5448 20.4367 51.4319H16.0231C16.2135 48.8574 17.3421 46.4919 19.2491 44.7034C19.5649 44.4074 19.581 43.9112 19.2846 43.595C18.9886 43.2796 18.4925 43.2635 18.1767 43.5595C15.9843 45.6152 14.6531 48.4494 14.4534 51.4319H6.48105V48.5048H11.5925C11.9375 48.5048 12.2419 48.2795 12.3426 47.95C12.6139 47.0612 12.9738 46.1934 13.4121 45.371C13.5743 45.0665 13.5185 44.6917 13.2747 44.4478L9.6593 40.8325L10.3702 40.122C10.3702 40.1216 10.3706 40.1212 10.371 40.1212L14.9075 35.5843L18.5228 39.1997C18.7667 39.4435 19.1415 39.4993 19.446 39.3372ZM1.5681 9.8263V2.87458C1.5681 2.15401 2.15442 1.5681 2.87458 1.5681H50.1254C50.846 1.5681 51.4319 2.15442 51.4319 2.87458V9.8263H1.5681Z" fill="white"/>
</g>
<defs>
<clipPath id="clip0">
<rect width="53" height="53" fill="white"/>
</clipPath>
</defs>
</svg>
