<svg width="57" height="57" viewBox="0 0 57 57" fill="none" xmlns="http://www.w3.org/2000/svg">
<path d="M55.6532 26.6698C54.8 25.8827 53.6393 25.3965 52.4686 25.3356C51.1392 25.2669 49.8937 25.741 48.9661 26.669L42.6282 32.9403C42.503 32.7233 42.3599 32.5185 42.1995 32.3284C41.4197 31.4026 40.2795 30.8929 38.9892 30.8929H30.1169C28.4439 30.8929 26.8118 30.6759 25.2663 30.2484C21.2367 29.1339 17.3872 29.9479 14.133 32.6042C12.8097 33.6844 11.8443 34.8594 11.2337 35.7161L9.64293 34.1723C9.43376 33.9692 9.15022 33.854 8.85842 33.854C8.85581 33.854 8.85363 33.854 8.85102 33.854C8.54879 33.8562 8.25655 33.9818 8.04694 34.1993L0.313547 42.2275C0.106546 42.4424 -0.00608695 42.7311 0.000436187 43.0294C0.00695932 43.3282 0.131769 43.6117 0.347902 43.8174L13.4277 56.2718C13.6447 56.4784 13.923 56.5815 14.2009 56.5815C14.4927 56.5815 14.7845 56.468 15.0041 56.2427L22.6653 48.3828C22.8745 48.1679 22.9906 47.8744 22.9849 47.5743C22.9793 47.2786 22.8553 46.9933 22.6431 46.7872L21.976 46.1401L23.5028 45.9683C24.4265 45.8609 25.3659 45.8066 26.2956 45.8066H39.7946C41.9881 45.8066 43.8511 45.3269 45.3323 44.3806C45.3445 44.3728 45.3567 44.3645 45.3688 44.3562C45.8994 43.9875 46.3808 43.5504 46.7991 43.0577L55.8959 32.3558C57.4527 30.5246 57.3553 28.2393 55.6532 26.6698ZM14.1717 53.8839L2.71102 42.9712L8.88494 36.5615L20.2787 47.6182L14.1717 53.8839ZM54.1872 30.9034L45.0905 41.6057C44.8018 41.9453 44.4708 42.2471 44.1059 42.5028C42.994 43.2069 41.5437 43.5643 39.7946 43.5643H26.2952C25.2798 43.5643 24.253 43.6239 23.248 43.7409L19.8916 44.1175L12.8641 37.2978C13.3524 36.5737 14.2504 35.4035 15.5512 34.3415C18.2552 32.1341 21.3228 31.4839 24.6683 32.4098C26.4087 32.8912 28.2417 33.1356 30.1169 33.1356H38.9892C40.5826 33.1356 41.0079 34.5159 41.0079 35.3313C41.0079 35.927 40.8166 36.4941 40.483 36.8873C40.1212 37.313 39.6067 37.5287 38.954 37.5287H31.2306C30.6113 37.5287 30.1095 38.031 30.1095 38.6502C30.1095 39.2695 30.6113 39.7713 31.2306 39.7713H38.954C40.2577 39.7713 41.4075 39.2625 42.1921 38.3389C42.8448 37.5709 43.2171 36.5611 43.2484 35.4817L50.5478 28.2589C51.591 27.2156 53.2209 27.4774 54.1329 28.3185C54.6043 28.7533 55.2383 29.667 54.1872 30.9034Z" fill="white"/>
<path d="M27.7338 38.3519C27.5924 37.7487 26.9893 37.3751 26.3861 37.516C25.7833 37.6574 25.4089 38.2606 25.5507 38.8637L25.5611 38.9094C25.6825 39.426 26.143 39.7748 26.6518 39.7748C26.7366 39.7748 26.8227 39.7652 26.9088 39.7452C27.512 39.6039 27.886 39.0003 27.7446 38.3975L27.7338 38.3519Z" fill="white"/>
<path d="M7.57901 24.1025H18.5048C19.0997 24.1025 19.6503 23.9095 20.0982 23.5833C20.5461 23.9095 21.0967 24.1025 21.6916 24.1025H32.6179C33.2128 24.1025 33.7633 23.9095 34.2112 23.5833C34.6592 23.9095 35.2097 24.1025 35.8046 24.1025H46.7304C48.2273 24.1025 49.4449 22.8845 49.4449 21.3876V16.2926C49.4449 14.0043 48.1642 12.0165 46.2473 11.0358C47.1762 9.9156 47.7354 8.47877 47.7354 6.91322C47.7354 3.3468 44.8339 0.445312 41.2675 0.445312C37.7011 0.445312 34.7996 3.3468 34.7996 6.91322C34.7996 8.47877 35.3589 9.91603 36.2878 11.0358C35.4593 11.4603 34.75 12.073 34.2112 12.8162C33.6724 12.0726 32.9631 11.4598 32.1343 11.0358C33.0632 9.91603 33.6224 8.47877 33.6224 6.91322C33.6224 3.3468 30.7209 0.445312 27.1545 0.445312C23.5881 0.445312 20.6866 3.3468 20.6866 6.91322C20.6866 8.47877 21.2463 9.91603 22.1752 11.0363C21.3463 11.4603 20.637 12.073 20.0982 12.8167C19.5594 12.073 18.8501 11.4603 18.0212 11.0358C18.9501 9.91603 19.5094 8.47877 19.5094 6.91365C19.5094 3.3468 16.6079 0.445312 13.0415 0.445312C9.4755 0.445312 6.57401 3.3468 6.57401 6.91365C6.57401 8.47877 7.13326 9.91603 8.06216 11.0363C6.14523 12.0169 4.86408 14.0052 4.86408 16.2931V21.3876C4.86408 22.8845 6.08217 24.1025 7.57901 24.1025ZM41.268 2.68797C43.5976 2.68797 45.4932 4.58315 45.4932 6.91322C45.4932 9.24285 43.5976 11.1385 41.268 11.1385C38.9379 11.1385 37.0427 9.24328 37.0427 6.91322C37.0423 4.58315 38.9379 2.68797 41.268 2.68797ZM38.3547 12.6853C39.231 13.1293 40.2203 13.3811 41.2675 13.3811C42.3151 13.3811 43.3045 13.1293 44.1803 12.6853C45.9229 12.9889 47.2027 14.4905 47.2027 16.2926V21.3876C47.2027 21.6481 46.9909 21.8599 46.7304 21.8599H35.8046C35.5446 21.8599 35.3328 21.6481 35.3328 21.3876V16.2926C35.3323 14.4909 36.6126 12.9889 38.3547 12.6853ZM27.1549 2.68797C29.4846 2.68797 31.3802 4.58315 31.3802 6.91322C31.3802 9.24285 29.4846 11.1385 27.1549 11.1385C24.8249 11.1385 22.9297 9.24328 22.9297 6.91322C22.9297 4.58315 24.8249 2.68797 27.1549 2.68797ZM24.2421 12.6853C25.118 13.1293 26.1073 13.3811 27.1549 13.3811C28.2026 13.3811 29.1915 13.1293 30.0677 12.6853C31.8099 12.9889 33.0901 14.4905 33.0901 16.2926V21.3876C33.0901 21.6481 32.8783 21.8599 32.6179 21.8599H21.692C21.4315 21.8599 21.2198 21.6481 21.2198 21.3876V16.2926C21.2198 14.4909 22.5 12.9889 24.2421 12.6853ZM13.0419 2.68797C15.3715 2.68797 17.2672 4.58315 17.2672 6.91322C17.2672 9.24285 15.3715 11.1385 13.0419 11.1385C10.7123 11.1385 8.81667 9.24285 8.81667 6.91322C8.81667 4.58315 10.7123 2.68797 13.0419 2.68797ZM7.10674 16.2926C7.10674 14.4909 8.38701 12.9889 10.1291 12.6853C11.0054 13.1293 11.9943 13.3811 13.0419 13.3811C14.0895 13.3811 15.0784 13.1293 15.9547 12.6853C17.6973 12.9889 18.9771 14.4905 18.9771 16.2926V21.3876C18.9771 21.6481 18.7653 21.8599 18.5048 21.8599H7.57901C7.31852 21.8599 7.10674 21.6481 7.10674 21.3876V16.2926Z" fill="white"/>
</svg>
