<svg width="62" height="62" viewBox="0 0 62 62" fill="none" xmlns="http://www.w3.org/2000/svg">
<g clip-path="url(#clip0)">
<path d="M51.0794 16.1914H11.2568C10.5306 16.1914 9.9418 16.7801 9.9418 17.5064V37.3673C9.9418 38.0936 10.5306 38.6823 11.2568 38.6823C11.983 38.6823 12.5718 38.0936 12.5718 37.3673V18.8213H49.7644V37.3672C49.7644 38.0935 50.3532 38.6822 51.0794 38.6822C51.8056 38.6822 52.3944 38.0935 52.3944 37.3672V17.5063C52.3943 16.7801 51.8055 16.1914 51.0794 16.1914Z" fill="white"/>
<path d="M60.5355 42.0633H58.1135V14.4476C58.1135 12.2558 56.3303 10.4727 54.1385 10.4727H8.19765C6.00575 10.4727 4.2227 12.2558 4.2227 14.4476V42.0633H1.80071C1.14708 42.0633 0.617218 42.5931 0.617218 43.2468V45.5701C0.617218 48.7895 3.23636 51.4087 6.45578 51.4087H55.8803C59.0997 51.4087 61.7188 48.7895 61.7188 45.5701V43.2468C61.719 42.5931 61.1892 42.0633 60.5355 42.0633ZM6.85258 14.4476C6.85258 13.706 7.45608 13.1025 8.19765 13.1025H54.1383C54.8801 13.1025 55.4834 13.7059 55.4834 14.4476V42.0633H37.6779C37.594 42.0606 37.5075 42.0677 37.4216 42.0843C36.8645 42.1915 36.462 42.6791 36.462 43.2463C36.462 44.2453 35.6493 45.0579 34.6505 45.0579H27.6858C26.6868 45.0579 25.8743 44.2452 25.8743 43.2463C25.8743 42.5837 25.3252 42.0489 24.6634 42.0631H6.85258V14.4476ZM59.352 45.5701C59.352 47.4844 57.7945 49.0417 55.8804 49.0417H6.45578C4.54157 49.0417 2.98419 47.4844 2.98419 45.5701V44.4303H23.678C24.1896 46.1597 25.7927 47.425 27.6857 47.425H34.6504C36.5434 47.425 38.1465 46.1595 38.6582 44.4303H59.3521V45.5701H59.352Z" fill="white"/>
<path d="M33.117 23.8353C32.6034 23.3218 31.771 23.3218 31.2572 23.8353L22.9874 32.1055C22.4739 32.6191 22.4739 33.4517 22.9874 33.9652C23.2442 34.222 23.5807 34.3503 23.9171 34.3503C24.2537 34.3503 24.5901 34.2218 24.8469 33.9652L33.117 25.6951C33.6305 25.1816 33.6305 24.349 33.117 23.8353Z" fill="white"/>
<path d="M38.0188 28.6283C37.5051 28.1148 36.6727 28.1148 36.1591 28.6283L32.8646 31.9228C32.3511 32.4363 32.3511 33.2689 32.8646 33.7826C33.1214 34.0394 33.458 34.1677 33.7944 34.1677C34.1311 34.1677 34.4674 34.0394 34.7242 33.7826L38.0187 30.4881C38.5323 29.9746 38.5323 29.1419 38.0188 28.6283Z" fill="white"/>
</g>
<defs>
<clipPath id="clip0">
<rect width="61.1016" height="61.1016" fill="white" transform="translate(0.617218 0.390625)"/>
</clipPath>
</defs>
</svg>
