<svg width="53" height="54" viewBox="0 0 53 54" fill="none" xmlns="http://www.w3.org/2000/svg">
<g clip-path="url(#clip0)">
<path d="M31.4675 25.5906C32.0345 25.5906 32.4947 25.1303 32.4947 24.5634C32.4947 23.9964 32.0345 23.5361 31.4675 23.5361C30.8993 23.5361 30.4403 23.9964 30.4403 24.5634C30.4403 25.1303 30.8993 25.5906 31.4675 25.5906Z" fill="white"/>
<path d="M21.1953 25.5906C21.7623 25.5906 22.2225 25.1303 22.2225 24.5634C22.2225 23.9964 21.7623 23.5361 21.1953 23.5361C20.6271 23.5361 20.1681 23.9964 20.1681 24.5634C20.1681 25.1303 20.6271 25.5906 21.1953 25.5906Z" fill="white"/>
<path d="M3.72928 50.2494V52.5041C3.72928 53.0715 4.18912 53.5313 4.7565 53.5313H47.8999C48.4672 53.5313 48.9271 53.0715 48.9271 52.5041V50.2474C48.9271 46.1622 46.6323 42.3867 42.3854 40.8367C43.9202 39.4961 44.8531 37.5323 44.8531 35.4089C44.8531 34.8419 44.3933 34.3816 43.8259 34.3816C41.3549 34.3816 39.2724 32.6341 38.7708 30.3161H41.7397C43.4371 30.3161 44.8182 28.9337 44.8182 27.2344V22.5092C44.8182 21.1694 43.9591 20.027 42.7637 19.6037V17.3731C42.7637 8.31063 35.3922 0.9375 26.3314 0.9375C17.2497 0.9375 9.89261 8.28736 9.89261 17.3731V19.6053C8.69726 20.0302 7.83817 21.1722 7.83817 22.5092V27.2344C7.83817 28.9337 9.22211 30.3161 10.923 30.3161H13.8855C13.3848 32.6341 11.3042 34.3816 8.8357 34.3816C8.26832 34.3816 7.80848 34.8419 7.80848 35.4089C7.80848 37.5351 8.74381 39.5009 10.2826 40.8423C6.05217 42.3936 3.72928 46.2071 3.72928 50.2494ZM42.712 36.3502C42.3922 38.0728 41.2069 39.535 39.5505 40.1919L33.3273 39.3837L32.6625 36.7852C34.6025 35.6251 36.1486 33.986 37.1846 32.0619C38.1513 34.3018 40.2274 35.963 42.712 36.3502ZM34.5644 19.4275C31.7267 19.4275 29.4179 17.0898 29.4179 14.2164C29.4179 13.649 28.958 13.1891 28.3906 13.1891C27.8237 13.1891 27.3634 13.649 27.3634 14.2164C27.3634 17.0898 25.0546 19.4275 22.2161 19.4275H16.0592C16.0592 13.7633 20.6672 9.15528 26.3314 9.15528C32.0064 9.15528 36.6036 13.7481 36.6036 19.4275H34.5644ZM16.056 21.482H22.2161C24.8339 21.482 27.1299 20.0659 28.3906 17.9529C29.6514 20.0659 31.947 21.482 34.5644 21.482H36.6004V26.2072C36.6004 30.0926 34.4485 33.6024 30.9848 35.3667C29.5354 36.105 27.9697 36.4794 26.3314 36.4794C24.6975 36.4794 23.1366 36.1078 21.6912 35.3751C20.7214 34.8836 19.8382 34.2432 19.0658 33.4704C17.1249 31.5307 16.056 28.951 16.056 26.2072V21.482ZM21.9027 37.7145C23.3091 38.2578 24.7938 38.5339 26.3314 38.5339C27.875 38.5339 29.3653 38.2554 30.7777 37.7065L31.4298 40.2565C31.0875 42.7996 28.9299 44.6972 26.3414 44.6972C23.7533 44.6972 21.5957 42.8004 21.2527 40.2581L21.9027 37.7145ZM42.7637 27.2344C42.7637 27.801 42.3043 28.2616 41.7397 28.2616H38.6549V21.482H41.7397C42.3043 21.482 42.7637 21.9426 42.7637 22.5092V27.2344ZM26.3314 2.99195C34.2595 2.99195 40.7093 9.44339 40.7093 17.3731V19.4275H38.6581C38.6581 12.6169 33.146 7.10084 26.3314 7.10084C19.5345 7.10084 14.0047 12.6306 14.0047 19.4275H11.9471V17.3731C11.9471 9.42734 18.3812 2.99195 26.3314 2.99195ZM9.89261 27.2344V22.5092C9.89261 21.9438 10.3541 21.4832 10.923 21.482H14.0015V28.2616H10.923C10.3549 28.2616 9.89261 27.801 9.89261 27.2344ZM15.4733 32.0591C16.0363 33.0992 16.7529 34.0638 17.6132 34.9233C18.3371 35.6476 19.144 36.2736 20.0172 36.7948L19.3555 39.3841L13.1151 40.1939C11.4567 39.5366 10.2698 38.0736 9.94959 36.3502C12.4334 35.9626 14.5083 34.2998 15.4733 32.0591ZM13.0064 42.2792L13.1195 42.2648H13.1203C13.1211 42.2644 13.1219 42.2644 13.1227 42.2644L19.4012 41.4498C20.2331 44.5407 23.0363 46.7516 26.3414 46.7516C29.6466 46.7516 32.4494 44.5407 33.2808 41.4494C33.5938 41.4903 31.6316 41.2355 39.6753 42.2796C44.1786 42.8646 46.8726 46.2396 46.8726 50.2474V51.4769H5.78372V50.2494C5.78372 46.3167 8.47617 42.8675 13.0064 42.2792Z" fill="white"/>
<path d="M23.5852 32.6509C24.4475 33.0574 25.3716 33.2636 26.331 33.2636C27.2683 33.2636 28.174 33.0658 29.0238 32.6758C29.5395 32.4394 29.7654 31.8295 29.5286 31.3139C29.2923 30.7983 28.6824 30.572 28.1668 30.8087C27.5877 31.0744 26.9702 31.2092 26.3314 31.2092C25.6769 31.2092 25.0474 31.0691 24.4611 30.7927C23.9479 30.5507 23.336 30.7706 23.094 31.2838C22.8521 31.797 23.072 32.4094 23.5852 32.6509Z" fill="white"/>
<path d="M35.5764 48.8054H39.6853C40.2527 48.8054 40.7125 48.3456 40.7125 47.7782C40.7125 47.2108 40.2527 46.751 39.6853 46.751H35.5764C35.009 46.751 34.5492 47.2108 34.5492 47.7782C34.5492 48.3456 35.009 48.8054 35.5764 48.8054Z" fill="white"/>
<path d="M43.791 46.751C44.358 46.751 44.8182 47.2112 44.8182 47.7782C44.8182 48.3452 44.358 48.8054 43.791 48.8054C43.224 48.8054 42.7638 48.3452 42.7638 47.7782C42.7638 47.2112 43.224 46.751 43.791 46.751Z" fill="white"/>
</g>
<defs>
<clipPath id="clip0">
<rect width="52.5938" height="52.5938" fill="white" transform="translate(0.0312805 0.9375)"/>
</clipPath>
</defs>
</svg>
