<svg width="63" height="63" viewBox="0 0 63 63" fill="none" xmlns="http://www.w3.org/2000/svg">
<g clip-path="url(#clip0)">
<path d="M51.4299 41.0803C49.918 41.0803 48.4817 41.6725 47.3981 42.7435C46.3146 43.827 45.7098 45.2381 45.7098 46.75C45.7098 48.2619 46.302 49.673 47.3981 50.7566C48.4943 51.8275 49.918 52.4197 51.4299 52.4197C54.5293 52.4197 57.0492 49.8746 57.0492 46.75C57.0492 43.6254 54.5293 41.0803 51.4299 41.0803ZM51.4299 49.8998C49.6912 49.8998 48.2297 48.4635 48.2297 46.75C48.2297 45.0365 49.6912 43.6002 51.4299 43.6002C53.1434 43.6002 54.5293 45.0113 54.5293 46.75C54.5293 48.4887 53.1434 49.8998 51.4299 49.8998ZM52.8914 22.194C52.6646 21.9798 52.3622 21.8664 52.0473 21.8664H45.5838C44.8909 21.8664 44.3239 22.4334 44.3239 23.1264V33.4578C44.3239 34.1507 44.8909 34.7177 45.5838 34.7177H55.8396C56.5326 34.7177 57.0996 34.1507 57.0996 33.4578V26.5408C57.0996 26.188 56.9484 25.8478 56.6838 25.6084L52.8914 22.194ZM54.5797 32.1978H46.8438V24.3737H51.5559L54.5797 27.0951V32.1978ZM20.6624 41.0803C19.1505 41.0803 17.7142 41.6725 16.6307 42.7435C15.5471 43.827 14.9424 45.2381 14.9424 46.75C14.9424 48.2619 15.5345 49.673 16.6307 50.7566C17.7268 51.8275 19.1505 52.4197 20.6624 52.4197C23.7619 52.4197 26.2817 49.8746 26.2817 46.75C26.2817 43.6254 23.7619 41.0803 20.6624 41.0803ZM20.6624 49.8998C18.9237 49.8998 17.4622 48.4635 17.4622 46.75C17.4622 45.0365 18.9237 43.6002 20.6624 43.6002C22.376 43.6002 23.7619 45.0113 23.7619 46.75C23.7619 48.4887 22.376 49.8998 20.6624 49.8998ZM12.2587 42.6301H9.72627V39.2786C9.72627 38.5857 9.15931 38.0187 8.46635 38.0187C7.77338 38.0187 7.20642 38.5857 7.20642 39.2786V43.89C7.20642 44.5829 7.77338 45.1499 8.46635 45.1499H12.2587C12.9517 45.1499 13.5187 44.5829 13.5187 43.89C13.5187 43.197 12.9517 42.6301 12.2587 42.6301ZM18.6466 35.7634C18.6466 35.0705 18.0796 34.5035 17.3866 34.5035H2.10371C1.41075 34.5035 0.843781 35.0705 0.843781 35.7634C0.843781 36.4564 1.41075 37.0234 2.10371 37.0234H17.3866C18.0796 37.0234 18.6466 36.469 18.6466 35.7634ZM4.66136 31.2151L19.9443 31.3033C20.6373 31.3033 21.2042 30.7489 21.2168 30.056C21.2294 29.3504 20.6624 28.7834 19.9695 28.7834L4.68656 28.6953C4.67396 28.6953 4.67396 28.6953 4.67396 28.6953C3.981 28.6953 3.41403 29.2496 3.41403 29.9426C3.40143 30.6481 3.9684 31.2151 4.66136 31.2151ZM7.23162 25.495H22.5145C23.2075 25.495 23.7745 24.9281 23.7745 24.2351C23.7745 23.5421 23.2075 22.9752 22.5145 22.9752H7.23162C6.53866 22.9752 5.97169 23.5421 5.97169 24.2351C5.97169 24.9281 6.53866 25.495 7.23162 25.495ZM62.2527 23.7941L53.2316 16.3228C53.0048 16.1338 52.7276 16.033 52.4252 16.033H41.8166V11.4972C41.8166 10.8043 41.2497 10.2373 40.5567 10.2373H8.46635C7.77338 10.2373 7.20642 10.8043 7.20642 11.4972V20.7199C7.20642 21.4129 7.77338 21.9798 8.46635 21.9798C9.15931 21.9798 9.72627 21.4129 9.72627 20.7199V12.7572H39.3094V42.6301H28.978C28.285 42.6301 27.718 43.197 27.718 43.89C27.718 44.5829 28.285 45.1499 28.978 45.1499H44.3617C45.0547 45.1499 45.6216 44.5829 45.6216 43.89C45.6216 43.197 45.0547 42.6301 44.3617 42.6301H41.8292V18.5528H51.9843L60.199 25.3564L60.1108 42.6049H58.8005C58.1075 42.6049 57.5405 43.1718 57.5405 43.8648C57.5405 44.5577 58.1075 45.1247 58.8005 45.1247H61.3581C62.0511 45.1247 62.618 44.5703 62.618 43.8774L62.7188 24.7769C62.7062 24.3989 62.5425 24.0335 62.2527 23.7941Z" fill="white"/>
</g>
<defs>
<clipPath id="clip0">
<rect width="61.8751" height="61.8751" fill="white" transform="translate(0.843781 0.390625)"/>
</clipPath>
</defs>
</svg>
