<svg width="51" height="51" viewBox="0 0 51 51" fill="none" xmlns="http://www.w3.org/2000/svg">
<g clip-path="url(#clip0)">
<path d="M26.97 33.1629H40.1658C40.6607 33.1629 40.9905 32.8331 40.9905 32.3382V24.9155C40.9905 24.4207 40.6607 24.0908 40.1658 24.0908H26.97C26.4751 24.0908 26.1453 24.4207 26.1453 24.9155V32.3382C26.1452 32.833 26.4751 33.1629 26.97 33.1629ZM27.7947 25.7402H39.3411V31.5134H27.7947V25.7402Z" fill="white"/>
<path d="M4.70191 22.4414H11.2999C11.7947 22.4414 12.1246 22.1115 12.1246 21.6167C12.1246 21.1219 11.7947 20.792 11.2999 20.792H4.70191C4.20706 20.792 3.8772 21.1219 3.8772 21.6167C3.8772 22.1115 4.20706 22.4414 4.70191 22.4414Z" fill="white"/>
<path d="M14.5988 22.4414H21.1968C21.6916 22.4414 22.0215 22.1115 22.0215 21.6167C22.0215 21.1219 21.6916 20.792 21.1968 20.792H14.5988C14.104 20.792 13.7741 21.1219 13.7741 21.6167C13.7741 22.1115 14.104 22.4414 14.5988 22.4414Z" fill="white"/>
<path d="M4.70191 25.7402H15.4235C15.9184 25.7402 16.2482 25.4104 16.2482 24.9155C16.2482 24.4207 15.9184 24.0908 15.4235 24.0908H4.70191C4.20706 24.0908 3.8772 24.4207 3.8772 24.9155C3.8772 25.4104 4.20706 25.7402 4.70191 25.7402Z" fill="white"/>
<path d="M21.1967 24.0908H18.7225C18.2276 24.0908 17.8978 24.4207 17.8978 24.9155C17.8978 25.4104 18.2276 25.7402 18.7225 25.7402H21.1967C21.6916 25.7402 22.0214 25.4104 22.0214 24.9155C22.0214 24.4207 21.6916 24.0908 21.1967 24.0908Z" fill="white"/>
<path d="M49.3205 13.8643C48.7432 13.122 48.0009 12.7096 47.0937 12.6272L45.1143 12.3873V10.0704V8.42101C45.1143 6.60661 43.6297 5.12207 41.8153 5.12207H3.8771C2.06269 5.12197 0.578156 6.60651 0.578156 8.42101V10.0705V16.6685V34.8128C0.578156 36.3025 1.57916 37.5691 2.94153 37.975C2.89997 39.6434 4.16231 41.0918 5.85658 41.2458L43.9597 45.5345C44.0422 45.5345 44.2071 45.5345 44.2896 45.5345C45.9391 45.5345 47.4236 44.2973 47.5885 42.7304L50.0627 16.2561C50.1452 15.4313 49.8978 14.524 49.3205 13.8643ZM2.22767 10.8952H43.4649V13.0396V15.8437H2.22767V10.8952ZM3.8771 6.77149H41.8152C42.7225 6.77149 43.4648 7.51376 43.4648 8.42101V9.24572H2.22767V8.42101C2.22767 7.51376 2.96994 6.77149 3.8771 6.77149ZM2.22767 34.8127V17.4931H43.4649V34.8127C43.4649 35.72 42.7226 36.4622 41.8153 36.4622H3.95963H3.87719C2.96994 36.4622 2.22767 35.72 2.22767 34.8127ZM48.4132 15.9261L45.939 42.4004C45.8566 43.3076 45.0317 43.9674 44.1246 43.8849L6.1039 39.5963C5.27919 39.5139 4.70181 38.854 4.61936 38.1118H41.8152C43.6297 38.1118 45.1142 36.6272 45.1142 34.8128V16.6684V13.9468L47.0111 14.1117C47.4235 14.1117 47.8358 14.3592 48.0833 14.689C48.3308 15.0189 48.4958 15.5137 48.4132 15.9261Z" fill="white"/>
</g>
<defs>
<clipPath id="clip0">
<rect width="49.5001" height="49.5001" fill="white" transform="translate(0.578156 0.578125)"/>
</clipPath>
</defs>
</svg>
