<svg width="54" height="53" viewBox="0 0 54 53" fill="none" xmlns="http://www.w3.org/2000/svg">
<g clip-path="url(#clip0)">
<path d="M7.57059 3.24023C6.21599 3.24023 5.11371 4.34251 5.11371 5.69711C5.11371 7.05171 6.21599 8.15359 7.57059 8.15359C8.92519 8.15359 10.0271 7.05131 10.0271 5.69671C10.0271 4.34211 8.92519 3.24023 7.57059 3.24023ZM7.57059 6.58549C7.08051 6.58549 6.68181 6.18679 6.68181 5.69671C6.68181 5.20703 7.08051 4.80833 7.57059 4.80833C8.06026 4.80833 8.45896 5.20703 8.45896 5.69671C8.45896 6.18679 8.06026 6.58549 7.57059 6.58549Z" fill="black"/>
<path d="M14.1563 3.24023C12.8017 3.24023 11.6995 4.34251 11.6995 5.69711C11.6995 7.05171 12.8017 8.15359 14.1563 8.15359C15.5109 8.15359 16.6128 7.05171 16.6128 5.69711C16.6128 4.34251 15.5109 3.24023 14.1563 3.24023ZM14.1563 6.58549C13.6663 6.58549 13.2676 6.18679 13.2676 5.69671C13.2676 5.20703 13.6663 4.80833 14.1563 4.80833C14.646 4.80833 15.0447 5.20703 15.0447 5.69671C15.0447 6.18679 14.646 6.58549 14.1563 6.58549Z" fill="black"/>
<path d="M20.7421 3.24023C19.3875 3.24023 18.2856 4.34251 18.2856 5.69711C18.2856 7.05171 19.3875 8.15359 20.7421 8.15359C22.0967 8.15359 23.1986 7.05171 23.1986 5.69711C23.1986 4.34251 22.0967 3.24023 20.7421 3.24023ZM20.7421 6.58549C20.252 6.58549 19.8537 6.18679 19.8537 5.69671C19.8537 5.20703 20.252 4.80833 20.7421 4.80833C21.2322 4.80833 21.6309 5.20703 21.6309 5.69671C21.6309 6.18679 21.2318 6.58549 20.7421 6.58549Z" fill="black"/>
<path d="M50.9533 0H3.70249C2.11741 0 0.827911 1.2895 0.827911 2.87458V37.4763C0.827911 39.0614 2.11741 40.3509 3.70249 40.3509H8.7602C8.52001 40.6586 8.54104 41.1038 8.82409 41.3868L12.5911 45.1538C12.3088 45.7329 12.0618 46.3293 11.8515 46.9367H6.52491C6.09225 46.9367 5.74126 47.2876 5.74126 47.7207V52.216C5.74126 52.649 6.09225 53 6.52491 53H21.9965C22.4295 53 22.7805 52.649 22.7805 52.216C22.7805 49.8238 24.7267 47.8776 27.1189 47.8776C29.5106 47.8776 31.4568 49.8238 31.4568 52.216C31.4568 52.649 31.8078 53 32.2409 53H47.7124C48.1455 53 48.4965 52.649 48.4965 52.216V47.7207C48.4965 47.2876 48.1455 46.9367 47.7124 46.9367H42.3858C42.1755 46.3293 41.9285 45.7329 41.6462 45.1538L45.4136 41.3868C45.6963 41.1038 45.7173 40.6586 45.4771 40.3509H50.9529C52.538 40.3509 53.8275 39.0614 53.8275 37.4763V18.0805C53.8275 17.6474 53.4765 17.2964 53.0439 17.2964C52.6108 17.2964 52.2598 17.6474 52.2598 18.0805V37.4763C52.2598 38.1969 51.6735 38.7828 50.9529 38.7828H43.9183L39.2973 34.1618V28.7996C39.2973 28.3665 38.9459 28.0155 38.5133 28.0155H37.1021V23.1843L38.2084 22.1629C38.4308 21.9574 38.5153 21.6429 38.4255 21.3541L36.544 15.2912C36.4421 14.9633 36.1385 14.7397 35.7952 14.7397H33.7042C33.3609 14.7397 33.0573 14.9633 32.9554 15.2912L31.0739 21.3541C30.9841 21.6429 31.0686 21.9574 31.291 22.1629L32.3978 23.1843V28.0155H30.9865C30.5535 28.0155 30.2025 28.3665 30.2025 28.7996V30.838H24.0348V29.6471L27.0457 26.6363C27.1929 26.4891 27.2753 26.2897 27.2753 26.0819V19.6526C27.2753 19.4431 27.1912 19.2422 27.042 19.095L22.861 14.9657C22.6357 14.7433 22.2993 14.6782 22.0078 14.7999C21.7158 14.922 21.5258 15.2071 21.5258 15.5233V22.5126L19.4874 23.7961L17.449 22.5126V22.0658C17.449 21.6327 17.0981 21.2818 16.665 21.2818C16.2319 21.2818 15.8809 21.6327 15.8809 22.0658V22.9453C15.8809 23.215 16.0192 23.4653 16.2473 23.6088L19.0697 25.386C19.3249 25.5469 19.65 25.5469 19.9051 25.386L22.7275 23.6088C22.9556 23.4653 23.0939 23.215 23.0939 22.9453V17.3995L25.7072 19.9801V25.7568L22.6964 28.7676C22.5492 28.9148 22.4667 29.1142 22.4667 29.3224V30.8537C22.1089 30.9265 21.8396 31.2427 21.8396 31.622V36.9486C21.2318 37.1585 20.6358 37.4059 20.0563 37.6878L16.5081 34.1395V29.3224C16.5081 29.1142 16.4256 28.9148 16.2784 28.7676L13.2676 25.7568V19.9801L15.8809 17.3995V18.3938C15.8809 18.8269 16.2319 19.1779 16.665 19.1779C17.0981 19.1779 17.449 18.8269 17.449 18.3938V15.5237C17.449 15.2071 17.259 14.922 16.967 14.8003C16.6755 14.6782 16.3391 14.7437 16.1139 14.9657L11.9324 19.095C11.7832 19.2422 11.6995 19.4431 11.6995 19.6526V26.0819C11.6995 26.2897 11.782 26.4891 11.9292 26.6363L14.94 29.6471V34.1618L10.319 38.7828H3.70249C2.98193 38.7828 2.39601 38.1969 2.39601 37.4763V11.3944H52.2598V14.4279C52.2598 14.8606 52.6108 15.2115 53.0439 15.2115C53.4769 15.2115 53.8279 14.8606 53.8279 14.4279V2.87458C53.8279 1.2895 52.5384 0 50.9533 0V0ZM33.7135 22.2652L32.7184 21.3465L34.2825 16.3078H35.2177L36.7814 21.3465L35.7863 22.2652C35.6257 22.4136 35.534 22.6222 35.534 22.8414V28.0159H33.9663V22.8414C33.9659 22.6222 33.8745 22.4136 33.7135 22.2652ZM37.7292 29.5836V34.1399L34.181 37.6882C33.6015 37.4063 33.0055 37.1589 32.3978 36.9486V31.6224C32.3978 31.2431 32.1284 30.9269 31.7706 30.8541V29.584H37.7292V29.5836ZM20.2739 39.3372C21.0968 38.8988 21.9645 38.5389 22.8529 38.2676C23.1824 38.1669 23.4077 37.8625 23.4077 37.5175V32.4061H30.8297V37.5175C30.8297 37.8625 31.0553 38.1669 31.3848 38.2676C32.2732 38.5389 33.141 38.8988 33.9638 39.3372C34.2683 39.4993 34.6427 39.4435 34.887 39.1997L38.5023 35.5843L43.0388 40.1212C43.0392 40.1212 43.0392 40.1216 43.0396 40.122L43.7505 40.8325L40.1351 44.4478C39.8913 44.6917 39.8355 45.0665 39.9977 45.371C40.436 46.1934 40.7959 47.0612 41.0672 47.95C41.1679 48.2795 41.4724 48.5048 41.8169 48.5048H46.9284V51.4319H38.9572C38.5521 45.2537 33.3977 40.3513 27.1189 40.3513C25.44 40.3513 23.8173 40.695 22.2953 41.3727C21.8998 41.549 21.7219 42.0124 21.8982 42.4082C22.0741 42.8037 22.5383 42.9812 22.9333 42.8053C24.2532 42.2174 25.6611 41.9194 27.1189 41.9194C32.5328 41.9194 36.9844 46.119 37.3859 51.4319H32.9732C32.5886 48.5448 30.1099 46.3099 27.1189 46.3099C24.1278 46.3099 21.6491 48.5448 21.2646 51.4319H16.851C17.0415 48.8574 18.17 46.4919 20.077 44.7034C20.3928 44.4074 20.4089 43.9112 20.1125 43.595C19.8166 43.2796 19.3204 43.2635 19.0046 43.5595C16.8122 45.6152 15.481 48.4494 15.2813 51.4319H7.30896V48.5048H12.4204C12.7654 48.5048 13.0698 48.2795 13.1705 47.95C13.4419 47.0612 13.8017 46.1934 14.2401 45.371C14.4022 45.0665 14.3464 44.6917 14.1026 44.4478L10.4872 40.8325L11.1981 40.122C11.1981 40.1216 11.1985 40.1212 11.1989 40.1212L15.7354 35.5843L19.3507 39.1997C19.5946 39.4435 19.9694 39.4993 20.2739 39.3372ZM2.39601 9.8263V2.87458C2.39601 2.15401 2.98233 1.5681 3.70249 1.5681H50.9533C51.6739 1.5681 52.2598 2.15442 52.2598 2.87458V9.8263H2.39601Z" fill="black"/>
</g>
<defs>
<clipPath id="clip0">
<rect width="53" height="53" fill="white" transform="translate(0.827911)"/>
</clipPath>
</defs>
</svg>
