<svg width="69" height="69" viewBox="0 0 69 69" fill="none" xmlns="http://www.w3.org/2000/svg">
<g clip-path="url(#clip0)">
<path d="M30.1726 68.9957H30.1589C29.4456 68.9886 28.8793 68.4053 28.886 67.6957C28.981 59.5373 28.3071 53.6589 26.9428 50.715C26.417 49.5892 25.4494 48.6486 24.5166 47.7489C23.377 46.6453 22.2983 45.6097 21.9378 44.2009C21.689 43.5389 21.5275 42.7201 21.4966 41.8972C21.4391 39.9886 22.0733 38.119 23.2875 36.6334C23.507 36.3664 23.82 36.1971 24.1672 36.1673C24.5055 36.1358 24.8545 36.2442 25.117 36.4685C25.5489 36.8368 25.9874 37.1354 26.4248 37.3571C27.3416 37.8253 28.3669 38.0763 29.3925 38.0763L29.6401 38.0674C31.1845 38.0199 32.6779 37.4116 33.8242 36.3578C34.288 35.9286 35.0057 35.9104 35.4963 36.2992C36.6563 37.2174 38.11 37.7284 39.5886 37.7284L39.8285 37.7213C40.925 37.6827 42.0082 37.3663 42.9621 36.8008C43.2877 36.6066 43.5885 36.3716 43.8711 36.1272C44.1332 35.8989 44.4793 35.7905 44.8228 35.8176C45.1663 35.8469 45.4875 36.0118 45.7091 36.2832C46.819 37.6378 47.441 39.2749 47.4997 41.0135C47.5245 41.843 47.4206 42.6685 47.19 43.4664C46.9367 44.8682 45.8402 46.0665 44.6847 47.3327C43.769 48.3367 42.8128 49.3768 42.3104 50.5635C41.0126 53.5776 40.3795 59.5061 40.4679 67.7001C40.4746 68.4101 39.9046 68.9931 39.1924 69.0001H39.1764C38.4713 69.0001 37.8946 68.4327 37.8876 67.7294C37.7948 59.0539 38.4843 52.94 39.9362 49.5435C40.6216 47.9543 41.7679 46.6992 42.7827 45.5912C43.6851 44.6008 44.5376 43.6692 44.6869 42.869C44.8699 42.2088 44.9353 41.657 44.9219 41.0918C44.8971 40.3366 44.7136 39.6084 44.3861 38.9441L44.2847 39.005C42.9483 39.7985 41.4404 40.2393 39.905 40.2916L39.6198 40.3002H39.6176C37.8857 40.3002 36.1988 39.8163 34.754 38.9163C33.2888 39.9749 31.5283 40.5805 29.7051 40.6396L29.4132 40.644C27.9584 40.644 26.5303 40.305 25.2518 39.6492C25.0372 39.5408 24.8233 39.4187 24.6154 39.2853C24.2311 40.0655 24.0409 40.9314 24.0692 41.8111C24.0874 42.3584 24.1936 42.9098 24.3904 43.4319C24.6132 44.2618 25.4304 45.0531 26.3008 45.8945C27.3569 46.9116 28.5562 48.0675 29.2788 49.63C30.8254 52.9742 31.5569 59.0605 31.4574 67.7228C31.4537 68.4324 30.8815 68.9957 30.1726 68.9957Z" fill="black"/>
<path d="M29.3991 35.634C28.1615 35.634 26.9313 35.3355 25.82 34.7703C23.2526 33.4681 21.5999 30.8677 21.4966 27.9918C21.4718 27.163 21.5757 26.3365 21.8056 25.5396C22.0599 24.1341 23.1553 22.9374 24.3154 21.6689C25.2322 20.6638 26.1842 19.627 26.6859 18.4366C27.9825 15.4214 28.6168 9.49547 28.5288 1.30149C28.5221 0.590032 29.0917 0.00668382 29.8028 0C30.574 0.0245073 31.102 0.559584 31.1039 1.27067C31.1967 9.94626 30.5061 16.0612 29.0542 19.4551C28.3691 21.0459 27.2224 22.3009 26.2084 23.4052C25.3049 24.3956 24.4539 25.3272 24.3035 26.13C24.1204 26.7902 24.0558 27.3442 24.0695 27.906C24.1342 29.8414 25.2522 31.5948 26.9863 32.4778C27.7857 32.8851 28.6766 33.0927 29.5774 33.0522C31.1704 33.0047 32.6412 32.245 33.6181 30.9858C33.8521 30.6832 34.2081 30.502 34.5902 30.486C34.9508 30.4737 35.3399 30.6297 35.5976 30.9167C36.66 32.1083 38.159 32.7266 39.7761 32.7061C40.6714 32.6768 41.5529 32.4146 42.3286 31.9535C43.9951 30.9553 44.9921 29.1314 44.9268 27.1883C44.9086 26.638 44.8024 26.0873 44.6056 25.566C44.3817 24.7375 43.5655 23.9403 42.6929 23.1026C41.6391 22.0863 40.4412 20.9307 39.7171 19.3671C38.1705 16.0241 37.4379 9.93735 37.5378 1.27549C37.5445 0.562183 38.0034 0.011511 38.84 0.0048272C39.5522 0.0118823 40.1196 0.59486 40.1133 1.30594C40.0182 9.4628 40.6922 15.3412 42.0553 18.2865C42.5822 19.4113 43.5495 20.3496 44.4789 21.2493C45.6208 22.3492 46.6991 23.3896 47.0611 24.8014C47.3099 25.4613 47.4722 26.2789 47.5023 27.1029C47.5969 29.9825 46.1139 32.6853 43.6468 34.1643C42.4983 34.8472 41.1868 35.2315 39.8641 35.2813C38.0008 35.3581 36.1572 34.741 34.7031 33.5899C33.3307 34.8357 31.5591 35.562 29.6724 35.627L29.3991 35.634Z" fill="black"/>
</g>
<defs>
<clipPath id="clip0">
<rect width="69" height="69" fill="white"/>
</clipPath>
</defs>
</svg>
