<svg width="60" height="60" viewBox="0 0 60 60" fill="none" xmlns="http://www.w3.org/2000/svg">
<g clip-path="url(#clip0)">
<path d="M59.7157 23.7165C58.966 21.8289 56.828 20.9065 54.9405 21.6562C54.8434 21.6948 54.7479 21.7374 54.6545 21.7841L51.9276 23.1496L46.3603 15.7279C46.2915 15.6362 46.2077 15.5567 46.1123 15.4931L40.0389 11.4442C39.9169 11.3628 39.7787 11.3089 39.634 11.2863L26.475 9.26179C26.1569 9.21283 25.8345 9.3181 25.6065 9.54522L18.0603 17.0631C16.7929 18.3257 16.789 20.3766 18.0517 21.6439C18.0546 21.6468 18.0573 21.6498 18.0603 21.6525C19.269 22.8532 21.1996 22.9168 22.4847 21.7983L28.5996 16.4476L34.0252 17.9984L29.4843 27.976L22.5181 37.9272L14.2381 45.3783C12.7301 46.6735 12.5576 48.9461 13.8529 50.4541C15.1482 51.9621 17.4208 52.1345 18.9288 50.8393L28.051 43.369L33.5039 37.9161L40.4195 43.1038L38.8809 53.8416C38.7368 54.8457 39.036 55.863 39.7008 56.6292C40.3837 57.4103 41.3752 57.8519 42.4126 57.8368C44.1312 57.8392 45.6083 56.6181 45.9291 54.9297L48.5751 40.8151C48.6408 40.4635 48.5161 40.1034 48.2471 39.8677L40.6655 33.2396L43.8925 24.3663L49.8505 31.1756C50.142 31.5084 50.6158 31.6134 51.0206 31.4348L57.8552 28.4122C59.652 27.6162 60.4798 25.5272 59.7157 23.7165ZM57.0363 26.5588L50.8829 29.2797L44.2872 21.7416C43.9189 21.321 43.2794 21.2788 42.8588 21.6471C42.7305 21.7595 42.6329 21.9023 42.5745 22.0625L38.5256 33.1971C38.3829 33.5896 38.4959 34.0294 38.81 34.3044L46.4737 41.0105L43.9309 54.5572C43.7792 55.3065 43.1089 55.8369 42.3448 55.8124C41.5297 55.8121 40.869 55.1513 40.8693 54.3362C40.8693 54.2666 40.8742 54.197 40.8841 54.128L42.5037 42.7971C42.5562 42.431 42.4049 42.0654 42.1089 41.8436L34.011 35.7702C33.608 35.468 33.0442 35.5081 32.688 35.8643L26.6896 41.8699L17.6422 49.2723C16.9732 49.8267 15.9816 49.7337 15.4273 49.0647C14.8867 48.4122 14.96 47.4485 15.5934 46.8855L23.9585 39.3565C24.0157 39.3053 24.0666 39.2476 24.1104 39.1844L31.196 29.0621C31.2318 29.0115 31.2626 28.9576 31.2881 28.9011L36.3493 17.7666C36.5806 17.2575 36.3555 16.6575 35.8465 16.4263C35.8012 16.4056 35.7544 16.3884 35.7065 16.3748L28.6209 14.3503C28.2903 14.2545 27.9337 14.3342 27.6755 14.5618L21.1466 20.2749C20.6558 20.7336 19.8859 20.7075 19.4273 20.2167C18.9686 19.7259 18.9947 18.9561 19.4855 18.4974L26.6723 11.3399L39.1036 13.253L44.8419 17.0813L50.8141 25.0405C51.1074 25.432 51.6387 25.5576 52.0764 25.3391L55.5595 23.593C55.9692 23.3867 56.4467 23.3622 56.8754 23.5252C57.3342 23.7043 57.6926 24.0735 57.8582 24.5374C58.1733 25.3226 57.8099 26.2163 57.0363 26.5588Z" fill="black"/>
<path d="M19.2324 8.23633H6.07339V10.2608H19.2324V8.23633Z" fill="black"/>
<path d="M4.04894 8.23633H2.02448V10.2608H4.04894V8.23633Z" fill="black"/>
<path d="M12.1468 16.335H10.1223V18.3594H12.1468V16.335Z" fill="black"/>
<path d="M8.09787 16.335H0V18.3594H8.09787V16.335Z" fill="black"/>
<path d="M15.1835 24.4326H5.06116V26.4571H15.1835V24.4326Z" fill="black"/>
<path d="M19.2324 32.5303H2.02448V34.5547H19.2324V32.5303Z" fill="black"/>
<path d="M12.1468 40.6279H4.04892V42.6524H12.1468V40.6279Z" fill="black"/>
<path d="M2.02447 40.6279H0V42.6524H2.02447V40.6279Z" fill="black"/>
<path d="M9.11011 48.7256H2.02448V50.75H9.11011V48.7256Z" fill="black"/>
<path d="M50.6116 2.16309H46.0566C42.9818 2.16309 40.4893 4.65558 40.4893 7.73037C40.4893 10.8052 42.9818 13.2977 46.0566 13.2977C49.1314 13.2977 51.6239 10.8052 51.6239 7.73037V3.17532C51.6239 2.61631 51.1707 2.16309 50.6116 2.16309ZM49.5994 7.73037C49.607 9.67917 48.0335 11.2652 46.0847 11.2728C44.9919 11.2771 43.9587 10.7748 43.2871 9.91274C44.9721 8.24711 47.2307 7.28941 49.5994 7.2364V7.73037ZM49.5994 5.21193C47.0067 5.25913 44.5094 6.19823 42.528 7.87107C42.528 7.82349 42.5138 7.77896 42.5138 7.73037C42.5138 5.77372 44.1 4.18755 46.0566 4.18755H49.5994V5.21193Z" fill="black"/>
</g>
<defs>
<clipPath id="clip0">
<rect width="60" height="60" fill="white"/>
</clipPath>
</defs>
</svg>
