<svg width="28" height="34" viewBox="0 0 28 34" fill="none" xmlns="http://www.w3.org/2000/svg">
<path d="M26.7443 14.5168C25.8699 13.8019 24.6315 13.5731 23.589 13.9337C23.3096 14.0305 23.0502 14.1661 22.8178 14.3371C22.2251 14.7731 20.9091 16.0821 19.8663 17.3775V7.3919C19.8663 6.54315 19.5174 5.71359 18.9092 5.11567C18.3053 4.52216 17.512 4.20206 16.6796 4.21763C16.3017 4.22437 15.9395 4.29934 15.6049 4.43034V3.45499C15.6049 2.53127 15.2252 1.6283 14.5626 0.977208C13.9061 0.331821 13.047 -0.0160336 12.1383 0.000567967C10.3267 0.0319553 8.84756 1.50457 8.79334 3.3048C8.40087 3.12685 7.97468 3.02698 7.53344 3.01375C6.61309 2.98678 5.70156 3.34293 5.03334 3.99169C4.37888 4.62696 4.01831 5.4656 4.01831 6.35067L4.01598 7.29644C3.73349 7.20358 3.43233 7.15274 3.11923 7.15274C1.53923 7.15274 0.253906 8.43806 0.253906 10.0178L0.254944 24.5333L0.257278 24.602C0.389313 26.5071 0.78801 28.1382 1.44273 29.4502C2.05647 30.6803 2.91275 31.6707 3.9877 32.3939C6.10311 33.8175 8.7163 34.0001 10.7565 34.0001C14.7629 34.0001 18.3673 32.0082 20.1698 28.7999C20.389 28.4466 20.9667 27.5382 21.5906 26.5584C22.1981 25.6038 22.7633 24.7242 23.2616 23.9481C23.5355 23.5214 23.7848 23.1333 24.0012 22.7951C24.8071 21.5346 25.666 20.3126 26.5542 19.1627C26.8836 18.7362 26.985 18.6205 27.0081 18.5951C27.4239 18.1414 27.6859 17.5861 27.7658 16.9887C27.8916 16.0514 27.5191 15.1503 26.7443 14.5168ZM25.7892 16.7241C25.7635 16.915 25.6766 17.096 25.5378 17.2475C25.4655 17.3267 25.336 17.4771 24.976 17.9435C24.0517 19.1399 23.1584 20.4107 22.3208 21.7206C22.105 22.0581 21.8567 22.4446 21.5833 22.8703C21.084 23.648 20.5179 24.5297 19.9081 25.4874C19.2697 26.4902 18.6788 27.4191 18.4625 27.7685L18.4399 27.8069C16.9932 30.3968 14.0493 32.0056 10.7567 32.0056C8.99982 32.0056 6.76899 31.8616 5.10131 30.7394C3.39965 29.5944 2.46684 27.553 2.24947 24.4983L2.24843 10.0181C2.24843 9.53792 2.63909 9.14726 3.11923 9.14726C3.60224 9.14726 3.99523 9.53792 3.99523 10.0181V15.4502C3.99523 15.4662 3.99704 15.4818 3.99756 15.4979C3.9986 15.5155 3.9986 15.5334 4.00042 15.5511C4.00197 15.5669 4.00508 15.5822 4.00742 15.5978C4.01001 15.6151 4.01183 15.6328 4.0152 15.6502C4.01857 15.6657 4.02324 15.681 4.02713 15.6963C4.03128 15.7127 4.03466 15.7295 4.03984 15.7456C4.04451 15.7612 4.05074 15.7762 4.05645 15.7913C4.06189 15.8066 4.06682 15.8221 4.07331 15.8372C4.07953 15.8522 4.08705 15.8665 4.09406 15.881C4.10106 15.8955 4.10755 15.9103 4.11507 15.9246C4.12259 15.9386 4.13167 15.9521 4.13997 15.9658C4.14827 15.9796 4.15606 15.9936 4.16487 16.0068C4.17395 16.0201 4.18407 16.0325 4.19367 16.0452C4.20327 16.0582 4.21209 16.0714 4.2222 16.0836C4.23232 16.0958 4.24347 16.107 4.25385 16.1186C4.26474 16.1306 4.27512 16.1433 4.28653 16.1547C4.29769 16.1656 4.30936 16.1754 4.32103 16.1861C4.33297 16.197 4.34464 16.2086 4.35735 16.219C4.36928 16.2289 4.38199 16.2377 4.39444 16.247C4.40767 16.2569 4.42038 16.2673 4.43387 16.2766C4.44658 16.2852 4.46007 16.2924 4.47304 16.3002C4.48731 16.309 4.50132 16.3184 4.5161 16.3267C4.52959 16.3339 4.54386 16.3399 4.55761 16.3466C4.57265 16.3542 4.5877 16.3619 4.60326 16.3687C4.61753 16.3749 4.63283 16.3796 4.64736 16.385C4.66318 16.3907 4.67875 16.3972 4.69483 16.4024C4.71013 16.4071 4.72622 16.4105 4.74178 16.4146C4.75812 16.4188 4.77394 16.4237 4.79029 16.4271C4.80689 16.4304 4.82349 16.4322 4.84009 16.4348C4.85669 16.4372 4.87278 16.4405 4.88938 16.4424C4.90598 16.4439 4.9231 16.4442 4.93996 16.445C4.95656 16.4457 4.97316 16.4475 4.99003 16.4475C4.9908 16.4475 4.99184 16.4475 4.99262 16.4475C5.02712 16.4475 5.0611 16.4457 5.09456 16.4424C5.10909 16.4411 5.12336 16.4379 5.13788 16.4359C5.1563 16.4333 5.17524 16.4312 5.19339 16.4273C5.21259 16.4234 5.23101 16.418 5.24968 16.413C5.26265 16.4094 5.27614 16.4068 5.28885 16.4029C5.30961 16.3964 5.32984 16.3884 5.35007 16.3806C5.35993 16.3767 5.37056 16.3736 5.38042 16.3695C5.40065 16.3609 5.41985 16.3508 5.43931 16.3412C5.44864 16.3365 5.45824 16.3326 5.46758 16.3277C5.48574 16.3178 5.50286 16.3064 5.52024 16.2955C5.5301 16.2896 5.54021 16.2841 5.54955 16.2776C5.56563 16.267 5.58094 16.2548 5.59624 16.2429C5.60636 16.2354 5.61673 16.2284 5.62633 16.2203C5.6406 16.2089 5.65357 16.1959 5.66706 16.1835C5.67717 16.1744 5.68755 16.1656 5.69741 16.1562C5.70986 16.1438 5.72101 16.1303 5.73269 16.1173C5.74228 16.1067 5.75266 16.0963 5.76174 16.0854C5.77211 16.0727 5.78145 16.0592 5.79131 16.046C5.80065 16.0335 5.81051 16.0216 5.81907 16.0086C5.82815 15.9954 5.83567 15.9817 5.84397 15.9679C5.85227 15.9542 5.86135 15.9407 5.86913 15.9267C5.87665 15.9127 5.88288 15.8981 5.88988 15.8839C5.89689 15.8691 5.90467 15.8546 5.91115 15.8395C5.91738 15.825 5.92205 15.8097 5.9275 15.7949C5.93346 15.7793 5.93969 15.764 5.94488 15.7479C5.94954 15.7326 5.95292 15.7171 5.95681 15.7015C5.96096 15.6852 5.96589 15.6691 5.96952 15.6525C5.97263 15.6369 5.97445 15.6206 5.97678 15.6045C5.97963 15.5876 5.98275 15.5708 5.98456 15.5537C5.98638 15.5376 5.98638 15.521 5.98716 15.5046C5.98819 15.4872 5.99001 15.4704 5.99001 15.453L6.0131 6.35327C6.0131 6.00982 6.15862 5.67935 6.42269 5.4228C6.70647 5.14758 7.09038 4.99557 7.47456 5.0075C8.19413 5.02903 8.77959 5.65496 8.77959 6.40437L8.79101 15.3975C8.79101 15.4157 8.79282 15.4333 8.79386 15.4509C8.79464 15.4668 8.79464 15.4831 8.7962 15.4987C8.79801 15.5173 8.80164 15.5352 8.8045 15.5534C8.80683 15.5682 8.80839 15.5832 8.81124 15.5978C8.81539 15.6175 8.8211 15.6367 8.82629 15.6559C8.82966 15.6683 8.83225 15.681 8.83588 15.6932C8.84237 15.714 8.85067 15.7342 8.85845 15.7544C8.86234 15.7645 8.8652 15.7749 8.86935 15.7848C8.87868 15.8063 8.88932 15.8273 8.89996 15.8481C8.90411 15.8559 8.90722 15.8642 8.91137 15.8717C8.92304 15.8932 8.93627 15.9137 8.94924 15.9339C8.95339 15.9407 8.95702 15.9474 8.96143 15.9539C8.97518 15.9744 8.99023 15.9936 9.00527 16.0128C9.00994 16.0188 9.01409 16.025 9.01876 16.0307C9.03562 16.0512 9.05378 16.0704 9.0722 16.0893C9.07609 16.0935 9.0792 16.0976 9.08309 16.1015C9.10203 16.1204 9.12226 16.1381 9.14275 16.1555C9.14664 16.1588 9.15002 16.1625 9.15391 16.1658C9.1744 16.1827 9.19567 16.198 9.2172 16.213C9.22187 16.2164 9.22602 16.2201 9.23069 16.2232C9.25248 16.238 9.27531 16.2512 9.29813 16.2642C9.30306 16.267 9.30773 16.2704 9.31292 16.2732C9.33679 16.2859 9.36143 16.2974 9.38633 16.3085C9.391 16.3106 9.39541 16.3132 9.40008 16.3153C9.4255 16.3259 9.4517 16.335 9.47816 16.3438C9.48283 16.3451 9.48698 16.3472 9.49165 16.3487C9.51785 16.3568 9.54456 16.3632 9.57128 16.3692C9.57673 16.3702 9.58192 16.3721 9.58737 16.3734C9.65222 16.3866 9.7194 16.3936 9.78814 16.3936C9.78866 16.3936 9.78918 16.3936 9.7897 16.3936C9.80708 16.3936 9.8242 16.3918 9.84132 16.391C9.85792 16.39 9.87452 16.39 9.89086 16.3884C9.90902 16.3863 9.9264 16.383 9.9443 16.3801C9.95934 16.3778 9.97491 16.3762 9.98995 16.3731C10.0079 16.3695 10.0252 16.3643 10.0429 16.3596C10.0571 16.3557 10.0714 16.3529 10.0854 16.3485C10.1033 16.343 10.1204 16.336 10.1378 16.3293C10.1508 16.3243 10.1643 16.3204 10.177 16.315C10.1949 16.3072 10.2123 16.2981 10.2296 16.2896C10.2411 16.2839 10.253 16.2789 10.2641 16.273C10.2813 16.2636 10.2976 16.2527 10.3142 16.2426C10.3248 16.2359 10.336 16.2299 10.3464 16.2229C10.3622 16.2123 10.377 16.2003 10.392 16.1887C10.4024 16.1809 10.413 16.1736 10.4232 16.1653C10.4374 16.1536 10.4509 16.1404 10.4647 16.1277C10.4743 16.1189 10.4844 16.1103 10.494 16.101C10.5067 16.088 10.5186 16.074 10.5308 16.0605C10.5399 16.0504 10.5495 16.0408 10.5583 16.0302C10.5692 16.0167 10.5791 16.0024 10.5892 15.9887C10.598 15.9767 10.6073 15.9653 10.6156 15.9534C10.625 15.9396 10.6327 15.9251 10.6413 15.9108C10.6493 15.8976 10.6582 15.8846 10.6654 15.8712C10.6732 15.8569 10.6794 15.8418 10.6864 15.8273C10.6934 15.8128 10.7012 15.7988 10.7075 15.7837C10.7134 15.7695 10.7183 15.7544 10.7235 15.7396C10.7295 15.7238 10.736 15.7083 10.7409 15.6922C10.7456 15.6766 10.749 15.6608 10.7531 15.645C10.7573 15.6289 10.7622 15.6131 10.7653 15.5967C10.7687 15.5804 10.7705 15.5635 10.7731 15.5472C10.7754 15.5306 10.7788 15.5142 10.7803 15.4976C10.7822 15.4808 10.7822 15.4636 10.7829 15.4465C10.784 15.4297 10.7855 15.4133 10.7855 15.3962V3.40726C10.7855 2.64152 11.4081 2.00806 12.1731 1.99483C12.5422 1.98964 12.8929 2.13231 13.165 2.39976C13.4483 2.67809 13.6107 3.06278 13.6107 3.45499V15.4512C13.6107 15.4693 13.6125 15.487 13.6135 15.5049C13.6143 15.5207 13.6143 15.5368 13.6158 15.5526C13.6177 15.5703 13.6213 15.5874 13.6239 15.6048C13.6265 15.6206 13.628 15.6364 13.6311 15.6517C13.6348 15.6691 13.64 15.6859 13.6444 15.7031C13.6483 15.7179 13.6511 15.7326 13.6558 15.7472C13.6615 15.7656 13.6688 15.7835 13.6755 15.8014C13.6802 15.8138 13.6841 15.8265 13.6893 15.8387C13.6973 15.8574 13.7066 15.8753 13.7157 15.8935C13.7209 15.9041 13.7256 15.9153 13.7313 15.9259C13.7411 15.9443 13.7525 15.9617 13.7637 15.9793C13.7697 15.9887 13.7749 15.9988 13.7813 16.0081C13.7933 16.0258 13.8065 16.0426 13.8197 16.0595C13.8262 16.0678 13.8319 16.0766 13.8387 16.0846C13.8532 16.1025 13.8693 16.1191 13.8851 16.136C13.8913 16.1422 13.8968 16.1492 13.903 16.1555C13.9193 16.1721 13.937 16.1871 13.9546 16.2024C13.9611 16.2081 13.9671 16.2143 13.9738 16.2198C13.9935 16.2361 14.0143 16.2509 14.035 16.2657C14.0402 16.2693 14.0451 16.2735 14.0506 16.2774C14.0729 16.2924 14.0962 16.3062 14.1199 16.3194C14.1243 16.3217 14.1282 16.3249 14.1326 16.3272C14.1585 16.3412 14.185 16.3536 14.2122 16.3656C14.2148 16.3666 14.2171 16.3682 14.2197 16.3692C14.248 16.3811 14.2771 16.3915 14.3066 16.4009C14.3082 16.4016 14.3097 16.4022 14.3116 16.4027C14.3735 16.4221 14.4381 16.4354 14.5048 16.4424C14.5053 16.4424 14.5056 16.4424 14.5061 16.4424C14.5396 16.4457 14.5735 16.4475 14.608 16.4475C14.6083 16.4475 14.6086 16.4475 14.6091 16.4475C14.6267 16.4475 14.6441 16.4457 14.6617 16.445C14.6781 16.4439 14.6944 16.4439 14.7105 16.4424C14.7289 16.4405 14.7468 16.4369 14.765 16.4341C14.7798 16.4317 14.7948 16.4302 14.8096 16.4271C14.8291 16.4232 14.8477 16.4175 14.8667 16.4125C14.8794 16.4092 14.8926 16.4066 14.9051 16.4027C14.9253 16.3962 14.9447 16.3884 14.9645 16.3809C14.9751 16.3767 14.986 16.3734 14.9966 16.3689C15.0166 16.3604 15.0358 16.3505 15.0553 16.3407C15.0646 16.336 15.0744 16.3321 15.0838 16.3269C15.1027 16.3165 15.1209 16.3049 15.1393 16.2932C15.1481 16.2878 15.1572 16.2828 15.166 16.2769C15.1847 16.2644 15.2021 16.2504 15.2197 16.2367C15.2272 16.2309 15.2353 16.2255 15.2428 16.2195C15.2602 16.205 15.2765 16.1892 15.2931 16.1736C15.2999 16.1674 15.3071 16.1617 15.3134 16.1552C15.3294 16.1391 15.3445 16.122 15.3593 16.1046C15.3655 16.0979 15.372 16.0914 15.3779 16.0844C15.3922 16.067 15.4052 16.0486 15.4181 16.0304C15.4236 16.0226 15.4298 16.0154 15.4353 16.0076C15.4475 15.9894 15.4584 15.9705 15.4693 15.9516C15.4744 15.9428 15.4804 15.9345 15.4853 15.9254C15.4957 15.9062 15.5045 15.8862 15.5136 15.8662C15.518 15.8569 15.5232 15.8478 15.5271 15.8382C15.5354 15.8188 15.5421 15.7985 15.5491 15.7786C15.5528 15.7679 15.5574 15.7575 15.5608 15.7464C15.5665 15.7275 15.5709 15.7075 15.5759 15.688C15.5787 15.6756 15.5826 15.6634 15.5852 15.6509C15.5891 15.6317 15.5914 15.6118 15.5943 15.5923C15.5961 15.5788 15.599 15.5656 15.6002 15.5518C15.6023 15.5337 15.6023 15.515 15.6031 15.4963C15.6039 15.481 15.6054 15.466 15.6054 15.4502V7.21888C15.6703 6.66247 16.1427 6.22175 16.7146 6.21189C17.0085 6.20696 17.2923 6.32266 17.5115 6.53822C17.7408 6.76338 17.8723 7.07466 17.8723 7.3919V19.1632L17.8728 19.2078C17.8783 19.854 18.3027 20.4 18.9286 20.5666C19.5504 20.7318 20.1857 20.4706 20.5125 19.9108L20.5187 19.8996C21.3006 18.5336 23.3903 16.3926 24.0004 15.9438C24.0709 15.8917 24.1521 15.8499 24.2416 15.8188C24.639 15.6815 25.1373 15.7788 25.4823 16.061C25.6447 16.1941 25.8302 16.4172 25.7892 16.7241Z" fill="white"/>
</svg>
