<svg width="39" height="39" viewBox="0 0 39 39" fill="none" xmlns="http://www.w3.org/2000/svg">
<path d="M38.9248 21.3015C38.5746 17.7795 37.0011 14.459 34.494 11.9518C32.3514 9.80924 29.7289 8.43241 26.9695 7.82021V5.8848C28.0965 5.60441 28.9343 4.58422 28.9343 3.37162C28.9343 1.94353 27.7725 0.781738 26.3444 0.781738H20.8599C19.4318 0.781738 18.27 1.94353 18.27 3.37162C18.27 4.58415 19.1078 5.60433 20.2348 5.8848V7.82561C17.4838 8.44041 14.87 9.81533 12.7335 11.9518C12.2659 12.4194 11.8348 12.9099 11.4401 13.4196C11.421 13.4182 11.4019 13.4167 11.3824 13.4167H5.95422C5.53359 13.4167 5.19249 13.7577 5.19249 14.1784C5.19249 14.5992 5.53359 14.9402 5.95422 14.9402H10.4036C9.84514 15.8752 9.3948 16.8571 9.05203 17.868H0.761731C0.341103 17.868 0 18.209 0 18.6297C0 19.0504 0.341103 19.3914 0.761731 19.3914H8.62157C8.40204 20.3551 8.27605 21.3358 8.24353 22.3193H4.87508C4.45445 22.3193 4.11335 22.6603 4.11335 23.081C4.11335 23.5017 4.45445 23.8428 4.87508 23.8428H8.26783C8.33212 24.8287 8.49063 25.8095 8.74345 26.7706H3.80865C3.38803 26.7706 3.04692 27.1116 3.04692 27.5323C3.04692 27.9531 3.38803 28.2941 3.80865 28.2941H9.22959C9.97684 30.2708 11.1447 32.1236 12.7335 33.7124C15.2431 36.222 18.567 37.7959 22.0927 38.1442C22.5959 38.1939 23.0995 38.2185 23.6024 38.2185C26.5748 38.2185 29.5094 37.3583 31.9995 35.7367C32.3521 35.5071 32.4518 35.0352 32.2222 34.6827C31.9926 34.3302 31.5207 34.2305 31.1682 34.4601C25.7175 38.0095 18.4176 37.2421 13.8107 32.6352C8.40532 27.2298 8.40532 18.4346 13.8107 13.0291C19.216 7.62383 28.0112 7.62383 33.4167 13.0291C38.0174 17.63 38.7891 24.9236 35.2514 30.3717C35.0222 30.7245 35.1226 31.1963 35.4753 31.4254C35.8283 31.6545 36.3 31.5542 36.529 31.2014C38.4192 28.2904 39.27 24.7747 38.9248 21.3015ZM19.7935 3.3717C19.7935 2.78364 20.2719 2.30528 20.8599 2.30528H26.3444C26.9324 2.30528 27.4108 2.78364 27.4108 3.3717C27.4108 3.95975 26.9324 4.43812 26.3444 4.43812H26.2077H20.9965H20.8599C20.2719 4.43812 19.7935 3.95968 19.7935 3.3717ZM21.7582 7.56373V5.96158H25.446V7.56099C24.2214 7.41535 22.9826 7.41626 21.7582 7.56373Z" fill="white"/>
<path d="M33.9556 32.4116C33.7545 32.4116 33.5587 32.4931 33.4171 32.6348C33.2747 32.7765 33.1938 32.973 33.1938 33.1733C33.1938 33.3737 33.2747 33.5702 33.4171 33.7119C33.5587 33.8543 33.7545 33.9351 33.9556 33.9351C34.1559 33.9351 34.3517 33.8543 34.4941 33.7119C34.6358 33.5702 34.7173 33.3737 34.7173 33.1733C34.7173 32.973 34.6359 32.7765 34.4941 32.6348C34.3517 32.4931 34.1558 32.4116 33.9556 32.4116Z" fill="white"/>
<path d="M28.432 16.9365L24.6591 20.7092C24.3436 20.5532 23.9887 20.4651 23.6136 20.4651C23.2384 20.4651 22.8835 20.5532 22.568 20.7092L20.8795 19.0207C20.582 18.7233 20.0998 18.7233 19.8022 19.0207C19.5047 19.3182 19.5047 19.8005 19.8022 20.098L21.4907 21.7865C21.3346 22.102 21.2466 22.4569 21.2466 22.832C21.2466 24.1372 22.3084 25.199 23.6136 25.199C24.9188 25.199 25.9806 24.1372 25.9806 22.832C25.9806 22.4569 25.8925 22.102 25.7365 21.7865L29.3986 18.1244L29.5092 18.0137C29.8067 17.7163 29.8067 17.2339 29.5092 16.9365C29.2118 16.639 28.7296 16.639 28.432 16.9365ZM23.6136 23.6757C23.1485 23.6757 22.77 23.2972 22.77 22.8321C22.77 22.367 23.1485 21.9886 23.6136 21.9886C24.0787 21.9886 24.4571 22.367 24.4571 22.8321C24.4571 23.2972 24.0787 23.6757 23.6136 23.6757Z" fill="white"/>
<path d="M31.758 22.0796H31.0522C30.6316 22.0796 30.2905 22.4206 30.2905 22.8413C30.2905 23.262 30.6316 23.603 31.0522 23.603H31.758C32.1786 23.603 32.5197 23.262 32.5197 22.8413C32.5197 22.4206 32.1786 22.0796 31.758 22.0796Z" fill="white"/>
<path d="M16.1749 22.061H15.4692C15.0486 22.061 14.7075 22.4021 14.7075 22.8228C14.7075 23.2435 15.0486 23.5845 15.4692 23.5845H16.1749C16.5955 23.5845 16.9366 23.2435 16.9366 22.8228C16.9366 22.4021 16.5955 22.061 16.1749 22.061Z" fill="white"/>
<path d="M23.623 16.1551C24.0437 16.1551 24.3848 15.8141 24.3848 15.3934V14.6877C24.3848 14.267 24.0437 13.926 23.623 13.926C23.2024 13.926 22.8613 14.267 22.8613 14.6877V15.3934C22.8613 15.8141 23.2024 16.1551 23.623 16.1551Z" fill="white"/>
<path d="M23.6045 29.509C23.1839 29.509 22.8428 29.8501 22.8428 30.2708V30.9764C22.8428 31.3971 23.1839 31.7381 23.6045 31.7381C24.0251 31.7381 24.3662 31.3971 24.3662 30.9764V30.2708C24.3662 29.8501 24.0251 29.509 23.6045 29.509Z" fill="white"/>
<path d="M0.761719 26.7703C0.561387 26.7703 0.364863 26.8518 0.223184 26.9934C0.0815039 27.1351 0 27.3317 0 27.532C0 27.7331 0.0814277 27.9288 0.223184 28.0705C0.364939 28.2122 0.561387 28.2937 0.761719 28.2937C0.962051 28.2937 1.15857 28.2122 1.30018 28.0705C1.44186 27.9288 1.52344 27.7323 1.52344 27.532C1.52344 27.3317 1.44193 27.1351 1.30018 26.9934C1.15857 26.8518 0.962051 26.7703 0.761719 26.7703Z" fill="white"/>
</svg>
