<svg width="62" height="62" viewBox="0 0 62 62" fill="none" xmlns="http://www.w3.org/2000/svg">
<g clip-path="url(#clip0)">
<path d="M51.1888 16.1914H11.3662C10.64 16.1914 10.0512 16.7801 10.0512 17.5064V37.3673C10.0512 38.0936 10.64 38.6823 11.3662 38.6823C12.0924 38.6823 12.6812 38.0936 12.6812 37.3673V18.8213H49.8738V37.3672C49.8738 38.0935 50.4626 38.6822 51.1888 38.6822C51.915 38.6822 52.5038 38.0935 52.5038 37.3672V17.5063C52.5037 16.7801 51.9148 16.1914 51.1888 16.1914Z" fill="black"/>
<path d="M60.6449 42.0633H58.2229V14.4476C58.2229 12.2558 56.4397 10.4727 54.2479 10.4727H8.30706C6.11515 10.4727 4.3321 12.2558 4.3321 14.4476V42.0633H1.91011C1.25649 42.0633 0.726624 42.5931 0.726624 43.2468V45.5701C0.726624 48.7895 3.34576 51.4087 6.56518 51.4087H55.9897C59.2091 51.4087 61.8283 48.7895 61.8283 45.5701V43.2468C61.8284 42.5931 61.2986 42.0633 60.6449 42.0633ZM6.96199 14.4476C6.96199 13.706 7.56548 13.1025 8.30706 13.1025H54.2477C54.9895 13.1025 55.5928 13.7059 55.5928 14.4476V42.0633H37.7873C37.7034 42.0606 37.6169 42.0677 37.531 42.0843C36.9739 42.1915 36.5714 42.6791 36.5714 43.2463C36.5714 44.2453 35.7587 45.0579 34.7599 45.0579H27.7952C26.7962 45.0579 25.9837 44.2452 25.9837 43.2463C25.9837 42.5837 25.4346 42.0489 24.7728 42.0631H6.96199V14.4476ZM59.4614 45.5701C59.4614 47.4844 57.9039 49.0417 55.9898 49.0417H6.56518C4.65098 49.0417 3.0936 47.4844 3.0936 45.5701V44.4303H23.7874C24.299 46.1597 25.9021 47.425 27.7951 47.425H34.7598C36.6528 47.425 38.2559 46.1595 38.7676 44.4303H59.4615V45.5701H59.4614Z" fill="black"/>
<path d="M33.2264 23.8353C32.7128 23.3218 31.8804 23.3218 31.3666 23.8353L23.0968 32.1055C22.5833 32.6191 22.5833 33.4517 23.0968 33.9652C23.3536 34.222 23.6901 34.3503 24.0266 34.3503C24.3631 34.3503 24.6995 34.2218 24.9563 33.9652L33.2264 25.6951C33.7399 25.1816 33.7399 24.349 33.2264 23.8353Z" fill="black"/>
<path d="M38.1282 28.6283C37.6145 28.1148 36.7821 28.1148 36.2685 28.6283L32.974 31.9228C32.4605 32.4363 32.4605 33.2689 32.974 33.7826C33.2308 34.0394 33.5674 34.1677 33.9038 34.1677C34.2405 34.1677 34.5768 34.0394 34.8336 33.7826L38.128 30.4881C38.6417 29.9746 38.6417 29.1419 38.1282 28.6283Z" fill="black"/>
</g>
<defs>
<clipPath id="clip0">
<rect width="61.1016" height="61.1016" fill="white" transform="translate(0.726624 0.390625)"/>
</clipPath>
</defs>
</svg>
