<svg width="51" height="51" viewBox="0 0 51 51" fill="none" xmlns="http://www.w3.org/2000/svg">
<g clip-path="url(#clip0)">
<path d="M27.2515 33.2957H40.4473C40.9422 33.2957 41.272 32.9659 41.272 32.471V25.0483C41.272 24.5535 40.9422 24.2236 40.4473 24.2236H27.2515C26.7566 24.2236 26.4268 24.5535 26.4268 25.0483V32.471C26.4267 32.9658 26.7566 33.2957 27.2515 33.2957ZM28.0762 25.8731H39.6226V31.6462H28.0762V25.8731Z" fill="black"/>
<path d="M4.98339 22.5742H11.5814C12.0762 22.5742 12.4061 22.2444 12.4061 21.7495C12.4061 21.2547 12.0762 20.9248 11.5814 20.9248H4.98339C4.48855 20.9248 4.15868 21.2547 4.15868 21.7495C4.15868 22.2444 4.48855 22.5742 4.98339 22.5742Z" fill="black"/>
<path d="M14.8803 22.5742H21.4783C21.9731 22.5742 22.303 22.2444 22.303 21.7495C22.303 21.2547 21.9731 20.9248 21.4783 20.9248H14.8803C14.3855 20.9248 14.0556 21.2547 14.0556 21.7495C14.0556 22.2444 14.3855 22.5742 14.8803 22.5742Z" fill="black"/>
<path d="M4.98339 25.873H15.705C16.1999 25.873 16.5297 25.5432 16.5297 25.0483C16.5297 24.5535 16.1999 24.2236 15.705 24.2236H4.98339C4.48855 24.2236 4.15868 24.5535 4.15868 25.0483C4.15868 25.5432 4.48855 25.873 4.98339 25.873Z" fill="black"/>
<path d="M21.4782 24.2236H19.004C18.5091 24.2236 18.1793 24.5535 18.1793 25.0483C18.1793 25.5432 18.5091 25.873 19.004 25.873H21.4782C21.973 25.873 22.3029 25.5432 22.3029 25.0483C22.3029 24.5535 21.973 24.2236 21.4782 24.2236Z" fill="black"/>
<path d="M49.602 13.9971C49.0247 13.2549 48.2824 12.8425 47.3752 12.76L45.3958 12.5201V10.2032V8.55382C45.3958 6.73942 43.9112 5.25488 42.0968 5.25488H4.15859C2.34418 5.25479 0.859646 6.73932 0.859646 8.55382V10.2033V16.8013V34.9456C0.859646 36.4353 1.86065 37.7019 3.22302 38.1078C3.18146 39.7762 4.4438 41.2246 6.13807 41.3786L44.2412 45.6673C44.3236 45.6673 44.4886 45.6673 44.5711 45.6673C46.2206 45.6673 47.7051 44.4301 47.87 42.8632L50.3442 16.3889C50.4267 15.5641 50.1793 14.6569 49.602 13.9971ZM2.50916 11.0281H43.7464V13.1724V15.9765H2.50916V11.0281ZM4.15859 6.9043H42.0967C43.004 6.9043 43.7463 7.64657 43.7463 8.55382V9.37853H2.50916V8.55382C2.50916 7.64657 3.25143 6.9043 4.15859 6.9043ZM2.50916 34.9455V17.6259H43.7464V34.9455C43.7464 35.8528 43.0041 36.5951 42.0968 36.5951H4.24112H4.15868C3.25143 36.5951 2.50916 35.8528 2.50916 34.9455ZM48.6947 16.059L46.2205 42.5332C46.138 43.4405 45.3132 44.1002 44.4061 44.0177L6.38539 39.7291C5.56068 39.6467 4.9833 38.9868 4.90086 38.2446H42.0967C43.9111 38.2446 45.3957 36.76 45.3957 34.9456V16.8012V14.0796L47.2926 14.2445C47.705 14.2445 48.1173 14.492 48.3648 14.8218C48.6123 15.1517 48.7773 15.6466 48.6947 16.059Z" fill="black"/>
</g>
<defs>
<clipPath id="clip0">
<rect width="49.5001" height="49.5001" fill="white" transform="translate(0.859646 0.710938)"/>
</clipPath>
</defs>
</svg>
