<svg width="58" height="58" viewBox="0 0 58 58" fill="none" xmlns="http://www.w3.org/2000/svg">
<g clip-path="url(#clip0)">
<path d="M18.0866 34.4233C18.4945 35.0391 18.7097 35.7507 18.7097 36.4834C18.7097 38.5471 17.0315 40.2253 14.9677 40.2253C14.2351 40.2253 13.5234 40.0102 12.9077 39.6023L11.8749 41.1627C12.7976 41.7734 13.8669 42.0963 14.9677 42.0963C18.0633 42.0963 20.5806 39.579 20.5806 36.4834C20.5806 35.3826 20.2577 34.3133 19.647 33.3896L18.0866 34.4233Z" fill="white"/>
<path d="M14.9677 32.7421C15.7004 32.7421 16.413 32.9572 17.0269 33.3642L18.0606 31.8048C17.1388 31.194 16.0699 30.8711 14.9677 30.8711C11.8721 30.8711 9.35484 33.3884 9.35484 36.484C9.35484 37.5848 9.67778 38.6542 10.2885 39.5778L11.8489 38.545C11.4409 37.9283 11.2258 37.2167 11.2258 36.484C11.2258 34.4203 12.904 32.7421 14.9677 32.7421Z" fill="white"/>
<path d="M33.6774 39.29V44.9029H37.4194V43.032H35.5484V39.29H33.6774Z" fill="white"/>
<path d="M34.6129 33.6777C32.2454 33.6777 29.9327 34.5027 28.1011 36.0014L29.2873 37.4498C30.5416 36.4225 32.075 35.7881 33.6774 35.6076V37.4197H35.5484V35.604C39.4447 36.037 42.544 39.1372 42.977 43.0326H41.1613V44.9035H42.9733C42.7929 46.5068 42.1584 48.0393 41.1311 49.2946L42.5787 50.4799C44.0774 48.6482 44.9032 46.3355 44.9032 43.9681C44.9032 38.2944 40.2866 33.6777 34.6129 33.6777Z" fill="white"/>
<path d="M35.5484 52.3283V50.5163H33.6774V52.332C29.7811 51.8989 26.6818 48.7988 26.2488 44.9034H28.0645V43.0324H26.2525C26.4329 41.4291 27.0674 39.8966 28.0947 38.6414L26.6471 37.4561C25.1484 39.2877 24.3226 41.6004 24.3226 43.9679C24.3226 49.6415 28.9392 54.2582 34.6129 54.2582C36.9804 54.2582 39.2931 53.4333 41.1247 51.9346L39.9385 50.4861C38.6842 51.5134 37.1517 52.1479 35.5484 52.3283Z" fill="white"/>
<path d="M52.3871 43.0319H50.5161V16.8384H44.9032V34.4591C44.3318 33.8406 43.706 33.2756 43.0323 32.7676V21.5158H37.4194V30.2174C36.8105 30.0932 36.1829 30.0242 35.5484 29.9817V26.1932H29.9355V30.7537C28.9945 31.0876 28.1001 31.5188 27.2629 32.0363C27.0747 31.5151 26.8673 31.0035 26.6165 30.5152L28.0956 28.4438L23.0075 23.3539L20.9351 24.8338C20.3111 24.515 19.6593 24.2455 18.9856 24.0294L18.5676 21.5158H11.3688L10.9508 24.0294C10.2771 24.2455 9.62525 24.515 9.00129 24.8338L6.92934 23.3539L1.84082 28.4438L3.31987 30.5152C3.00013 31.1383 2.73063 31.7901 2.51457 32.4648L0 32.8846V40.0825L2.51366 40.5014C2.72971 41.176 3.00013 41.8278 3.31896 42.4509L1.83991 44.5219L6.92797 49.6123L9.00038 48.1323C9.62434 48.4511 10.2762 48.7206 10.9499 48.9367L11.3679 51.4513H18.5667L18.9847 48.9376C19.6584 48.7216 20.3102 48.4521 20.9342 48.1332L21.3083 48.4004C23.171 53.9695 28.4258 57.9997 34.6129 57.9997C42.0351 57.9997 48.113 52.2045 48.5977 44.9029H58V9.35449H52.3871V43.0319ZM46.7742 18.7093H48.6452V43.0319H48.5977C48.4524 40.8458 47.8097 38.7971 46.7742 36.9969V18.7093ZM39.2903 23.3868H41.1613V31.5668C40.5634 31.2493 39.9358 30.9839 39.2903 30.7546V23.3868ZM31.8065 28.0642H33.6774V29.9826C33.043 30.0251 32.4153 30.0941 31.8065 30.2188V28.0642ZM20.5386 46.2202C19.721 46.6889 18.8389 47.0534 17.9135 47.3042L17.3343 47.4613L16.9808 49.5803H12.9538L12.6003 47.4613L12.0211 47.3042C11.0965 47.0534 10.2136 46.6889 9.39595 46.2202L8.87476 45.9215L7.13032 47.1685L4.28185 44.3209L5.52886 42.5747L5.23012 42.0535C4.76238 41.2377 4.39696 40.3556 4.14618 39.4293L3.98997 38.8501L1.87097 38.4975V34.4696L3.98997 34.117L4.1471 33.5378C4.3997 32.6105 4.76329 31.7275 5.23104 30.9136L5.52977 30.3924L4.28276 28.6461L7.13124 25.7985L8.87568 27.0456L9.39686 26.7468C10.2145 26.2782 11.0965 25.9137 12.022 25.6629L12.6012 25.5057L12.9547 23.3868H16.9817L17.3352 25.5057L17.9144 25.6629C18.8389 25.9137 19.7219 26.2782 20.5395 26.7468L21.0607 27.0456L22.8052 25.7985L25.6536 28.6461L24.4066 30.3924L24.7054 30.9136C25.1092 31.617 25.4198 32.3794 25.6641 33.1691C25.1169 33.6236 24.6145 34.1279 24.1422 34.6582C23.2898 30.3709 19.5013 27.1287 14.9677 27.1287C9.80933 27.1287 5.6129 31.3251 5.6129 36.4835C5.6129 41.6419 9.80933 45.8384 14.9677 45.8384C17.0109 45.8384 18.9764 45.1473 20.5816 43.9423C20.5816 43.9505 20.5806 43.9592 20.5806 43.9674C20.5806 44.6923 20.6528 45.3985 20.7592 46.0937L20.5386 46.2202ZM22.4283 37.0344C21.724 38.2686 21.1964 39.6138 20.8913 41.044C19.4784 42.8748 17.2813 43.9674 14.9677 43.9674C10.8412 43.9674 7.48387 40.6101 7.48387 36.4835C7.48387 32.357 10.8412 28.9997 14.9677 28.9997C19.0943 28.9997 22.4516 32.357 22.4516 36.4835C22.4516 36.6699 22.4411 36.8521 22.4283 37.0344ZM34.6129 56.1287C27.9074 56.1287 22.4516 50.6729 22.4516 43.9674C22.4516 37.2619 27.9074 31.8061 34.6129 31.8061C41.3184 31.8061 46.7742 37.2619 46.7742 43.9674C46.7742 50.6729 41.3184 56.1287 34.6129 56.1287ZM54.2581 11.2255H56.129V43.0319H54.2581V11.2255Z" fill="white"/>
<path d="M52.3871 0V1.87097H54.3974L47.7791 7.16595L44.9032 4.29007L40.4926 8.70073C40.1267 8.52487 39.7224 8.41935 39.2903 8.41935C37.7432 8.41935 36.4839 9.67869 36.4839 11.2258C36.4839 11.7095 36.6186 12.1585 36.8347 12.5559L31.9449 17.9893C31.6137 17.8518 31.2519 17.7742 30.871 17.7742C30.8532 17.7742 30.8372 17.7788 30.8194 17.7797L27.0578 7.74789C27.668 7.2331 28.0645 6.47256 28.0645 5.6129C28.0645 4.06579 26.8052 2.80645 25.2581 2.80645C23.711 2.80645 22.4516 4.06579 22.4516 5.6129C22.4516 5.8148 22.4749 6.01121 22.516 6.20215L14.8472 10.9207C14.3662 10.5324 13.7618 10.2903 13.0968 10.2903C11.879 10.2903 10.8499 11.0751 10.4625 12.1613H5.4407C5.05335 11.0751 4.02422 10.2903 2.80645 10.2903C1.25934 10.2903 0 11.5497 0 13.0968C0 14.6439 1.25934 15.9032 2.80645 15.9032C4.02422 15.9032 5.05335 15.1185 5.4407 14.0323H10.4634C10.8508 15.1185 11.8799 15.9032 13.0977 15.9032C14.6448 15.9032 15.9041 14.6439 15.9041 13.0968C15.9041 12.8949 15.8808 12.6985 15.8397 12.5075L23.5086 7.789C23.9887 8.17726 24.593 8.41935 25.2581 8.41935C25.2759 8.41935 25.2919 8.41479 25.3097 8.41387L29.0713 18.4447C28.461 18.9604 28.0645 19.721 28.0645 20.5806C28.0645 22.1278 29.3239 23.3871 30.871 23.3871C32.4181 23.3871 33.6774 22.1278 33.6774 20.5806C33.6774 20.0969 33.5436 19.6479 33.3266 19.2505L38.2164 13.8171C38.5476 13.9546 38.9094 14.0323 39.2903 14.0323C40.8374 14.0323 42.0968 12.7729 42.0968 11.2258C42.0968 10.7937 41.9913 10.3894 41.8154 10.0236L44.9032 6.93574L47.6402 9.67276L56.129 2.88228V5.6129H58V0H52.3871ZM2.80645 14.0323C2.29029 14.0323 1.87097 13.612 1.87097 13.0968C1.87097 12.5815 2.29029 12.1613 2.80645 12.1613C3.32261 12.1613 3.74194 12.5815 3.74194 13.0968C3.74194 13.612 3.32261 14.0323 2.80645 14.0323ZM13.0968 14.0323C12.5806 14.0323 12.1613 13.612 12.1613 13.0968C12.1613 12.5815 12.5806 12.1613 13.0968 12.1613C13.6129 12.1613 14.0323 12.5815 14.0323 13.0968C14.0323 13.612 13.6129 14.0323 13.0968 14.0323ZM24.3226 5.6129C24.3226 5.09766 24.7419 4.67742 25.2581 4.67742C25.7742 4.67742 26.1935 5.09766 26.1935 5.6129C26.1935 6.12815 25.7742 6.54839 25.2581 6.54839C24.7419 6.54839 24.3226 6.12815 24.3226 5.6129ZM30.871 21.5161C30.3548 21.5161 29.9355 21.0959 29.9355 20.5806C29.9355 20.0654 30.3548 19.6452 30.871 19.6452C31.3871 19.6452 31.8065 20.0654 31.8065 20.5806C31.8065 21.0959 31.3871 21.5161 30.871 21.5161ZM39.2903 12.1613C38.7742 12.1613 38.3548 11.7411 38.3548 11.2258C38.3548 10.7106 38.7742 10.2903 39.2903 10.2903C39.8065 10.2903 40.2258 10.7106 40.2258 11.2258C40.2258 11.7411 39.8065 12.1613 39.2903 12.1613Z" fill="white"/>
</g>
<defs>
<clipPath id="clip0">
<rect width="58" height="58" fill="white"/>
</clipPath>
</defs>
</svg>
