<svg width="42" height="41" viewBox="0 0 42 41" fill="none" xmlns="http://www.w3.org/2000/svg">
<path d="M40.6055 17.4503H39.5481V10.5036C39.5481 8.87392 38.2284 7.58994 36.6381 7.58994H35.8429V2.94784C35.8429 1.31816 34.6078 0.0341797 33.1105 0.0341797C33.1105 0.0341797 33.0259 0.0341797 32.9329 0.0341797L2.76702 7.5817C2.75856 7.5817 2.74164 7.58994 2.73319 7.58994C1.24435 7.70516 0.034668 8.948 0.034668 10.5036V37.4508C0.034668 39.0805 1.35432 40.3645 2.94467 40.3645H36.6381C38.313 40.3645 39.6327 39.0805 39.6327 37.4508V30.323H40.6055C41.1384 30.323 41.4852 29.9774 41.4852 29.4671V18.3145C41.4852 17.796 41.0454 17.4503 40.6055 17.4503ZM33.2797 1.66385C33.7196 1.74616 34.1595 2.26469 34.1595 2.94784V7.5817H9.82208L33.2797 1.66385ZM37.8731 37.4508C37.8731 38.134 37.3402 38.7348 36.6381 38.7348H2.94467C2.24255 38.7348 1.70961 38.134 1.70961 37.4508V10.5036C1.70961 9.82045 2.24255 9.21961 2.94467 9.21961H36.545C37.2471 9.21961 37.7801 9.82045 37.7801 10.5036V17.4503H29.0501C25.3449 17.4503 22.4349 20.2816 22.4349 23.8867C22.4349 27.4917 25.4295 30.323 29.0501 30.323H37.8731V37.4508ZM39.7172 28.6934H29.0501C26.4023 28.6934 24.2029 26.5452 24.2029 23.9772C24.2029 21.4092 26.4108 19.261 29.0501 19.261H39.7172V28.6934Z" fill="white"/>
<path d="M28.0771 24.0612C28.0771 24.5797 28.517 24.9172 28.9569 24.9172H29.7521C30.192 24.9172 30.6318 24.5715 30.6318 24.0612C30.6318 23.5426 30.192 23.2051 29.7521 23.2051H28.9654C28.4324 23.2051 28.0771 23.5508 28.0771 24.0612Z" fill="white"/>
</svg>
