<svg width="72" height="72" viewBox="0 0 72 72" fill="none" xmlns="http://www.w3.org/2000/svg">
<path d="M56.7108 51.9981L46.3985 59.1338C46.2995 59.2023 46.1755 59.2272 46.0576 59.2029L36.676 57.2463C36.1064 57.1273 35.5473 57.4932 35.4283 58.0634C35.3093 58.6336 35.6752 59.1923 36.2455 59.3113L45.627 61.2677C45.798 61.3035 45.9713 61.3209 46.1441 61.3209C46.6596 61.3209 47.1703 61.1648 47.5988 60.8684L57.9112 53.7326C58.3901 53.4012 58.5098 52.7442 58.1783 52.2653C57.8469 51.7863 57.1898 51.6665 56.7108 51.9981Z" fill="white"/>
<path d="M71.9467 31.9789C71.741 30.9629 70.9827 30.2004 69.9679 29.9887L65.8044 29.1203C65.7995 29.1194 65.7947 29.1182 65.7898 29.1172L64.4976 28.8478L70.8985 24.4186C71.751 23.8288 72.1526 22.8313 71.9468 21.8153C71.741 20.7993 70.9829 20.0367 69.968 19.8251L41.3007 13.8462C40.7307 13.7272 40.172 14.093 40.0529 14.6634C39.934 15.2336 40.2998 15.7921 40.87 15.9111L69.5375 21.8901C69.7849 21.9417 69.8579 22.1279 69.8796 22.2342C69.9011 22.3405 69.9062 22.5405 69.6983 22.6842L59.9298 29.4439L47.765 22.1702C46.9719 21.6962 45.9821 21.6884 45.1818 22.1502L24.1233 34.3015L2.46253 29.7841C2.21504 29.7325 2.14192 29.5464 2.1204 29.44C2.09889 29.3337 2.09383 29.1338 2.30166 28.99L25.6021 12.8668C25.7011 12.7983 25.8252 12.7734 25.9429 12.7978L35.6702 14.8265C36.2404 14.946 36.7991 14.5797 36.9179 14.0093C37.0368 13.4391 36.6711 12.8806 36.1007 12.7616L26.3735 10.7329C25.6925 10.5909 24.9738 10.7363 24.4017 11.1323L1.10133 27.2554C0.248894 27.8453 -0.152716 28.8429 0.053151 29.8589C0.258878 30.8748 1.0171 31.6374 2.03195 31.8491L7.50248 32.9899L1.10147 37.4192C0.249034 38.0091 -0.152576 39.0066 0.053151 40.0224C0.258878 41.0384 1.0171 41.801 2.03195 42.0126L7.50248 43.1535L1.10147 47.5827C0.249034 48.1726 -0.152576 49.1702 0.053151 50.1862C0.258878 51.2021 1.0171 51.9646 2.03195 52.1762L30.9365 58.2042C31.0092 58.2193 31.0815 58.2267 31.1529 58.2267C31.6418 58.2267 32.0804 57.8847 32.1842 57.3872C32.3032 56.8169 31.9373 56.2583 31.3671 56.1394L2.46253 50.1114C2.21504 50.0597 2.14192 49.8737 2.1204 49.7674C2.09889 49.6611 2.09383 49.4611 2.30166 49.3173L10.3509 43.7476L45.6269 51.1043C45.7979 51.14 45.9711 51.1574 46.144 51.1574C46.6595 51.1574 47.1702 51.0013 47.5987 50.7049L62.1047 40.6672L69.5373 42.2171C69.7848 42.2687 69.8579 42.4549 69.8794 42.5612C69.901 42.6675 69.906 42.8673 69.6982 43.0112L60.9394 49.0719C60.4604 49.4033 60.3408 50.0603 60.6722 50.5393C60.877 50.8351 61.2059 50.9939 61.5404 50.9939C61.7474 50.9939 61.9565 50.9331 62.1396 50.8064L70.8984 44.7457C71.7508 44.156 72.1524 43.1584 71.9467 42.1426C71.741 41.1266 70.9827 40.364 69.9679 40.1522L64.4975 39.0114L70.8984 34.5821C71.7508 33.9924 72.1526 32.9948 71.9467 31.9789ZM64.5294 31.0093V36.4244L61.1039 38.7948V31.1966L62.1051 30.5038L64.5294 31.0093ZM53.8022 32.5775V43.8473L50.3766 46.2177V33.0306L53.8022 32.5775ZM55.9115 32.2983L58.9946 31.8905V40.2542L55.9115 42.3877V32.2983ZM46.2362 23.977C46.3746 23.8972 46.5457 23.8986 46.6828 23.9804L56.8319 30.049L29.432 33.6735L46.2362 23.977ZM18.1976 35.2203L21.6232 35.9346V43.9436L18.1976 43.2293V35.2203ZM16.0883 42.7894L13.0052 42.1465V34.1375L16.0883 34.7804V42.7894ZM23.7325 36.3745L24.0868 36.4483C24.2043 36.4726 24.3222 36.477 24.4404 36.4614L26.8142 36.1474V45.0263L23.7325 44.3836V36.3745ZM28.9235 35.8684L32.3492 35.4153V46.1806L28.9235 45.4663V35.8684ZM34.4585 35.1362L37.5415 34.7284V47.2634L34.4585 46.6205V35.1362ZM39.6507 34.4494L43.0763 33.9963V48.4177L39.6507 47.7034V34.4494ZM10.8959 33.6975V41.7065L7.47042 40.9922V35.577L10.3509 33.5839L10.8959 33.6975ZM2.1204 39.6037C2.09889 39.4974 2.09383 39.2974 2.30166 39.1536L5.36113 37.0365V40.5522L2.46253 39.9476C2.21504 39.8962 2.14192 39.71 2.1204 39.6037ZM46.3985 48.9704C46.2995 49.0387 46.1752 49.0636 46.0576 49.0394L45.1858 48.8576V33.7172L48.2674 33.3095V47.6771L46.3985 48.9704ZM69.6982 32.8477L66.6387 34.9648V31.4491L69.5373 32.0537C69.7848 32.1053 69.8579 32.2915 69.8794 32.3978C69.901 32.5041 69.9062 32.7039 69.6982 32.8477Z" fill="white"/>
</svg>
