<svg width="22" height="29" viewBox="0 0 22 29" fill="none" xmlns="http://www.w3.org/2000/svg">
<path d="M21.2012 29H0.439819C0.319425 29 0.204304 28.9508 0.121698 28.8638C0.039092 28.7768 -0.00484739 28.6599 0.000425337 28.5395L0.989062 7.77815C1.00049 7.54352 1.19294 7.35985 1.42846 7.35985H20.2125C20.4472 7.35985 20.6405 7.54352 20.6519 7.77815L21.6406 28.5395C21.6458 28.6599 21.6028 28.7768 21.5193 28.8638C21.4358 28.9508 21.3207 29 21.2012 29ZM0.900304 28.1212H20.7398L19.7934 8.23864H1.84676L0.900304 28.1212Z" fill="#122947"/>
<path d="M15.5699 9.99621C15.3273 9.99621 15.1305 9.79936 15.1305 9.55682V5.18924C15.1305 2.813 13.1972 0.878788 10.82 0.878788C8.44291 0.878788 6.50958 2.813 6.50958 5.18924V9.55682C6.50958 9.79936 6.31273 9.99621 6.07019 9.99621C5.82764 9.99621 5.63079 9.79936 5.63079 9.55682V5.18924C5.63079 2.32791 7.9587 0 10.82 0C13.6814 0 16.0093 2.32791 16.0093 5.18924V9.55682C16.0093 9.79936 15.8133 9.99621 15.5699 9.99621Z" fill="#122947"/>
</svg>
