<svg width="30" height="30" viewBox="0 0 30 30" fill="none" xmlns="http://www.w3.org/2000/svg">
<path d="M14.9998 29.9996C23.284 29.9996 29.9996 23.284 29.9996 14.9998C29.9996 6.71565 23.284 0 14.9998 0C6.71565 0 0 6.71565 0 14.9998C0 23.284 6.71565 29.9996 14.9998 29.9996Z" fill="white"/>
<path d="M11.1675 21.7667L18.8803 29.4795C25.2683 27.7761 30.0001 21.9559 30.0001 15.0002C30.0001 14.8582 30.0001 14.7163 30.0001 14.5743L23.9433 8.99078L11.1675 21.7667Z" fill="white"/>
<path d="M15.339 17.3596C16.0015 18.0221 16.0015 19.1577 15.339 19.8202L13.9668 21.1924C13.3043 21.8549 12.1687 21.8549 11.5062 21.1924L5.49684 15.1357C4.83439 14.4732 4.83439 13.3376 5.49684 12.6752L6.86906 11.3029C7.53152 10.6405 8.66715 10.6405 9.3296 11.3029L15.339 17.3596Z" fill="#C97060"/>
<path d="M20.5914 6.90248C21.2538 6.24003 22.3895 6.24003 23.0519 6.90248L24.4241 8.2747C25.0866 8.93716 25.0866 10.0728 24.4241 10.7352L14.0142 21.0979C13.3517 21.7603 12.2161 21.7603 11.5536 21.0979L10.1814 19.7257C9.51896 19.0632 9.51896 17.9276 10.1814 17.2651L20.5914 6.90248Z" fill="#C97060"/>
</svg>
