<svg width="21" height="21" viewBox="0 0 21 21" fill="none" xmlns="http://www.w3.org/2000/svg">
<g clip-path="url(#clip0)">
<path d="M9.49732 10.4295L0.202191 19.7246C-0.056043 19.9828 -0.056043 20.4012 0.202191 20.6594C0.331145 20.7887 0.500457 20.853 0.669442 20.853C0.838754 20.853 1.00774 20.7887 1.13669 20.6594L10.5017 11.2944L19.8667 20.6594C19.996 20.7887 20.165 20.853 20.334 20.853C20.503 20.853 20.6723 20.7887 20.8012 20.6594C21.0595 20.4012 21.0595 19.9828 20.8012 19.7246L11.5064 10.4295L20.8075 1.12777C21.0657 0.869535 21.0657 0.451176 20.8075 0.192941C20.5492 -0.0649648 20.1309 -0.0649648 19.873 0.192941L10.502 9.56452L1.13013 0.19327C0.871895 -0.0646367 0.453863 -0.0646367 0.195629 0.19327C-0.0626055 0.451504 -0.0626055 0.869863 0.195629 1.1281L9.49732 10.4295Z" fill="#122947"/>
</g>
<defs>
<clipPath id="clip0">
<rect width="21" height="21" fill="white"/>
</clipPath>
</defs>
</svg>
