<svg width="34" height="34" viewBox="0 0 34 34" fill="none" xmlns="http://www.w3.org/2000/svg">
<path d="M17 0C7.62646 0 0 7.62594 0 17C0 26.3741 7.62646 34 17 34C26.3735 34 34 26.3741 34 17C34 7.62594 26.3735 0 17 0ZM17 31.9077C8.77985 31.9077 2.09231 25.2202 2.09231 17C2.09231 8.77985 8.77985 2.09231 17 2.09231C25.2202 2.09231 31.9077 8.77985 31.9077 17C31.9077 25.2202 25.2202 31.9077 17 31.9077Z" fill="#122947"/>
<path d="M17.2712 11.9711C18.2375 11.9711 19.0209 11.1877 19.0209 10.2214C19.0209 9.25504 18.2375 8.47168 17.2712 8.47168C16.3048 8.47168 15.5215 9.25504 15.5215 10.2214C15.5215 11.1877 16.3048 11.9711 17.2712 11.9711Z" fill="#122947"/>
<path d="M16.8098 14.8252C16.2323 14.8252 15.7637 15.2939 15.7637 15.8713V24.7637C15.7637 25.3411 16.2323 25.8098 16.8098 25.8098C17.3873 25.8098 17.856 25.3411 17.856 24.7637V15.8713C17.856 15.2933 17.3873 14.8252 16.8098 14.8252Z" fill="#122947"/>
</svg>
