<svg width="116" height="29" viewBox="0 0 116 29" fill="none" xmlns="http://www.w3.org/2000/svg">
<path d="M0.698242 17.8877C0.232747 17.8877 0 17.7311 0 17.418C0 17.1725 0.152344 17.0498 0.457031 17.0498L1.0791 17.1133C1.55306 17.1133 1.87467 16.9102 2.04395 16.5039C2.23014 16.0384 2.32324 15.1074 2.32324 13.7109V4.70996C2.32324 3.32194 2.25553 2.4502 2.12012 2.09473C1.99316 1.73079 1.84928 1.50228 1.68848 1.40918C1.52767 1.31608 1.32454 1.26953 1.0791 1.26953L0.457031 1.32031C0.152344 1.32031 0 1.19759 0 0.952148C0 0.638997 0.224284 0.482422 0.672852 0.482422C1.12988 0.482422 1.50228 0.495117 1.79004 0.520508C2.08626 0.537435 2.38249 0.558594 2.67871 0.583984C3.46582 0.651693 4.08366 0.685547 4.53223 0.685547C4.98926 0.685547 5.47168 0.677083 5.97949 0.660156C6.4873 0.634766 7.05436 0.609375 7.68066 0.583984C9.33105 0.516276 10.4736 0.482422 11.1084 0.482422C11.7516 0.482422 12.1071 0.520508 12.1748 0.59668C12.251 0.672852 12.2891 0.778646 12.2891 0.914062C12.2891 1.04102 12.2848 1.16374 12.2764 1.28223C12.2764 1.40072 12.2721 1.5319 12.2637 1.67578C12.2552 1.87044 12.2298 2.16243 12.1875 2.55176C12.1452 2.93262 12.0944 3.19076 12.0352 3.32617C11.9759 3.45312 11.8913 3.5166 11.7812 3.5166C11.6712 3.5166 11.5951 3.49121 11.5527 3.44043C11.5104 3.38118 11.4512 3.25423 11.375 3.05957C11.3073 2.85645 11.1803 2.66602 10.9941 2.48828C10.8164 2.30208 10.5329 2.14974 10.1436 2.03125C9.38184 1.80273 7.97266 1.68848 5.91602 1.68848H4.78613C4.58301 1.68848 4.45182 1.7181 4.39258 1.77734C4.3418 1.83659 4.31641 1.97201 4.31641 2.18359V7.52832C5.32357 7.64681 6.15723 7.70605 6.81738 7.70605C7.486 7.70605 7.95996 7.70182 8.23926 7.69336C8.52702 7.6849 8.764 7.65951 8.9502 7.61719C9.28027 7.55794 9.51725 7.40983 9.66113 7.17285C9.94889 6.72428 10.1816 6.5 10.3594 6.5C10.5879 6.5 10.7021 6.61849 10.7021 6.85547L10.2578 8.6582L10.3086 9.62305C10.3086 10.2324 10.1647 10.5371 9.87695 10.5371C9.63151 10.5371 9.50879 10.3763 9.50879 10.0547C9.50879 9.72461 9.48763 9.47917 9.44531 9.31836C9.41146 9.15755 9.30566 9.0306 9.12793 8.9375C8.8571 8.80208 8.19694 8.73438 7.14746 8.73438C6.09798 8.73438 5.1543 8.78092 4.31641 8.87402V11.8828C4.31641 13.7533 4.35872 15.2979 4.44336 16.5166C5.12891 16.6689 5.8737 16.7451 6.67773 16.7451C7.48177 16.7451 8.16732 16.724 8.73438 16.6816C9.3099 16.6393 9.80501 16.5547 10.2197 16.4277C11.0407 16.1823 11.6458 15.7126 12.0352 15.0186C12.2044 14.7139 12.3737 14.5615 12.543 14.5615C12.7122 14.5615 12.7969 14.6842 12.7969 14.9297C12.7969 15.0312 12.7673 15.1624 12.708 15.3232C12.6403 15.5433 12.543 15.8734 12.416 16.3135C12.2891 16.7451 12.1917 17.0583 12.124 17.2529C12.0563 17.4476 11.9801 17.5957 11.8955 17.6973C11.7686 17.8665 11.5189 17.9512 11.1465 17.9512C10.7741 17.9512 10.4144 17.9469 10.0674 17.9385C9.72038 17.9385 9.35645 17.9342 8.97559 17.9258C8.53548 17.9089 7.85417 17.875 6.93164 17.8242C4.62956 17.7142 3.27962 17.6761 2.88184 17.71C2.48405 17.7438 2.18359 17.7692 1.98047 17.7861C1.77734 17.8115 1.57845 17.8327 1.38379 17.8496C1.18913 17.875 0.960612 17.8877 0.698242 17.8877Z" fill="#122947"/>
<path d="M17.8567 17.8877C17.3912 17.8877 17.1585 17.7311 17.1585 17.418C17.1585 17.1725 17.3108 17.0498 17.6155 17.0498L18.2376 17.1133C18.7454 17.1133 19.0882 16.8298 19.2659 16.2627C19.4098 15.7803 19.4817 14.917 19.4817 13.6729V4.70996C19.4817 3.46582 19.4225 2.65332 19.304 2.27246C19.1855 1.88314 19.0416 1.62077 18.8723 1.48535C18.7115 1.34147 18.4999 1.26953 18.2376 1.26953L17.6155 1.32031C17.3108 1.32031 17.1585 1.19759 17.1585 0.952148C17.1585 0.638997 17.3912 0.482422 17.8567 0.482422C18.3222 0.482422 18.7623 0.516276 19.177 0.583984C19.6002 0.651693 20.0361 0.685547 20.4846 0.685547C20.9417 0.685547 21.3733 0.651693 21.7796 0.583984C22.1943 0.516276 22.6302 0.482422 23.0872 0.482422C23.5527 0.482422 23.7854 0.638997 23.7854 0.952148C23.7854 1.19759 23.6331 1.32031 23.3284 1.32031L22.719 1.26953C22.2027 1.26953 21.8557 1.55306 21.678 2.12012C21.5426 2.56868 21.4749 3.43197 21.4749 4.70996V11.8828C21.4749 13.7363 21.5172 15.2725 21.6018 16.4912C22.2197 16.6605 22.901 16.7451 23.6458 16.7451C24.399 16.7451 25.0507 16.7028 25.6009 16.6182C26.1595 16.5335 26.6419 16.4066 27.0481 16.2373C27.8098 15.9242 28.4023 15.3952 28.8255 14.6504C28.9947 14.3457 29.164 14.1934 29.3333 14.1934C29.5026 14.1934 29.5872 14.3161 29.5872 14.5615C29.5872 14.6631 29.5576 14.7943 29.4983 14.9551C29.4306 15.1751 29.3333 15.5052 29.2063 15.9453C29.0794 16.377 28.9736 16.7113 28.8889 16.9482C28.8128 17.1768 28.7239 17.3672 28.6223 17.5195C28.4192 17.8073 28.1357 17.9512 27.7718 17.9512C27.4163 17.9512 27.0777 17.9469 26.7561 17.9385C26.4345 17.9385 26.096 17.93 25.7405 17.9131C25.3935 17.9046 25.0169 17.8877 24.6106 17.8623C24.2044 17.8454 23.7431 17.8242 23.2268 17.7988C22.7106 17.7734 22.262 17.748 21.8811 17.7227C21.5003 17.7057 21.1194 17.6973 20.7386 17.6973C20.3662 17.6973 20.053 17.7057 19.7991 17.7227C19.5537 17.748 19.3294 17.7692 19.1262 17.7861C18.9231 17.8115 18.7242 17.8327 18.5296 17.8496C18.3349 17.875 18.1106 17.8877 17.8567 17.8877Z" fill="#122947"/>
<path d="M34.5582 17.8877C34.008 17.8877 33.733 17.7311 33.733 17.418C33.733 17.1725 33.8853 17.0498 34.19 17.0498L34.8121 17.1133C35.2691 17.1133 35.5865 16.8932 35.7642 16.4531C35.9589 15.9622 36.0562 15.0355 36.0562 13.6729L35.9927 4.70996C35.9927 3.31348 35.9166 2.4375 35.7642 2.08203C35.6203 1.7181 35.468 1.49382 35.3072 1.40918C35.1548 1.31608 34.9686 1.26953 34.7486 1.26953L34.1265 1.32031C33.8218 1.32031 33.6695 1.19759 33.6695 0.952148C33.6695 0.638997 33.9022 0.482422 34.3677 0.482422C34.8332 0.482422 35.2733 0.516276 35.688 0.583984C36.1112 0.651693 36.5513 0.685547 37.0084 0.685547C37.4654 0.685547 37.9013 0.651693 38.316 0.583984C38.7307 0.516276 39.1666 0.482422 39.6236 0.482422C40.0891 0.482422 40.3218 0.638997 40.3218 0.952148C40.3218 1.19759 40.1695 1.32031 39.8648 1.32031L39.2554 1.26953C38.7984 1.26953 38.481 1.48958 38.3033 1.92969C38.1086 2.42057 38.0113 3.34733 38.0113 4.70996L38.0748 13.6729C38.0748 15.0355 38.1552 15.903 38.316 16.2754C38.4852 16.6478 38.6545 16.8805 38.8238 16.9736C38.9931 17.0667 39.1877 17.1133 39.4078 17.1133L40.0171 17.0498C40.3218 17.0498 40.4742 17.1725 40.4742 17.418C40.4742 17.7311 40.2033 17.8877 39.6617 17.8877C39.3824 17.8877 39.0862 17.8623 38.773 17.8115C37.7151 17.6423 36.8137 17.6126 36.0689 17.7227C35.3326 17.8327 34.829 17.8877 34.5582 17.8877Z" fill="#122947"/>
<path d="M48.9871 17.8877C48.437 17.8877 48.162 17.7311 48.162 17.418C48.162 17.1725 48.3143 17.0498 48.619 17.0498L49.2411 17.1133C49.7489 17.1133 50.0874 16.8298 50.2567 16.2627C50.409 15.7803 50.4852 14.917 50.4852 13.6729V1.80273H50.1424C48.6613 1.80273 47.4806 1.95508 46.6004 2.25977C45.9911 2.47982 45.5763 2.85645 45.3563 3.38965C45.1955 3.77897 45.0262 3.97363 44.8485 3.97363C44.603 3.97363 44.4803 3.82975 44.4803 3.54199C44.4803 3.45736 44.4972 3.36003 44.5311 3.25C44.5734 3.13997 44.62 3.00879 44.6707 2.85645C44.8062 2.4502 44.8866 2.02702 44.912 1.58691C44.9373 1.14681 44.9839 0.854818 45.0516 0.710938C45.1278 0.558594 45.2293 0.482422 45.3563 0.482422C45.4832 0.482422 45.5975 0.495117 45.6991 0.520508C45.8006 0.537435 45.9487 0.558594 46.1434 0.583984C46.6512 0.651693 47.2902 0.685547 48.0604 0.685547H56.1092C56.7355 0.685547 57.1883 0.651693 57.4676 0.583984C57.7554 0.516276 57.9627 0.482422 58.0897 0.482422C58.369 0.482422 58.5086 0.613607 58.5086 0.875977C58.5086 1.01139 58.4832 1.1722 58.4325 1.3584C58.3055 1.77311 58.2209 2.13281 58.1786 2.4375C58.1447 2.73372 58.1108 2.97917 58.077 3.17383C58.0431 3.36003 58.0051 3.50814 57.9627 3.61816C57.895 3.80436 57.7935 3.89746 57.658 3.89746C57.5226 3.89746 57.4338 3.85091 57.3914 3.75781C57.3576 3.65625 57.3195 3.46582 57.2772 3.18652C57.2349 2.90723 57.1629 2.67871 57.0614 2.50098C56.9598 2.32324 56.8244 2.18359 56.6551 2.08203C56.3589 1.89583 55.8765 1.80273 55.2079 1.80273H52.4784V13.6729C52.4784 14.9508 52.5334 15.776 52.6434 16.1484C52.7619 16.5124 52.9015 16.7663 53.0623 16.9102C53.2316 17.0456 53.4517 17.1133 53.7225 17.1133L54.3319 17.0498C54.6366 17.0498 54.7889 17.1725 54.7889 17.418C54.7889 17.7311 54.5181 17.8877 53.9764 17.8877C53.6971 17.8877 53.4009 17.8623 53.0877 17.8115C52.0721 17.6507 51.2004 17.6211 50.4725 17.7227C49.7531 17.8327 49.258 17.8877 48.9871 17.8877Z" fill="#122947"/>
<path d="M63.213 17.8877C62.7475 17.8877 62.5148 17.7311 62.5148 17.418C62.5148 17.1725 62.6671 17.0498 62.9718 17.0498L63.5939 17.1133C64.0678 17.1133 64.3894 16.9102 64.5587 16.5039C64.7449 16.0384 64.838 15.1074 64.838 13.7109V4.70996C64.838 3.32194 64.7703 2.4502 64.6349 2.09473C64.5079 1.73079 64.3641 1.50228 64.2032 1.40918C64.0424 1.31608 63.8393 1.26953 63.5939 1.26953L62.9718 1.32031C62.6671 1.32031 62.5148 1.19759 62.5148 0.952148C62.5148 0.638997 62.7391 0.482422 63.1876 0.482422C63.6446 0.482422 64.0171 0.495117 64.3048 0.520508C64.601 0.537435 64.8973 0.558594 65.1935 0.583984C65.9806 0.651693 66.5984 0.685547 67.047 0.685547C67.504 0.685547 67.9865 0.677083 68.4943 0.660156C69.0021 0.634766 69.5691 0.609375 70.1954 0.583984C71.8458 0.516276 72.9884 0.482422 73.6232 0.482422C74.2664 0.482422 74.6219 0.520508 74.6896 0.59668C74.7657 0.672852 74.8038 0.778646 74.8038 0.914062C74.8038 1.04102 74.7996 1.16374 74.7911 1.28223C74.7911 1.40072 74.7869 1.5319 74.7784 1.67578C74.77 1.87044 74.7446 2.16243 74.7023 2.55176C74.66 2.93262 74.6092 3.19076 74.5499 3.32617C74.4907 3.45312 74.406 3.5166 74.296 3.5166C74.186 3.5166 74.1098 3.49121 74.0675 3.44043C74.0252 3.38118 73.9659 3.25423 73.8898 3.05957C73.8221 2.85645 73.6951 2.66602 73.5089 2.48828C73.3312 2.30208 73.0476 2.14974 72.6583 2.03125C71.8966 1.80273 70.4874 1.68848 68.4308 1.68848H67.3009C67.0978 1.68848 66.9666 1.7181 66.9073 1.77734C66.8566 1.83659 66.8312 1.97201 66.8312 2.18359V7.52832C67.8383 7.64681 68.672 7.70605 69.3322 7.70605C70.0008 7.70605 70.4747 7.70182 70.754 7.69336C71.0418 7.6849 71.2788 7.65951 71.465 7.61719C71.795 7.55794 72.032 7.40983 72.1759 7.17285C72.4637 6.72428 72.6964 6.5 72.8741 6.5C73.1027 6.5 73.2169 6.61849 73.2169 6.85547L72.7726 8.6582L72.8234 9.62305C72.8234 10.2324 72.6795 10.5371 72.3917 10.5371C72.1463 10.5371 72.0236 10.3763 72.0236 10.0547C72.0236 9.72461 72.0024 9.47917 71.9601 9.31836C71.9262 9.15755 71.8204 9.0306 71.6427 8.9375C71.3719 8.80208 70.7117 8.73438 69.6622 8.73438C68.6128 8.73438 67.6691 8.78092 66.8312 8.87402V11.8828C66.8312 13.7533 66.8735 15.2979 66.9581 16.5166C67.6437 16.6689 68.3885 16.7451 69.1925 16.7451C69.9965 16.7451 70.6821 16.724 71.2491 16.6816C71.8247 16.6393 72.3198 16.5547 72.7345 16.4277C73.5555 16.1823 74.1606 15.7126 74.5499 15.0186C74.7192 14.7139 74.8885 14.5615 75.0577 14.5615C75.227 14.5615 75.3116 14.6842 75.3116 14.9297C75.3116 15.0312 75.282 15.1624 75.2228 15.3232C75.1551 15.5433 75.0577 15.8734 74.9308 16.3135C74.8038 16.7451 74.7065 17.0583 74.6388 17.2529C74.5711 17.4476 74.4949 17.5957 74.4103 17.6973C74.2833 17.8665 74.0337 17.9512 73.6613 17.9512C73.2889 17.9512 72.9292 17.9469 72.5822 17.9385C72.2351 17.9385 71.8712 17.9342 71.4904 17.9258C71.0503 17.9089 70.3689 17.875 69.4464 17.8242C67.1443 17.7142 65.7944 17.6761 65.3966 17.71C64.9988 17.7438 64.6984 17.7692 64.4952 17.7861C64.2921 17.8115 64.0932 17.8327 63.8986 17.8496C63.7039 17.875 63.4754 17.8877 63.213 17.8877Z" fill="#122947"/>
<path d="M80.4984 17.8877C79.9483 17.8877 79.6732 17.7311 79.6732 17.418C79.6732 17.1725 79.8256 17.0498 80.1303 17.0498L80.7523 17.1133C81.2602 17.1133 81.6029 16.8298 81.7807 16.2627C81.9246 15.7803 81.9965 14.917 81.9965 13.6729V4.70996C81.9965 3.46582 81.9372 2.65332 81.8188 2.27246C81.7003 1.88314 81.5564 1.62077 81.3871 1.48535C81.2263 1.34147 81.0147 1.26953 80.7523 1.26953L80.1303 1.32031C79.8256 1.32031 79.6732 1.19759 79.6732 0.952148C79.6732 0.638997 79.906 0.482422 80.3715 0.482422C80.837 0.482422 81.2771 0.516276 81.6918 0.583984C82.115 0.651693 82.5551 0.685547 83.0121 0.685547C83.4691 0.685547 83.905 0.651693 84.3197 0.583984C84.7429 0.516276 85.2803 0.482422 85.932 0.482422C86.5922 0.482422 87.2989 0.588216 88.0522 0.799805C88.8054 1.01139 89.4402 1.31185 89.9565 1.70117C91.0313 2.50521 91.5688 3.57161 91.5688 4.90039C91.5688 6.37305 90.9636 7.64258 89.7533 8.70898C89.364 9.04753 88.9324 9.33529 88.4584 9.57227L92.5844 15.5645C93.0499 16.25 93.5619 16.6647 94.1205 16.8086C94.2813 16.8509 94.4844 16.8848 94.7299 16.9102C95.1615 16.9525 95.3773 17.0964 95.3773 17.3418C95.3773 17.5788 95.1446 17.6973 94.6791 17.6973H92.2416C91.6576 17.6973 91.1287 17.3164 90.6547 16.5547L87.4555 11.4385C87.1677 10.9899 86.8926 10.6725 86.6303 10.4863C86.3679 10.2917 85.9617 10.1943 85.4115 10.1943C84.8699 10.1943 84.3959 10.207 83.9897 10.2324V13.6729C83.9897 14.9508 84.0447 15.776 84.1547 16.1484C84.2732 16.5124 84.4128 16.7663 84.5736 16.9102C84.7429 17.0456 84.963 17.1133 85.2338 17.1133L85.8432 17.0498C86.1479 17.0498 86.3002 17.1725 86.3002 17.418C86.3002 17.7311 86.0294 17.8877 85.4877 17.8877C85.2084 17.8877 84.9122 17.8623 84.599 17.8115C83.5834 17.6507 82.7117 17.6211 81.9838 17.7227C81.2644 17.8327 80.7693 17.8877 80.4984 17.8877ZM83.9897 9.11523C84.5398 9.17448 85.0688 9.2041 85.5766 9.2041H86.3764C87.1973 9.2041 87.8913 8.9248 88.4584 8.36621C89.1186 7.71452 89.4486 6.82585 89.4486 5.7002C89.4486 4.34603 89.0382 3.27539 88.2172 2.48828C87.447 1.74349 86.4568 1.37109 85.2465 1.37109C84.8148 1.37109 84.4975 1.43034 84.2943 1.54883C84.0912 1.66732 83.9897 1.87044 83.9897 2.1582V9.11523Z" fill="#122947"/>
<path d="M100.64 17.6973C100.209 17.6973 99.8024 17.7269 99.4216 17.7861C99.0492 17.8538 98.6429 17.8877 98.2028 17.8877C97.7712 17.8877 97.5554 17.748 97.5554 17.4688C97.5554 17.181 97.7542 17.0371 98.152 17.0371C98.5667 17.0371 98.863 16.9609 99.0407 16.8086C99.3285 16.5462 99.612 16.1188 99.8913 15.5264C100.171 14.9339 100.429 14.3796 100.666 13.8633C100.911 13.347 101.19 12.7461 101.504 12.0605C101.817 11.3665 102.16 10.5964 102.532 9.75C102.913 8.89518 103.311 7.98958 103.725 7.0332C104.809 4.51953 105.524 2.83105 105.871 1.96777C106.218 1.09603 106.408 0.613607 106.442 0.520508C106.484 0.427409 106.527 0.342773 106.569 0.266602C106.679 0.0888672 106.772 0 106.848 0C106.924 0 106.988 0.0126953 107.039 0.0380859C107.09 0.055013 107.145 0.093099 107.204 0.152344C107.331 0.313151 107.458 0.554362 107.585 0.875977C107.712 1.18913 107.881 1.61654 108.092 2.1582C108.313 2.69987 108.562 3.31348 108.841 3.99902C109.121 4.68457 109.417 5.4209 109.73 6.20801C110.043 6.99512 110.356 7.78223 110.67 8.56934C110.991 9.34798 111.3 10.1055 111.596 10.8418C111.901 11.5781 112.172 12.2425 112.409 12.835C113.137 14.6038 113.602 15.6618 113.805 16.0088C114.008 16.3558 114.178 16.597 114.313 16.7324C114.525 16.9355 114.838 17.0371 115.253 17.0371C115.667 17.0371 115.875 17.181 115.875 17.4688C115.875 17.748 115.608 17.8877 115.075 17.8877C114.846 17.8877 114.647 17.875 114.478 17.8496C114.317 17.8327 114.152 17.8158 113.983 17.7988C113.492 17.7311 113.056 17.6973 112.675 17.6973L110.225 17.8877C109.675 17.8877 109.4 17.7311 109.4 17.418C109.4 17.1641 109.552 17.0371 109.857 17.0371L110.619 17.126C110.94 17.126 111.152 17.0583 111.254 16.9229C111.355 16.779 111.406 16.6012 111.406 16.3896C111.406 15.9919 111.237 15.374 110.898 14.5361L109.844 11.8955H102.799C102.595 12.4033 102.405 12.8688 102.227 13.292C102.058 13.7152 101.901 14.1257 101.758 14.5234C101.529 15.1667 101.415 15.6745 101.415 16.0469C101.415 16.4108 101.478 16.6816 101.605 16.8594C101.741 17.0286 101.99 17.1133 102.354 17.1133L103.116 17.0498C103.421 17.0498 103.573 17.1725 103.573 17.418C103.573 17.7311 103.298 17.8877 102.748 17.8877L100.64 17.6973ZM109.413 10.8164L106.391 3.25C105.807 4.73112 104.762 7.25325 103.256 10.8164H109.413Z" fill="#122947"/>
<path d="M43.8933 22.3973C44.4393 22.3973 44.9133 22.4873 45.3153 22.6673C45.7233 22.8473 46.0353 23.1053 46.2513 23.4413C46.4673 23.7773 46.5753 24.1763 46.5753 24.6383C46.5753 25.0943 46.4673 25.4933 46.2513 25.8353C46.0353 26.1713 45.7233 26.4293 45.3153 26.6093C44.9133 26.7893 44.4393 26.8793 43.8933 26.8793H42.4713V28.6973H41.3013V22.3973H43.8933ZM43.8393 25.8893C44.3493 25.8893 44.7363 25.7813 45.0003 25.5653C45.2643 25.3493 45.3963 25.0403 45.3963 24.6383C45.3963 24.2363 45.2643 23.9273 45.0003 23.7113C44.7363 23.4953 44.3493 23.3873 43.8393 23.3873H42.4713V25.8893H43.8393Z" fill="#122947"/>
<path d="M52.7732 27.2393H49.6232L49.0022 28.6973H47.7962L50.6312 22.3973H51.7832L54.6272 28.6973H53.4032L52.7732 27.2393ZM52.3862 26.3213L51.1982 23.5673L50.0192 26.3213H52.3862Z" fill="#122947"/>
<path d="M60.8105 28.6973L59.5235 26.8523C59.4695 26.8583 59.3885 26.8613 59.2805 26.8613H57.8585V28.6973H56.6885V22.3973H59.2805C59.8265 22.3973 60.3005 22.4873 60.7025 22.6673C61.1105 22.8473 61.4225 23.1053 61.6385 23.4413C61.8545 23.7773 61.9625 24.1763 61.9625 24.6383C61.9625 25.1123 61.8455 25.5203 61.6115 25.8623C61.3835 26.2043 61.0535 26.4593 60.6215 26.6273L62.0705 28.6973H60.8105ZM60.7835 24.6383C60.7835 24.2363 60.6515 23.9273 60.3875 23.7113C60.1235 23.4953 59.7365 23.3873 59.2265 23.3873H57.8585V25.8983H59.2265C59.7365 25.8983 60.1235 25.7903 60.3875 25.5743C60.6515 25.3523 60.7835 25.0403 60.7835 24.6383Z" fill="#122947"/>
<path d="M64.5315 22.3973H65.7015V28.6973H64.5315V22.3973Z" fill="#122947"/>
<path d="M70.6185 28.7873C70.1325 28.7873 69.6615 28.7183 69.2055 28.5803C68.7555 28.4423 68.3985 28.2593 68.1345 28.0313L68.5395 27.1223C68.7975 27.3263 69.1125 27.4943 69.4845 27.6263C69.8625 27.7523 70.2405 27.8153 70.6185 27.8153C71.0865 27.8153 71.4345 27.7403 71.6625 27.5903C71.8965 27.4403 72.0135 27.2423 72.0135 26.9963C72.0135 26.8163 71.9475 26.6693 71.8155 26.5553C71.6895 26.4353 71.5275 26.3423 71.3295 26.2763C71.1315 26.2103 70.8615 26.1353 70.5195 26.0513C70.0395 25.9373 69.6495 25.8233 69.3495 25.7093C69.0555 25.5953 68.8005 25.4183 68.5845 25.1783C68.3745 24.9323 68.2695 24.6023 68.2695 24.1883C68.2695 23.8403 68.3625 23.5253 68.5485 23.2433C68.7405 22.9553 69.0255 22.7273 69.4035 22.5593C69.7875 22.3913 70.2555 22.3073 70.8075 22.3073C71.1915 22.3073 71.5695 22.3553 71.9415 22.4513C72.3135 22.5473 72.6345 22.6853 72.9045 22.8653L72.5355 23.7743C72.2595 23.6123 71.9715 23.4893 71.6715 23.4053C71.3715 23.3213 71.0805 23.2793 70.7985 23.2793C70.3365 23.2793 69.9915 23.3573 69.7635 23.5133C69.5415 23.6693 69.4305 23.8763 69.4305 24.1343C69.4305 24.3143 69.4935 24.4613 69.6195 24.5753C69.7515 24.6893 69.9165 24.7793 70.1145 24.8453C70.3125 24.9113 70.5825 24.9863 70.9245 25.0703C71.3925 25.1783 71.7765 25.2923 72.0765 25.4123C72.3765 25.5263 72.6315 25.7033 72.8415 25.9433C73.0575 26.1833 73.1655 26.5073 73.1655 26.9153C73.1655 27.2633 73.0695 27.5783 72.8775 27.8603C72.6915 28.1423 72.4065 28.3673 72.0225 28.5353C71.6385 28.7033 71.1705 28.7873 70.6185 28.7873Z" fill="#122947"/>
</svg>
