<svg width="35" height="35" viewBox="0 0 35 35" fill="none" xmlns="http://www.w3.org/2000/svg">
<g clip-path="url(#clip0)">
<path d="M29.2716 24.8685L27.314 22.8762C27.1139 22.6723 26.7948 22.6453 26.5633 22.8127L18.0342 29.0955L15.014 27.675L17.6646 27.3805C17.9562 27.3452 18.1748 27.0967 18.1727 26.803V24.3084C18.1727 23.9894 17.9142 23.7309 17.5953 23.7309H14.708L9.84574 23.2343C9.74713 23.2247 9.64767 23.2406 9.557 23.2805L6.24237 24.701H0V25.856H6.36364C6.44297 25.8566 6.52165 25.8409 6.59462 25.8098L9.88038 24.3719L14.6214 24.8569H17.0409V26.289L14.9043 26.5547L11.8033 26.2255C11.524 26.1986 11.2657 26.3765 11.1912 26.6471C11.116 26.9167 11.245 27.2014 11.4973 27.3227L17.9013 30.2678C18.0902 30.3537 18.3107 30.3317 18.4788 30.21L26.8751 24.0427L28.03 25.2438L18.3806 33.6748H15.7647L6.5542 30.2504C6.48981 30.225 6.42131 30.2113 6.35209 30.21H0V31.365H6.25392L15.4587 34.7951C15.5234 34.8186 15.5918 34.8303 15.6608 34.8297H18.5943C18.7347 34.8295 18.8702 34.7782 18.9754 34.6854L29.2427 25.7116C29.2524 25.7031 29.2619 25.6943 29.271 25.6852C29.4967 25.4598 29.4969 25.0941 29.2716 24.8685Z" fill="#122947"/>
<path d="M30.8078 14.6186L27.7588 11.4483C27.6617 11.3454 27.5302 11.2817 27.3892 11.2693L21.1527 10.6919H18.7735L18.889 8.95948L21.1469 8.50328L24.2998 9.20779C24.3648 9.21897 24.4312 9.21897 24.4962 9.20779L27.5625 8.84398L27.4239 7.68906L24.4557 8.00666L21.2797 7.30216C21.202 7.28209 21.1206 7.28209 21.0429 7.30216L18.2307 7.87962C17.9718 7.92921 17.7793 8.14778 17.763 8.41089L17.5782 11.2231C17.5774 11.235 17.5771 11.2469 17.5772 11.2588C17.5777 11.5777 17.8367 11.8358 18.1556 11.8352H21.1007L27.0716 12.3781L30.1437 15.5945C30.2522 15.7083 30.4024 15.773 30.5595 15.7735H34.6479V14.6186H30.8078Z" fill="#122947"/>
<path d="M29.8028 2.59601C29.739 2.54432 29.6638 2.50867 29.5834 2.49206L19.7665 0.182215C19.6002 0.147351 19.427 0.187484 19.293 0.291933L12.9409 4.91163L13.6223 5.84712L19.7608 1.38334L29.1965 3.60079L34.2955 7.56796L35 6.63824L29.8028 2.59601Z" fill="#122947"/>
<path d="M20.4251 3.71045C20.2745 3.64274 20.1022 3.64274 19.9516 3.71045L16.4868 5.44284L17.0065 6.47072L20.2403 4.8596L22.8851 5.93945L23.3124 4.86537L20.4251 3.71045Z" fill="#122947"/>
<path d="M14.454 10.109L13.4376 9.95888C12.9756 9.88958 12.7042 9.71057 12.7042 9.42184C12.7042 9.13311 13.1085 8.84438 13.6513 8.87325H14.0671C14.6099 8.87325 15.0141 9.16198 15.0141 9.42184V9.57775H16.169V9.42184C16.169 8.44015 15.2451 7.68945 14.0671 7.68945H13.6513C12.4733 7.68945 11.5493 8.44015 11.5493 9.42184C11.6441 10.3225 12.3775 11.0218 13.2817 11.0734L14.2807 11.2235C14.7427 11.2928 15.0141 11.5007 15.0141 11.7606C15.0141 12.0204 14.6099 12.3091 14.0671 12.3091H13.6513C13.1085 12.3091 12.7042 12.0204 12.7042 11.7606V11.6046H11.5493V11.7606C11.5493 12.7134 12.4964 13.4641 13.6513 13.4641H14.0671C15.2451 13.4641 16.169 12.7134 16.1863 11.7894C16.1049 10.8775 15.368 10.1626 14.454 10.109Z" fill="#122947"/>
<path d="M18.4383 11.1832C18.2283 12.7539 17.2279 14.1073 15.788 14.7689C13.4697 15.8341 10.7267 14.8181 9.66152 12.4997C8.59632 10.1814 9.6123 7.43843 11.9307 6.37323C14.249 5.30803 16.992 6.324 18.0572 8.64237L19.1024 8.1573C18.1586 6.11207 16.1117 4.80225 13.8592 4.80225C10.6699 4.80217 8.08447 7.38755 8.08447 10.5768C8.0844 13.7661 10.6698 16.3514 13.859 16.3515C16.7575 16.3565 19.2107 14.2122 19.5932 11.3391L18.4383 11.1832Z" fill="#122947"/>
<path d="M14.4367 7.1123H13.2817V8.26723H14.4367V7.1123Z" fill="#122947"/>
</g>
<defs>
<clipPath id="clip0">
<rect width="35" height="35" fill="white"/>
</clipPath>
</defs>
</svg>
