<svg width="35" height="35" viewBox="0 0 35 35" fill="none" xmlns="http://www.w3.org/2000/svg">
<path d="M8.1665 23.0415C6.23624 23.0415 4.6665 24.6112 4.6665 26.5415C4.6665 28.4718 6.23624 30.0415 8.1665 30.0415C10.0968 30.0415 11.6665 28.4718 11.6665 26.5415C11.6665 24.6112 10.0967 23.0415 8.1665 23.0415ZM8.1665 28.8748C6.87964 28.8748 5.83319 27.8283 5.83319 26.5415C5.83319 25.2546 6.87971 24.2082 8.1665 24.2082C9.4533 24.2082 10.4998 25.2547 10.4998 26.5415C10.4998 27.8283 9.4533 28.8748 8.1665 28.8748Z" fill="#122947"/>
<path d="M28 23.0415C26.0697 23.0415 24.5 24.6112 24.5 26.5415C24.5 28.4718 26.0697 30.0415 28 30.0415C29.9303 30.0415 31.5 28.4718 31.5 26.5415C31.5 24.6112 29.9303 23.0415 28 23.0415ZM28 28.8748C26.7131 28.8748 25.6667 27.8283 25.6667 26.5415C25.6667 25.2546 26.7132 24.2082 28 24.2082C29.2869 24.2082 30.3333 25.2547 30.3333 26.5415C30.3333 27.8283 29.2869 28.8748 28 28.8748Z" fill="#122947"/>
<path d="M34.9071 19.8095L29.6571 11.6428C29.5497 11.4759 29.3648 11.375 29.1664 11.375H22.7498C22.4272 11.375 22.1665 11.6363 22.1665 11.9583V26.5416C22.1665 26.8642 22.4272 27.1249 22.7498 27.1249H25.0831V25.9582H23.3331V12.5417H28.8479L33.8331 20.2965V25.9584H30.9164V27.125H34.4164C34.739 27.125 34.9997 26.8643 34.9997 26.5417V20.125C34.9998 20.0136 34.9678 19.9033 34.9071 19.8095Z" fill="#122947"/>
<path d="M25.6666 18.958V14.8747H30.3333V13.708H25.0833C24.7607 13.708 24.5 13.9693 24.5 14.2913V19.5413C24.5 19.8639 24.7607 20.1246 25.0833 20.1246H33.8333V18.9579H25.6666V18.958Z" fill="#122947"/>
<path d="M22.75 7.2915H0.583311C0.261338 7.2915 0 7.55284 0 7.87481V26.5415C0 26.8641 0.261338 27.1248 0.583311 27.1248H5.25V25.9581H1.16669V8.45812H22.1667V25.9581H11.0833V27.1248H22.75C23.0726 27.1248 23.3333 26.8641 23.3333 26.5415V7.87481C23.3333 7.55284 23.0726 7.2915 22.75 7.2915Z" fill="#122947"/>
<path d="M4.08301 23.625H0.583008V24.7917H4.08301V23.625Z" fill="#122947"/>
<path d="M22.1667 23.625H12.25V24.7917H22.1667V23.625Z" fill="#122947"/>
<path d="M34.4168 23.625H32.0835V24.7917H34.4168V23.625Z" fill="#122947"/>
<path d="M22.7497 9.625H2.33301V10.7917H22.7497V9.625Z" fill="#122947"/>
<path d="M8.7497 25.9585H7.58301V27.1252H8.7497V25.9585Z" fill="#122947"/>
<path d="M28.5832 25.9585H27.4165V27.1252H28.5832V25.9585Z" fill="#122947"/>
<path d="M10.4997 4.95801H2.33301V6.1247H10.4997V4.95801Z" fill="#122947"/>
<path d="M1.16669 4.95801H0V6.1247H1.16669V4.95801Z" fill="#122947"/>
</svg>
