<svg width="30" height="33" viewBox="0 0 30 33" fill="none" xmlns="http://www.w3.org/2000/svg">
<g clip-path="url(#clip0)">
<path d="M26.2479 8.80322H3.2258L0.424438 32.5807H29.5755L26.2479 8.80322Z" stroke="white" stroke-width="2" stroke-miterlimit="10" stroke-linecap="round" stroke-linejoin="round"/>
<path d="M8.38708 12.8699V6.55663C8.38708 3.16943 11.1715 0.419434 14.601 0.419434C18.0305 0.419434 20.8149 3.16943 20.8149 6.55663V12.9537" stroke="white" stroke-width="2" stroke-miterlimit="10" stroke-linecap="round" stroke-linejoin="round"/>
<path d="M8.30221 14.0769C8.83199 14.0769 9.26146 13.6528 9.26146 13.1295C9.26146 12.6063 8.83199 12.1821 8.30221 12.1821C7.77243 12.1821 7.34296 12.6063 7.34296 13.1295C7.34296 13.6528 7.77243 14.0769 8.30221 14.0769Z" fill="#FDFDFF"/>
<path d="M20.8235 14.0769C21.3532 14.0769 21.7827 13.6528 21.7827 13.1295C21.7827 12.6063 21.3532 12.1821 20.8235 12.1821C20.2937 12.1821 19.8642 12.6063 19.8642 13.1295C19.8642 13.6528 20.2937 14.0769 20.8235 14.0769Z" fill="#FDFDFF"/>
</g>
<defs>
<clipPath id="clip0">
<rect width="30" height="33" fill="white"/>
</clipPath>
</defs>
</svg>
