<svg width="145" height="45" viewBox="0 0 145 45" fill="none" xmlns="http://www.w3.org/2000/svg">
<path d="M30.38 10.6001C30.38 12.5834 29.68 14.2984 28.28 15.7451C26.88 17.1684 24.8383 18.1951 22.155 18.8251C23.6016 19.2218 24.6983 19.8751 25.445 20.7851C26.1916 21.6718 26.565 22.6984 26.565 23.8651C26.565 25.7084 25.9816 27.3068 24.815 28.6601C23.6716 30.0134 21.9916 31.0634 19.775 31.8101C17.5583 32.5334 14.8866 32.8951 11.76 32.8951C10.5933 32.8951 9.65995 32.8601 8.95995 32.7901C8.93662 33.4434 8.65662 33.9334 8.11995 34.2601C7.58328 34.5868 6.89495 34.7501 6.05495 34.7501C5.21495 34.7501 4.63162 34.5634 4.30495 34.1901C4.00162 33.8168 3.87328 33.2684 3.91995 32.5451C4.12995 29.2784 4.53828 25.8601 5.14495 22.2901C5.75162 18.6968 6.52162 15.2318 7.45495 11.8951C7.61828 11.3118 7.94495 10.9034 8.43495 10.6701C8.92495 10.4368 9.56662 10.3201 10.36 10.3201C11.7833 10.3201 12.495 10.7168 12.495 11.5101C12.495 11.8368 12.425 12.2101 12.285 12.6301C11.6783 14.4501 11.0716 16.9234 10.465 20.0501C9.85828 23.1534 9.42662 26.1168 9.16995 28.9401C10.29 29.0334 11.2 29.0801 11.9 29.0801C15.1666 29.0801 17.5583 28.6134 19.075 27.6801C20.615 26.7234 21.385 25.5101 21.385 24.0401C21.385 23.0134 20.9416 22.1501 20.055 21.4501C19.1916 20.7501 17.7333 20.3651 15.68 20.2951C15.2133 20.2718 14.8866 20.1551 14.7 19.9451C14.5133 19.7351 14.42 19.3968 14.42 18.9301C14.42 18.2534 14.56 17.7051 14.84 17.2851C15.12 16.8651 15.6333 16.6434 16.38 16.6201C18.0366 16.5734 19.53 16.3284 20.86 15.8851C22.2133 15.4418 23.275 14.8234 24.045 14.0301C24.815 13.2134 25.2 12.2684 25.2 11.1951C25.2 9.84176 24.535 8.7801 23.205 8.0101C21.875 7.21676 19.8333 6.8201 17.08 6.8201C14.5833 6.8201 12.1683 7.14677 9.83495 7.8001C7.50162 8.4301 5.51828 9.2351 3.88495 10.2151C3.13828 10.6584 2.50828 10.8801 1.99495 10.8801C1.57495 10.8801 1.24828 10.7401 1.01495 10.4601C0.804951 10.1568 0.699951 9.78343 0.699951 9.3401C0.699951 8.75676 0.816618 8.2551 1.04995 7.8351C1.30662 7.4151 1.90162 6.93676 2.83495 6.4001C4.79495 5.2801 7.09328 4.4051 9.72995 3.7751C12.3666 3.1451 15.0616 2.8301 17.815 2.8301C22.0383 2.8301 25.1883 3.54176 27.265 4.9651C29.3416 6.38843 30.38 8.26677 30.38 10.6001Z" fill="white"/>
<path d="M34.5666 33.1751C33.5166 33.1751 32.6532 32.6968 31.9766 31.7401C31.3232 30.7601 30.9966 29.5468 30.9966 28.1001C30.9966 26.3501 31.1132 24.7518 31.3466 23.3051C31.5799 21.8351 31.9649 20.2834 32.5016 18.6501C32.7349 17.9501 33.0616 17.4484 33.4816 17.1451C33.9016 16.8418 34.5666 16.6901 35.4766 16.6901C35.9899 16.6901 36.3399 16.7718 36.5266 16.9351C36.7365 17.0984 36.8416 17.3434 36.8416 17.6701C36.8416 17.8568 36.7132 18.4868 36.4566 19.5601C36.2232 20.4234 36.0366 21.2051 35.8966 21.9051C35.4299 24.3551 35.1966 25.9884 35.1966 26.8051C35.1966 27.2951 35.2549 27.6451 35.3716 27.8551C35.4882 28.0418 35.6749 28.1351 35.9316 28.1351C36.2816 28.1351 36.7132 27.7851 37.2266 27.0851C37.7632 26.3851 38.3232 25.3234 38.9066 23.9001C39.5132 22.4768 40.0965 20.7268 40.6566 18.6501C40.8432 17.9501 41.1232 17.4484 41.4966 17.1451C41.8932 16.8418 42.4766 16.6901 43.2466 16.6901C43.7832 16.6901 44.1566 16.7601 44.3666 16.9001C44.5765 17.0168 44.6816 17.2501 44.6816 17.6001C44.6816 18.1834 44.3899 19.7818 43.8066 22.3951C43.1532 25.3818 42.8266 27.2251 42.8266 27.9251C42.8266 28.3684 42.9199 28.7184 43.1066 28.9751C43.2932 29.2084 43.5382 29.3251 43.8416 29.3251C44.3082 29.3251 44.8566 29.0451 45.4866 28.4851C46.1399 27.9018 47.0032 26.9684 48.0766 25.6851C48.3566 25.3584 48.6716 25.1951 49.0216 25.1951C49.3249 25.1951 49.5582 25.3351 49.7215 25.6151C49.9082 25.8951 50.0016 26.2801 50.0016 26.7701C50.0016 27.7034 49.7799 28.4268 49.3366 28.9401C48.3332 30.1768 47.2482 31.1918 46.0816 31.9851C44.9382 32.7784 43.6316 33.1751 42.1616 33.1751C41.0416 33.1751 40.2132 32.7434 39.6766 31.8801C39.1632 31.0168 38.9066 29.8034 38.9066 28.2401C38.5099 29.8268 37.9149 31.0518 37.1216 31.9151C36.3282 32.7551 35.4766 33.1751 34.5666 33.1751Z" fill="white"/>
<path d="M54.7235 33.9451C53.5102 33.9451 52.5769 33.6651 51.9235 33.1051C51.2935 32.5451 50.9785 31.9151 50.9785 31.2151C50.9785 30.6084 51.2002 30.0834 51.6435 29.6401C52.0869 29.1968 52.7402 28.9751 53.6035 28.9751C53.9069 28.9751 54.2569 29.0101 54.6535 29.0801C55.0735 29.1268 55.3885 29.1618 55.5985 29.1851C55.5752 28.5784 55.4352 28.0068 55.1785 27.4701C54.9452 26.9334 54.6419 26.4201 54.2685 25.9301C53.8952 25.4168 53.5452 24.9734 53.2185 24.6001C52.4952 25.9768 51.7719 27.1201 51.0485 28.0301C50.3485 28.9401 49.5785 29.8034 48.7385 30.6201C48.3185 31.0401 47.8752 31.2501 47.4085 31.2501C47.0352 31.2501 46.7319 31.1218 46.4985 30.8651C46.2652 30.5851 46.1485 30.2468 46.1485 29.8501C46.1485 29.3834 46.3119 28.9518 46.6385 28.5551L47.0935 27.9951C48.3769 26.4084 49.3452 25.1018 49.9985 24.0751C50.3952 23.3984 50.8619 22.5001 51.3985 21.3801C51.9352 20.2368 52.4602 19.0584 52.9735 17.8451C53.4169 16.8184 54.3385 16.3051 55.7385 16.3051C56.3919 16.3051 56.8469 16.3634 57.1035 16.4801C57.3602 16.5968 57.4885 16.7834 57.4885 17.0401C57.4885 17.1801 57.4419 17.4018 57.3485 17.7051C57.2552 18.0084 57.1269 18.3118 56.9635 18.6151C56.5435 19.4551 56.3335 20.1668 56.3335 20.7501C56.3335 21.1001 56.4502 21.4851 56.6835 21.9051C56.9402 22.3251 57.3252 22.8501 57.8385 23.4801C58.5852 24.4601 59.1452 25.3001 59.5185 26.0001C59.9152 26.6768 60.1135 27.4234 60.1135 28.2401C60.1135 28.4734 60.0902 28.8001 60.0435 29.2201C61.1869 28.7768 62.5285 27.5984 64.0685 25.6851C64.3485 25.3584 64.6636 25.1951 65.0135 25.1951C65.3169 25.1951 65.5502 25.3351 65.7135 25.6151C65.9002 25.8951 65.9935 26.2801 65.9935 26.7701C65.9935 27.6568 65.7719 28.3801 65.3285 28.9401C64.1619 30.3868 63.0419 31.3784 61.9685 31.9151C60.9185 32.4284 59.6119 32.7084 58.0485 32.7551C57.1152 33.5484 56.0069 33.9451 54.7235 33.9451Z" fill="white"/>
<path d="M79.8101 25.1951C80.1134 25.1951 80.3467 25.3351 80.5101 25.6151C80.6967 25.8951 80.7901 26.2801 80.7901 26.7701C80.7901 27.7034 80.5684 28.4268 80.1251 28.9401C79.1217 30.1768 78.0251 31.1918 76.8351 31.9851C75.6451 32.7784 74.2801 33.1751 72.7401 33.1751C67.9801 33.1751 65.6001 29.8268 65.6001 23.1301C65.6001 22.1034 65.6351 21.0651 65.7051 20.0151H64.3401C63.6401 20.0151 63.1617 19.8868 62.9051 19.6301C62.6717 19.3734 62.5551 18.9651 62.5551 18.4051C62.5551 17.0984 63.0801 16.4451 64.1301 16.4451H66.1251C66.5217 13.8784 67.1284 11.5334 67.9451 9.4101C68.7617 7.28677 69.7417 5.5951 70.8851 4.3351C72.0517 3.0751 73.3001 2.4451 74.6301 2.4451C75.6101 2.4451 76.3801 2.87677 76.9401 3.7401C77.5001 4.60343 77.7801 5.68843 77.7801 6.9951C77.7801 10.6118 76.2634 13.7618 73.2301 16.4451H77.1501C77.5234 16.4451 77.7917 16.5268 77.9551 16.6901C78.1184 16.8534 78.2001 17.1568 78.2001 17.6001C78.2001 19.2101 76.8817 20.0151 74.2451 20.0151H69.9751C69.9284 21.1818 69.9051 22.0918 69.9051 22.7451C69.9051 25.1718 70.1851 26.8751 70.7451 27.8551C71.3284 28.8351 72.2384 29.3251 73.4751 29.3251C74.4784 29.3251 75.3651 29.0218 76.1351 28.4151C76.9051 27.8084 77.8151 26.8984 78.8651 25.6851C79.1451 25.3584 79.4601 25.1951 79.8101 25.1951ZM73.6851 5.8051C73.3351 5.8051 72.9384 6.24843 72.4951 7.1351C72.0751 7.99843 71.6667 9.21176 71.2701 10.7751C70.8967 12.3151 70.5817 14.0301 70.3251 15.9201C71.7017 14.7301 72.7284 13.4001 73.4051 11.9301C74.1051 10.4368 74.4551 9.08343 74.4551 7.8701C74.4551 6.49343 74.1984 5.8051 73.6851 5.8051Z" fill="white"/>
<path d="M83.5753 14.3801C82.5953 14.3801 81.8603 14.1584 81.3703 13.7151C80.8803 13.2484 80.6353 12.6068 80.6353 11.7901C80.6353 10.9734 80.9503 10.2968 81.5803 9.7601C82.2336 9.2001 83.0386 8.9201 83.9953 8.9201C84.8586 8.9201 85.5586 9.1301 86.0953 9.5501C86.632 9.9701 86.9003 10.5651 86.9003 11.3351C86.9003 12.2684 86.597 13.0151 85.9903 13.5751C85.3836 14.1118 84.5786 14.3801 83.5753 14.3801ZM83.2953 33.1751C81.7786 33.1751 80.6703 32.6384 79.9703 31.5651C79.2936 30.4918 78.9553 29.0684 78.9553 27.2951C78.9553 26.2451 79.0836 24.9034 79.3403 23.2701C79.6203 21.6134 79.9703 20.0734 80.3903 18.6501C80.6003 17.9034 80.8803 17.3901 81.2303 17.1101C81.5803 16.8301 82.1403 16.6901 82.9103 16.6901C84.1003 16.6901 84.6953 17.0868 84.6953 17.8801C84.6953 18.4634 84.4736 19.8168 84.0303 21.9401C83.4703 24.5068 83.1903 26.2451 83.1903 27.1551C83.1903 27.8551 83.2836 28.3918 83.4703 28.7651C83.657 29.1384 83.972 29.3251 84.4153 29.3251C84.8353 29.3251 85.3603 29.0334 85.9903 28.4501C86.6203 27.8668 87.4603 26.9451 88.5103 25.6851C88.7903 25.3584 89.1053 25.1951 89.4553 25.1951C89.7586 25.1951 89.992 25.3351 90.1553 25.6151C90.342 25.8951 90.4353 26.2801 90.4353 26.7701C90.4353 27.7034 90.2136 28.4268 89.7703 28.9401C87.4603 31.7634 85.302 33.1751 83.2953 33.1751Z" fill="white"/>
<path d="M102.277 23.2001C102.93 23.2001 103.257 23.6901 103.257 24.6701C103.257 26.5134 101.81 27.4351 98.9168 27.4351C98.3568 27.4351 97.5518 27.3301 96.5018 27.1201C96.8051 28.5668 97.0501 30.1768 97.2368 31.9501C97.4468 33.7001 97.5518 35.1468 97.5518 36.2901C97.5518 38.8101 97.1435 40.7351 96.3268 42.0651C95.5101 43.3951 94.4368 44.0601 93.1068 44.0601C91.4268 44.0601 90.2251 42.8701 89.5018 40.4901C88.8018 38.1101 88.4518 34.5168 88.4518 29.7101C88.4518 25.2301 88.9301 20.6918 89.8868 16.0951C90.8668 11.4751 92.1968 7.6601 93.8768 4.6501C95.5801 1.61676 97.4468 0.100098 99.4768 0.100098C100.573 0.100098 101.425 0.590097 102.032 1.5701C102.662 2.5501 102.977 3.86843 102.977 5.5251C102.977 11.0084 99.6985 16.9818 93.1418 23.4451C92.9085 25.7318 92.7918 27.7384 92.7918 29.4651C92.7918 31.8684 92.8735 34.3301 93.0368 36.8501C93.2001 39.3934 93.4685 40.6651 93.8418 40.6651C94.5418 40.6651 94.8918 39.4518 94.8918 37.0251C94.8918 35.2051 94.7635 33.4434 94.5068 31.7401C94.2735 30.0368 93.9468 28.2401 93.5268 26.3501C93.5035 26.0468 93.5968 25.6618 93.8068 25.1951C94.0401 24.7284 94.3201 24.3201 94.6468 23.9701C94.9735 23.6201 95.2651 23.4451 95.5218 23.4451C95.9885 23.4451 96.5485 23.4684 97.2018 23.5151C97.4118 23.5384 97.6568 23.5501 97.9368 23.5501C98.8701 23.5501 99.9085 23.4684 101.052 23.3051C101.238 23.2818 101.437 23.2584 101.647 23.2351C101.857 23.2118 102.067 23.2001 102.277 23.2001ZM98.7418 3.5651C98.3218 3.5651 97.7968 4.27676 97.1668 5.7001C96.5601 7.12343 95.9535 9.01343 95.3468 11.3701C94.7401 13.7034 94.2151 16.1768 93.7718 18.7901C95.6385 16.6668 97.0735 14.4618 98.0768 12.1751C99.0801 9.8651 99.5935 7.70677 99.6168 5.7001C99.6168 4.27676 99.3251 3.5651 98.7418 3.5651Z" fill="white"/>
<path d="M105.236 33.1751C104.186 33.1751 103.323 32.6968 102.646 31.7401C101.993 30.7601 101.666 29.5468 101.666 28.1001C101.666 26.3501 101.783 24.7518 102.016 23.3051C102.25 21.8351 102.635 20.2834 103.171 18.6501C103.405 17.9501 103.731 17.4484 104.151 17.1451C104.571 16.8418 105.236 16.6901 106.146 16.6901C106.66 16.6901 107.01 16.7718 107.196 16.9351C107.406 17.0984 107.511 17.3434 107.511 17.6701C107.511 17.8568 107.383 18.4868 107.126 19.5601C106.893 20.4234 106.706 21.2051 106.566 21.9051C106.1 24.3551 105.866 25.9884 105.866 26.8051C105.866 27.2951 105.925 27.6451 106.041 27.8551C106.158 28.0418 106.345 28.1351 106.601 28.1351C106.951 28.1351 107.383 27.7851 107.896 27.0851C108.433 26.3851 108.993 25.3234 109.576 23.9001C110.183 22.4768 110.766 20.7268 111.326 18.6501C111.513 17.9501 111.793 17.4484 112.166 17.1451C112.563 16.8418 113.146 16.6901 113.916 16.6901C114.453 16.6901 114.826 16.7601 115.036 16.9001C115.246 17.0168 115.351 17.2501 115.351 17.6001C115.351 18.1834 115.06 19.7818 114.476 22.3951C113.823 25.3818 113.496 27.2251 113.496 27.9251C113.496 28.3684 113.59 28.7184 113.776 28.9751C113.963 29.2084 114.208 29.3251 114.511 29.3251C114.978 29.3251 115.526 29.0451 116.156 28.4851C116.81 27.9018 117.673 26.9684 118.746 25.6851C119.026 25.3584 119.341 25.1951 119.691 25.1951C119.995 25.1951 120.228 25.3351 120.391 25.6151C120.578 25.8951 120.671 26.2801 120.671 26.7701C120.671 27.7034 120.45 28.4268 120.006 28.9401C119.003 30.1768 117.918 31.1918 116.751 31.9851C115.608 32.7784 114.301 33.1751 112.831 33.1751C111.711 33.1751 110.883 32.7434 110.346 31.8801C109.833 31.0168 109.576 29.8034 109.576 28.2401C109.18 29.8268 108.585 31.0518 107.791 31.9151C106.998 32.7551 106.146 33.1751 105.236 33.1751Z" fill="white"/>
<path d="M132.148 25.1951C132.452 25.1951 132.685 25.3351 132.848 25.6151C133.035 25.8951 133.128 26.2801 133.128 26.7701C133.128 27.7034 132.907 28.4268 132.463 28.9401C131.46 30.1768 130.363 31.1918 129.173 31.9851C128.007 32.7784 126.677 33.1751 125.183 33.1751C123.13 33.1751 121.602 32.2418 120.598 30.3751C119.618 28.5084 119.128 26.0934 119.128 23.1301C119.128 20.2834 119.49 17.0401 120.213 13.4001C120.96 9.7601 122.045 6.63343 123.468 4.0201C124.915 1.40676 126.63 0.100098 128.613 0.100098C129.733 0.100098 130.608 0.625098 131.238 1.6751C131.892 2.70177 132.218 4.18343 132.218 6.1201C132.218 8.89676 131.448 12.1168 129.908 15.7801C128.368 19.4434 126.28 23.0718 123.643 26.6651C123.807 27.6218 124.075 28.3101 124.448 28.7301C124.822 29.1268 125.312 29.3251 125.918 29.3251C126.875 29.3251 127.715 29.0568 128.438 28.5201C129.162 27.9601 130.083 27.0151 131.203 25.6851C131.483 25.3584 131.798 25.1951 132.148 25.1951ZM127.843 3.5651C127.307 3.5651 126.7 4.53343 126.023 6.4701C125.347 8.40676 124.752 10.8101 124.238 13.6801C123.725 16.5501 123.445 19.3034 123.398 21.9401C125.055 19.2101 126.373 16.4801 127.353 13.7501C128.333 10.9968 128.823 8.48843 128.823 6.2251C128.823 4.45177 128.497 3.5651 127.843 3.5651Z" fill="white"/>
<path d="M141.464 28.0651C141.721 27.8318 141.978 27.7151 142.234 27.7151C142.514 27.7151 142.736 27.8784 142.899 28.2051C143.086 28.5084 143.179 28.8818 143.179 29.3251C143.179 30.3051 142.829 31.0868 142.129 31.6701C140.916 32.6734 139.539 33.1751 137.999 33.1751C135.783 33.1751 134.161 32.2534 133.134 30.4101C132.108 28.5434 131.594 26.1168 131.594 23.1301C131.594 20.2834 131.956 17.0401 132.679 13.4001C133.426 9.7601 134.511 6.63343 135.934 4.0201C137.381 1.40676 139.096 0.100098 141.079 0.100098C142.199 0.100098 143.074 0.625098 143.704 1.6751C144.358 2.70177 144.684 4.18343 144.684 6.1201C144.684 8.89676 143.914 12.1168 142.374 15.7801C140.858 19.4434 138.781 23.0601 136.144 26.6301C136.308 27.5868 136.599 28.2751 137.019 28.6951C137.439 29.1151 138.011 29.3251 138.734 29.3251C139.131 29.3251 139.574 29.2084 140.064 28.9751C140.578 28.7418 141.044 28.4384 141.464 28.0651ZM140.309 3.5651C139.773 3.5651 139.166 4.53343 138.489 6.4701C137.813 8.40676 137.218 10.8101 136.704 13.6801C136.191 16.5501 135.911 19.3034 135.864 21.9401C137.521 19.2101 138.839 16.4801 139.819 13.7501C140.799 10.9968 141.289 8.48843 141.289 6.2251C141.289 4.45177 140.963 3.5651 140.309 3.5651Z" fill="white"/>
</svg>
